<svg width="348" height="220" viewBox="0 0 348 220" fill="none" xmlns="http://www.w3.org/2000/svg">
<path d="M274.718 93.2257C274.788 88.449 274.411 83.8402 274.678 78.9199C274.933 81.0517 274.8 87.1065 274.806 89.5611C277.844 89.6338 281.864 89.8881 284.907 90.2214C286.217 89.4784 287.041 89.2465 288.511 89.7866C289.026 87.7951 289.419 86.7649 291.229 85.6729C293.289 84.4305 295.442 85.34 296.69 87.2569C297.069 87.8395 296.909 89.3773 297.238 89.8478L297.467 89.7797C299.699 89.1267 301.08 89.6713 302.078 91.8937C305.017 92.2942 336.642 95.7439 325.172 102.083C318.71 105.652 306.24 107.339 299.372 111.624C293.903 114.872 293.606 120.564 287.937 124.961C273.207 136.388 255.021 143.195 237.669 148.976C220.786 154.475 203.686 159.24 186.419 163.26C180.66 164.621 174.896 165.949 169.123 167.241C167.937 167.503 162.62 168.524 161.939 168.815C162.67 169.858 162.98 170.387 163.436 171.608C166.714 172.061 174.741 173.515 177.136 175.839C177.602 176.292 177.986 176.854 177.978 177.541C177.97 178.107 177.661 178.595 177.285 178.98C168.295 188.141 114.811 192.589 100.989 193.291C90.3021 193.832 79.6419 193.807 68.9473 193.694C98.8162 166.422 139.335 155.765 177.445 147.798C198.419 143.414 219.547 139.885 240.522 135.497C252.805 132.927 277.133 127.273 287.34 120.148C289.829 118.411 292.76 115.927 293.313 112.711C293.582 111.148 293.172 109.613 292.288 108.33C288.431 102.732 277.012 100.793 270.873 99.7871C268.772 99.4432 260.392 97.9621 259.253 98.8172C258.954 97.3947 256.847 97.0156 255.694 96.5158C254.942 96.1902 253.19 97.5986 252.469 98.0783C251.627 99.0404 250.752 100.015 249.938 100.999L250.083 101.314C250.951 101.68 250.808 102.009 251.336 102.657C252.59 104.199 254.291 105.28 255.748 106.538C255.802 107.235 255.852 107.319 255.507 107.873L255.248 108.249C255.195 109.236 255.197 109.92 254.92 110.871C254.076 112.415 253.825 112.591 252.763 113.899L253.098 114.638C253.236 115.192 253.361 115.745 253.53 116.288C253.833 117.859 253.825 119.646 254.852 120.548C255.957 120.305 259.928 120.824 260.7 121.894C259.739 124.269 223.155 125.273 221.624 121.874C222.291 120.821 224.515 120.795 225.795 120.187C225.782 118.306 225.786 117.134 226.056 115.271C227.476 114.236 227.679 114.057 228.256 112.347L227.472 109.65C226.855 109.531 222.839 109.7 221.911 109.673C218.293 109.568 214.577 109.634 210.961 109.394C210.828 108.598 210.75 107.239 210.675 106.394C210.356 103.523 210.123 100.643 209.974 97.7577C209.733 97.0924 208.887 89.0385 208.761 87.9117C209.432 88.1047 215.384 87.9872 216.509 87.9936C224.744 87.9977 232.979 88.0539 241.213 88.1628C251.487 88.3288 261.614 88.9776 271.797 89.2273L271.902 89.4848L271.817 91.211C271.849 92.6998 271.803 94.4114 273.426 95.0338C274.154 94.7914 274.573 93.983 274.718 93.2257Z" fill="#FCFCFC"/>
<path d="M210.426 97.1673C210.849 96.6986 211.124 96.7474 211.803 96.7292C217.546 96.5753 249.872 96.221 253.013 97.4782C252.169 98.4116 251.293 99.357 250.477 100.311L250.623 100.616C251.493 100.972 251.349 101.29 251.878 101.919C253.135 103.414 254.839 104.462 256.3 105.683C256.353 106.358 256.404 106.44 256.058 106.977L255.799 107.342C255.745 108.298 255.747 108.962 255.47 109.884C254.624 111.381 254.372 111.552 253.308 112.821L253.644 113.538C253.782 114.074 253.907 114.61 254.077 115.137C254.38 116.661 254.372 118.394 255.402 119.268C256.509 119.032 260.488 119.537 261.262 120.574C260.299 122.877 223.636 123.85 222.101 120.554C222.77 119.533 224.999 119.508 226.282 118.917C226.268 117.095 226.272 115.958 226.543 114.151C227.966 113.147 228.169 112.974 228.748 111.316L227.962 108.7C227.343 108.584 223.319 108.749 222.389 108.723C218.763 108.621 215.039 108.685 211.416 108.452C211.282 107.68 211.204 106.362 211.128 105.543C210.809 102.759 210.576 99.9659 210.426 97.1673Z" fill="#004E49"/>
<path d="M210.426 97.1673C210.849 96.6986 211.124 96.7474 211.803 96.7292C217.546 96.5753 249.872 96.221 253.013 97.4782C252.169 98.4116 251.293 99.357 250.477 100.311L250.623 100.616L250.138 101.031C248.91 101.415 245.361 102.676 244.441 102.696C238.374 102.829 236.864 100.128 230.572 102.487C225.566 101.655 226.705 101.533 223.775 98.1016L223.456 98.1424C222.889 99.0457 222.626 100.871 222.884 101.91C223.504 104.411 226.176 105.082 228.351 105.36C228.389 105.788 228.413 105.79 228.299 106.197C227.964 106.921 227.996 107.886 227.962 108.7C227.343 108.584 223.319 108.749 222.389 108.723C218.763 108.621 215.039 108.685 211.416 108.452C211.282 107.68 211.204 106.362 211.128 105.543C210.809 102.759 210.576 99.9658 210.426 97.1673Z" fill="white"/>
<path d="M211.131 105.543C216.678 105.572 222.85 105.474 228.302 106.197C227.967 106.921 227.999 107.886 227.965 108.701C227.346 108.585 223.321 108.749 222.392 108.723C218.766 108.621 215.042 108.685 211.418 108.453C211.285 107.68 211.207 106.362 211.131 105.543Z" fill="#E5F4F4"/>
<path d="M249.934 114.524C250.461 113.901 252.491 113.041 253.309 112.82L253.644 113.537C253.782 114.074 253.908 114.61 254.077 115.137C254.38 116.66 254.372 118.394 255.402 119.268C256.51 119.032 260.489 119.536 261.263 120.573C260.299 122.877 223.636 123.85 222.102 120.554C222.77 119.533 224.999 119.507 226.282 118.918C226.709 120.141 227.218 120.695 228.553 120.279C228.85 119.699 228.817 119.969 228.623 119.272C230.082 119.047 232.239 118.967 233.731 118.885C234.124 119.368 234.549 119.87 234.923 120.365C235.745 120.39 236.563 120.51 237.281 120.173C237.493 119.569 237.253 119.361 236.814 118.926C238.195 118.51 242.697 118.633 244.485 118.536C244.862 119.293 245.265 120.235 246.113 120.533C246.746 120.318 246.528 120.423 247.015 119.894C247.149 118.934 246.768 119.168 247.053 118.916C248.518 117.314 248.745 116.17 249.934 114.524Z" fill="#E5F4F4"/>
<path d="M249.936 114.524C250.462 113.901 252.492 113.041 253.31 112.82L253.645 113.537C253.783 114.074 253.908 114.61 254.078 115.137C254.381 116.66 254.373 118.394 255.403 119.268C254.87 120.84 253.338 120.7 252.717 118.949C252.224 117.449 250.893 115.803 249.936 114.524Z" fill="#229B94"/>
<path d="M247.055 118.916C248.519 117.314 248.747 116.17 249.936 114.523C250.894 115.803 252.225 117.449 252.718 118.949C250.83 118.897 248.942 118.886 247.055 118.916Z" fill="white"/>
<path d="M236.751 113.282C240.69 114.204 242.512 114.883 246.589 114.578C246.229 116.768 246.443 117.264 244.485 118.537C242.697 118.633 238.196 118.511 236.815 118.926C233.706 118 235.937 115.021 236.751 113.282Z" fill="white"/>
<path d="M228.75 111.314C230.093 111.727 231.2 113.412 231.781 114.627L232.069 115.129C231.915 117.326 232.074 117.468 233.733 118.884C232.24 118.966 230.083 119.046 228.624 119.271C228.818 119.968 228.852 119.698 228.554 120.278C227.22 120.694 226.711 120.14 226.284 118.917C226.27 117.093 226.274 115.957 226.545 114.151C227.968 113.146 228.171 112.973 228.75 111.314Z" fill="#229B94"/>
<path d="M231.778 114.63L232.066 115.131C231.912 117.329 232.071 117.471 233.729 118.886C232.237 118.968 230.08 119.049 228.621 119.274C227.945 118.427 228.374 117.33 228.563 116.312C229.912 115.723 230.541 115.464 231.778 114.63Z" fill="white"/>
<path d="M232.065 115.129C232.371 114.919 233.245 114.608 233.606 114.479C235.743 113.714 236.158 112.795 237.321 111.012C237.722 111.28 239.706 112.638 239.961 112.715C242.246 113.402 244.313 113.227 246.451 112.495L246.646 112.685C246.71 113.44 246.802 113.848 246.586 114.577C242.509 114.882 240.688 114.203 236.749 113.282C235.934 115.02 233.704 118 236.812 118.926C237.251 119.361 237.491 119.57 237.279 120.173C236.561 120.51 235.743 120.39 234.921 120.365C234.547 119.869 234.123 119.368 233.729 118.885C232.071 117.468 231.912 117.326 232.065 115.129Z" fill="#229B94"/>
<path d="M250.139 101.031L250.623 100.617C251.493 100.972 251.35 101.29 251.879 101.92C253.136 103.415 254.84 104.463 256.301 105.683C256.354 106.358 256.404 106.44 256.059 106.977C253.746 105.636 250.454 103.911 250.139 101.031Z" fill="#006862"/>
<path d="M134.869 164.576C134.892 161.932 135.6 159.665 137.473 157.737C139.194 155.939 141.567 154.912 144.055 154.888C150.176 154.801 153.057 159.262 153.086 164.911C156.535 162.96 159.466 163.441 162.287 166.076C163.019 167.087 163.329 167.6 163.787 168.784C164.011 170.331 164.166 171.227 163.751 172.738C163.732 172.803 163.715 172.869 163.694 172.933C163.482 173.59 163.027 174.327 162.396 174.638C161.313 175.169 127.316 175.155 126.239 174.708C125.458 174.382 125.117 173.382 124.808 172.664C123.821 165.999 128.557 162.175 134.869 164.576Z" fill="#BAE6CC"/>
<path d="M289.132 89.4388C289.649 87.5076 290.042 86.5086 291.856 85.4492C293.921 84.2448 296.078 85.1268 297.329 86.9857C297.709 87.5507 297.549 89.0419 297.878 89.4982L298.108 89.4322C300.344 88.7989 301.729 89.3271 302.729 91.4822C302.715 92.0746 302.721 92.7908 302.681 93.3708L302.256 93.9668C300.919 94.7871 287.972 94.3463 285.54 94.2488C285.051 94.2293 284.806 93.6164 284.55 93.1934C284.532 91.5527 284.66 91.2276 285.52 89.8605C286.833 89.1399 287.659 88.9151 289.132 89.4388Z" fill="#BAE6CC"/>
<path d="M124.808 172.663C125.116 173.381 125.458 174.381 126.238 174.707C127.315 175.154 161.313 175.168 162.395 174.637C163.026 174.326 163.481 173.589 163.693 172.932C163.714 172.868 163.731 172.803 163.75 172.737C165.158 172.855 167.977 173.092 168.396 174.645C166.452 178.246 122.416 178.685 119.648 174.515L119.749 174.17C120.741 173.202 123.367 172.93 124.808 172.663Z" fill="#E5F4F4"/>
<path d="M84.1665 69.6514C84.3417 72.7244 84.2375 76.5335 84.2339 79.6513L84.2184 97.0354C90.9928 95.8891 97.7951 94.9136 104.618 94.1096C107.832 93.7105 125.763 92.0073 126.944 91.4689C127.474 92.005 127.638 92.1957 128.368 92.2281C128.9 91.739 128.711 91.3434 129.054 90.3985L129.395 90.3222L129.418 91.0818L129.743 91.1869C130.856 91.0676 131.647 90.9914 132.762 90.9878L132.996 90.8353C131.778 88.4983 132.114 86.561 132.642 84.1739C135.837 85.287 139.652 85.6714 142.907 84.6298C143.003 86.4865 143.288 88.2332 143.559 90.0694C145.611 89.7648 148.504 89.8038 150.698 89.6854C154.936 89.4571 159.32 89.0819 163.548 89.0025L163.789 87.9587C163.159 85.8497 163.184 85.2746 163.418 83.0658C166.973 84.3322 169.114 84.2174 172.833 83.9864C173.049 84.6396 173.332 86.1277 173.454 86.4244L173.582 86.5197C174.105 86.9029 174.228 86.9747 174.823 87.2155L175.09 87.6838C175.873 91.3807 177.449 97.8128 177.908 101.347C178.033 103.232 178.221 104.812 178.472 106.687C178.58 107.448 178.899 110.13 179.053 110.752C179.227 111.892 180.077 116.83 179.853 117.71C179.887 118.318 179.877 118.36 180.121 118.906C182.685 120.254 183.954 119.442 185.221 120.404L185.375 120.711C186.021 120.867 186.893 120.99 187.368 121.395L187.426 121.758C185.437 123.491 172.66 123.615 169.523 123.686C168.551 123.708 164.424 123.572 163.805 123.824C163.061 122.834 161.982 122.728 160.777 122.428L158.974 123.219C158.408 123.051 154.189 122.641 153.208 122.509L153.1 122.613L153.573 123.104C153.023 124.302 145.329 124.766 143.902 124.761C139.633 125.541 133.738 124.625 129.391 124.956C127.634 125.09 116.243 127.089 115.463 127.725L115.461 127.914C116.054 131.143 113.403 131.847 110.831 130.491C108.219 133.075 110.097 135.358 108.274 138.286C107.376 138.752 106.2 140.091 105.556 140.899C105.162 141.634 104.192 144.326 104.278 145.102L104.571 145.379C107.02 144.972 116.337 145.152 117.947 146.903C116.99 149.813 80.984 149.95 77.7331 147.273L77.6502 146.888C78.5078 145.903 80.8057 145.702 82.1657 145.451C82.6123 144.024 82.9187 142.533 83.2482 141.072C83.289 141.047 83.3302 141.021 83.3715 140.996L83.5741 140.862C85.8893 139.357 85.1408 137.829 85.4898 135.306C84.6632 135.105 83.3577 135.581 82.5351 135.825C65.0805 140.991 47.8428 147.017 32.0886 156.345C28.817 158.319 25.669 160.492 22.6618 162.85C21.7104 163.605 19.6055 165.6 18.9368 166.037L18.7074 165.814C16.7887 157.159 28.6556 148.208 34.8784 144.113C37.719 142.278 40.6184 140.535 43.5721 138.887C46.9444 137.017 60.4604 130.632 61.9587 127.774C62.2523 127.213 62.3556 126.619 62.1383 126.015C60.3544 121.044 33.649 120.135 27.6481 117.123C26.7024 116.649 25.4231 115.805 25.1348 114.734C24.9815 114.165 25.1328 113.608 25.461 113.13C27.0973 110.75 34.905 108.095 37.8134 107.648C37.8652 107.517 37.9185 107.387 37.9728 107.258C39.76 103.008 43.9121 102.204 47.8787 103.916C47.8845 102.426 48.0144 101.204 48.578 99.8135C49.4928 97.5063 51.295 95.663 53.5804 94.6963C55.9218 93.6999 58.5669 93.6941 60.9127 94.6803C63.4216 95.7614 64.8123 97.6145 65.7936 100.079C68.2405 99.6362 70.6931 99.2264 73.1507 98.8491C75.2752 98.4464 77.201 98.1036 79.3495 97.8819C79.6417 98.4322 79.9237 98.7994 80.4771 99.1249C81.0904 99.4876 81.8296 99.5696 82.5072 99.3506C83.4038 99.0539 83.6535 98.5834 84.0419 97.8096C83.849 93.7757 84.0477 88.2766 84.0277 84.1238C84.0073 79.9706 83.8464 73.6911 84.1665 69.6514Z" fill="#FCFCFC"/>
<path d="M132.642 84.1738C135.837 85.2869 139.652 85.6713 142.907 84.6297C143.003 86.4864 143.289 88.2331 143.56 90.0693C145.611 89.7647 148.504 89.8037 150.698 89.6853C154.937 89.4569 159.32 89.0818 163.548 89.0024C163.171 93.4705 163.324 101.208 160.179 104.246L159.507 105.916C159.118 107.225 156.619 114.798 156.637 115.595C155.024 115.438 151.471 116.577 149.632 116.974C148.49 117.221 147.077 117.085 146.845 117.138C146.837 117.515 146.85 118.145 146.777 118.493C146.096 118.657 145.185 118.849 144.533 119.041L144.026 118.161C143.594 115.626 141.081 110.642 140.917 108.644C140.465 103.142 140.951 104.034 138.124 98.9416C137.426 97.6636 133.997 91.2431 132.996 90.8351C131.777 88.4982 132.114 86.5609 132.642 84.1738Z" fill="#FCFCFC"/>
<path d="M132.642 84.1738C135.837 85.2869 139.652 85.6713 142.907 84.6297C143.003 86.4864 143.289 88.2331 143.56 90.0693C144.395 96.4544 145.195 102.736 145.763 109.153C145.874 110.4 146.546 116.529 146.845 117.138C146.837 117.515 146.85 118.145 146.777 118.493C146.096 118.657 145.185 118.849 144.533 119.041L144.026 118.161C143.594 115.626 141.081 110.642 140.917 108.644C140.465 103.142 140.951 104.034 138.124 98.9416C137.426 97.6636 133.997 91.2431 132.996 90.8351C131.777 88.4982 132.114 86.5609 132.642 84.1738Z" fill="#006862"/>
<path d="M156.721 104.958C157.823 104.539 158.993 104.079 160.177 104.246L159.505 105.916C158.844 105.632 157.447 105.204 156.721 104.958Z" fill="white"/>
<path d="M47.878 103.916C47.8838 102.426 48.0142 101.203 48.5773 99.8126C49.4926 97.5054 51.2947 95.6625 53.5797 94.6958C55.9211 93.6994 58.5662 93.6937 60.912 94.6799C63.4214 95.7605 64.812 97.6136 65.7929 100.078C66.1272 101.364 66.223 102.82 66.1574 104.145C72.2817 100.877 78.1954 105.237 76.9179 111.989C76.9041 112.031 76.8921 112.072 76.8766 112.113C76.6349 112.737 76.2891 113.68 75.6403 113.961C74.5778 114.42 40.1116 114.322 39.2659 113.934C38.4928 113.579 38.1482 112.765 37.8347 112.034C37.3933 110.245 37.3807 109.421 37.8128 107.647C37.8647 107.516 37.9179 107.387 37.9722 107.257C39.7593 103.007 43.9115 102.203 47.878 103.916Z" fill="#BAE6CC"/>
<path d="M105.284 126.369C106.811 124.04 109.087 123.299 111.39 125.154C112.841 126.322 113.361 128.223 115.461 127.912C116.054 131.142 113.403 131.847 110.832 130.489C108.22 133.074 110.098 135.357 108.275 138.285C107.377 138.751 106.201 140.09 105.557 140.898C105.163 141.632 104.192 144.324 104.278 145.101L104.571 145.378C107.02 144.971 116.337 145.151 117.947 146.901C116.991 149.812 80.9846 149.949 77.7338 147.272L77.6504 146.887C78.5084 145.902 80.8063 145.701 82.1664 145.45C82.6129 144.023 82.9193 142.532 83.2483 141.071C83.2896 141.046 83.3308 141.02 83.3721 140.994L83.5747 140.861C85.8895 139.356 85.1414 137.828 85.4904 135.304C85.7524 134.779 85.8926 134.443 86.0957 133.892C85.1525 133.735 80.6689 132.089 80.3017 131.369C82.7566 130.816 82.0293 130.518 83.0772 128.374C83.4231 127.666 84.3157 126.841 85.1556 126.835C86.2083 127.771 85.6567 129.395 86.093 131.107C87.673 133.101 89.0884 131.161 90.6812 131.112C95.9963 130.948 99.1655 132.857 103.992 129.682L104.411 129.147C104.055 127.809 104.473 127.326 105.284 126.369Z" fill="#004E49"/>
<path d="M92.58 145.284C94.6926 144.564 100.085 145.28 102.205 144.878L102.526 144.284C102.523 146.131 103.744 147.793 105.393 146.411L105.466 146.014C105.081 145.482 105.246 145.655 104.571 145.379C107.02 144.972 116.337 145.152 117.947 146.903C116.991 149.813 80.9846 149.95 77.7338 147.273L77.6504 146.888C78.5084 145.903 80.8063 145.702 82.1664 145.451C82.3358 146.003 82.4244 146.111 82.7335 146.609C83.424 147.093 83.7219 147.249 84.396 146.728C84.5321 145.959 84.474 146.171 84.1414 145.325C86.1005 145.177 87.4464 145.136 89.4099 145.173C90.2254 146.282 91.2382 147.274 92.7601 146.701L93.0275 146.341C92.9339 145.739 92.9463 145.771 92.58 145.284Z" fill="#E5F4F4"/>
<path d="M92.5786 145.284C92.3609 145.292 91.8802 145.248 91.6891 145.136C89.5553 143.89 92.0864 141.909 92.8939 140.37L92.9901 140.184C97.6418 141.267 97.2414 141.822 102.313 141.237C102.414 142.297 102.495 143.221 102.525 144.284L102.203 144.879C100.084 145.28 94.6912 144.565 92.5786 145.284Z" fill="white"/>
<path d="M105.282 126.37C105.714 127.072 105.935 127.632 106.668 127.933C107.82 127.838 108.198 127.043 108.849 126.156C109.579 127.685 106.354 133 103.99 129.684L104.409 129.149C104.053 127.811 104.471 127.328 105.282 126.37Z" fill="#229B94"/>
<path d="M84.9949 143.012C90.4044 141.61 86.2871 141.994 89.4072 145.172C87.4436 145.136 86.0978 145.177 84.1387 145.325C84.2859 144.743 84.7559 143.624 84.9949 143.012Z" fill="white"/>
<path d="M163.416 83.0674C166.971 84.3334 169.111 84.219 172.831 83.9875C173.046 84.6411 173.33 86.1293 173.452 86.426L173.58 86.5213C174.102 86.904 174.226 86.9758 174.821 87.2171L175.088 87.6853C175.87 91.3818 177.447 97.8143 177.906 101.348C178.031 103.233 178.219 104.813 178.47 106.689C178.578 107.449 178.897 110.132 179.051 110.754C179.224 111.893 180.075 116.831 179.851 117.711C178.913 117.942 178.211 118.106 177.259 118.249C176.86 117.491 175.421 112.939 174.978 111.703C172.859 112.232 162.433 114.409 160.947 113.79C160.469 114.615 159.683 116.103 159.07 116.748C158.183 116.365 157.484 116.054 156.635 115.597C156.616 114.8 159.115 107.226 159.505 105.917L160.177 104.247C163.322 101.21 163.169 93.4718 163.546 89.0037L163.787 87.9603C163.156 85.8513 163.183 85.2761 163.416 83.0674Z" fill="#004E49"/>
<path d="M163.419 83.0674C166.974 84.3334 169.115 84.219 172.834 83.9875C173.05 84.6411 173.333 86.1293 173.455 86.426L173.583 86.5213C174.106 86.904 174.229 86.9758 174.824 87.2171L175.091 87.6853C175.874 91.3818 177.45 97.8143 177.909 101.348C178.035 103.233 178.222 104.813 178.473 106.689C178.581 107.449 178.901 110.132 179.054 110.754C179.228 111.893 180.078 116.831 179.854 117.711C178.916 117.942 178.214 118.106 177.262 118.249C176.863 117.491 175.424 112.939 174.981 111.703C173.611 108.122 173.178 107.044 172.924 103.228C172.757 101.732 170.739 97.217 169.502 96.6645C169.394 95.8082 164.633 88.527 163.79 87.9603C163.16 85.8513 163.186 85.2761 163.419 83.0674Z" fill="#006862"/>
<path d="M166.506 104.026C168.118 104.724 171.229 103.764 172.923 103.226C173.177 107.042 173.61 108.12 174.981 111.701C172.862 112.23 162.436 114.406 160.949 113.788C162.744 110.502 164.596 107.247 166.506 104.026Z" fill="#F0F7EF"/>
<path d="M169.501 96.6621C170.738 97.2146 172.756 101.73 172.923 103.225C171.229 103.764 168.118 104.724 166.506 104.026C167.661 101.975 168.669 98.9338 169.501 96.6621Z" fill="#FCFCFC"/>
<path d="M160.948 113.788C162.435 114.407 172.86 112.23 174.979 111.701C175.422 112.937 176.861 117.489 177.26 118.247C178.212 118.104 178.915 117.939 179.852 117.709C179.886 118.317 179.876 118.359 180.12 118.905C182.684 120.253 183.953 119.441 185.22 120.403L185.374 120.71C186.02 120.866 186.892 120.989 187.367 121.394L187.425 121.757C185.436 123.491 172.658 123.614 169.522 123.685C168.55 123.707 164.423 123.571 163.804 123.823C163.059 122.833 161.981 122.728 160.776 122.427L158.973 123.218C158.406 123.05 154.188 122.64 153.206 122.508L153.099 122.612L153.572 123.103C153.022 124.301 145.328 124.766 143.901 124.76C139.029 124.264 122.675 125.902 118.833 123.112L118.801 122.753C119.875 121.453 122.595 122.073 123.854 121.129C124.553 121.843 124.666 121.981 125.597 122.395L126.111 122.361C126.349 121.838 126.309 122.103 126.243 121.537C130.132 120.499 135.994 121.208 139.937 120.938L144.835 120.987C144.821 120.187 144.862 119.788 144.532 119.041C145.184 118.848 146.094 118.657 146.775 118.492C146.849 118.144 146.836 117.515 146.843 117.137C147.076 117.085 148.489 117.22 149.631 116.973C151.469 116.576 155.023 115.437 156.636 115.595C157.486 116.052 158.184 116.363 159.072 116.746C159.684 116.101 160.471 114.613 160.948 113.788Z" fill="#E5F4F4"/>
<path d="M160.948 113.788C162.435 114.407 172.86 112.23 174.979 111.701C175.422 112.937 176.861 117.489 177.261 118.247L177.637 118.547C177.653 118.993 177.656 119.282 177.637 119.727L177.57 119.942C173.946 119.938 163.966 119.626 161.115 120.358C159.841 120.074 159.272 118.993 158.693 117.942C158.798 117.21 158.679 117.244 159.072 116.746C159.684 116.101 160.471 114.613 160.948 113.788Z" fill="white"/>
<path d="M146.845 117.137C147.078 117.084 148.491 117.22 149.633 116.973C151.471 116.576 155.025 115.437 156.638 115.595C156.56 116.367 156.53 116.452 156.037 117.049C155.396 117.765 155.2 118.275 154.788 119.138L156.65 120.278C155.708 120.762 153.009 120.772 151.197 121.403C149.225 121.388 148.99 121.29 147.252 120.299C146.908 119.598 146.89 119.246 146.777 118.492C146.851 118.144 146.837 117.515 146.845 117.137Z" fill="white"/>
<path d="M156.636 115.595C157.486 116.051 158.185 116.362 159.072 116.746C158.68 117.244 158.798 117.21 158.694 117.942C159.272 118.993 159.841 120.074 161.115 120.358C161.679 120.866 161.773 120.961 161.895 121.598L161.545 121.822C159.908 122.038 158.07 120.993 156.649 120.278L154.787 119.138C155.199 118.275 155.395 117.764 156.036 117.049C156.528 116.451 156.559 116.367 156.636 115.595Z" fill="#006862"/>
<path d="M156.636 115.595C157.486 116.051 158.184 116.362 159.071 116.746C158.679 117.244 158.798 117.21 158.693 117.942L158.6 117.849C157.492 118.034 156.916 117.629 156.035 117.049C156.528 116.451 156.558 116.367 156.636 115.595Z" fill="#CAA674"/>
<path d="M179.852 117.711C179.886 118.318 179.876 118.361 180.119 118.906C182.683 120.255 183.953 119.443 185.22 120.404C184.354 121.562 179.167 122.354 177.905 121.995C177.495 121.389 177.583 120.711 177.569 119.944L177.637 119.729C177.655 119.283 177.653 118.994 177.637 118.549L177.26 118.248C178.212 118.106 178.914 117.941 179.852 117.711Z" fill="#006862"/>
<path d="M179.852 117.711C179.886 118.318 179.876 118.361 180.119 118.906C179.423 119.626 179.257 119.713 178.268 119.732C178.058 119.735 177.846 119.734 177.637 119.729C177.655 119.283 177.653 118.994 177.637 118.549L177.26 118.248C178.212 118.106 178.914 117.941 179.852 117.711Z" fill="#D4AD7C"/>
<path d="M144.531 119.041C145.183 118.848 146.094 118.657 146.775 118.492C146.887 119.246 146.906 119.598 147.25 120.3C148.987 121.29 149.222 121.388 151.194 121.403C151.571 121.665 151.543 121.647 151.713 122.076L151.441 122.443C150.103 123.097 146.537 123.209 145.016 123.056C144.693 122.386 144.804 121.753 144.835 120.987C144.82 120.188 144.861 119.788 144.531 119.041Z" fill="#229B94"/>
<path d="M144.531 119.041C145.183 118.848 146.094 118.657 146.775 118.492C146.887 119.246 146.906 119.598 147.25 120.3C146.31 121.09 146.256 121.038 144.835 120.987C144.82 120.188 144.861 119.788 144.531 119.041Z" fill="#CAA674"/>
<path d="M138.123 98.9414C140.949 104.033 140.464 103.142 140.916 108.643C141.08 110.642 143.592 115.625 144.024 118.16L144.532 119.041C144.861 119.788 144.821 120.188 144.835 120.987L139.937 120.938C135.994 121.208 130.132 120.499 126.242 121.537C124.907 120.355 125.025 119.298 124.83 117.552C125.266 116.734 125.329 116.599 126.044 115.973C127.679 115.052 133.489 106.783 135.328 105.045C136.267 104.159 137.604 100.351 138.123 98.9414Z" fill="#FCFCFC"/>
<path d="M135.422 120.694C138.336 119.959 141.148 118.849 144.027 118.159L144.535 119.04C144.864 119.787 144.824 120.187 144.838 120.987L139.94 120.938C138.933 120.74 136.542 120.73 135.422 120.694Z" fill="white"/>
<path d="M132.998 90.835C133.999 91.2429 137.427 97.6639 138.126 98.9414C137.607 100.351 136.27 104.159 135.332 105.046C133.492 106.783 127.682 115.052 126.047 115.973C125.332 116.599 125.27 116.734 124.833 117.553C123.657 117.345 123.542 117.082 123.105 116.031C123.698 115.468 123.88 115.101 124.159 114.361C124.334 113.424 128.224 106.15 129.078 105.011C129.593 104.323 130.831 102.935 131.489 102.239C132.009 99.2762 132.419 94.0942 132.764 90.9875L132.998 90.835Z" fill="#004E49"/>
<path d="M124.159 114.361C124.777 114.929 125.358 115.493 126.047 115.973C125.332 116.599 125.27 116.735 124.833 117.553C123.657 117.346 123.542 117.082 123.105 116.031C123.698 115.468 123.88 115.101 124.159 114.361Z" fill="#CAA674"/>
<path d="M123.105 116.03C123.541 117.082 123.656 117.346 124.833 117.553C125.027 119.298 124.909 120.355 126.245 121.537C126.311 122.103 126.351 121.838 126.113 122.361L125.6 122.395C124.668 121.981 124.556 121.843 123.857 121.129C122.968 119.931 120.858 118.205 121.549 116.757C122.18 116.275 122.334 116.249 123.105 116.03Z" fill="#229B94"/>
<path d="M58.0057 46.6774C58.1019 44.0376 58.3866 41.9348 59.3023 39.4227C61.39 33.806 65.6138 29.2433 71.0525 26.7304C76.4851 24.2091 83.228 23.6974 88.8361 25.856C95.7804 28.529 99.5873 32.5346 102.637 39.181L102.715 39.381C106.261 41.1645 108.947 44.2903 110.178 48.064C111.463 52.0212 111.105 56.3288 109.184 60.0191C104.8 68.4053 95.529 70.368 87.1112 68.6825C86.3525 68.5304 85.2044 69.0266 84.1135 68.8071L84.1663 69.6518C83.8461 73.6916 84.0071 79.9706 84.0275 84.1243C84.0475 88.2771 83.8488 93.7762 84.0417 97.8097C83.6537 98.5835 83.4036 99.0544 82.507 99.3511C81.8294 99.5701 81.0902 99.4877 80.4769 99.1254C79.9235 98.7994 79.6415 98.4327 79.3497 97.882C79.2876 91.5155 79.2645 85.1487 79.281 78.7818C79.2801 75.7788 79.4007 72.3338 79.0646 69.3321C78.998 68.7375 78.8592 69.0412 79.167 68.4009C78.7954 68.283 77.2376 68.6169 76.5755 68.6785C71.1044 70.2696 65.8195 69.9685 61.0712 66.5704C54.699 62.0101 53.2685 53.148 57.9073 46.8263L58.0057 46.6774Z" fill="#7AADAA"/>
<path d="M58.0078 46.6774C58.1036 44.0376 58.3883 41.9348 59.3044 39.4227C61.3917 33.806 65.6159 29.2433 71.0546 26.7304C76.4867 24.2091 83.2297 23.6974 88.8378 25.856C95.782 28.529 99.5894 32.5346 102.639 39.181C97.2143 37.2431 92.682 36.3325 87.1297 39.0125C84.3937 40.3499 82.0692 42.4013 80.4023 44.9506C76.5825 41.941 73.1769 40.5539 68.139 41.0612C64.5592 41.4217 60.464 43.5423 58.2176 46.3967C58.1453 46.4884 58.0757 46.582 58.0078 46.6774Z" fill="#E5F4F4"/>
<path d="M102.715 39.3809C106.26 41.1644 108.947 44.2902 110.178 48.0638C111.462 52.021 111.104 56.3286 109.183 60.0189C104.8 68.4052 95.5287 70.3678 87.1109 68.6823C86.3522 68.5302 85.2037 69.0264 84.1133 68.8069L84.2188 68.6052C84.8685 68.3236 86.6635 68.222 87.5756 67.987C97.396 65.4607 104.589 56.3073 103.959 46.0298C103.811 43.6166 103.34 41.7107 102.715 39.3809Z" fill="#E5F4F4"/>
<path d="M57.9073 46.8262C59.1298 58.7373 65.2719 65.5317 76.5755 68.6783C71.1044 70.2694 65.8195 69.9683 61.0712 66.5702C54.699 62.0099 53.2685 53.1478 57.9073 46.8262Z" fill="#E5F4F4"/>
<path d="M80.3285 44.9785C80.4425 45.0925 80.5551 45.2078 80.666 45.324C84.1895 49.024 84.319 51.7401 84.1993 56.5137C89.6797 58.0697 87.5942 64.5971 84.0614 67.2927C83.2703 66.7446 82.4827 66.1921 81.6983 65.6343C80.5826 66.4684 79.9707 66.9832 78.9632 67.945C76.0356 64.3111 75.2103 60.4336 79.1414 57.2019C77.2267 53.2451 78.482 48.6755 80.3285 44.9785Z" fill="#A8D3B5"/>
<path d="M206.391 61.2102L206.77 61.1339C207.498 60.495 207.568 59.5615 208.143 58.6875C208.127 59.107 208.069 60.3708 208.191 60.6958C209.045 62.9915 210.258 63.0709 209.058 65.5262C208.883 66.5199 211.513 69.7127 210.16 70.8958L208.871 71.4589C208.125 72.4199 208.143 73.654 208.065 74.8623L208.165 76.1266L208.085 76.6099C208.2 78.53 208.773 81.1525 208.737 82.7573C208.647 84.2126 209.013 86.1221 209.21 87.6191C209.336 88.7118 210.184 96.522 210.426 97.1672C210.575 99.9653 210.809 102.759 211.128 105.542C211.204 106.361 211.281 107.679 211.415 108.452L211.768 111.421C210.621 111.126 209.935 111.096 208.821 111.416C208.526 110.481 208.095 109.504 207.716 108.593C207.313 107.637 206.987 106.623 206.654 105.639C203.972 105.632 200.749 105.717 198.119 105.537C197.345 106.409 196.541 107.437 195.787 108.265C194.873 109.288 192.907 111.601 191.968 112.419L190.267 111.078C190.359 110.658 190.627 110.125 190.806 109.717C186.456 109.855 183.211 110.444 179.053 110.751C178.899 110.13 178.58 107.447 178.472 106.687C178.221 104.811 178.033 103.231 177.907 101.346C177.448 97.812 175.872 91.3799 175.09 87.683L175.287 87.7628C175.625 87.9007 175.794 88.0559 176.149 88.071C177.303 88.7867 188.938 88.0227 191.141 87.914C191.003 85.5465 192.041 85.6232 192.472 83.7036C193.027 81.2425 193.294 78.6927 193.889 76.2077C194.366 74.2118 195.489 71.9285 195.791 69.9974C195.9 68.891 196.87 67.7221 196.671 66.8871C197.383 66.4955 197.241 65.2912 198.776 64.1205C199.526 63.5755 200.604 63.2394 201.51 63.0638C202.3 62.0607 202.336 61.4248 202.504 60.1961L203.026 60.2839L203.12 60.5371L204.585 61.4466C205.213 61.1858 205.708 61.2293 206.391 61.2102Z" fill="#FCFCFC"/>
<path d="M206.391 61.2102L206.77 61.1339C207.498 60.495 207.568 59.5615 208.143 58.6875C208.127 59.107 208.069 60.3708 208.191 60.6958C209.045 62.9915 210.258 63.0709 209.059 65.5262C208.883 66.5199 211.513 69.7127 210.16 70.8958L208.871 71.4589C208.125 72.4199 208.143 73.654 208.065 74.8623L208.165 76.1266L208.085 76.6099C208.2 78.53 208.773 81.1525 208.737 82.7573C205.531 83.7466 201.41 83.4251 198.303 82.1436C197.946 84.9519 197.818 85.1013 198.754 87.8457C197.644 87.855 194.562 87.9774 193.713 87.6355L193.242 87.7012C193.121 87.3172 193.145 87.3367 193.237 86.9389L192.957 87.0378L192.524 88.6018L192.163 88.7783C191.582 88.4745 191.566 88.4306 191.141 87.914C191.004 85.5465 192.041 85.6232 192.472 83.7036C193.027 81.2425 193.294 78.6927 193.889 76.2077C194.366 74.2118 195.489 71.9285 195.791 69.9974C195.9 68.891 196.87 67.7221 196.671 66.8871C197.383 66.4955 197.241 65.2912 198.776 64.1205C199.526 63.5755 200.604 63.2394 201.51 63.0638C202.3 62.0607 202.336 61.4248 202.504 60.1961L203.026 60.2839L203.12 60.5371L204.585 61.4466C205.213 61.1858 205.708 61.2293 206.391 61.2102Z" fill="#006862"/>
<path d="M195.791 69.998C196.641 70.4681 198.163 71.2117 198.774 71.8733L198.758 72.1749C199.668 75.2798 199.886 76.4057 198.882 79.6543C198.656 80.382 198.317 81.3979 198.303 82.1442C197.946 84.9525 197.818 85.102 198.754 87.8464C197.644 87.8557 194.562 87.9781 193.713 87.6362L193.242 87.7018C193.121 87.3178 193.145 87.3373 193.237 86.9396L192.957 87.0385L192.524 88.6025L192.163 88.779C191.582 88.4752 191.566 88.4313 191.141 87.9147C191.004 85.5472 192.041 85.6239 192.472 83.7043C193.027 81.2432 193.294 78.6934 193.889 76.2084C194.366 74.2125 195.489 71.9292 195.791 69.998Z" fill="white"/>
<path d="M195.791 69.998C196.641 70.4681 198.163 71.2117 198.774 71.8733L198.758 72.1749C197.01 75.051 196.244 77.5822 195.222 80.7629C194.807 82.0569 194.262 83.3349 193.899 84.647C193.673 85.5135 194.12 86.2323 193.713 87.6362L193.242 87.7018C193.121 87.3178 193.145 87.3373 193.237 86.9396L192.957 87.0385L192.524 88.6025L192.163 88.779C191.582 88.4752 191.566 88.4313 191.141 87.9147C191.004 85.5472 192.041 85.6239 192.472 83.7043C193.027 81.2432 193.294 78.6934 193.889 76.2084C194.366 74.2125 195.489 71.9292 195.791 69.998Z" fill="#D4AD7C"/>
<path d="M206.393 61.2102L206.772 61.1339C207.5 60.495 207.57 59.5615 208.145 58.6875C208.129 59.107 208.071 60.3708 208.193 60.6958C209.047 62.9915 210.26 63.0709 209.06 65.5262C208.885 66.5199 211.515 69.7127 210.162 70.8958L208.873 71.4589C208.126 72.4199 208.145 73.654 208.067 74.8623L208.166 76.1266L208.087 76.6099L207.925 76.5314C207.766 76.6866 207.652 76.8303 207.53 77.013C205.898 75.8277 205.092 72.07 204.337 70.1796C203.633 68.417 202.795 66.7558 202.062 65.0158L201.617 63.3241L201.512 63.0638C202.302 62.0607 202.338 61.4248 202.505 60.1961L203.028 60.2839L203.122 60.5371L204.587 61.4466C205.215 61.1858 205.71 61.2293 206.393 61.2102Z" fill="#C4F4F1"/>
<path d="M208.465 67.5569C208.309 66.6013 208.095 65.6023 208.175 64.6436L209.061 65.5269C208.885 66.5206 211.515 69.7134 210.163 70.8965L208.873 71.4596C208.127 72.4206 208.145 73.6551 208.067 74.863L207.918 74.9375C207.684 74.6542 207.303 69.4274 207.197 68.4811C207.353 67.7769 207.205 67.9902 207.688 67.5388L208.465 67.5569Z" fill="#006862"/>
<path d="M208.461 67.5569C208.305 66.6013 208.092 65.6023 208.172 64.6436L209.058 65.5269C208.882 66.5206 211.512 69.7134 210.159 70.8965L208.87 71.4596C209.523 69.8783 209.052 69.1351 208.461 67.5569Z" fill="#55A09D"/>
<path d="M206.391 61.2102L206.77 61.1339C207.498 60.495 207.568 59.5615 208.143 58.6875C208.127 59.107 208.069 60.3708 208.191 60.6958C209.045 62.9915 210.258 63.0709 209.058 65.5262L208.172 64.6429L207.496 64.1724C207.089 63.9356 206.552 63.7077 206.115 63.505L205.553 63.4873C205.107 63.117 205.067 62.5605 205.15 62.0301C205.664 61.3069 205.389 61.545 206.391 61.2102Z" fill="#004E49"/>
<path d="M202.505 60.1973L203.028 60.2851L203.122 60.5378L204.587 61.4478C205.215 61.187 205.71 61.23 206.393 61.211C205.391 61.5462 205.666 61.3081 205.151 62.0309C205.069 62.5617 205.109 63.1177 205.555 63.488C205.658 63.9966 205.48 64.166 205.116 64.4259C203.872 64.5558 202.707 63.8782 201.617 63.3253L201.512 63.0645C202.302 62.0619 202.338 61.4256 202.505 60.1973Z" fill="#CAA674"/>
<path d="M203.119 60.5371L204.584 61.447L204.59 61.722L204.23 61.7158C203.564 61.2985 203.444 61.2435 203.119 60.5371Z" fill="#B39369"/>
<path d="M206.115 63.5059C206.552 63.7081 207.089 63.9364 207.496 64.1732L208.172 64.6437C208.093 65.6024 208.306 66.6011 208.462 67.5571L207.685 67.5389C207.203 67.9903 207.35 67.7766 207.195 68.4808C207.175 68.4169 207.043 67.1536 206.957 66.7696C206.7 65.5989 206.277 64.665 206.115 63.5059Z" fill="#55A09D"/>
<path d="M207.498 64.1729L208.174 64.6433C208.094 65.6021 208.308 66.6011 208.464 67.5567L207.687 67.5385C208.145 66.7058 207.691 65.1413 207.498 64.1729Z" fill="#229B94"/>
<path d="M201.51 63.0645L201.616 63.3252L202.061 65.0165C201.909 66.2789 201.861 66.3818 201.283 67.4669C200.854 68.8114 199.928 71.0157 198.774 71.8738C198.164 71.2122 196.641 70.4685 195.791 69.9985C195.901 68.8917 196.871 67.7232 196.671 66.8882C197.383 66.4967 197.242 65.2918 198.776 64.1212C199.527 63.5766 200.604 63.2401 201.51 63.0645Z" fill="#C4F4F1"/>
<path d="M201.509 63.0645L201.615 63.3252L202.06 65.0165C201.908 66.2789 201.86 66.3818 201.282 67.4669C200.911 65.3486 200.864 64.9863 198.775 64.1212C199.526 63.5766 200.603 63.2401 201.509 63.0645Z" fill="#004E49"/>
<path d="M198.302 82.1436C201.409 83.4251 205.53 83.7466 208.737 82.7573C208.647 84.2126 209.012 86.1221 209.209 87.6191C209.335 88.7118 210.183 96.522 210.425 97.1672C210.574 99.9653 210.808 102.758 211.127 105.542C211.203 106.361 211.281 107.679 211.415 108.452L211.768 111.421C210.62 111.126 209.934 111.096 208.821 111.416C208.525 110.481 208.094 109.504 207.715 108.593C207.312 107.637 206.986 106.623 206.653 105.639C205.418 100.661 207.306 101.535 203.972 95.6347C203.179 94.3576 199.645 88.3836 198.767 87.977L198.753 87.8457C197.818 85.1013 197.945 84.9518 198.302 82.1436Z" fill="#C4F4F1"/>
<path d="M198.768 87.9785C199.646 88.3856 203.18 94.3591 203.972 95.6367C207.307 101.537 205.419 100.663 206.654 105.64C203.972 105.634 200.75 105.719 198.12 105.538C197.346 106.41 196.541 107.439 195.787 108.267C194.873 109.29 192.908 111.603 191.968 112.421L190.268 111.08C190.359 110.66 190.627 110.127 190.806 109.718C191.527 108.582 192.169 107.2 192.774 105.984C194.644 102.969 194.293 102.623 196.935 99.4547C197.12 99.3035 197.539 98.7199 197.577 98.5097C198.182 95.1618 198.174 91.3092 198.768 87.9785Z" fill="#71B198"/>
<path d="M203.974 95.6367C207.308 101.536 205.421 100.663 206.656 105.64C203.974 105.634 200.751 105.719 198.121 105.538C201.919 101.079 201.871 101.318 203.974 95.6367Z" fill="white"/>
<path d="M177.908 101.347L178.178 101.146C182.298 102.315 194.69 98.1671 196.935 99.4535C194.293 102.623 194.644 102.968 192.774 105.984C192.17 107.199 191.528 108.582 190.807 109.717C186.457 109.856 183.212 110.445 179.054 110.752C178.9 110.131 178.581 107.448 178.473 106.687C178.222 104.812 178.034 103.232 177.908 101.347Z" fill="white"/>
<path d="M178.473 106.687C178.945 106.783 182.186 106.485 182.964 106.443C186.243 106.268 189.485 106.014 192.774 105.983C192.17 107.199 191.527 108.581 190.806 109.717C186.456 109.855 183.212 110.444 179.053 110.752C178.9 110.13 178.58 107.448 178.473 106.687Z" fill="#FCFCFC"/>
<path d="M272.418 78.9533C269.447 78.6442 266.962 77.7582 264.606 75.8629C261.77 73.5389 259.97 70.1834 259.607 66.5339C258.769 58.3702 264.636 51.8131 272.717 51.179C276.491 50.8863 280.222 52.1222 283.074 54.609C285.859 57.0093 287.57 60.4233 287.823 64.0919C288.308 71.3971 282.729 78.5311 275.267 78.9009C275 83.6723 275.377 88.1413 275.307 92.7734C275.162 93.5078 274.743 94.2918 274.013 94.5268C272.386 93.9233 272.432 92.2635 272.4 90.8197L272.486 89.1457L272.38 88.896L272.418 78.9533Z" fill="#E5F4F4"/>
<path d="M272.542 78.3073C264.963 72.2176 274.052 68.0998 277.91 72.7453C279.917 75.162 275.401 77.7619 275.27 78.9006C275.002 83.672 275.38 88.141 275.309 92.7731C275.164 93.5075 274.745 94.2915 274.015 94.5269C272.388 93.923 272.434 92.2632 272.402 90.8193L272.488 89.1458C272.811 88.0674 272.592 79.9028 272.542 78.3073Z" fill="#7AADAA"/>
<path d="M195.786 108.266C196.54 107.438 197.345 106.409 198.119 105.537C200.749 105.718 203.972 105.632 206.653 105.639C206.987 106.623 207.312 107.638 207.715 108.593C208.094 109.505 208.525 110.482 208.821 111.417C209.934 111.096 210.62 111.126 211.768 111.422C212.452 111.829 212.512 112.221 212.778 112.958C213.682 113.72 213.849 113.048 214.665 113.877C214.667 114.785 213.873 115.236 213.191 115.809C213.227 116.054 213.199 116.111 213.317 116.289C214.406 116.534 216.715 116.759 217.325 116.963C218.11 117.019 218.95 117.122 219.478 117.762C218.736 119.696 211.066 119.432 210.216 120.172C209.91 121.386 209.716 121.687 209.082 122.786C209.204 124.859 208.958 126.195 210.92 127.391C211.908 127.395 215.052 127.72 215.439 128.621C215.254 128.862 215.062 128.986 214.787 129.106C211.149 130.693 191.197 130.421 187.517 128.998C187.09 128.833 186.934 128.754 186.747 128.348C187.581 127.173 189.145 127.756 190.434 127.116C190.59 126.167 190.734 125.217 190.869 124.265C193.617 122.509 191.833 121.948 192.597 119.164L192.661 118.937C191.029 119.161 186.296 119.167 185.328 117.763L185.502 117.423C186.665 116.856 188.1 116.803 189.381 116.745C188.918 115.024 187.681 114.577 187.942 112.971C188.439 112.405 188.748 112.372 189.463 112.129C189.862 111.855 190.015 111.499 190.267 111.079L191.967 112.42C192.906 111.601 194.872 109.288 195.786 108.266Z" fill="#004E49"/>
<path d="M195.789 108.266C196.543 107.438 197.348 106.409 198.122 105.537C200.752 105.718 203.974 105.632 206.656 105.639C206.99 106.623 207.315 107.638 207.718 108.593C208.097 109.505 208.528 110.482 208.823 111.417C208.269 111.833 207.859 112.124 207.368 112.626L206.736 112.621C207.079 113.295 207.408 113.616 207.015 114.398L206.698 114.748C205.18 118.16 198.297 116.553 195.529 116.887C194.765 116.98 194.089 117.321 193.398 117.656C191.307 116.369 191.357 116.103 191.021 113.686C191.271 113.154 191.582 112.859 191.97 112.42C192.909 111.601 194.875 109.288 195.789 108.266Z" fill="white"/>
<path d="M195.789 108.266C196.543 107.438 197.347 106.409 198.122 105.537C200.752 105.718 203.974 105.632 206.656 105.639C206.989 106.623 207.315 107.638 207.718 108.593C204.435 108.587 198.874 108.736 195.789 108.266Z" fill="#E5F4F4"/>
<path d="M207.015 114.399C206.207 114.174 205.828 114.046 205.678 113.195C206.145 112.642 205.927 112.815 206.735 112.622C207.079 113.297 207.408 113.617 207.015 114.399Z" fill="#006862"/>
<path d="M210.919 127.392C211.907 127.395 215.052 127.72 215.439 128.621C215.253 128.862 215.062 128.986 214.786 129.106C211.148 130.693 191.196 130.422 187.516 128.998C187.089 128.833 186.934 128.754 186.746 128.348C187.58 127.173 189.145 127.756 190.434 127.116C190.615 128.069 190.442 127.79 190.998 128.406L191.535 128.565L191.936 128.345C192.076 127.781 192.088 128.047 191.946 127.517C192.798 127.356 194.333 127.34 195.249 127.302C195.452 127.529 195.66 127.75 195.873 127.967C196.36 128.47 197.234 128.653 197.903 128.487L197.946 128.118C197.605 127.717 197.458 127.485 197.013 127.215C199.433 127.058 202.021 127.242 204.392 127.043C204.35 127.901 204.264 127.581 204.659 128.285C205.266 128.644 205.006 128.601 205.657 128.546L205.974 128.146L205.761 127.334C206.467 127.335 207.83 127.373 208.477 127.3C208.932 127.869 209.02 128.049 209.708 128.241C210.396 128.097 210.534 128.062 210.919 127.392Z" fill="#E5F4F4"/>
<path d="M213.319 116.289C214.408 116.534 216.717 116.758 217.328 116.963C218.112 117.019 218.952 117.122 219.481 117.762C218.738 119.695 211.068 119.432 210.218 120.172C210.074 119.31 210.096 119.073 210.593 118.416L210.433 118.438C210.635 116.537 211.586 116.676 213.319 116.289Z" fill="#E5F4F4"/>
<path d="M213.317 116.289C214.407 116.534 216.715 116.758 217.326 116.963C216.262 118.572 212.395 118.454 210.591 118.416L210.432 118.438C210.633 116.537 211.585 116.676 213.317 116.289Z" fill="#229B94"/>
<path d="M198.09 123.591C200.984 124.33 201.505 124.529 204.48 124.323C204.514 125.42 204.508 125.953 204.396 127.043C202.025 127.242 199.438 127.057 197.017 127.215C196.522 126.68 196.674 126.936 196.498 126.15C196.692 125.284 197.526 124.375 198.09 123.591Z" fill="white"/>
<path d="M192.661 118.938C191.029 119.162 186.296 119.167 185.328 117.764L185.502 117.424C186.665 116.857 188.1 116.803 189.381 116.746C189.896 118.594 190.981 118.688 192.661 118.938Z" fill="#E5F4F4"/>
<path d="M192.328 125.67C193.014 125.512 193.7 125.348 194.385 125.177L194.678 125.392C194.76 126.272 194.816 126.515 195.251 127.303C194.335 127.34 192.8 127.356 191.948 127.517C191.787 126.911 192.106 126.301 192.328 125.67Z" fill="white"/>
<path d="M206.733 112.622L207.365 112.627C208.287 114.222 209.049 113.073 208.716 114.652C207.637 115.926 207.643 115.397 207.417 116.761C206.627 115.814 206.633 115.813 206.695 114.749L207.012 114.399C207.405 113.617 207.076 113.297 206.733 112.622Z" fill="#229B94"/>
<path d="M206.913 123.887C207.48 125.003 208.001 126.142 208.477 127.301C207.831 127.374 206.468 127.337 205.762 127.336C206.095 126.273 206.488 124.888 206.913 123.887Z" fill="white"/>
<path d="M190.267 111.079L191.967 112.42C191.58 112.86 191.269 113.154 191.019 113.686L190.355 113.574C189.778 113.212 189.71 112.785 189.463 112.13C189.862 111.855 190.015 111.499 190.267 111.079Z" fill="#D4AD7C"/>
<path d="M131.83 66.9055C130.593 66.5206 129.583 65.0413 129.507 63.8014C129.413 62.2703 131.339 60.9253 131.774 59.7218C132.592 57.463 132.624 54.9252 134.391 53.0822C136.392 50.7333 140.417 51.6402 142.448 53.4871C144.448 55.3052 142.802 58.4505 142.799 60.9408L142.801 61.2002C143.083 63.4316 144.325 65.0918 141.956 66.4474C143.255 69.0016 145.278 70.8162 143.256 73.4467C142.565 74.8155 142.18 79.8047 142.777 81.2046C142.827 82.0427 143.092 84.016 142.906 84.6297C139.651 85.6709 135.836 85.2864 132.641 84.1734C132.113 86.5609 131.777 88.4978 132.995 90.8352L132.761 90.9873C131.646 90.9908 130.855 91.0675 129.742 91.1864L129.417 91.0817L129.395 90.3217L129.054 90.3984C128.71 91.3433 128.899 91.7385 128.368 92.228C127.637 92.1956 127.474 92.0045 126.943 91.4684C126.51 89.088 127.621 88.9807 127.88 86.6549C128.193 83.8524 128.137 80.6397 128.646 77.8992C129.022 75.8709 130.106 73.4023 130.343 71.3221C130.185 70.5608 131.477 67.7356 131.83 66.9055Z" fill="#A8D3B5"/>
<path d="M131.83 66.9055C130.593 66.5206 129.583 65.0413 129.507 63.8014C129.414 62.2703 131.339 60.9253 131.775 59.7218C132.593 57.463 132.625 54.9252 134.392 53.0822C136.393 50.7333 140.418 51.6402 142.449 53.4871C144.448 55.3052 142.803 58.4505 142.799 60.9408L142.801 61.2002C143.083 63.4316 144.325 65.0918 141.956 66.4474C141.228 65.6488 140.799 65.3229 139.943 64.6537C139.907 65.4005 139.983 65.8683 139.505 66.4075C138.522 66.753 138.087 66.2944 137.242 65.7743C134.581 67.8256 133.193 66.1929 131.83 66.9055Z" fill="#004E49"/>
<path d="M137.45 58.0631C138.778 57.4139 141.1 55.3098 142.116 55.6007C142.555 56.3155 142.428 58.7336 142.358 59.6315C142.575 60.2497 142.678 60.5583 142.802 61.1995C143.084 63.4313 144.326 65.0916 141.957 66.4472C141.229 65.6485 140.8 65.3222 139.943 64.6534C139.907 65.4002 139.984 65.868 139.505 66.4068C138.523 66.7527 138.087 66.2937 137.242 65.7736C137.587 64.8738 137.732 59.1934 137.45 58.0631Z" fill="#D4AD7C"/>
<path d="M142.36 59.6328C142.577 60.251 142.68 60.5596 142.803 61.2008C143.086 63.4322 144.327 65.0924 141.959 66.4485C141.231 65.6494 140.802 65.3234 139.945 64.6543L139.437 64.316C139.238 63.6189 139.138 63.4774 139.32 62.8118C140.724 61.1755 140.758 63.3559 142.36 59.6328Z" fill="#004E49"/>
<path d="M130.343 71.3213C131.122 71.7439 133.031 72.7177 133.643 73.2121L133.393 73.9757L133.769 75.5823C133.877 76.7396 133.926 77.2509 133.877 78.411C133.818 79.8402 132.325 83.2396 132.641 84.173C132.113 86.56 131.777 88.497 132.995 90.8343L132.761 90.9869C131.646 90.9904 130.855 91.0667 129.742 91.1855L129.417 91.0809L129.395 90.3213L129.054 90.3975C128.71 91.3425 128.899 91.7376 128.368 92.2272C127.637 92.1948 127.474 92.0041 126.943 91.468C126.51 89.0872 127.621 88.9803 127.88 86.6545C128.193 83.8519 128.137 80.6388 128.646 77.8984C129.022 75.8701 130.106 73.4015 130.343 71.3213Z" fill="#D4AD7C"/>
<path d="M133.393 73.9756L133.769 75.5826C133.877 76.7395 133.926 77.2508 133.878 78.4108C133.818 79.84 132.325 83.2394 132.641 84.1729C132.113 86.5599 131.777 88.4973 132.996 90.8342L132.761 90.9867C131.646 90.9903 130.855 91.0665 129.742 91.1858C130.166 89.3513 129.353 88.6392 129.586 87.4938C130.551 82.7348 131.295 78.3803 133.393 73.9756Z" fill="white"/>
<path d="M133.642 73.2131C134.961 72.1994 135.182 70.0297 136.116 68.7344C135.681 70.5072 134.934 74.0281 134.085 75.4383L133.769 75.5833L133.393 73.9762L133.642 73.2131Z" fill="#C4F4F1"/>
<path d="M136.775 73.2939C139.199 74.1932 138.851 73.3959 140.53 73.5746C139.092 74.4628 137.942 74.6327 136.775 73.2939Z" fill="#C4F4F1"/>
<path d="M160.952 81.7047C160.156 81.5029 159.305 81.1544 158.663 80.5757C157.52 79.5447 157.072 78.0698 157.021 76.4872C156.973 74.9893 157.184 72.6049 157.269 71.0476C157.498 70.7983 157.692 70.5868 157.852 70.413C157.793 68.469 158.706 64.6235 160.285 63.3371C161.496 62.644 162.634 63.0865 163.222 61.4853C163.534 60.6343 164.818 60.1319 165.576 60.6303C165.045 61.0671 164.952 61.1305 164.549 61.6751L164.711 62.0653L165.084 62.1908C165.627 61.7292 166.157 61.2547 166.676 60.7665C168.081 61.3141 168.534 60.8201 170.158 61.6919C171.09 61.5779 171.348 61.6156 172.162 61.0778C173.645 62.2932 175.357 65.7636 175.458 67.6881C175.57 69.8383 174.986 71.0387 175.011 73.3902C174.379 75.5192 174.421 77.1284 174.389 79.3186C174.409 80.5296 174.495 82.3441 174.433 83.5086C174.796 83.9826 175.002 84.2691 175.307 84.7826C176.237 86.2446 176.283 86.3537 176.151 88.0729C175.796 88.0578 175.626 87.9031 175.289 87.7647L175.091 87.6853L174.824 87.2171C174.229 86.9758 174.105 86.904 173.583 86.5213L173.455 86.426C173.333 86.1293 173.05 84.6411 172.835 83.9875C169.115 84.219 166.974 84.3334 163.419 83.0674C163.4 82.7273 163.356 82.3991 163.316 82.0612L162.875 81.7987C162.066 81.8399 161.732 81.7983 160.952 81.7047Z" fill="#004E49"/>
<path d="M170.155 61.6913C171.086 61.5773 171.344 61.615 172.158 61.0771C173.64 62.2931 175.353 65.763 175.455 67.6875C175.566 69.8381 174.981 71.0381 175.008 73.3896C174.375 75.5186 174.417 77.1278 174.385 79.3184C174.405 80.529 174.491 82.3435 174.429 83.508C174.792 83.982 174.997 84.2685 175.303 84.782C176.233 86.244 176.278 86.3531 176.147 88.0723C175.792 88.0577 175.622 87.9025 175.285 87.7641L175.087 87.6847L174.82 87.2165C174.225 86.9757 174.102 86.9038 173.579 86.5207L173.451 86.4254C173.329 86.1287 173.046 84.6405 172.83 83.9873C171.376 82.928 167.9 77.9056 167.335 76.1048L167.063 74.7625C166.786 73.2398 166.662 72.1853 166.521 70.6567L170.52 70.6669L170.709 71.3875C173.014 68.5655 172.813 64.2446 170.155 61.6913Z" fill="#C4F4F1"/>
<path d="M166.521 70.6553L170.52 70.665L170.709 71.3861C170.623 71.9909 170.354 73.7376 170.458 74.2919C170.909 76.7064 172.876 81.6578 174.429 83.5061C174.792 83.9806 174.997 84.2666 175.303 84.7801C176.233 86.2425 176.278 86.3516 176.147 88.0708C175.792 88.0558 175.622 87.9006 175.285 87.7627L175.087 87.6828L174.82 87.2146C174.225 86.9738 174.102 86.9019 173.579 86.5188L173.451 86.4239C173.329 86.1268 173.046 84.6391 172.83 83.9855C171.376 82.9261 167.9 77.9037 167.335 76.1029L167.063 74.7606C166.786 73.2383 166.662 72.1838 166.521 70.6553Z" fill="#D4AD7C"/>
<path d="M173.453 86.4246C174.068 85.2415 174.116 85.1826 175.305 84.7812C176.235 86.2437 176.281 86.3524 176.149 88.072C175.794 88.0569 175.624 87.9017 175.287 87.7638L175.089 87.684L174.822 87.2157C174.227 86.9749 174.104 86.9031 173.581 86.52L173.453 86.4246Z" fill="#CAA674"/>
<path d="M163.742 77.3847C163.761 75.7599 163.753 73.7968 163.846 72.1459C164.099 69.0587 163.943 64.9218 166.318 62.5987C167.451 61.4905 169.043 62.1082 169.883 63.251C171.446 65.3715 170.855 68.2521 170.524 70.6661L166.526 70.6559C166.665 72.1849 166.79 73.239 167.068 74.7617C165.767 75.9962 165.27 76.4375 163.742 77.3847Z" fill="#C4F4F1"/>
<path d="M167.338 76.1035C167.903 77.9043 171.379 82.9267 172.834 83.9856C169.114 84.2171 166.973 84.3315 163.418 83.0655C163.399 82.7254 163.355 82.3972 163.315 82.0593L162.874 81.7973C162.065 81.838 161.731 81.7964 160.951 81.7028L163.591 81.5955L163.66 79.0351C164.592 78.4107 166.721 76.9931 167.338 76.1035Z" fill="#C4F4F1"/>
<path d="M142.935 134.592C142.897 134.047 142.815 132.59 142.981 131.862C143.562 129.316 141.244 130.936 140.125 129.081C139.37 127.83 139.823 126.147 140.751 125.589L141.002 125.793C141.831 130.336 144.265 128.412 147.687 128.394C151.042 128.377 153.882 129.107 156.881 127.219L157.1 127.38L157.842 127.188C159.07 128.185 160.021 128.967 161.512 129.601C161.476 130.172 161.599 129.981 161.304 130.318C160.666 132.043 161.158 132.266 159.998 134.265C161.068 135.12 163.146 136.593 162.945 138.146C162.01 138.596 161.158 137.377 160.611 136.724L157.702 135.746C157.404 136.523 157.028 137.597 156.692 138.33C158.857 139.14 166.117 138.05 167.37 140.03C165.596 142.654 139.557 142.074 136.468 140.22L136.195 139.817C136.607 139.145 139.584 138.658 140.403 138.705C140.6 137.97 140.803 136.531 140.941 135.734C141.613 135.388 142.281 134.977 142.935 134.592Z" fill="#004E49"/>
<path d="M154.852 138.415C154.774 138.905 154.822 138.993 154.94 139.461C155.366 139.947 155.47 140.165 156.06 140.332C157.103 139.511 156.352 139.205 156.692 138.33C158.857 139.14 166.117 138.051 167.37 140.03C165.596 142.654 139.557 142.074 136.468 140.22L136.195 139.817C136.607 139.145 139.584 138.658 140.403 138.705C140.633 139.58 140.453 139.31 141.018 139.881C141.701 140.008 141.396 140.067 141.972 139.737C142.203 139.086 142.212 139.323 142.101 138.689C143.154 138.632 144.359 138.803 145.35 138.534C146.191 139.396 146.358 140.219 147.734 139.946L148.03 139.591C147.871 138.929 147.765 138.895 147.155 138.527C148.882 138.182 153.024 138.298 154.852 138.415Z" fill="#E5F4F4"/>
<path d="M148.724 135.148C149.297 135.288 150.034 135.409 150.579 135.573C151.966 135.991 154.632 135.363 155.287 136.855C155.217 137.622 155.214 137.743 154.848 138.415C153.021 138.298 148.879 138.182 147.152 138.527C146.506 136.891 147.659 136.26 148.724 135.148Z" fill="white"/>
<path d="M142.098 138.689C141.969 138.159 142.006 138.33 142.258 137.718C142.946 137.059 144.019 136.737 144.949 136.629C145.043 137.378 145.082 137.643 145.298 138.371L145.348 138.534C144.356 138.803 143.151 138.632 142.098 138.689Z" fill="white"/>
<path d="M157.098 127.38L157.84 127.188C159.068 128.184 160.019 128.966 161.509 129.6C161.474 130.172 161.596 129.98 161.302 130.318C159.329 129.911 158.201 129.042 157.098 127.38Z" fill="#006862"/>
<path d="M166.934 50.9719C167.152 50.6326 167.379 50.3001 167.615 49.975C169.812 46.9672 171.865 48.9387 174.806 48.5086C175.804 48.3622 176.582 48.1383 177.163 49.0935C177.301 50.5227 176.912 51.4663 175.608 52.1093C175.624 53.9482 175.84 57.0505 174.443 58.3795C172.855 59.889 172.112 58.2606 172.159 61.076C171.344 61.6144 171.087 61.5767 170.155 61.6906C168.531 60.8188 168.078 61.3124 166.672 60.7647L168.124 59.8721C168.323 59.2336 168.511 58.2779 168.662 57.5973C167.172 55.1943 166.766 53.7513 166.934 50.9719Z" fill="#004E49"/>
<path d="M171.945 52.04C173.158 52.099 174.393 52.0977 175.608 52.1101C175.624 53.9486 175.84 57.0509 174.443 58.3799C172.855 59.8893 172.112 58.2615 172.159 61.0769C171.344 61.6147 171.087 61.577 170.155 61.691C168.531 60.8192 168.078 61.3132 166.672 60.7656L168.124 59.8725C168.323 59.2344 168.511 58.2783 168.662 57.5981C170.818 55.4009 168.571 55.9294 169.592 54.0391C170.452 53.62 169.854 54.3903 170.903 54.3756C171.528 53.7943 171.684 52.8959 171.945 52.04Z" fill="#D4AD7C"/>
<path d="M199.638 58.3224C199.713 56.6507 197.914 55.8991 198.867 54.1351C200.849 50.4754 206.279 49.4231 207.915 54.0446C208.825 54.0925 209.386 54.057 210.194 54.4805L210.407 54.8707C210.006 55.715 209.268 56.2365 208.464 56.676C208.24 57.1176 208.27 57.2054 208.282 57.6883C208.274 58.1734 208.354 58.3278 208.145 58.6892C207.57 59.5627 207.5 60.4962 206.772 61.1352L206.392 61.2114C205.71 61.2305 205.215 61.1875 204.586 61.4482L203.122 60.5383L203.028 60.2855L202.505 60.1977C202.695 57.8883 201.009 59.1304 201.887 56.9292L201.661 56.7775C200.989 56.9943 200.558 57.1123 199.929 57.4626C199.741 57.8528 199.708 57.8812 199.638 58.3224Z" fill="#D4AD7C"/>
<path d="M199.638 58.3224C199.713 56.6507 197.914 55.8991 198.867 54.1351C200.849 50.4754 206.279 49.4231 207.915 54.0446C205.975 54.4601 205.161 54.5222 203.68 55.9549L201.661 56.7775C200.989 56.9943 200.558 57.1123 199.929 57.4626C199.741 57.8528 199.708 57.8812 199.638 58.3224Z" fill="#55A09D"/>
<path d="M207.914 54.0449C208.824 54.0924 209.385 54.0573 210.193 54.4804L210.407 54.871C210.005 55.7149 209.267 56.2364 208.463 56.6758C208.24 57.1175 208.269 57.2053 208.281 57.6882C208.03 56.9202 208.15 56.0444 207.475 55.6156L206.725 55.7974C205.48 55.6032 204.891 55.7193 203.68 55.9553C205.16 54.5221 205.974 54.46 207.914 54.0449Z" fill="#006862"/>
<path d="M203.68 55.9541C204.891 55.7182 205.479 55.6021 206.725 55.7963L206.501 55.8779C205.27 56.3439 204.3 57.0556 203.214 57.7873C202.61 57.4569 202.38 57.0862 201.885 56.9279L201.66 56.7763L203.68 55.9541Z" fill="#004E49"/>
<path d="M253.013 97.4777C253.735 97.0129 255.491 95.6472 256.245 95.9629C257.401 96.4476 259.512 96.8152 259.811 98.1947C260.651 100.087 261.789 100.07 263.684 100.514C263.178 101.401 262.599 102.5 261.956 103.265C260.986 104.073 260.594 104.21 259.362 103.679C257.075 103.121 258.099 104.429 256.299 105.682C254.839 104.462 253.135 103.414 251.877 101.918C251.348 101.289 251.492 100.971 250.622 100.616L250.477 100.311C251.292 99.3565 252.169 98.4111 253.013 97.4777Z" fill="#004E49"/>
<path d="M259.362 103.68L259.125 103.183L259.305 102.968C260.079 102.75 261.126 103.082 261.956 103.266C260.987 104.075 260.594 104.211 259.362 103.68Z" fill="#55A09D"/>
<path d="M255.799 107.342C257.697 107.418 263.801 108.396 263.695 110.954C262.195 113.82 254.618 114.506 254.077 115.137C253.907 114.61 253.782 114.074 253.644 113.537L253.309 112.821C254.372 111.552 254.624 111.381 255.47 109.884C255.747 108.962 255.745 108.298 255.799 107.342Z" fill="#FCFCFC"/>
<path d="M255.47 109.884C256.508 110.295 258.319 110.892 259.008 111.667C258.66 112.2 255.167 112.689 253.644 113.537L253.309 112.821C254.372 111.552 254.624 111.381 255.47 109.884Z" fill="white"/>
<path d="M160.777 122.427C161.982 122.727 163.061 122.833 163.805 123.824C164.376 124.797 164.445 125.01 165.533 125.289C165.971 125.399 166.411 125.501 166.853 125.593C163.646 130.459 164.503 127.252 161.91 128.226C161.54 128.788 161.572 128.901 161.509 129.6C160.019 128.966 159.069 128.184 157.839 127.187L157.098 127.38L156.879 127.218L157.376 126.761C156.912 125.213 158.006 124.283 158.974 123.218L160.777 122.427Z" fill="#004E49"/>
<path d="M157.376 126.762C158.031 126.234 158.438 125.871 159.037 125.281C159.506 125.393 159.661 125.649 159.991 126.01C160.089 126.681 160.158 126.377 159.748 126.945C158.768 127.363 159.273 126.47 157.839 127.188L157.098 127.38L156.879 127.219L157.376 126.762Z" fill="#229B94"/>
<path d="M208.871 71.4597L210.16 70.8965C210.632 75.5535 212.201 79.2877 214.973 83.1154C215.441 83.7615 217.168 83.8289 216.645 86.1095C215.743 86.776 214.524 85.6434 214.069 84.8634C212.169 81.6104 209.683 79.6925 208.164 76.1273L208.064 74.863C208.142 73.6551 208.124 72.421 208.871 71.4597Z" fill="#D4AD7C"/>
<path d="M199.635 58.3223C199.705 57.8811 199.739 57.8527 199.927 57.4625C200.556 57.1121 200.987 56.9942 201.659 56.7773L201.885 56.929C201.007 59.1302 202.692 57.8882 202.503 60.1976C202.336 61.4263 202.3 62.0622 201.509 63.0653C200.603 63.2404 199.526 63.577 198.776 64.1216C197.241 65.2922 197.383 66.4971 196.67 66.8886C191.769 62.201 198.203 61.1563 199.524 58.5467L199.635 58.3223Z" fill="#004E49"/>
<path d="M143.254 73.4463C143.625 77.0882 144.602 78.866 146.444 81.994C147.089 83.0875 147.715 84.5548 148.84 85.2364C149.949 85.8807 150.387 87.015 150.078 88.246C149.517 88.7852 149.25 88.6416 148.599 88.2704C146.307 84.8706 145.638 84.1921 142.775 81.2047C142.179 79.8047 142.564 74.8156 143.254 73.4463Z" fill="#D4AD7C"/>
<path d="M174.391 79.318C174.423 77.1274 174.38 75.5181 175.013 73.3896C175.157 75.4383 178.739 80.9436 179.956 82.8708C180.66 83.1856 181.534 83.4787 181.748 84.2188C181.927 84.8326 182.195 85.9145 181.923 86.515C180.708 86.903 175.556 80.4944 174.391 79.318Z" fill="#D4AD7C"/>
<path d="M105.557 140.9C106.201 140.091 107.377 138.753 108.275 138.286C109.833 139.541 112.954 140.42 114.011 142.525L113.951 142.951C112.447 143.776 111.492 142.525 110.318 141.558C108.521 141.515 107.323 141.42 105.557 140.9Z" fill="#229B94"/>
</svg>
