<svg width="768" height="512" viewBox="0 0 768 512" fill="none" xmlns="http://www.w3.org/2000/svg">
<path d="M617.188 224.729C617.346 214.283 616.495 204.204 617.098 193.444C617.674 198.106 617.373 211.347 617.387 216.715C624.254 216.874 633.339 217.43 640.215 218.159C643.176 216.534 645.039 216.027 648.36 217.208C649.525 212.853 650.412 210.6 654.503 208.212C659.16 205.495 664.024 207.484 666.846 211.676C667.701 212.95 667.341 216.313 668.083 217.342L668.601 217.193C673.645 215.765 676.768 216.956 679.023 221.816C685.665 222.692 757.138 230.236 731.214 244.098C716.611 251.903 688.428 255.592 672.907 264.963C660.546 272.067 659.875 284.514 647.064 294.131C613.773 319.12 572.674 334.005 533.457 346.648C495.301 358.673 456.655 369.094 417.631 377.885C404.617 380.862 391.59 383.765 378.544 386.592C375.862 387.164 363.847 389.397 362.308 390.033C363.96 392.315 364.659 393.472 365.691 396.141C373.099 397.133 391.239 400.312 396.652 405.394C397.705 406.384 398.574 407.613 398.556 409.116C398.538 410.354 397.84 411.421 396.99 412.263C376.672 432.297 255.797 442.024 224.559 443.559C200.407 444.742 176.315 444.688 152.145 444.441C219.649 384.8 311.222 361.494 397.35 344.073C444.753 334.485 492.502 326.768 539.905 317.172C567.666 311.551 622.647 299.186 645.714 283.605C651.339 279.806 657.963 274.375 659.214 267.34C659.821 263.922 658.894 260.566 656.896 257.761C648.18 245.518 622.372 241.277 608.499 239.078C603.751 238.326 584.811 235.087 582.237 236.957C581.562 233.846 576.801 233.017 574.195 231.924C572.494 231.212 568.534 234.292 566.905 235.341C565.002 237.445 563.026 239.577 561.186 241.729L561.514 242.418C563.476 243.218 563.152 243.936 564.345 245.355C567.18 248.726 571.023 251.09 574.317 253.842C574.438 255.365 574.551 255.55 573.772 256.76L573.187 257.584C573.066 259.741 573.07 261.238 572.445 263.317C570.537 266.693 569.97 267.078 567.571 269.94L568.327 271.556C568.638 272.766 568.921 273.975 569.304 275.163C569.988 278.599 569.97 282.508 572.292 284.48C574.789 283.947 583.762 285.084 585.508 287.423C583.335 292.617 500.656 294.812 497.196 287.379C498.703 285.077 503.73 285.019 506.623 283.689C506.592 279.577 506.601 277.014 507.213 272.94C510.421 270.676 510.88 270.285 512.185 266.545L510.412 260.647C509.017 260.386 499.941 260.756 497.844 260.698C489.667 260.468 481.27 260.612 473.098 260.088C472.797 258.347 472.621 255.374 472.45 253.527C471.73 247.249 471.204 240.95 470.866 234.64C470.322 233.185 468.409 215.572 468.126 213.108C469.642 213.53 483.093 213.273 485.635 213.287C504.247 213.296 522.859 213.419 541.467 213.657C564.687 214.02 587.574 215.439 610.587 215.985L610.825 216.548L610.632 220.323C610.704 223.579 610.6 227.322 614.268 228.683C615.915 228.153 616.86 226.385 617.188 224.729Z" fill="#FCFCFC"/>
<path d="M470.867 234.639C471.821 233.582 472.442 233.692 473.972 233.651C486.923 233.304 559.823 232.505 566.906 235.34C565.003 237.445 563.027 239.577 561.187 241.729L561.515 242.417C563.477 243.218 563.153 243.936 564.346 245.354C567.181 248.726 571.024 251.09 574.318 253.842C574.439 255.364 574.552 255.549 573.773 256.76L573.188 257.583C573.067 259.74 573.071 261.237 572.446 263.317C570.538 266.693 569.971 267.078 567.572 269.939L568.328 271.556C568.639 272.766 568.922 273.975 569.305 275.163C569.989 278.599 569.971 282.508 572.293 284.479C574.79 283.947 583.763 285.084 585.509 287.423C583.336 292.617 500.657 294.812 497.197 287.379C498.704 285.077 503.731 285.019 506.624 283.688C506.593 279.577 506.602 277.013 507.214 272.94C510.422 270.675 510.881 270.285 512.186 266.545L510.413 260.647C509.018 260.386 499.942 260.756 497.845 260.698C489.668 260.468 481.271 260.612 473.099 260.088C472.798 258.346 472.622 255.373 472.451 253.527C471.731 247.248 471.205 240.95 470.867 234.639Z" fill="#004E49"/>
<path d="M470.867 234.639C471.821 233.582 472.442 233.692 473.972 233.651C486.923 233.304 559.823 232.505 566.906 235.34C565.003 237.445 563.027 239.577 561.187 241.729L561.515 242.417L560.422 243.351C557.654 244.218 549.649 247.061 547.574 247.106C533.894 247.406 530.488 241.315 516.299 246.636C505.009 244.76 507.578 244.485 500.972 236.746L500.252 236.838C498.974 238.875 498.38 242.991 498.961 245.334C500.36 250.975 506.386 252.487 511.291 253.115C511.376 254.079 511.43 254.083 511.174 255.002C510.418 256.634 510.49 258.81 510.413 260.647C509.018 260.386 499.942 260.756 497.845 260.698C489.668 260.468 481.271 260.612 473.099 260.088C472.798 258.346 472.622 255.373 472.451 253.527C471.731 247.248 471.205 240.95 470.867 234.639Z" fill="white"/>
<path d="M472.451 253.527C484.961 253.592 498.88 253.372 511.174 255.003C510.418 256.634 510.49 258.811 510.413 260.648C509.018 260.387 499.942 260.757 497.845 260.698C489.668 260.469 481.271 260.613 473.099 260.089C472.798 258.347 472.622 255.374 472.451 253.527Z" fill="#E5F4F4"/>
<path d="M559.963 273.78C561.151 272.376 565.728 270.437 567.573 269.939L568.329 271.556C568.639 272.766 568.923 273.975 569.305 275.163C569.989 278.599 569.971 282.508 572.293 284.479C574.791 283.947 583.764 285.084 585.51 287.423C583.336 292.617 500.658 294.812 497.197 287.379C498.705 285.077 503.731 285.019 506.625 283.689C507.588 286.447 508.735 287.698 511.746 286.759C512.416 285.451 512.34 286.059 511.903 284.489C515.193 283.98 520.057 283.8 523.423 283.615C524.31 284.705 525.268 285.836 526.11 286.954C527.964 287.009 529.809 287.279 531.429 286.521C531.906 285.159 531.366 284.689 530.376 283.707C533.49 282.77 543.642 283.047 547.674 282.829C548.524 284.535 549.433 286.659 551.346 287.333C552.772 286.848 552.282 287.083 553.38 285.891C553.681 283.725 552.822 284.253 553.465 283.686C556.768 280.072 557.281 277.492 559.963 273.78Z" fill="#E5F4F4"/>
<path d="M559.963 273.78C561.151 272.376 565.727 270.437 567.572 269.939L568.328 271.556C568.639 272.766 568.922 273.975 569.305 275.163C569.989 278.599 569.971 282.508 572.293 284.479C571.091 288.025 567.635 287.708 566.236 283.76C565.124 280.378 562.123 276.666 559.963 273.78Z" fill="#229B94"/>
<path d="M553.463 283.685C556.766 280.072 557.279 277.492 559.961 273.779C562.121 276.665 565.122 280.377 566.234 283.759C561.977 283.641 557.72 283.616 553.463 283.685Z" fill="white"/>
<path d="M530.23 270.98C539.113 273.058 543.222 274.59 552.415 273.902C551.605 278.84 552.087 279.96 547.672 282.829C543.64 283.047 533.488 282.771 530.374 283.708C523.363 281.62 528.394 274.9 530.23 270.98Z" fill="white"/>
<path d="M512.185 266.545C515.214 267.475 517.711 271.276 519.021 274.015L519.669 275.147C519.322 280.101 519.682 280.421 523.422 283.615C520.056 283.8 515.191 283.98 511.902 284.489C512.338 286.059 512.415 285.451 511.744 286.759C508.734 287.698 507.586 286.447 506.623 283.689C506.592 279.577 506.601 277.014 507.213 272.941C510.421 270.676 510.88 270.285 512.185 266.545Z" fill="#229B94"/>
<path d="M519.019 274.016L519.668 275.147C519.321 280.102 519.681 280.422 523.42 283.615C520.054 283.8 515.19 283.981 511.901 284.489C510.375 282.579 511.342 280.105 511.77 277.81C514.812 276.48 516.229 275.897 519.019 274.016Z" fill="white"/>
<path d="M519.669 275.147C520.358 274.673 522.329 273.97 523.143 273.679C527.963 271.955 528.899 269.883 531.522 265.861C532.427 266.466 536.9 269.528 537.476 269.701C542.628 271.251 547.29 270.857 552.11 269.207L552.551 269.634C552.695 271.336 552.902 272.257 552.416 273.902C543.222 274.59 539.114 273.058 530.231 270.98C528.395 274.9 523.364 281.62 530.375 283.708C531.365 284.689 531.905 285.16 531.428 286.521C529.808 287.28 527.963 287.009 526.109 286.954C525.267 285.836 524.309 284.705 523.422 283.615C519.683 280.421 519.323 280.101 519.669 275.147Z" fill="#229B94"/>
<path d="M560.422 243.352L561.515 242.418C563.477 243.219 563.153 243.936 564.346 245.355C567.181 248.727 571.024 251.09 574.318 253.843C574.439 255.365 574.552 255.55 573.773 256.76C568.558 253.736 561.133 249.846 560.422 243.352Z" fill="#006862"/>
<path d="M300.479 386.651C300.53 380.689 302.127 375.576 306.351 371.228C310.232 367.175 315.584 364.858 321.194 364.804C334.996 364.608 341.493 374.667 341.56 387.408C349.338 383.008 355.948 384.093 362.308 390.034C363.96 392.315 364.659 393.472 365.691 396.141C366.196 399.629 366.547 401.65 365.61 405.057C365.567 405.205 365.528 405.354 365.481 405.498C365.003 406.979 363.977 408.64 362.554 409.342C360.113 410.539 283.446 410.508 281.016 409.5C279.256 408.766 278.487 406.511 277.79 404.89C275.564 389.86 286.244 381.237 300.479 386.651Z" fill="#C0E7C8"/>
<path d="M648.359 217.208C649.524 212.853 650.411 210.6 654.501 208.211C659.159 205.495 664.023 207.484 666.845 211.676C667.7 212.95 667.34 216.313 668.082 217.342L668.6 217.193C673.644 215.765 676.767 216.956 679.022 221.816C678.99 223.152 679.004 224.767 678.914 226.075L677.955 227.419C674.94 229.269 645.744 228.275 640.259 228.055C639.156 228.011 638.603 226.629 638.027 225.675C637.986 221.975 638.274 221.242 640.214 218.159C643.175 216.534 645.038 216.027 648.359 217.208Z" fill="#C0E7C8"/>
<path d="M277.789 404.889C278.485 406.509 279.255 408.764 281.014 409.498C283.444 410.506 360.112 410.538 362.552 409.34C363.975 408.638 365.001 406.977 365.48 405.496C365.526 405.352 365.565 405.204 365.608 405.055C368.784 405.321 375.141 405.856 376.086 409.358C371.701 417.478 272.396 418.468 266.154 409.066L266.381 408.287C268.618 406.104 274.54 405.492 277.789 404.889Z" fill="#E5F4F4"/>
<path d="M186.136 172.587C186.531 179.517 186.296 188.107 186.288 195.138L186.253 234.341C201.53 231.756 216.87 229.556 232.257 227.743C239.504 226.843 279.94 223.002 282.603 221.788C283.8 222.997 284.168 223.427 285.816 223.5C287.014 222.397 286.589 221.505 287.363 219.374L288.132 219.202L288.182 220.915L288.915 221.152C291.425 220.883 293.21 220.711 295.724 220.703L296.252 220.359C293.504 215.089 294.262 210.72 295.453 205.337C302.658 207.847 311.262 208.714 318.602 206.365C318.818 210.552 319.462 214.491 320.073 218.632C324.7 217.945 331.224 218.033 336.171 217.766C345.73 217.251 355.616 216.405 365.149 216.226L365.693 213.872C364.272 209.116 364.33 207.819 364.857 202.838C372.873 205.694 377.701 205.435 386.089 204.914C386.575 206.387 387.214 209.743 387.489 210.412L387.777 210.627C388.956 211.491 389.235 211.653 390.576 212.196L391.179 213.252C392.943 221.589 396.498 236.094 397.533 244.063C397.816 248.315 398.239 251.877 398.806 256.107C399.049 257.822 399.769 263.871 400.116 265.274C400.507 267.845 402.424 278.979 401.92 280.965C401.997 282.335 401.974 282.43 402.523 283.661C408.306 286.702 411.168 284.871 414.025 287.039L414.372 287.732C415.83 288.084 417.796 288.361 418.867 289.274L418.998 290.094C414.511 294.002 385.698 294.28 378.624 294.441C376.432 294.49 367.125 294.184 365.73 294.753C364.051 292.52 361.618 292.281 358.901 291.603L354.835 293.387C353.558 293.008 344.045 292.084 341.831 291.786L341.588 292.021L342.656 293.128C341.414 295.83 324.065 296.877 320.846 296.865C311.22 298.624 297.924 296.558 288.121 297.306C284.161 297.608 258.472 302.115 256.714 303.549L256.709 303.975C258.045 311.258 252.068 312.846 246.268 309.786C240.377 315.614 244.612 320.763 240.502 327.365C238.477 328.417 235.825 331.435 234.372 333.259C233.484 334.915 231.295 340.986 231.489 342.737L232.15 343.36C237.672 342.444 258.684 342.85 262.314 346.797C260.157 353.361 178.959 353.67 171.628 347.633L171.441 346.764C173.375 344.542 178.557 344.09 181.624 343.524C182.631 340.306 183.322 336.943 184.065 333.649C184.157 333.591 184.25 333.533 184.343 333.476L184.8 333.175C190.021 329.781 188.333 326.334 189.12 320.645C187.256 320.191 184.312 321.266 182.457 321.815C143.095 333.465 104.222 347.055 68.6945 368.091C61.3168 372.543 54.2176 377.442 47.4361 382.759C45.2905 384.462 40.5439 388.962 39.0359 389.948L38.5184 389.444C34.1916 369.927 60.9527 349.74 74.9859 340.507C81.3917 336.368 87.9302 332.437 94.5911 328.722C102.196 324.504 132.676 310.104 136.055 303.659C136.717 302.394 136.95 301.056 136.46 299.693C132.437 288.483 72.2135 286.434 58.6807 279.641C56.5481 278.571 53.6632 276.669 53.0129 274.253C52.6673 272.969 53.0084 271.713 53.7486 270.636C57.4386 265.269 75.0458 259.281 81.6045 258.273C81.7215 257.978 81.8417 257.685 81.9641 257.393C85.9943 247.81 95.3579 245.996 104.303 249.858C104.316 246.498 104.609 243.741 105.88 240.606C107.943 235.403 112.007 231.246 117.161 229.066C122.441 226.819 128.406 226.806 133.696 229.03C139.354 231.468 142.49 235.647 144.703 241.204C150.221 240.206 155.752 239.282 161.294 238.431C166.085 237.523 170.428 236.75 175.273 236.25C175.932 237.491 176.568 238.319 177.816 239.053C179.199 239.871 180.866 240.056 182.394 239.562C184.416 238.893 184.979 237.832 185.855 236.087C185.42 226.99 185.868 214.589 185.823 205.224C185.777 195.858 185.414 181.697 186.136 172.587Z" fill="#FCFCFC"/>
<path d="M295.456 205.338C302.662 207.848 311.265 208.715 318.605 206.366C318.822 210.553 319.466 214.492 320.077 218.633C324.703 217.946 331.227 218.034 336.175 217.767C345.734 217.252 355.619 216.406 365.153 216.227C364.303 226.303 364.648 243.753 357.556 250.603L356.04 254.368C355.162 257.32 349.527 274.399 349.568 276.197C345.931 275.842 337.917 278.41 333.772 279.305C331.196 279.862 328.01 279.557 327.485 279.676C327.468 280.527 327.497 281.946 327.332 282.731C325.796 283.102 323.743 283.534 322.272 283.968L321.128 281.982C320.154 276.265 314.488 265.026 314.118 260.52C313.099 248.113 314.194 250.124 307.82 238.641C306.244 235.759 298.513 221.28 296.256 220.36C293.507 215.09 294.266 210.721 295.456 205.338Z" fill="#FCFCFC"/>
<path d="M295.456 205.338C302.662 207.848 311.265 208.715 318.605 206.366C318.822 210.553 319.466 214.492 320.077 218.633C321.961 233.032 323.765 247.197 325.047 261.668C325.296 264.482 326.812 278.303 327.485 279.676C327.468 280.527 327.497 281.946 327.332 282.731C325.796 283.102 323.743 283.534 322.272 283.968L321.128 281.982C320.154 276.265 314.488 265.026 314.118 260.52C313.099 248.113 314.194 250.124 307.82 238.641C306.244 235.759 298.513 221.28 296.256 220.36C293.507 215.09 294.266 210.721 295.456 205.338Z" fill="#006862"/>
<path d="M349.758 252.206C352.244 251.261 354.883 250.224 357.552 250.602L356.037 254.368C354.547 253.728 351.395 252.762 349.758 252.206Z" fill="white"/>
<path d="M104.303 249.858C104.316 246.498 104.61 243.74 105.88 240.605C107.944 235.402 112.008 231.246 117.161 229.066C122.441 226.819 128.406 226.806 133.696 229.03C139.355 231.467 142.491 235.646 144.703 241.203C145.457 244.103 145.673 247.387 145.525 250.375C159.336 243.005 172.672 252.838 169.791 268.065C169.76 268.158 169.733 268.252 169.698 268.344C169.153 269.751 168.373 271.877 166.91 272.51C164.514 273.547 86.7888 273.326 84.8817 272.45C83.1384 271.649 82.3612 269.815 81.6543 268.165C80.6589 264.13 80.6305 262.273 81.6048 258.272C81.7218 257.978 81.8419 257.685 81.9643 257.393C85.9945 247.809 95.3581 245.995 104.303 249.858Z" fill="#C0E7C8"/>
<path d="M233.758 300.494C237.201 295.242 242.334 293.572 247.527 297.755C250.799 300.389 251.973 304.676 256.709 303.975C258.046 311.259 252.068 312.847 246.269 309.786C240.378 315.614 244.613 320.764 240.503 327.366C238.477 328.417 235.826 331.436 234.373 333.26C233.484 334.915 231.295 340.986 231.489 342.738L232.15 343.361C237.673 342.445 258.684 342.851 262.315 346.797C260.158 353.362 178.96 353.67 171.629 347.633L171.441 346.764C173.376 344.543 178.558 344.09 181.625 343.524C182.632 340.307 183.323 336.943 184.065 333.65C184.158 333.592 184.251 333.534 184.344 333.476L184.801 333.175C190.021 329.782 188.334 326.335 189.121 320.645C189.712 319.46 190.028 318.703 190.486 317.459C188.359 317.105 178.248 313.394 177.42 311.771C182.956 310.524 181.316 309.852 183.679 305.016C184.459 303.419 186.472 301.558 188.366 301.545C190.74 303.656 189.496 307.319 190.48 311.18C194.043 315.677 197.235 311.301 200.827 311.19C212.813 310.82 219.96 315.126 230.844 307.966L231.788 306.759C230.986 303.742 231.929 302.653 233.758 300.494Z" fill="#004E49"/>
<path d="M205.109 343.147C209.873 341.524 222.033 343.137 226.814 342.232L227.539 340.892C227.531 345.056 230.285 348.805 234.004 345.689L234.168 344.792C233.299 343.593 233.671 343.983 232.15 343.36C237.673 342.444 258.684 342.85 262.315 346.797C260.158 353.361 178.96 353.67 171.629 347.633L171.441 346.764C173.376 344.542 178.558 344.09 181.625 343.524C182.007 344.768 182.207 345.011 182.904 346.134C184.461 347.226 185.133 347.578 186.653 346.403C186.96 344.668 186.829 345.146 186.079 343.24C190.497 342.906 193.532 342.814 197.96 342.896C199.799 345.398 202.083 347.634 205.515 346.343L206.118 345.53C205.907 344.173 205.935 344.244 205.109 343.147Z" fill="#E5F4F4"/>
<path d="M205.109 343.148C204.618 343.166 203.534 343.066 203.103 342.814C198.291 340.003 203.999 335.537 205.82 332.065L206.037 331.645C216.527 334.089 215.624 335.34 227.062 334.02C227.289 336.411 227.471 338.494 227.539 340.892L226.814 342.233C222.034 343.138 209.873 341.525 205.109 343.148Z" fill="white"/>
<path d="M233.758 300.494C234.732 302.076 235.23 303.339 236.882 304.018C239.48 303.804 240.332 302.011 241.802 300.011C243.448 303.458 236.174 315.445 230.844 307.966L231.788 306.759C230.986 303.743 231.929 302.653 233.758 300.494Z" fill="#229B94"/>
<path d="M188.009 338.025C200.208 334.862 190.923 335.728 197.959 342.896C193.531 342.814 190.496 342.906 186.078 343.24C186.41 341.927 187.47 339.403 188.009 338.025Z" fill="white"/>
<path d="M364.857 202.839C372.873 205.694 377.701 205.436 386.089 204.914C386.575 206.388 387.214 209.744 387.489 210.413L387.777 210.628C388.956 211.491 389.235 211.653 390.576 212.197L391.179 213.253C392.943 221.589 396.498 236.095 397.533 244.063C397.816 248.315 398.239 251.877 398.806 256.108C399.049 257.823 399.769 263.872 400.116 265.275C400.507 267.845 402.424 278.979 401.92 280.965C399.805 281.484 398.221 281.856 396.075 282.178C395.175 280.468 391.93 270.202 390.931 267.416C386.152 268.608 362.641 273.518 359.289 272.122C358.212 273.983 356.438 277.339 355.057 278.793C353.057 277.928 351.481 277.227 349.565 276.197C349.523 274.399 355.159 257.319 356.037 254.367L357.553 250.602C364.645 243.753 364.3 226.302 365.15 216.226L365.693 213.873C364.272 209.117 364.331 207.82 364.857 202.839Z" fill="#004E49"/>
<path d="M364.86 202.839C372.876 205.694 377.704 205.436 386.092 204.914C386.578 206.388 387.217 209.744 387.492 210.413L387.78 210.628C388.959 211.491 389.238 211.653 390.579 212.197L391.182 213.253C392.946 221.589 396.501 236.095 397.536 244.063C397.819 248.315 398.242 251.877 398.809 256.108C399.052 257.823 399.772 263.872 400.119 265.275C400.51 267.845 402.427 278.979 401.923 280.965C399.808 281.484 398.224 281.856 396.078 282.178C395.178 280.468 391.933 270.202 390.934 267.416C387.843 259.341 386.866 256.909 386.295 248.303C385.917 244.93 381.367 234.748 378.577 233.502C378.334 231.571 367.597 215.151 365.696 213.873C364.276 209.117 364.334 207.82 364.86 202.839Z" fill="#006862"/>
<path d="M371.822 250.107C375.458 251.682 382.474 249.518 386.294 248.303C386.866 256.909 387.842 259.34 390.934 267.416C386.155 268.608 362.644 273.517 359.291 272.122C363.338 264.711 367.516 257.371 371.822 250.107Z" fill="#F0F7EF"/>
<path d="M378.575 233.501C381.365 234.747 385.914 244.929 386.292 248.302C382.472 249.517 375.456 251.682 371.82 250.107C374.426 245.483 376.698 238.624 378.575 233.501Z" fill="#FCFCFC"/>
<path d="M359.288 272.122C362.641 273.518 386.152 268.608 390.931 267.416C391.93 270.202 395.174 280.468 396.074 282.178C398.221 281.856 399.805 281.484 401.92 280.965C401.996 282.336 401.974 282.43 402.523 283.661C408.305 286.702 411.167 284.871 414.025 287.039L414.371 287.732C415.829 288.084 417.796 288.361 418.867 289.274L418.997 290.094C414.511 294.003 385.697 294.281 378.623 294.441C376.432 294.491 367.124 294.184 365.729 294.753C364.05 292.52 361.617 292.282 358.9 291.603L354.834 293.387C353.557 293.008 344.045 292.085 341.83 291.786L341.588 292.022L342.655 293.129C341.414 295.831 324.064 296.878 320.845 296.865C309.858 295.747 272.979 299.44 264.315 293.148L264.242 292.34C266.665 289.407 272.798 290.806 275.638 288.677C277.215 290.286 277.469 290.598 279.569 291.532L280.727 291.454C281.264 290.275 281.173 290.873 281.024 289.597C289.795 287.256 303.015 288.855 311.907 288.246L322.953 288.356C322.92 286.553 323.012 285.652 322.268 283.968C323.739 283.533 325.792 283.102 327.328 282.73C327.493 281.945 327.464 280.526 327.481 279.675C328.006 279.556 331.192 279.862 333.768 279.305C337.913 278.41 345.927 275.841 349.564 276.197C351.481 277.227 353.056 277.928 355.057 278.793C356.437 277.339 358.212 273.983 359.288 272.122Z" fill="#E5F4F4"/>
<path d="M359.29 272.122C362.642 273.518 386.153 268.608 390.932 267.416C391.931 270.202 395.176 280.468 396.076 282.178L396.926 282.854C396.962 283.859 396.967 284.512 396.926 285.515L396.773 286.001C388.601 285.991 366.096 285.288 359.666 286.938C356.792 286.298 355.51 283.859 354.205 281.49C354.441 279.838 354.173 279.916 355.058 278.793C356.438 277.339 358.213 273.983 359.29 272.122Z" fill="white"/>
<path d="M327.485 279.675C328.01 279.556 331.196 279.861 333.772 279.305C337.916 278.409 345.931 275.841 349.568 276.197C349.392 277.937 349.325 278.129 348.213 279.477C346.769 281.09 346.326 282.241 345.397 284.187L349.596 286.757C347.472 287.85 341.386 287.872 337.299 289.294C332.851 289.26 332.322 289.039 328.402 286.805C327.627 285.224 327.585 284.43 327.332 282.73C327.497 281.945 327.467 280.526 327.485 279.675Z" fill="white"/>
<path d="M349.565 276.196C351.482 277.226 353.057 277.927 355.058 278.793C354.173 279.915 354.441 279.838 354.205 281.49C355.51 283.859 356.792 286.298 359.665 286.937C360.937 288.083 361.15 288.298 361.425 289.735L360.635 290.239C356.943 290.726 352.798 288.37 349.594 286.757L345.395 284.187C346.323 282.241 346.766 281.089 348.211 279.476C349.322 278.128 349.39 277.937 349.565 276.196Z" fill="#006862"/>
<path d="M349.565 276.196C351.482 277.226 353.057 277.927 355.058 278.793C354.173 279.915 354.441 279.838 354.205 281.49L353.995 281.28C351.496 281.696 350.197 280.783 348.211 279.476C349.322 278.128 349.39 277.937 349.565 276.196Z" fill="#CAA674"/>
<path d="M401.922 280.966C401.998 282.336 401.976 282.431 402.525 283.662C408.307 286.703 411.169 284.872 414.027 287.04C412.074 289.65 400.378 291.437 397.53 290.627C396.607 289.261 396.805 287.731 396.774 286.001L396.927 285.516C396.967 284.512 396.963 283.86 396.927 282.855L396.076 282.178C398.223 281.856 399.807 281.484 401.922 280.966Z" fill="#006862"/>
<path d="M401.922 280.966C401.998 282.336 401.976 282.431 402.525 283.662C400.954 285.285 400.581 285.481 398.349 285.524C397.876 285.531 397.399 285.529 396.927 285.516C396.967 284.512 396.963 283.86 396.927 282.855L396.076 282.178C398.223 281.856 399.807 281.484 401.922 280.966Z" fill="#D4AD7C"/>
<path d="M322.27 283.968C323.74 283.533 325.794 283.102 327.33 282.73C327.583 284.431 327.625 285.224 328.4 286.806C332.319 289.04 332.849 289.261 337.296 289.295C338.145 289.884 338.082 289.844 338.466 290.811L337.853 291.64C334.834 293.115 326.793 293.368 323.364 293.023C322.634 291.512 322.885 290.083 322.954 288.357C322.922 286.554 323.013 285.653 322.27 283.968Z" fill="#229B94"/>
<path d="M322.27 283.968C323.74 283.533 325.794 283.102 327.33 282.73C327.583 284.431 327.625 285.224 328.4 286.806C326.282 288.589 326.159 288.472 322.954 288.357C322.922 286.554 323.013 285.653 322.27 283.968Z" fill="#CAA674"/>
<path d="M307.817 238.64C314.191 250.123 313.096 248.112 314.115 260.519C314.485 265.025 320.151 276.263 321.125 281.98L322.269 283.967C323.013 285.651 322.921 286.553 322.954 288.356L311.908 288.245C303.016 288.854 289.796 287.255 281.025 289.596C278.013 286.931 278.279 284.546 277.84 280.61C278.824 278.764 278.966 278.459 280.577 277.047C284.264 274.972 297.366 256.323 301.515 252.405C303.632 250.407 306.647 241.818 307.817 238.64Z" fill="#FCFCFC"/>
<path d="M301.719 287.697C308.291 286.038 314.633 283.535 321.125 281.98L322.269 283.967C323.013 285.652 322.921 286.553 322.954 288.356L311.908 288.246C309.636 287.801 304.244 287.777 301.719 287.697Z" fill="white"/>
<path d="M296.254 220.359C298.511 221.279 306.242 235.759 307.819 238.64C306.648 241.818 303.633 250.407 301.517 252.406C297.367 256.324 284.265 274.972 280.578 277.048C278.967 278.459 278.826 278.765 277.841 280.611C275.189 280.143 274.929 279.549 273.945 277.178C275.282 275.909 275.691 275.082 276.32 273.413C276.715 271.3 285.488 254.897 287.413 252.328C288.575 250.777 291.366 247.645 292.85 246.076C294.024 239.395 294.947 227.709 295.725 220.703L296.254 220.359Z" fill="#004E49"/>
<path d="M276.32 273.413C277.714 274.693 279.024 275.965 280.578 277.048C278.967 278.459 278.826 278.765 277.841 280.611C275.189 280.144 274.929 279.549 273.945 277.178C275.282 275.909 275.691 275.082 276.32 273.413Z" fill="#CAA674"/>
<path d="M273.945 277.178C274.928 279.549 275.188 280.144 277.841 280.611C278.28 284.547 278.014 286.931 281.026 289.596C281.175 290.873 281.266 290.275 280.729 291.454L279.571 291.531C277.47 290.598 277.217 290.286 275.64 288.677C273.636 285.974 268.878 282.083 270.435 278.816C271.859 277.73 272.206 277.672 273.945 277.178Z" fill="#229B94"/>
<path d="M127.14 120.778C127.357 114.825 127.999 110.083 130.064 104.418C134.772 91.7518 144.297 81.4623 156.562 75.7954C168.813 70.1097 184.019 68.9556 196.666 73.8235C212.326 79.8514 220.911 88.8846 227.789 103.873L227.964 104.324C235.96 108.346 242.018 115.395 244.795 123.905C247.692 132.829 246.884 142.543 242.553 150.865C232.666 169.777 211.759 174.203 192.776 170.402C191.065 170.059 188.476 171.178 186.016 170.683L186.135 172.588C185.413 181.698 185.776 195.858 185.822 205.225C185.867 214.59 185.419 226.991 185.854 236.087C184.979 237.832 184.415 238.894 182.393 239.563C180.865 240.057 179.198 239.871 177.815 239.054C176.567 238.319 175.931 237.492 175.273 236.25C175.133 221.893 175.081 207.535 175.118 193.177C175.116 186.405 175.388 178.636 174.63 171.867C174.48 170.526 174.167 171.211 174.861 169.767C174.023 169.501 170.51 170.254 169.017 170.393C156.679 173.981 144.761 173.302 134.053 165.639C119.683 155.355 116.457 135.37 126.918 121.114L127.14 120.778Z" fill="#C0E7C8"/>
<path d="M127.143 120.778C127.359 114.825 128.001 110.083 130.067 104.418C134.774 91.7518 144.3 81.4623 156.565 75.7954C168.815 70.1097 184.021 68.9556 196.668 73.8235C212.328 79.8514 220.914 88.8846 227.791 103.873C215.558 99.5027 205.337 97.4493 192.816 103.493C186.646 106.509 181.404 111.135 177.645 116.884C169.031 110.097 161.351 106.969 149.99 108.113C141.917 108.926 132.682 113.708 127.616 120.145C127.453 120.352 127.296 120.563 127.143 120.778Z" fill="#E5F4F4"/>
<path d="M227.966 104.324C235.961 108.346 242.02 115.395 244.797 123.905C247.693 132.829 246.885 142.543 242.554 150.865C232.668 169.777 211.761 174.203 192.778 170.402C191.067 170.059 188.477 171.178 186.018 170.683L186.256 170.228C187.721 169.593 191.769 169.364 193.826 168.834C215.972 163.137 232.193 142.495 230.772 119.318C230.439 113.876 229.377 109.578 227.966 104.324Z" fill="#E5F4F4"/>
<path d="M126.918 121.114C129.675 147.975 143.526 163.297 169.017 170.393C156.679 173.981 144.761 173.302 134.053 165.639C119.683 155.355 116.457 135.37 126.918 121.114Z" fill="#E5F4F4"/>
<path d="M177.48 116.949C177.737 117.206 177.991 117.466 178.241 117.728C186.187 126.072 186.479 132.197 186.209 142.962C198.568 146.471 193.865 161.191 185.898 167.27C184.114 166.034 182.338 164.788 180.569 163.53C178.053 165.411 176.673 166.572 174.401 168.741C167.799 160.546 165.938 151.802 174.803 144.514C170.485 135.591 173.316 125.286 177.48 116.949Z" fill="#A8D3B5"/>
<path d="M461.767 153.553L462.622 153.381C464.264 151.94 464.422 149.835 465.718 147.864C465.682 148.81 465.551 151.66 465.826 152.393C467.752 157.57 470.488 157.749 467.783 163.286C467.387 165.527 473.318 172.727 470.267 175.395L467.36 176.665C465.677 178.832 465.718 181.615 465.542 184.34L465.767 187.191L465.587 188.281C465.848 192.611 467.14 198.525 467.059 202.144C466.856 205.426 467.68 209.732 468.125 213.108C468.409 215.572 470.321 233.185 470.866 234.64C471.203 240.95 471.73 247.249 472.45 253.527C472.621 255.373 472.796 258.346 473.098 260.088L473.894 266.784C471.307 266.118 469.759 266.05 467.248 266.773C466.582 264.665 465.61 262.461 464.755 260.406C463.846 258.251 463.112 255.963 462.361 253.744C456.313 253.729 449.045 253.921 443.114 253.514C441.368 255.481 439.555 257.8 437.854 259.667C435.793 261.973 431.36 267.19 429.241 269.035L425.407 266.011C425.614 265.064 426.217 263.862 426.622 262.94C416.812 263.252 409.495 264.58 400.117 265.274C399.77 263.872 399.05 257.822 398.807 256.107C398.24 251.877 397.817 248.315 397.534 244.063C396.499 236.094 392.944 221.589 391.18 213.252L391.625 213.432C392.386 213.743 392.768 214.093 393.569 214.127C396.17 215.741 422.41 214.018 427.378 213.773C427.067 208.434 429.407 208.607 430.379 204.278C431.63 198.728 432.233 192.978 433.574 187.374C434.65 182.873 437.183 177.724 437.863 173.369C438.11 170.874 440.297 168.238 439.847 166.355C441.454 165.472 441.134 162.756 444.595 160.116C446.287 158.887 448.717 158.129 450.76 157.733C452.542 155.471 452.623 154.037 453.001 151.266L454.18 151.464L454.391 152.035L457.694 154.086C459.112 153.498 460.228 153.596 461.767 153.553Z" fill="#FCFCFC"/>
<path d="M461.765 153.553L462.62 153.381C464.262 151.94 464.42 149.835 465.716 147.864C465.68 148.81 465.549 151.66 465.824 152.393C467.75 157.57 470.486 157.749 467.781 163.286C467.385 165.527 473.316 172.727 470.265 175.395L467.358 176.665C465.675 178.832 465.716 181.615 465.54 184.34L465.765 187.191L465.585 188.281C465.846 192.611 467.138 198.525 467.057 202.144C459.825 204.375 450.533 203.65 443.526 200.76C442.721 207.093 442.433 207.43 444.543 213.619C442.041 213.64 435.089 213.916 433.176 213.145L432.114 213.293C431.84 212.427 431.894 212.471 432.101 211.574L431.471 211.797L430.494 215.324L429.68 215.722C428.37 215.037 428.334 214.938 427.376 213.773C427.065 208.434 429.405 208.607 430.377 204.278C431.628 198.728 432.231 192.978 433.572 187.374C434.648 182.873 437.181 177.724 437.861 173.369C438.108 170.874 440.295 168.238 439.845 166.355C441.452 165.472 441.132 162.756 444.593 160.116C446.285 158.887 448.715 158.129 450.758 157.733C452.54 155.471 452.621 154.037 452.999 151.266L454.178 151.464L454.389 152.035L457.692 154.086C459.11 153.498 460.226 153.596 461.765 153.553Z" fill="#006862"/>
<path d="M437.861 173.369C439.778 174.429 443.211 176.106 444.588 177.598L444.552 178.278C446.604 185.28 447.095 187.819 444.831 195.145C444.323 196.786 443.558 199.077 443.526 200.76C442.721 207.093 442.433 207.43 444.543 213.619C442.041 213.64 435.089 213.916 433.176 213.145L432.114 213.293C431.84 212.427 431.894 212.471 432.101 211.574L431.471 211.797L430.494 215.324L429.68 215.722C428.37 215.037 428.334 214.938 427.376 213.773C427.065 208.434 429.405 208.607 430.377 204.278C431.628 198.728 432.231 192.978 433.572 187.374C434.648 182.873 437.181 177.724 437.861 173.369Z" fill="white"/>
<path d="M437.861 173.369C439.778 174.429 443.211 176.106 444.588 177.598L444.552 178.278C440.61 184.764 438.882 190.472 436.578 197.645C435.642 200.563 434.414 203.445 433.595 206.404C433.086 208.358 434.094 209.979 433.176 213.145L432.114 213.293C431.84 212.427 431.894 212.471 432.101 211.574L431.471 211.797L430.494 215.324L429.68 215.722C428.37 215.037 428.334 214.938 427.376 213.773C427.065 208.434 429.405 208.607 430.377 204.278C431.628 198.728 432.231 192.978 433.572 187.374C434.648 182.873 437.181 177.724 437.861 173.369Z" fill="#D4AD7C"/>
<path d="M461.767 153.553L462.622 153.381C464.264 151.94 464.422 149.835 465.718 147.864C465.682 148.81 465.551 151.66 465.826 152.393C467.752 157.57 470.488 157.749 467.783 163.286C467.387 165.527 473.318 172.727 470.267 175.395L467.36 176.665C465.677 178.832 465.718 181.615 465.542 184.34L465.767 187.191L465.587 188.281L465.223 188.104C464.863 188.454 464.606 188.778 464.332 189.19C460.651 186.517 458.833 178.043 457.132 173.78C455.543 169.805 453.653 166.059 452.002 162.135L450.998 158.32L450.76 157.733C452.542 155.471 452.623 154.037 453.001 151.266L454.18 151.464L454.391 152.035L457.694 154.086C459.112 153.498 460.228 153.596 461.767 153.553Z" fill="#C4F4F1"/>
<path d="M466.438 167.864C466.087 165.709 465.605 163.456 465.785 161.294L467.783 163.286C467.387 165.527 473.318 172.727 470.267 175.395L467.36 176.665C465.677 178.832 465.718 181.616 465.542 184.34L465.205 184.508C464.678 183.869 463.819 172.082 463.58 169.948C463.931 168.36 463.598 168.841 464.687 167.823L466.438 167.864Z" fill="#006862"/>
<path d="M466.438 167.864C466.087 165.709 465.605 163.456 465.785 161.294L467.783 163.286C467.387 165.527 473.318 172.727 470.267 175.395L467.36 176.665C468.832 173.099 467.77 171.423 466.438 167.864Z" fill="#55A09D"/>
<path d="M461.767 153.553L462.622 153.381C464.264 151.94 464.422 149.835 465.718 147.864C465.682 148.81 465.551 151.66 465.826 152.393C467.752 157.57 470.488 157.749 467.783 163.286L465.785 161.294L464.26 160.233C463.342 159.699 462.131 159.185 461.146 158.728L459.877 158.688C458.873 157.853 458.783 156.598 458.968 155.402C460.129 153.771 459.508 154.308 461.767 153.553Z" fill="#004E49"/>
<path d="M453.001 151.268L454.18 151.466L454.391 152.036L457.694 154.088C459.112 153.5 460.228 153.597 461.767 153.554C459.508 154.31 460.129 153.773 458.968 155.403C458.783 156.6 458.873 157.854 459.877 158.689C460.111 159.836 459.71 160.218 458.887 160.804C456.083 161.097 453.455 159.569 450.998 158.322L450.76 157.734C452.542 155.473 452.623 154.038 453.001 151.268Z" fill="#CAA674"/>
<path d="M454.391 152.035L457.694 154.087L457.707 154.707L456.897 154.693C455.394 153.752 455.124 153.628 454.391 152.035Z" fill="#B39369"/>
<path d="M461.145 158.728C462.13 159.184 463.341 159.699 464.259 160.233L465.784 161.294C465.604 163.456 466.086 165.708 466.437 167.864L464.686 167.823C463.597 168.841 463.93 168.359 463.579 169.947C463.534 169.803 463.237 166.954 463.044 166.088C462.463 163.448 461.509 161.342 461.145 158.728Z" fill="#55A09D"/>
<path d="M464.26 160.233L465.785 161.294C465.605 163.456 466.087 165.709 466.438 167.864L464.687 167.823C465.718 165.945 464.696 162.417 464.26 160.233Z" fill="#229B94"/>
<path d="M450.76 157.733L450.999 158.321L452.002 162.135C451.66 164.982 451.552 165.214 450.247 167.661C449.28 170.693 447.192 175.664 444.591 177.599C443.214 176.107 439.78 174.43 437.863 173.37C438.111 170.874 440.298 168.239 439.848 166.356C441.454 165.473 441.135 162.756 444.595 160.116C446.287 158.888 448.717 158.129 450.76 157.733Z" fill="#C4F4F1"/>
<path d="M450.759 157.733L450.997 158.321L452.001 162.135C451.659 164.982 451.551 165.214 450.246 167.661C449.409 162.884 449.305 162.067 444.594 160.116C446.286 158.888 448.716 158.129 450.759 157.733Z" fill="#004E49"/>
<path d="M443.528 200.76C450.535 203.65 459.827 204.375 467.059 202.144C466.856 205.426 467.68 209.732 468.125 213.108C468.409 215.572 470.321 233.185 470.866 234.64C471.203 240.95 471.73 247.248 472.45 253.527C472.621 255.373 472.796 258.346 473.098 260.088L473.894 266.784C471.307 266.118 469.759 266.05 467.248 266.773C466.582 264.665 465.61 262.461 464.755 260.406C463.846 258.251 463.112 255.963 462.361 253.744C459.575 242.519 463.832 244.489 456.313 231.184C454.526 228.304 446.557 214.832 444.577 213.915L444.545 213.619C442.435 207.43 442.723 207.093 443.528 200.76Z" fill="#C4F4F1"/>
<path d="M444.578 213.916C446.558 214.834 454.528 228.305 456.314 231.186C463.834 244.491 459.577 242.52 462.362 253.745C456.314 253.73 449.047 253.922 443.116 253.515C441.37 255.482 439.556 257.802 437.855 259.669C435.794 261.975 431.362 267.191 429.242 269.036L425.408 266.013C425.615 265.066 426.218 263.863 426.623 262.942C428.248 260.38 429.697 257.262 431.06 254.521C435.277 247.721 434.485 246.942 440.443 239.796C440.861 239.455 441.806 238.139 441.892 237.665C443.255 230.115 443.237 221.427 444.578 213.916Z" fill="#71B198"/>
<path d="M456.314 231.185C463.833 244.489 459.576 242.519 462.362 253.744C456.314 253.729 449.046 253.921 443.115 253.514C451.679 243.459 451.571 243.996 456.314 231.185Z" fill="white"/>
<path d="M397.533 244.064L398.141 243.612C407.433 246.247 435.378 236.894 440.441 239.795C434.483 246.942 435.275 247.72 431.058 254.521C429.695 257.262 428.246 260.38 426.621 262.941C416.811 263.253 409.494 264.581 400.116 265.275C399.77 263.873 399.05 257.823 398.807 256.108C398.24 251.878 397.817 248.316 397.533 244.064Z" fill="white"/>
<path d="M398.807 256.107C399.873 256.323 407.181 255.651 408.936 255.557C416.33 255.162 423.642 254.589 431.058 254.52C429.695 257.261 428.246 260.379 426.621 262.94C416.811 263.252 409.494 264.58 400.116 265.274C399.77 263.871 399.05 257.822 398.807 256.107Z" fill="#FCFCFC"/>
<path d="M610.671 193.564C603.971 192.867 598.368 190.869 593.054 186.595C586.659 181.354 582.6 173.787 581.781 165.557C579.891 147.147 593.121 132.36 611.346 130.93C619.856 130.27 628.271 133.057 634.701 138.665C640.983 144.078 644.84 151.777 645.411 160.05C646.505 176.524 633.923 192.612 617.097 193.446C616.494 204.206 617.345 214.284 617.187 224.73C616.859 226.386 615.914 228.154 614.267 228.684C610.599 227.323 610.703 223.58 610.631 220.324L610.824 216.549L610.586 215.986L610.671 193.564Z" fill="#E5F4F4"/>
<path d="M610.946 192.106C593.855 178.373 614.352 169.087 623.051 179.563C627.578 185.013 617.394 190.876 617.097 193.444C616.494 204.204 617.345 214.282 617.187 224.728C616.859 226.384 615.914 228.152 614.267 228.683C610.599 227.321 610.703 223.578 610.631 220.322L610.824 216.548C611.553 214.116 611.058 195.704 610.946 192.106Z" fill="#C0E7C8"/>
<path d="M437.854 259.668C439.555 257.801 441.369 255.482 443.115 253.515C449.046 253.922 456.313 253.729 462.361 253.744C463.113 255.964 463.846 258.252 464.755 260.406C465.61 262.462 466.582 264.666 467.248 266.774C469.759 266.051 471.307 266.119 473.895 266.785C475.438 267.703 475.573 268.587 476.172 270.251C478.21 271.968 478.588 270.453 480.428 272.322C480.433 274.371 478.642 275.388 477.103 276.68C477.184 277.231 477.121 277.361 477.387 277.762C479.844 278.315 485.05 278.821 486.427 279.282C488.196 279.409 490.09 279.64 491.282 281.083C489.608 285.444 472.311 284.85 470.394 286.518C469.705 289.257 469.268 289.934 467.837 292.413C468.112 297.087 467.559 300.101 471.982 302.799C474.21 302.807 481.301 303.539 482.174 305.572C481.756 306.115 481.324 306.395 480.703 306.666C472.5 310.244 427.504 309.632 419.206 306.422C418.243 306.05 417.892 305.871 417.469 304.957C419.35 302.306 422.878 303.62 425.785 302.178C426.136 300.038 426.46 297.895 426.766 295.748C432.962 291.788 428.94 290.523 430.663 284.245L430.807 283.733C427.126 284.238 416.452 284.251 414.27 281.086L414.661 280.319C417.285 279.041 420.52 278.92 423.409 278.791C422.365 274.91 419.575 273.901 420.165 270.28C421.285 269.002 421.983 268.928 423.594 268.381C424.494 267.762 424.84 266.959 425.407 266.012L429.241 269.036C431.36 267.19 435.793 261.974 437.854 259.668Z" fill="#004E49"/>
<path d="M437.856 259.668C439.557 257.801 441.371 255.482 443.117 253.515C449.048 253.922 456.315 253.729 462.363 253.744C463.115 255.964 463.848 258.252 464.757 260.406C465.612 262.462 466.584 264.666 467.25 266.774C465.999 267.713 465.076 268.369 463.969 269.501L462.543 269.49C463.317 271.011 464.059 271.734 463.173 273.498L462.457 274.287C459.033 281.982 443.513 278.356 437.271 279.111C435.548 279.319 434.022 280.089 432.465 280.845C427.749 277.943 427.861 277.343 427.105 271.892C427.668 270.691 428.37 270.027 429.243 269.036C431.362 267.19 435.795 261.974 437.856 259.668Z" fill="white"/>
<path d="M437.854 259.668C439.555 257.801 441.368 255.482 443.114 253.515C449.045 253.922 456.313 253.729 462.361 253.744C463.112 255.964 463.846 258.252 464.755 260.406C457.352 260.392 444.811 260.729 437.854 259.668Z" fill="#E5F4F4"/>
<path d="M463.171 273.498C461.349 272.989 460.494 272.7 460.156 270.782C461.209 269.536 460.719 269.926 462.541 269.49C463.315 271.011 464.058 271.734 463.171 273.498Z" fill="#006862"/>
<path d="M471.98 302.799C474.207 302.807 481.299 303.539 482.172 305.572C481.754 306.115 481.322 306.395 480.701 306.666C472.497 310.244 427.502 309.632 419.204 306.422C418.241 306.05 417.89 305.871 417.467 304.957C419.348 302.306 422.876 303.62 425.783 302.178C426.192 304.327 425.801 303.697 427.056 305.087L428.267 305.446L429.171 304.949C429.486 303.678 429.513 304.278 429.194 303.081C431.115 302.718 434.576 302.682 436.641 302.598C437.1 303.108 437.568 303.607 438.05 304.096C439.148 305.231 441.119 305.644 442.626 305.27L442.725 304.438C441.956 303.532 441.623 303.009 440.619 302.401C446.078 302.046 451.914 302.462 457.26 302.013C457.166 303.949 456.972 303.226 457.863 304.814C459.231 305.623 458.646 305.527 460.113 305.403L460.829 304.501L460.347 302.67C461.94 302.672 465.014 302.757 466.472 302.592C467.498 303.876 467.696 304.282 469.248 304.714C470.801 304.39 471.111 304.311 471.98 302.799Z" fill="#E5F4F4"/>
<path d="M477.387 277.762C479.844 278.315 485.051 278.82 486.428 279.282C488.196 279.408 490.091 279.64 491.283 281.083C489.609 285.443 472.311 284.85 470.394 286.518C470.07 284.575 470.12 284.04 471.24 282.559L470.88 282.608C471.335 278.322 473.481 278.634 477.387 277.762Z" fill="#E5F4F4"/>
<path d="M477.386 277.762C479.843 278.315 485.049 278.82 486.426 279.282C484.028 282.911 475.307 282.644 471.239 282.559L470.879 282.608C471.333 278.322 473.48 278.634 477.386 277.762Z" fill="#229B94"/>
<path d="M443.042 294.228C449.567 295.895 450.742 296.344 457.451 295.879C457.528 298.353 457.514 299.555 457.262 302.012C451.916 302.461 446.08 302.045 440.621 302.4C439.505 301.194 439.847 301.771 439.451 300C439.888 298.047 441.769 295.996 443.042 294.228Z" fill="white"/>
<path d="M430.807 283.733C427.126 284.238 416.452 284.251 414.27 281.086L414.661 280.319C417.285 279.041 420.52 278.92 423.409 278.791C424.57 282.959 427.018 283.171 430.807 283.733Z" fill="#E5F4F4"/>
<path d="M430.052 298.915C431.6 298.559 433.148 298.188 434.691 297.802L435.353 298.288C435.537 300.272 435.663 300.82 436.644 302.597C434.579 302.681 431.118 302.717 429.197 303.08C428.832 301.713 429.552 300.338 430.052 298.915Z" fill="white"/>
<path d="M462.54 269.49L463.966 269.501C466.045 273.098 467.764 270.507 467.013 274.068C464.578 276.94 464.592 275.748 464.083 278.824C462.301 276.688 462.315 276.685 462.454 274.287L463.17 273.498C464.056 271.734 463.314 271.011 462.54 269.49Z" fill="#229B94"/>
<path d="M462.944 294.893C464.222 297.411 465.397 299.98 466.472 302.592C465.014 302.758 461.941 302.673 460.348 302.671C461.099 300.275 461.986 297.151 462.944 294.893Z" fill="white"/>
<path d="M425.407 266.012L429.241 269.036C428.368 270.027 427.666 270.691 427.104 271.891L425.605 271.639C424.305 270.823 424.152 269.86 423.594 268.381C424.494 267.762 424.84 266.959 425.407 266.012Z" fill="#D4AD7C"/>
<path d="M293.625 166.395C290.835 165.527 288.557 162.191 288.386 159.395C288.175 155.942 292.518 152.909 293.5 150.195C295.344 145.101 295.416 139.378 299.401 135.222C303.913 129.925 312.989 131.97 317.57 136.135C322.08 140.235 318.369 147.328 318.361 152.944L318.365 153.529C319.001 158.561 321.802 162.305 316.46 165.362C319.391 171.122 323.953 175.214 319.392 181.146C317.834 184.233 316.966 195.484 318.311 198.641C318.425 200.531 319.023 204.981 318.603 206.365C311.263 208.713 302.66 207.846 295.454 205.336C294.263 210.72 293.505 215.088 296.253 220.359L295.725 220.702C293.211 220.71 291.426 220.883 288.917 221.151L288.183 220.915L288.134 219.201L287.364 219.374C286.59 221.505 287.015 222.396 285.817 223.5C284.169 223.427 283.801 222.996 282.604 221.787C281.628 216.419 284.133 216.177 284.718 210.932C285.423 204.612 285.297 197.367 286.444 191.187C287.294 186.613 289.737 181.046 290.272 176.355C289.916 174.638 292.829 168.267 293.625 166.395Z" fill="#A8D3B5"/>
<path d="M293.625 166.395C290.835 165.527 288.557 162.191 288.386 159.395C288.175 155.942 292.518 152.909 293.5 150.195C295.344 145.101 295.416 139.378 299.401 135.222C303.914 129.925 312.99 131.97 317.571 136.135C322.08 140.235 318.369 147.328 318.361 152.944L318.365 153.529C319.001 158.561 321.802 162.305 316.46 165.362C314.818 163.561 313.851 162.826 311.92 161.317C311.838 163.001 312.011 164.056 310.933 165.272C308.716 166.051 307.735 165.017 305.828 163.844C299.828 168.47 296.698 164.788 293.625 166.395Z" fill="#004E49"/>
<path d="M306.297 146.456C309.291 144.992 314.527 140.247 316.818 140.903C317.81 142.515 317.522 147.968 317.365 149.993C317.854 151.387 318.087 152.083 318.365 153.529C319.001 158.562 321.802 162.306 316.46 165.363C314.818 163.562 313.851 162.826 311.919 161.318C311.838 163.002 312.011 164.057 310.932 165.272C308.716 166.052 307.734 165.017 305.828 163.844C306.605 161.815 306.932 149.005 306.297 146.456Z" fill="#D4AD7C"/>
<path d="M317.365 149.995C317.855 151.389 318.088 152.085 318.365 153.531C319.002 158.563 321.802 162.307 316.461 165.365C314.819 163.563 313.852 162.828 311.92 161.319L310.775 160.556C310.326 158.984 310.099 158.665 310.511 157.164C313.676 153.474 313.752 158.391 317.365 149.995Z" fill="#004E49"/>
<path d="M290.272 176.356C292.029 177.309 296.334 179.505 297.714 180.62L297.151 182.342L297.999 185.965C298.241 188.575 298.351 189.728 298.242 192.344C298.109 195.567 294.742 203.233 295.454 205.338C294.263 210.721 293.505 215.089 296.253 220.36L295.725 220.704C293.211 220.712 291.426 220.884 288.917 221.152L288.183 220.916L288.134 219.203L287.364 219.375C286.59 221.506 287.015 222.397 285.817 223.501C284.169 223.428 283.801 222.998 282.604 221.789C281.628 216.42 284.133 216.179 284.718 210.934C285.423 204.614 285.297 197.368 286.444 191.188C287.294 186.614 289.737 181.047 290.272 176.356Z" fill="#D4AD7C"/>
<path d="M297.15 182.341L297.998 185.965C298.24 188.574 298.35 189.727 298.242 192.343C298.108 195.566 294.741 203.232 295.453 205.337C294.263 210.72 293.504 215.089 296.253 220.359L295.724 220.703C293.21 220.711 291.425 220.883 288.916 221.152C289.872 217.015 288.039 215.409 288.563 212.826C290.739 202.094 292.417 192.274 297.15 182.341Z" fill="white"/>
<path d="M297.713 180.621C300.688 178.335 301.186 173.442 303.291 170.521C302.31 174.519 300.625 182.459 298.711 185.639L297.998 185.966L297.15 182.342L297.713 180.621Z" fill="#C4F4F1"/>
<path d="M304.775 180.802C310.24 182.83 309.456 181.032 313.242 181.435C309.999 183.438 307.405 183.821 304.775 180.802Z" fill="#C4F4F1"/>
<path d="M359.293 199.766C357.498 199.311 355.579 198.525 354.132 197.22C351.555 194.895 350.543 191.569 350.428 188C350.32 184.622 350.796 179.245 350.989 175.733C351.505 175.171 351.943 174.694 352.303 174.302C352.169 169.918 354.229 161.246 357.79 158.345C360.521 156.782 363.086 157.78 364.412 154.169C365.116 152.25 368.011 151.117 369.722 152.241C368.524 153.226 368.314 153.369 367.406 154.597L367.77 155.477L368.612 155.76C369.836 154.719 371.032 153.649 372.201 152.548C375.371 153.783 376.392 152.669 380.055 154.635C382.157 154.378 382.737 154.463 384.573 153.25C387.917 155.991 391.778 163.817 392.007 168.157C392.259 173.006 390.941 175.713 390.999 181.016C389.573 185.817 389.667 189.446 389.595 194.385C389.64 197.116 389.834 201.208 389.694 203.834C390.513 204.903 390.977 205.549 391.665 206.707C393.762 210.004 393.866 210.25 393.569 214.127C392.768 214.093 392.385 213.744 391.625 213.432L391.179 213.253L390.576 212.197C389.235 211.653 388.956 211.491 387.777 210.628L387.489 210.413C387.215 209.744 386.576 206.388 386.09 204.914C377.702 205.436 372.873 205.694 364.857 202.839C364.814 202.072 364.715 201.332 364.624 200.57L363.631 199.978C361.806 200.071 361.053 199.977 359.293 199.766Z" fill="#004E49"/>
<path d="M380.056 154.635C382.157 154.378 382.738 154.463 384.574 153.25C387.917 155.992 391.778 163.817 392.008 168.157C392.26 173.007 390.941 175.713 391 181.016C389.573 185.817 389.668 189.446 389.596 194.386C389.641 197.116 389.834 201.208 389.695 203.834C390.514 204.903 390.977 205.549 391.666 206.707C393.763 210.004 393.866 210.25 393.569 214.127C392.768 214.094 392.386 213.744 391.625 213.432L391.18 213.253L390.577 212.197C389.236 211.654 388.957 211.492 387.778 210.628L387.49 210.413C387.215 209.744 386.576 206.388 386.09 204.915C382.81 202.526 374.971 191.2 373.697 187.139L373.085 184.112C372.46 180.678 372.179 178.3 371.863 174.853L380.879 174.876L381.307 176.501C386.504 170.137 386.05 160.393 380.056 154.635Z" fill="#C4F4F1"/>
<path d="M371.863 174.853L380.879 174.875L381.307 176.501C381.113 177.865 380.506 181.804 380.74 183.054C381.757 188.499 386.194 199.665 389.695 203.833C390.514 204.903 390.977 205.548 391.666 206.706C393.763 210.004 393.866 210.25 393.569 214.127C392.768 214.093 392.386 213.743 391.625 213.432L391.18 213.252L390.577 212.196C389.236 211.653 388.957 211.491 387.778 210.627L387.49 210.413C387.215 209.743 386.576 206.388 386.09 204.914C382.81 202.525 374.971 191.199 373.697 187.138L373.085 184.111C372.46 180.678 372.179 178.3 371.863 174.853Z" fill="#D4AD7C"/>
<path d="M387.49 210.412C388.876 207.744 388.984 207.611 391.666 206.706C393.763 210.004 393.867 210.249 393.57 214.127C392.769 214.093 392.386 213.743 391.626 213.432L391.18 213.252L390.577 212.196C389.236 211.653 388.957 211.491 387.778 210.627L387.49 210.412Z" fill="#CAA674"/>
<path d="M365.586 190.026C365.629 186.362 365.611 181.935 365.819 178.212C366.391 171.25 366.038 161.921 371.394 156.682C373.949 154.183 377.54 155.576 379.435 158.153C382.958 162.935 381.626 169.431 380.879 174.875L371.863 174.852C372.178 178.3 372.46 180.677 373.085 184.111C370.152 186.895 369.032 187.89 365.586 190.026Z" fill="#C4F4F1"/>
<path d="M373.698 187.139C374.972 191.2 382.811 202.526 386.091 204.914C377.703 205.436 372.875 205.694 364.858 202.839C364.816 202.072 364.717 201.332 364.626 200.57L363.632 199.979C361.807 200.071 361.054 199.977 359.295 199.766L365.248 199.524L365.403 193.75C367.506 192.342 372.307 189.145 373.698 187.139Z" fill="#C4F4F1"/>
<path d="M318.661 319.037C318.577 317.808 318.391 314.522 318.766 312.88C320.076 307.139 314.849 310.791 312.325 306.609C310.622 303.788 311.643 299.992 313.736 298.733L314.303 299.193C316.171 309.439 321.66 305.1 329.379 305.06C336.945 305.021 343.349 306.666 350.112 302.409L350.605 302.773L352.278 302.339C355.049 304.587 357.193 306.35 360.554 307.78C360.473 309.069 360.75 308.637 360.086 309.397C358.646 313.287 359.756 313.79 357.14 318.298C359.553 320.226 364.24 323.548 363.786 327.05C361.679 328.066 359.757 325.316 358.524 323.845L351.963 321.639C351.29 323.391 350.442 325.812 349.686 327.466C354.567 329.292 370.94 326.835 373.765 331.3C369.765 337.217 311.045 335.908 304.078 331.727L303.463 330.819C304.391 329.303 311.104 328.206 312.952 328.312C313.396 326.654 313.854 323.408 314.164 321.611C315.68 320.83 317.187 319.904 318.661 319.037Z" fill="#004E49"/>
<path d="M345.535 327.657C345.361 328.763 345.468 328.961 345.734 330.015C346.696 331.112 346.929 331.603 348.259 331.979C350.612 330.129 348.918 329.438 349.686 327.466C354.567 329.292 370.94 326.835 373.765 331.3C369.765 337.217 311.045 335.908 304.078 331.727L303.463 330.819C304.391 329.303 311.104 328.206 312.952 328.312C313.47 330.285 313.065 329.676 314.338 330.963C315.879 331.249 315.19 331.383 316.489 330.639C317.012 329.17 317.031 329.704 316.781 328.274C319.155 328.146 321.872 328.532 324.108 327.926C326.004 329.869 326.381 331.726 329.485 331.11L330.151 330.309C329.792 328.817 329.553 328.739 328.178 327.91C332.073 327.132 341.414 327.393 345.535 327.657Z" fill="#E5F4F4"/>
<path d="M331.724 320.29C333.017 320.605 334.68 320.877 335.907 321.247C339.036 322.191 345.048 320.774 346.525 324.139C346.367 325.868 346.36 326.142 345.536 327.657C341.415 327.392 332.075 327.131 328.179 327.909C326.722 324.219 329.323 322.796 331.724 320.29Z" fill="white"/>
<path d="M316.78 328.274C316.487 327.08 316.572 327.466 317.139 326.086C318.691 324.599 321.111 323.872 323.209 323.629C323.421 325.319 323.508 325.917 323.996 327.557L324.108 327.926C321.872 328.532 319.154 328.146 316.78 328.274Z" fill="white"/>
<path d="M350.605 302.772L352.278 302.338C355.049 304.586 357.193 306.349 360.554 307.779C360.474 309.068 360.75 308.636 360.086 309.397C355.636 308.48 353.093 306.519 350.605 302.772Z" fill="#006862"/>
<path d="M372.791 130.464C373.281 129.699 373.794 128.949 374.325 128.216C379.28 121.433 383.91 125.879 390.543 124.909C392.793 124.579 394.548 124.074 395.858 126.228C396.168 129.451 395.291 131.579 392.352 133.029C392.388 137.176 392.874 144.172 389.724 147.169C386.142 150.573 384.468 146.901 384.572 153.25C382.736 154.464 382.155 154.379 380.054 154.636C376.391 152.67 375.369 153.783 372.199 152.548L375.473 150.535C375.923 149.095 376.346 146.94 376.688 145.405C373.326 139.986 372.412 136.732 372.791 130.464Z" fill="#004E49"/>
<path d="M384.09 132.871C386.826 133.004 389.612 133.001 392.352 133.029C392.388 137.175 392.874 144.171 389.724 147.168C386.142 150.572 384.468 146.901 384.572 153.25C382.736 154.463 382.155 154.378 380.054 154.635C376.391 152.669 375.369 153.783 372.199 152.548L375.473 150.534C375.923 149.095 376.346 146.939 376.688 145.405C381.548 140.45 376.481 141.642 378.785 137.379C380.724 136.434 379.374 138.171 381.741 138.138C383.15 136.827 383.501 134.801 384.09 132.871Z" fill="#D4AD7C"/>
<path d="M446.535 147.038C446.706 143.268 442.647 141.573 444.798 137.595C449.267 129.342 461.511 126.969 465.201 137.391C467.253 137.499 468.518 137.419 470.34 138.374L470.822 139.254C469.917 141.158 468.252 142.334 466.439 143.325C465.935 144.321 466.002 144.519 466.029 145.608C466.011 146.702 466.191 147.05 465.719 147.865C464.423 149.835 464.265 151.94 462.623 153.381L461.768 153.553C460.229 153.596 459.113 153.499 457.695 154.087L454.392 152.035L454.181 151.465L453.002 151.267C453.429 146.059 449.627 148.86 451.607 143.896L451.098 143.554C449.582 144.043 448.61 144.309 447.192 145.099C446.769 145.979 446.693 146.043 446.535 147.038Z" fill="#D4AD7C"/>
<path d="M446.535 147.038C446.706 143.268 442.647 141.573 444.798 137.595C449.267 129.342 461.511 126.969 465.201 137.391C460.827 138.328 458.991 138.468 455.652 141.699L451.098 143.554C449.582 144.043 448.61 144.309 447.192 145.099C446.769 145.979 446.693 146.043 446.535 147.038Z" fill="#55A09D"/>
<path d="M465.201 137.392C467.253 137.499 468.518 137.42 470.34 138.374L470.822 139.255C469.917 141.158 468.252 142.334 466.439 143.325C465.935 144.321 466.002 144.519 466.029 145.608C465.462 143.876 465.732 141.901 464.211 140.934L462.519 141.344C459.711 140.906 458.384 141.168 455.652 141.7C458.991 138.468 460.827 138.328 465.201 137.392Z" fill="#006862"/>
<path d="M455.652 141.699C458.383 141.167 459.711 140.905 462.519 141.343L462.015 141.527C459.238 142.578 457.051 144.183 454.603 145.833C453.24 145.088 452.722 144.252 451.606 143.895L451.098 143.553L455.652 141.699Z" fill="#004E49"/>
<path d="M566.905 235.34C568.534 234.292 572.494 231.212 574.195 231.924C576.801 233.017 581.562 233.846 582.237 236.957C584.131 241.224 586.696 241.186 590.971 242.187C589.828 244.187 588.523 246.666 587.074 248.39C584.887 250.214 584.001 250.522 581.224 249.325C576.067 248.067 578.376 251.017 574.317 253.842C571.023 251.09 567.18 248.726 564.345 245.354C563.152 243.936 563.476 243.218 561.514 242.417L561.186 241.729C563.026 239.577 565.002 237.445 566.905 235.34Z" fill="#004E49"/>
<path d="M581.223 249.325L580.688 248.204L581.093 247.719C582.839 247.228 585.201 247.977 587.073 248.391C584.886 250.215 584 250.522 581.223 249.325Z" fill="#55A09D"/>
<path d="M573.186 257.584C577.466 257.755 591.231 259.961 590.993 265.731C587.609 272.192 570.522 273.741 569.303 275.163C568.92 273.975 568.637 272.766 568.326 271.556L567.57 269.94C569.969 267.079 570.536 266.693 572.444 263.317C573.069 261.238 573.065 259.741 573.186 257.584Z" fill="#FCFCFC"/>
<path d="M572.444 263.317C574.784 264.245 578.87 265.591 580.422 267.338C579.639 268.541 571.76 269.643 568.326 271.556L567.57 269.94C569.969 267.079 570.536 266.693 572.444 263.317Z" fill="white"/>
<path d="M358.904 291.603C361.621 292.281 364.054 292.52 365.732 294.753C367.02 296.948 367.176 297.429 369.629 298.057C370.617 298.306 371.61 298.535 372.606 298.743C365.374 309.716 367.306 302.484 361.458 304.68C360.624 305.948 360.697 306.204 360.555 307.779C357.195 306.349 355.051 304.586 352.279 302.338L350.607 302.772L350.113 302.408L351.234 301.378C350.187 297.886 352.655 295.789 354.837 293.387L358.904 291.603Z" fill="#004E49"/>
<path d="M351.234 301.379C352.71 300.188 353.629 299.371 354.98 298.04C356.038 298.293 356.388 298.869 357.13 299.683C357.352 301.196 357.508 300.511 356.584 301.791C354.373 302.734 355.511 300.721 352.279 302.339L350.607 302.774L350.113 302.41L351.234 301.379Z" fill="#229B94"/>
<path d="M467.361 176.666L470.268 175.396C471.334 185.898 474.871 194.319 481.122 202.951C482.179 204.408 486.072 204.56 484.893 209.703C482.859 211.206 480.109 208.652 479.083 206.893C474.799 199.557 469.192 195.232 465.768 187.192L465.543 184.341C465.718 181.617 465.678 178.834 467.361 176.666Z" fill="#D4AD7C"/>
<path d="M446.535 147.038C446.693 146.043 446.769 145.979 447.192 145.099C448.61 144.309 449.582 144.043 451.098 143.554L451.607 143.896C449.627 148.86 453.429 146.059 453.002 151.267C452.624 154.038 452.543 155.472 450.761 157.734C448.718 158.129 446.288 158.888 444.596 160.116C441.135 162.756 441.455 165.473 439.848 166.356C428.796 155.785 443.304 153.429 446.283 147.544L446.535 147.038Z" fill="#004E49"/>
<path d="M319.392 181.146C320.229 189.359 322.43 193.368 326.586 200.422C328.039 202.888 329.451 206.197 331.988 207.734C334.49 209.187 335.478 211.745 334.781 214.521C333.514 215.737 332.913 215.413 331.444 214.576C326.276 206.909 324.768 205.379 318.311 198.642C316.966 195.485 317.835 184.234 319.392 181.146Z" fill="#D4AD7C"/>
<path d="M389.596 194.386C389.668 189.446 389.573 185.817 391 181.017C391.324 185.637 399.401 198.052 402.146 202.398C403.735 203.108 405.706 203.769 406.187 205.438C406.592 206.822 407.195 209.262 406.583 210.616C403.843 211.491 392.224 197.039 389.596 194.386Z" fill="#D4AD7C"/>
<path d="M234.373 333.259C235.826 331.435 238.478 328.417 240.503 327.365C244.017 330.194 251.055 332.178 253.439 336.925L253.303 337.884C249.911 339.746 247.758 336.924 245.111 334.744C241.059 334.646 238.356 334.432 234.373 333.259Z" fill="#229B94"/>
</svg>
