<svg width="768" height="512" viewBox="0 0 768 512" fill="none" xmlns="http://www.w3.org/2000/svg">
<path d="M260.789 182.984C262.303 185.664 264.356 189.498 266.252 191.786C267.602 195.739 267.815 209.114 267.438 213.331C267.517 217.669 267.499 222.579 267.721 226.862C268.801 228.483 268.337 233.389 268.332 235.653C271.756 235.655 290.595 235.848 292.756 235.333L293.235 234.5C291.534 224.889 289.786 215.62 289.08 205.878L288.512 202.949C293.467 204.239 300.238 203.313 302.601 204.325C303.815 205.674 304.484 206.72 306.177 207.268C307.744 206.333 308.868 203.501 310.551 201.723C313.445 212.495 311.178 226.951 315.97 236.165C327.29 235.956 336.971 235.407 348.192 237.565L348.677 237.751C354.503 236.3 377.051 237.11 382.835 239.401C387.922 232.067 381.6 233.163 392.688 229.464C394.578 230.95 395.759 231.516 397.846 232.61L403.504 232.564L404.257 233.787C403.798 235.658 403.543 236.317 402.763 238.084L403.421 239.389C407.918 240.335 418.645 240.642 423.528 240.868C427.228 239.385 434.893 239.359 434.738 239.48C443.24 232.793 447.636 225.522 457.786 240.924C465.964 242.287 467.065 235.754 473.31 246.947C482.136 248.435 517.598 254.112 514.643 263.511C510.301 277.343 454.373 285.009 443.391 286.901C457.94 292.852 462.938 297.186 444.305 304.001C416.449 314.188 386.241 317.848 356.934 321.425C283.607 329.383 208.71 331.382 135.416 322.207C119.975 319.836 103.828 317.683 89.6183 310.829C85.8366 309.004 82.3846 305.714 84.3908 300.919C86.968 294.759 101.823 292.113 103.524 287.589C91.7784 277.87 40.3549 279.138 39.0105 266.827C38.9132 265.936 39.5084 264.781 40.0523 264.114C44.5046 258.645 60.6631 253.868 67.6035 253.083C70.4957 244.932 74.6915 242.864 82.9981 243.514C85.3045 237.95 87.6988 233.862 93.4171 231.082C97.4099 229.151 102.014 228.916 106.183 230.431C111.434 232.397 114.327 236.196 116.59 241.097C120.19 241.705 122.58 242.294 126.114 243.264C129.467 242.223 136.363 241.976 140.085 241.739C142.686 241.416 143.261 241.796 144.996 240.327C147.638 241.401 183.349 237.389 191.166 238.378C192.766 229.667 189.537 209.408 191.617 204.154C193.489 203.495 193.835 204.003 196.036 204.625C199.012 206.64 200.013 208.632 203.337 206.96C207.235 206.818 210.594 206.296 214.434 205.752C213.493 216.09 213.037 226.469 211.81 236.768C220.772 236.395 232.149 235.742 240.98 236.163C242.453 225.202 241.807 213.671 241.592 202.578C241.502 199.375 241.719 198.134 242.257 194.941C251.887 194.344 254.897 190.531 260.789 182.984Z" fill="#EEF6EC"/>
<path d="M260.792 182.984C262.306 185.664 264.359 189.498 266.254 191.786C267.605 195.739 267.818 209.114 267.441 213.331C267.52 217.669 267.502 222.579 267.724 226.862C267.665 231.49 267.291 255.417 265.356 258.291C263.442 259.535 260.916 259.637 258.895 258.582C256.658 254.801 257.892 237.969 256.941 232.617C256.039 227.54 254.58 223.296 253.037 218.414C252.573 225.693 249.572 255.377 243.764 258.733L243.506 258.611C241.024 258.115 240.857 258.503 239.263 256.898C237.891 252.081 240.23 241.977 240.983 236.163C242.455 225.202 241.809 213.671 241.595 202.578C241.505 199.375 241.722 198.134 242.26 194.941C251.89 194.344 254.899 190.531 260.792 182.984Z" fill="#006862"/>
<path d="M260.791 182.984C262.305 185.664 264.358 189.498 266.254 191.786C267.604 195.739 267.817 209.114 267.44 213.331C266.895 210.519 266.885 205.097 266.789 202.055C257.473 204.494 250.859 203.878 241.594 202.578C241.504 199.375 241.721 198.134 242.259 194.941C251.889 194.344 254.898 190.531 260.791 182.984Z" fill="#89E6E0"/>
<path d="M82.9981 243.514C85.3045 237.95 87.6988 233.863 93.417 231.082C97.4099 229.151 102.014 228.916 106.183 230.432C111.434 232.397 114.327 236.196 116.59 241.097C120.19 241.705 122.58 242.294 126.114 243.264C130.927 247.703 133.017 251.568 132.313 258.331C131.633 259.992 131.692 259.918 130.392 261.146C128.143 261.638 111.526 261.654 108.239 261.543C96.6183 261.147 81.045 262.336 69.8173 261.338C67.981 260.077 68.4553 260.074 67.7734 257.502L67.6035 253.083C70.4957 244.933 74.6914 242.864 82.9981 243.514Z" fill="#89E6E0"/>
<path d="M191.167 238.377C192.767 229.666 189.538 209.407 191.617 204.153C193.49 203.493 193.836 204.002 196.037 204.624C199.013 206.639 200.014 208.631 203.338 206.959C207.236 206.816 210.595 206.295 214.435 205.751C213.494 216.089 213.038 226.468 211.811 236.767C210.495 245.186 209.356 253.88 207.365 262.166C206.67 265.062 204.781 264.673 202.114 265.012C201.589 265.897 201.166 266.724 200.465 267.478C200.26 268.424 199.935 270.183 199.613 271.006C197.271 269.388 195.599 268.666 192.871 268.07L192.506 266.699C190.435 266.303 189.633 266.102 187.657 265.376C185.726 261.442 189.66 243.082 191.167 238.377Z" fill="#006862"/>
<path d="M199.77 244.076L201.685 245.651C201.446 249.971 200.061 262.327 202.114 265.014C201.589 265.9 201.166 266.726 200.465 267.48C200.26 268.427 199.935 270.185 199.613 271.009C197.271 269.39 195.599 268.669 192.871 268.073L192.506 266.701C194.669 261.847 198.094 249.578 199.77 244.076Z" fill="white"/>
<path d="M203.007 231.137C202.702 235.986 202.261 240.825 201.682 245.65L199.768 244.075C200.767 239.627 201.649 235.5 203.007 231.137Z" fill="#EEF6EC"/>
<path d="M423.529 240.868C427.23 239.385 434.894 239.359 434.74 239.481C443.241 232.793 447.637 225.523 457.787 240.925C465.966 242.287 467.067 235.754 473.311 246.948L473.299 252.537L472.598 253.464C469.828 254.844 424.346 255.196 420.591 254.063C419.395 252.49 419.524 250.558 419.363 248.485C420.773 244.831 421.11 243.941 423.529 240.868Z" fill="#89E6E0"/>
<path d="M302.601 204.327C303.815 205.675 304.484 206.721 306.177 207.269C307.744 206.334 308.868 203.502 310.551 201.725C313.445 212.497 311.178 226.953 315.97 236.166C317.35 239.771 321.902 255.959 320.84 259.037C318.844 259.684 318.361 259.92 316.29 259.783C312.713 255.908 304.729 232.845 302.508 226.701C301.967 224.633 301.858 223.765 300.506 222.036C300.532 222.071 298.934 213.241 298.435 211.689C295.285 209.548 292.345 207.808 289.08 205.88L288.512 202.951C293.467 204.24 300.238 203.315 302.601 204.327Z" fill="#006862"/>
<path d="M289.078 205.879C292.344 207.808 295.283 209.547 298.433 211.689C298.932 213.24 300.53 222.071 300.505 222.035C301.857 223.765 301.966 224.633 302.506 226.701C301.169 229.107 301.663 229.475 301.681 232.636C302.422 239.063 303.541 245.734 304.041 252.188C304.312 255.678 304.109 258.06 300.439 258.848C296.657 257.297 294.871 239.2 293.233 234.501C291.533 224.89 289.784 215.621 289.078 205.879Z" fill="#44B4AD"/>
<path d="M300.508 222.037C301.86 223.766 301.969 224.634 302.509 226.702C301.172 229.109 301.666 229.477 301.685 232.637C301.102 230.489 300.727 224.528 300.508 222.037Z" fill="#DBEFE6"/>
<path d="M67.7776 257.502C68.4595 260.073 67.9853 260.077 69.8216 261.338C81.0492 262.335 96.6225 261.147 108.243 261.542C111.53 261.654 128.147 261.637 130.396 261.146C131.696 259.918 131.637 259.991 132.317 258.331C134.74 258.519 137.835 258.31 138.989 260.659C137.393 263.078 131.038 264.576 128.456 264.726C116.778 265.401 66.8156 268.013 59.5742 262.117C59.5595 258.657 65.3143 260.756 67.7776 257.502Z" fill="#E5F4F4"/>
<path d="M473.298 252.537C475.612 252.039 481.184 252.647 481.713 255.309C475.463 258.884 415.008 260.656 411.908 254.468L412.302 253.753C417.646 253.658 418.639 253.682 419.362 248.484C419.522 250.558 419.393 252.489 420.589 254.062C424.345 255.195 469.827 254.844 472.596 253.464L473.298 252.537Z" fill="#E5F4F4"/>
<path d="M277.118 264.517C279.498 264.405 282.693 264.589 283.274 267.289C278.852 271.466 233.731 270.694 228.268 266.106L228.363 265.152C230.911 263.455 232.916 263.676 235.867 263.875C238.735 266.159 248.868 266.882 251.7 264.083C252.838 264.96 256.029 265.026 257.357 264.625C259.707 268.508 267.606 266.533 271.722 266.501C273.999 266.483 275.543 266.205 277.118 264.517Z" fill="#E5F4F4"/>
<path d="M185.443 268.688C189.516 267.292 188.715 270.853 192.871 268.072C195.599 268.668 197.272 269.39 199.614 271.008L200.283 272.304C198.796 273.302 198.729 273.299 196.914 273.5L197.008 273.941C185.367 274.053 182.951 275.995 172.131 271.877C176.879 270.123 180.54 269.497 185.443 268.688Z" fill="#E5F4F4"/>
<path d="M185.445 268.688C189.518 267.292 188.717 270.853 192.874 268.072C195.601 268.668 197.274 269.39 199.616 271.008L200.285 272.304C198.798 273.302 198.731 273.299 196.917 273.5C190.63 272.811 187.151 275.763 185.445 268.688Z" fill="#004E49"/>
<path d="M257.359 264.624C257.868 263.123 257.849 261.997 259.297 261.261C264.506 258.615 272.122 262.218 277.121 264.517C275.546 266.205 274.002 266.482 271.725 266.5C267.609 266.533 259.709 268.508 257.359 264.624Z" fill="#006862"/>
<path d="M243.504 258.613L243.761 258.735C246.957 262.217 247.615 261.8 251.701 264.084C248.868 266.882 238.736 266.16 235.867 263.876C239.152 256.024 238.814 261.933 243.504 258.613Z" fill="#006862"/>
<path d="M200.463 267.481C208.134 268.892 205.22 265.153 215.779 269.219C213.009 272.786 208.53 271.616 204.03 271.707C202.154 271.639 201.915 271.531 200.28 272.306L199.611 271.009C199.933 270.186 200.258 268.427 200.463 267.481Z" fill="#004E49"/>
<path d="M215.781 269.217C218.041 267.933 223.38 268.893 224.787 271.053C223.86 272.762 222.302 272.701 220.407 272.862C215.429 272.156 207.364 272.749 204.031 271.705C208.531 271.614 213.01 272.784 215.781 269.217Z" fill="#E5F4F4"/>
<path d="M200.284 272.304C201.919 271.53 202.158 271.638 204.033 271.705C207.366 272.75 215.431 272.157 220.409 272.863C211.629 274.17 205.862 275.227 197.01 273.941L196.916 273.5C198.73 273.299 198.798 273.301 200.284 272.304Z" fill="#DBEFE6"/>
<path d="M398.348 240.812C400.035 240.694 401.012 240.001 402.51 239.207C402.768 241.46 403.258 243.41 402.031 245.313C401.378 245.288 400.518 244.341 399.866 243.799L399.687 243.16C399.371 242.068 399.211 241.509 398.348 240.812Z" fill="#89E6E0"/>
<path d="M135.992 296.245C137.191 286.386 143.287 280.749 151.61 275.343C153.621 274.038 158.814 277.611 161.149 278.751C161.383 281.992 161.386 284.02 161.267 287.277C160.116 289.215 160.145 290.695 159.808 292.927C160.247 294.96 160.516 296.471 161.265 298.434C159.515 299.242 158.637 299.608 156.684 298.927C154.331 298.556 153.068 298.564 151.259 296.949L150.961 296.469C150.301 298.391 150.791 297.898 149.292 298.658C144.417 298.498 141.756 298.489 136.932 297.516L135.992 296.245Z" fill="#DCB55B"/>
<path d="M154.456 294.065C155.91 292.51 157.049 291.062 159.178 291.37L159.805 292.926C160.244 294.959 160.512 296.47 161.261 298.432C159.511 299.241 158.633 299.606 156.68 298.925C154.327 298.554 153.065 298.562 151.256 296.948C152.299 295.078 152.492 294.924 154.456 294.065Z" fill="#DBEFE6"/>
<path d="M151.256 296.949C152.299 295.079 152.492 294.925 154.456 294.066C155.958 295.915 156.655 296.485 156.68 298.927C154.327 298.556 153.065 298.564 151.256 296.949Z" fill="#D0AE5B"/>
<path d="M150.885 286.133L151.441 286.397C151.715 288.801 152.563 293.919 149.439 294.332C150.111 287.395 147.437 288.981 147.783 286.439L150.885 286.133Z" fill="#D0AE5B"/>
<path d="M161.165 262.979C163.636 260.781 164.694 259.215 166.676 256.547C167.439 259.558 168.143 262.583 168.791 265.62C167.436 267.453 166.626 268.605 164.97 270.231C164.315 273.711 164.53 274.614 161.062 275.753C155.848 274.698 152.15 263.937 156.228 260.427C158.793 260.63 158.728 261.189 161.165 262.979Z" fill="#DCB55B"/>
<path d="M161.164 262.979C163.635 260.781 164.693 259.215 166.676 256.547C167.438 259.558 168.143 262.583 168.791 265.62C167.435 267.453 166.625 268.605 164.969 270.231C163.968 265.543 165.388 265.922 161.164 262.979Z" fill="#D0AE5B"/>
<path d="M290.358 263.5C294.621 261.831 301.647 258.175 305.673 261.48C307.543 262.447 311.699 263.518 313.86 263.867C312.135 264.812 311.286 265.044 310.425 266.74L310.422 267.997C305.012 270.54 294.239 268.496 288.602 266.773L291.109 265.162L290.358 263.5Z" fill="#DBEFE6"/>
<path d="M290.357 263.5C294.62 261.831 301.646 258.175 305.672 261.48C305.34 263.184 305.573 264.048 304.283 264.861C301.846 266.398 293.703 265.662 291.108 265.162L290.357 263.5Z" fill="#006862"/>
<path d="M313.858 263.867C316.384 261.107 318.356 260.714 321.885 261.731C322.956 262.766 322.988 262.777 323.755 264.039L322.039 266.968C317.25 267.938 315.309 268.116 310.42 267.997L310.423 266.739C311.284 265.044 312.132 264.811 313.858 263.867Z" fill="#006862"/>
<path d="M166.66 276.602C168.158 285.953 163.961 291.581 169 296.695L165.369 297.548L161.263 298.433C160.514 296.471 160.246 294.96 159.807 292.927C160.143 290.694 160.115 289.215 161.265 287.276C161.454 289.782 161.39 292.145 162.656 294.282L163.377 294.041C164.934 290.157 166.194 281.004 166.66 276.602Z" fill="#D0AE5B"/>
<path d="M323.758 264.039C326.004 265.849 328.698 263.972 329.39 266.943C327.469 268.2 324.462 268.278 322.445 267.183L322.041 266.968L323.758 264.039Z" fill="#DBEFE6"/>
<path d="M288.599 266.773C286.741 266.788 286.522 266.714 284.836 265.921L284.98 265.19C286.825 263.591 287.642 264.005 290.356 263.5L291.107 265.162L288.599 266.773Z" fill="#E5F4F4"/>
<path d="M135.99 296.244L136.931 297.515C134.687 298.152 131.08 298.427 128.868 297.572L128.727 296.945C131.014 295.843 133.371 296.187 135.99 296.244Z" fill="#E5F4F4"/>
<path d="M168.998 296.694C171.521 296.369 173.11 295.992 175.567 296.666C173.095 298.266 168.399 297.69 165.367 297.548L168.998 296.694Z" fill="#E5F4F4"/>
<path d="M105.628 156.921C108.146 145.847 111.899 137.629 122.053 131.34C130.088 126.337 139.793 124.767 148.995 126.98C158.124 129.107 165.988 134.869 170.769 142.933C173.895 148.257 175.894 154.998 175.992 161.183L176.251 161.894C180.227 165.52 182.6 169.009 182.84 174.64C183.065 180.418 180.968 186.045 177.017 190.265C171.73 195.878 165.736 197.058 158.331 196.771L156.589 197.557C151.828 201.444 148.536 201.323 143.493 204.232C143.202 204.4 142.926 205.893 142.87 206.419C142.839 206.706 142.813 206.994 142.79 207.283C143.628 218.068 143.927 229.772 144.997 240.328C143.261 241.797 142.687 241.417 140.085 241.74C139.804 230.326 139.128 218.73 138.801 207.241C138.667 206.344 138.444 203.55 137.81 202.901C136.398 201.453 119.428 205.883 107.886 196.661C102.298 192.168 98.7356 185.629 97.99 178.497C97.1524 170.214 100.019 164.222 105.102 158.002L105.628 156.921Z" fill="#D5F1E0"/>
<path d="M105.629 156.921C108.146 145.847 111.9 137.629 122.053 131.34C130.089 126.337 139.794 124.767 148.996 126.98C158.124 129.107 165.989 134.869 170.77 142.933C173.896 148.257 175.895 154.998 175.992 161.183C174.188 158.814 167.46 157.275 164.526 157.267C156.608 157.247 151.003 159.792 145.431 165.207C134.907 149.815 121.423 146.976 105.629 156.921Z" fill="#D5F1E0"/>
<path d="M105.102 158.002C106.428 178.597 116.054 195.669 138.416 197.893C138.547 200.429 138.906 204.843 138.801 207.241C138.667 206.343 138.444 203.549 137.81 202.9C136.398 201.453 119.428 205.882 107.886 196.661C102.298 192.168 98.7356 185.628 97.99 178.496C97.1524 170.214 100.019 164.222 105.102 158.002Z" fill="#DBEFE6"/>
<path d="M136.79 190.208C135.074 188.433 131.547 185.816 131.203 183.9C134.385 181.484 134.337 185.083 137.602 185.201C138.073 183.462 138.553 180.759 139.727 179.574C141.412 181.711 141.282 189.94 141.364 193.143C144.068 191.163 148.55 187.046 151.776 187.993L152.249 189.514C151.564 191.612 151.702 190.996 149.577 192.608C152.232 194.797 153.643 195.747 156.59 197.557C151.829 201.444 148.537 201.322 143.494 204.232C143.202 204.4 142.927 205.892 142.871 206.418C142.84 206.706 142.814 206.994 142.791 207.282C143.629 218.068 143.928 229.772 144.997 240.327C143.262 241.796 142.687 241.416 140.086 241.74C139.805 230.326 139.129 218.73 138.802 207.241C138.907 204.843 138.548 200.429 138.417 197.893C138.076 195.107 137.476 192.918 136.79 190.208Z" fill="#D5F1E0"/>
<path d="M136.79 190.208C135.074 188.433 131.547 185.816 131.203 183.9C134.385 181.484 134.337 185.083 137.602 185.201C138.073 183.462 138.553 180.759 139.727 179.574C141.412 181.711 141.282 189.94 141.364 193.143C144.068 191.163 148.55 187.046 151.776 187.993L152.249 189.514C151.564 191.612 151.702 190.996 149.577 192.608C152.232 194.797 153.643 195.747 156.59 197.557C151.829 201.444 148.537 201.322 143.494 204.232C143.202 204.4 142.927 205.892 142.871 206.418C142.84 206.706 142.814 206.994 142.791 207.282C143.629 218.068 143.928 229.772 144.997 240.327C143.262 241.796 142.687 241.416 140.086 241.74C139.805 230.326 139.129 218.73 138.802 207.241C138.907 204.843 138.548 200.429 138.417 197.893C138.076 195.107 137.476 192.918 136.79 190.208Z" fill="black" fill-opacity="0.3"/>
<path d="M142.242 196.607L149.579 192.609C152.234 194.799 153.646 195.749 156.592 197.558C151.832 201.445 148.539 201.324 143.496 204.233C143.205 204.401 142.929 205.894 142.873 206.42C142.843 206.707 142.816 206.995 142.793 207.284C142.465 205.516 142.331 198.751 142.242 196.607Z" fill="#DBEFE6"/>
<path d="M176.254 161.893C180.23 165.519 182.603 169.008 182.843 174.639C183.068 180.417 180.971 186.044 177.019 190.264C171.733 195.877 165.739 197.057 158.334 196.77C159.637 195.065 163.543 191.32 165.228 189.356C173.281 179.97 174.73 173.469 176.254 161.893Z" fill="#D5F1E0"/>
<path d="M399.571 214.833C386.85 211.977 377.562 202.301 381.088 188.694C382.582 183.059 386.259 178.253 391.305 175.336C408.489 165.535 428.544 180.277 423.822 199.803C421.668 208.709 411.659 214.332 402.675 215.161C402.692 218.482 402.878 223.702 402.606 226.871C402.717 228.877 402.617 230.822 403.504 232.564L397.846 232.61L398.739 232.183C400.481 229.738 399.667 218.589 399.571 214.833Z" fill="#E5F4F4"/>
<path d="M399.406 208.11C397.524 206.535 395.708 205.432 395.018 203.19L395.666 202.66C398.028 203.267 399.187 204.814 400.969 206.576C402.649 204.87 403.835 203.196 406.073 202.809L406.661 203.451C406.027 206.526 404.452 207.546 402.146 209.644C402.071 215.13 401.801 221.497 402.606 226.871C402.717 228.878 402.617 230.822 403.504 232.565L397.846 232.611L398.738 232.183C400.48 229.738 399.666 218.589 399.571 214.833L399.406 208.11Z" fill="#89E6E0"/>
<path d="M188.199 171.898C187.416 171.332 186.689 170.693 186.027 169.989C180.776 164.354 186.386 161.392 187.662 157.502C190.998 147.331 196.415 133.938 208.64 146.043C209.859 147.25 209.284 150.77 208.827 152.432C209.983 157.302 209.505 162.358 203.931 163.895L203.804 164.873C208.917 167.945 210.492 173.535 214.347 178.377C209.661 190.766 215.073 194.117 214.434 205.753C210.594 206.297 207.236 206.818 203.337 206.961C200.013 208.633 199.012 206.641 196.036 204.626C195.941 202.751 187.327 192.413 185.716 190.366C186.199 187.217 187.163 183.343 187.861 180.174C188.051 177.861 188.748 175.516 188.974 172.742L188.199 171.898Z" fill="#E5F4F4"/>
<path d="M188.199 171.898C187.416 171.332 186.689 170.693 186.027 169.989C180.776 164.354 186.386 161.392 187.662 157.502C190.998 147.331 196.415 133.938 208.64 146.043C209.859 147.25 209.284 150.77 208.827 152.432C209.983 157.302 209.505 162.358 203.931 163.895L203.804 164.873L203.852 165.325C204.203 168.302 205.396 169.489 204.95 172.502C202.936 173.533 201.016 171.403 199.364 170.085C194.3 173.729 194.438 168.552 188.199 171.898Z" fill="#004E49"/>
<path d="M208.827 152.432C209.983 157.302 209.505 162.358 203.931 163.895L203.803 164.873L203.852 165.325C204.203 168.302 205.396 169.489 204.95 172.502C202.936 173.533 201.016 171.403 199.364 170.085C200.523 164.377 197.417 164.693 200.086 158.912C199.513 157.285 199.486 157.21 199.3 155.501L200.109 154.498C203.608 153.788 205.001 154.414 208.266 152.727L208.827 152.432Z" fill="#F5CE8B"/>
<path d="M187.86 180.174C190.552 180.96 192.749 181.595 195.355 182.629L195.043 183.951L192.697 189.524C194.903 193.603 202.577 204.984 203.336 206.96C200.012 208.633 199.011 206.64 196.035 204.625C195.94 202.751 187.326 192.413 185.715 190.366C186.198 187.216 187.162 183.343 187.86 180.174Z" fill="#F5CE8B"/>
<path d="M195.357 182.631C196.75 179.841 197.216 175.536 198.617 173.635C199.376 177.636 197.725 181.104 195.045 183.952L195.357 182.631Z" fill="#006862"/>
<path d="M200.27 182.545C203.037 182.786 205.597 183.052 207.872 184.644C204.586 185.236 202.488 185.138 200.27 182.545Z" fill="#006862"/>
<path d="M285.762 149.037L286.452 149.008C293.746 148.643 310.279 130.129 309.45 159.001C311.05 165.595 319.281 163.633 315.74 173.802C316.061 177.176 315.34 177.756 315.034 180.669L317.554 188.7C316.361 190.943 310.923 200.14 310.553 201.725C308.87 203.503 307.746 206.334 306.178 207.269C304.486 206.721 303.817 205.675 302.603 204.327C300.24 203.315 293.468 204.24 288.513 202.951C288.442 200.58 289.716 195.179 289.789 191.923C289.991 182.856 288.329 179.855 290.06 170.692C292.108 168.764 293.686 167.436 295.248 165.081C289.222 161.584 290.299 159.581 291.236 153.076C289.181 153.082 288.889 153.038 286.939 152.391C285.518 150.74 285.914 151.504 285.762 149.037Z" fill="#44B4AD"/>
<path d="M285.762 149.037L286.452 149.008C293.746 148.643 310.279 130.129 309.45 159.001C311.05 165.595 319.281 163.633 315.74 173.802C316.061 177.176 315.34 177.756 315.034 180.669C313.417 181.273 309.534 182.426 308.746 183.467C306.208 181.798 304.142 175.895 302.911 172.93L304.762 168.946C302.947 168.358 302.721 168.377 301.397 167.091C299.807 169.167 299.167 169.896 297.288 171.708L295.931 171.028C294.989 168.505 296.263 167.812 296.141 164.601L295.248 165.081C289.222 161.584 290.299 159.581 291.236 153.076C289.181 153.082 288.889 153.038 286.939 152.391C285.518 150.74 285.914 151.504 285.762 149.037Z" fill="#004E49"/>
<path d="M285.762 149.037L286.452 149.008C293.746 148.643 310.279 130.129 309.45 159.001C308.801 156.354 309.062 155.677 306.224 154.337C302.856 152.747 298.927 152.388 295.278 152.794L291.708 152.68L291.236 153.076C289.181 153.082 288.889 153.038 286.939 152.391C285.518 150.74 285.914 151.504 285.762 149.037Z" fill="#44B4AD"/>
<path d="M285.762 149.035C289.162 149.442 289.521 149.946 291.708 152.678L291.236 153.074C289.181 153.08 288.889 153.036 286.939 152.389C285.518 150.738 285.914 151.503 285.762 149.035Z" fill="#006862"/>
<path d="M291.705 152.68L295.276 152.794C298.092 155.351 297.478 154.892 301.384 154.571C301.422 160.448 299.07 160.836 301.394 167.091C299.805 169.167 299.165 169.896 297.286 171.708L295.929 171.028C294.987 168.505 296.26 167.812 296.138 164.601L295.245 165.081C289.219 161.584 290.296 159.581 291.233 153.076L291.705 152.68Z" fill="#F5CE8B"/>
<path d="M304.761 168.946C306.925 167.567 305.931 167.876 308.536 167.818C312.728 169.854 313.052 174.971 315.016 176.287C315.182 175.487 315.288 174.357 315.739 173.802C316.06 177.175 315.339 177.755 315.033 180.669C313.416 181.273 309.533 182.426 308.745 183.467C306.207 181.798 304.141 175.895 302.91 172.93L304.761 168.946Z" fill="#006862"/>
<path d="M308.745 183.466C309.533 182.425 313.416 181.272 315.033 180.668L317.553 188.699C316.36 190.942 310.922 200.139 310.552 201.724C308.869 203.502 307.745 206.333 306.177 207.268C304.484 206.72 303.816 205.674 302.602 204.326C306.321 202.017 307.211 199.221 309.047 195.308C307.256 189.972 307.666 189.057 308.745 183.466Z" fill="#F5CE8B"/>
<path d="M301.398 167.09C302.721 168.375 302.948 168.357 304.762 168.945L302.912 172.929C301.588 174.538 301.449 174.893 299.644 175.789L298.544 174.966C298.236 173.901 298.109 173.412 297.628 172.406L297.289 171.707C299.168 169.895 299.808 169.166 301.398 167.09Z" fill="#006862"/>
<path d="M254.097 150.078C255.301 152.057 257.342 154.177 257.546 156.311L257.23 157.149L258.527 158.809L262.065 160.393C266.636 162.589 268.146 172.747 268.468 177.5C265.687 178.568 262.684 179.546 260.309 181.313L260.788 182.985C254.896 190.531 251.886 194.344 242.256 194.941C231.298 193.373 230.338 189.879 230.677 179.577C230.849 177.592 231.279 175.06 231.569 173.038C232.619 170.62 233.694 168.213 234.793 165.817C236.78 161.553 236.8 160.673 240.904 159.172L244.843 158.856C246.122 158.189 248.824 156.113 250.123 155.167L250.696 153.213C252.48 152.17 252.728 151.698 254.097 150.078Z" fill="#006862"/>
<path d="M262.07 160.393C266.641 162.588 268.151 172.746 268.473 177.499C265.692 178.567 262.689 179.545 260.314 181.312L260.033 181.198L259.301 181.442C257.589 183.952 256.253 184.753 253.816 186.553C252.428 179.969 251.097 173.726 249.4 167.198C252.613 164.481 255.094 162.615 259.153 161.31C260.122 160.993 261.094 160.687 262.07 160.393Z" fill="#89E6E0"/>
<path d="M259.298 181.444C257.228 177.649 256.468 175.315 256.137 171.023C257.193 171.799 259.421 179.342 260.03 181.201L259.298 181.444Z" fill="#44B4AD"/>
<path d="M254.099 150.078C255.304 152.057 257.345 154.177 257.549 156.311L257.232 157.149L258.53 158.809C253.965 159.845 251.754 160.45 247.978 163.244C247.215 161.879 245.819 160.147 244.846 158.856C246.124 158.189 248.826 156.113 250.125 155.167L250.698 153.213C252.482 152.17 252.73 151.698 254.099 150.078Z" fill="#89E6E0"/>
<path d="M254.097 150.078C255.302 152.057 257.343 154.177 257.547 156.311L257.23 157.149C254.909 156.388 252.489 155.792 250.123 155.167L250.696 153.213C252.48 152.17 252.728 151.698 254.097 150.078Z" fill="#D0AE5B"/>
<path d="M231.572 173.037C236.254 175.332 241.948 172.5 244.371 176.54L244.334 179.112C242.388 180.743 234.008 179.477 230.68 179.576C230.851 177.591 231.281 175.06 231.572 173.037Z" fill="#006862"/>
<path d="M240.906 159.172L244.845 158.855C245.819 160.147 247.214 161.879 247.977 163.243C245.937 164.521 240.133 164.707 238.568 162.646C239.622 161.354 240.047 160.614 240.906 159.172Z" fill="#006862"/>
<path d="M250.7 153.214C235.692 136.945 258.97 130.534 264.012 137.46C263.695 139.809 263.975 138.912 262.347 141.072C263.043 147.122 263.623 147.934 261.945 154.042L257.551 156.311C257.347 154.177 255.306 152.057 254.101 150.079C252.732 151.699 252.484 152.17 250.7 153.214Z" fill="#004E49"/>
<path d="M254.098 150.078C253.322 148.049 252.997 147.516 252.953 145.334L253.716 144.84L256.813 145.594C259.715 143.167 255.118 142.471 262.344 141.072C263.039 147.122 263.62 147.934 261.942 154.042L257.548 156.311C257.344 154.177 255.303 152.057 254.098 150.078Z" fill="#F5CE8B"/>
<path d="M268.47 177.501L268.519 178.171C268.666 180.042 268.559 180.808 269.731 182.244C274.477 183.3 275.556 175.546 277.987 175.799L278.955 177.659C280.569 177.634 281.418 176.892 282.845 176.019L283.97 176.268C284.902 178.015 284.815 177.266 284.508 179.086C282.009 182.354 270.029 190.238 266.252 191.788C264.357 189.5 262.304 185.665 260.79 182.986L260.311 181.314C262.686 179.547 265.688 178.569 268.47 177.501Z" fill="#F5CE8B"/>
<path d="M458.634 224.141C460.31 228.381 461.915 233.372 465.384 236.365C465.826 240.462 467.105 249.657 465.414 253.135C464.754 261.448 463.895 277.566 464.067 285.777C464.236 287.813 464.281 289.096 464.236 291.137C489.252 291.084 514.261 291.98 539.21 293.824C541.625 293.998 552.14 295.144 553.411 294.473L553.576 293.823C551.952 281.529 549.56 269.521 549.189 257.018C548.836 254.981 548.81 250.876 548.731 248.663C551.244 249.222 552.642 249.475 555.102 249.777C557.337 250.05 564.256 249.831 565.677 250.407L564.624 251.37C566.191 253.873 567.346 255.262 569.33 257.418C571.299 253.979 570.26 251.661 574.014 247.897C575.465 247.947 575.941 247.961 577.366 247.723C579.166 261.285 575.78 289.214 580.325 298.821C590.821 296.958 634.37 308.703 645.875 312.388C674.476 321.549 705.031 345.3 663.125 366.014C659.589 367.762 648.526 371.905 648.072 375.855C649.831 379.404 657.249 378.935 657.714 382.119C652.175 389.968 580.347 396.862 568.1 397.954C514.887 402.406 461.469 403.925 408.091 402.511C366.395 401.547 236.048 396.014 207.804 365.983C204.253 362.207 201.777 357.532 202.016 352.252C202.339 345.119 206.337 339.257 211.539 334.648C244.084 305.812 341.35 297.731 384.511 294.605C394.329 293.844 404.157 293.204 413.99 292.686C418.317 292.479 423.95 292.082 428.199 292.332C428.934 286.135 428.525 269.22 428.54 262.333C428.019 256.812 428.686 246.72 429.447 241.318C431.701 241.311 439.827 241.687 441.26 240.404C447.076 235.2 453.237 229.812 458.634 224.141Z" fill="#EEF6EC"/>
<path d="M458.634 224.141C460.311 228.381 461.916 233.372 465.384 236.365C465.827 240.462 467.106 249.657 465.414 253.135C464.754 261.448 463.896 277.566 464.068 285.777C463.697 289.32 463.824 292.877 463.446 296.374C462.351 306.481 460.813 316.57 459.392 326.639C459.009 329.346 458.957 332.083 456.699 333.796C453.692 334.285 452.098 334.612 449.192 333.745L448.412 336.165C447.782 337.754 447.613 338.347 447.246 340.006C445.524 339.824 443.556 339.447 441.969 340.024C438.414 336.182 435.182 339.331 431.661 333.279L431.226 332.074C428.154 332.1 427.307 331.974 424.374 331.083C422.454 328.666 424.446 319.709 424.926 316.239L428.199 292.332C428.934 286.135 428.526 269.22 428.541 262.333C428.019 256.812 428.687 246.72 429.448 241.318C431.702 241.311 439.828 241.687 441.261 240.404C447.077 235.2 453.238 229.812 458.634 224.141Z" fill="#006862"/>
<path d="M458.634 224.141C460.311 228.381 461.916 233.372 465.384 236.365C465.827 240.462 467.106 249.657 465.414 253.135C463.573 252.501 455.961 254.636 453.227 254.716C445.389 254.945 436.494 254.238 428.946 252.223C428.893 255.177 428.923 259.529 428.541 262.333C428.019 256.812 428.687 246.72 429.448 241.318C431.702 241.311 439.828 241.687 441.261 240.404C447.077 235.2 453.238 229.812 458.634 224.141Z" fill="#89E6E0"/>
<path d="M431.227 332.074C431.77 331.857 432.325 331.637 432.798 331.28C436.012 328.844 442.552 294.902 443.459 288.754C443.598 290.479 443.298 290.653 444.314 291.653C445.255 291.927 446.947 291.743 447.85 291.479C449.864 299.904 447.404 314.009 447.783 322.986C447.937 326.607 446.478 331.083 449.193 333.746L448.413 336.166C447.783 337.754 447.614 338.347 447.247 340.006C445.525 339.824 443.557 339.447 441.97 340.024C438.415 336.183 435.183 339.331 431.662 333.279L431.227 332.074Z" fill="#EEF6EC"/>
<path d="M444.149 281.18L445.165 279.826C446.08 283.705 446.976 287.589 447.85 291.478C446.946 291.742 445.255 291.927 444.314 291.653C443.298 290.653 443.598 290.478 443.459 288.753C443.455 287.046 443.969 283.041 444.149 281.18Z" fill="white"/>
<path d="M444.148 281.18C444.193 279.998 444.31 279.368 444.527 278.201L444.82 278.301L445.165 279.827L444.148 281.18Z" fill="#EEF6EC"/>
<path d="M574.015 247.898C575.466 247.948 575.942 247.961 577.367 247.724C579.167 261.285 575.781 289.215 580.326 298.822C584.387 309.473 585.04 319.785 586.397 331.069C586.435 332.357 586.45 333.866 587.095 335.03C584.789 337.044 583.401 337.092 580.457 336.102L579.164 337.238C575.695 336.954 573.606 336.827 570.145 336.958C569.856 336.001 569.387 334.88 569.024 333.931C568.521 332.822 568.66 332.008 568.694 330.779C565.547 331.3 564.655 331.29 561.516 331.265C559.649 328.734 554.691 299.445 553.577 293.823C551.954 281.529 549.561 269.521 549.19 257.018C548.837 254.981 548.811 250.876 548.732 248.663C551.245 249.222 552.644 249.476 555.104 249.777C557.339 250.05 564.257 249.831 565.679 250.407L564.625 251.37C566.192 253.873 567.347 255.262 569.331 257.418C571.3 253.979 570.261 251.662 574.015 247.898Z" fill="#006862"/>
<path d="M549.189 257.018C549.231 256.483 549.392 254.01 549.531 253.677C550.419 256.186 555.786 260.362 558.088 261.963C559.063 265.878 566.901 301.633 567.553 302.538L567.921 305.343C568.232 313.592 568.689 322.56 568.693 330.779C565.547 331.3 564.654 331.289 561.516 331.265C559.648 328.734 554.691 299.445 553.577 293.823C551.953 281.529 549.561 269.521 549.189 257.018Z" fill="#44B4AD"/>
<path d="M567.92 305.344L568.97 304.961C570.44 309.069 577.67 330.054 579.399 332.541C579.725 333.608 580.216 335.048 580.456 336.102L579.162 337.239C575.694 336.954 573.605 336.828 570.144 336.958C569.855 336.002 569.386 334.88 569.022 333.932C568.52 332.822 568.659 332.008 568.692 330.779C568.689 322.561 568.231 313.593 567.92 305.344Z" fill="#EEF6EC"/>
<path d="M586.398 331.068C586.435 332.356 586.45 333.865 587.095 335.03C584.789 337.044 583.402 337.092 580.458 336.101C580.218 335.048 579.727 333.607 579.4 332.54C582.584 332.48 583.394 332.233 586.398 331.068Z" fill="#F5CE8B"/>
<path d="M569.33 257.418C569.611 257.971 569.544 257.674 569.383 258.342C566.9 258.322 562.456 253.722 563.743 251.498L564.624 251.37C566.191 253.873 567.346 255.262 569.33 257.418Z" fill="#44B4AD"/>
<path d="M567.553 302.539L567.962 302.499C568.397 303.424 568.689 303.982 568.97 304.961L567.92 305.344L567.553 302.539Z" fill="#DBEFE6"/>
<path d="M508.527 323.647C508.794 321.198 508.824 321.314 511.269 320.973C515.574 320.374 519.065 318.042 522.691 315.808C523.362 316.508 524.206 317.336 524.81 318.069C527.112 321.174 530.971 325.064 533.667 327.988C537.159 331.714 540.462 335.614 543.556 339.674C545.581 342.405 547.46 344.951 549.342 347.783C551.945 353.241 551.686 356.373 553.062 362.096C553.13 362.367 555.642 364.047 556.01 363.937C560.127 366.134 567.841 360.199 569.652 361.504C570.35 368.388 556.239 368.74 551.525 368.056C548.574 368.985 527.964 369.335 525.47 366.885C523.835 368.41 518.585 368.806 517.377 366.722L517.737 365.597C518.352 364.421 518.439 364.214 519.447 363.367C517.186 362.134 517.449 362.081 517.276 359.736C518.135 355.9 518.57 352.678 519.057 348.783C518.184 347.315 513.991 342.459 512.266 342.804L511.94 344.177C511.64 341.915 510.309 338.486 509.727 335.965C508.737 331.67 508.97 328.432 509.067 324.1L508.527 323.647Z" fill="#49CFA6"/>
<path d="M508.527 323.647C508.794 321.198 508.824 321.314 511.269 320.973C515.574 320.374 519.065 318.042 522.691 315.808C523.362 316.508 524.206 317.336 524.81 318.069C527.112 321.174 530.971 325.064 533.667 327.988C537.159 331.714 540.462 335.614 543.556 339.674C545.581 342.405 547.46 344.951 549.342 347.783C551.945 353.241 551.686 356.373 553.062 362.096C553.13 362.367 555.642 364.047 556.01 363.937C560.127 366.134 567.841 360.199 569.652 361.504C570.35 368.388 556.239 368.74 551.525 368.056C548.574 368.985 527.964 369.335 525.47 366.885C523.835 368.41 518.585 368.806 517.377 366.722L517.737 365.597C518.352 364.421 518.439 364.214 519.447 363.367C517.186 362.134 517.449 362.081 517.276 359.736C518.135 355.9 518.57 352.678 519.057 348.783C518.184 347.315 513.991 342.459 512.266 342.804L511.94 344.177C511.64 341.915 510.309 338.486 509.727 335.965C508.737 331.67 508.97 328.432 509.067 324.1L508.527 323.647Z" fill="white" fill-opacity="0.6"/>
<path d="M508.527 323.647C508.794 321.198 508.824 321.314 511.269 320.973C515.574 320.374 519.065 318.042 522.691 315.808C523.362 316.508 524.206 317.336 524.81 318.069C522.264 322.049 513.545 324.036 509.067 324.1L508.527 323.647Z" fill="#006862"/>
<path d="M526.762 358.128C527.553 353.746 526.855 348.408 528.667 344.904C528.929 346.388 528.288 349.204 527.965 350.779C530.917 348.248 534.232 347.347 538.139 347.827L538.372 348.171L538.469 347.889L538.822 348.221C537.273 348.691 535.983 348.622 534.37 348.644C526.349 353.583 531.704 357.312 529.237 360.475L526.762 358.128Z" fill="#006862"/>
<path d="M519.059 348.783C521.706 350.982 521.942 359.744 520.701 362.54C520.289 362.833 519.895 363.153 519.449 363.367C517.187 362.134 517.45 362.081 517.277 359.736C518.136 355.9 518.571 352.678 519.059 348.783Z" fill="white"/>
<path d="M525.756 362.865L526.923 363.725C526.251 365.31 526.139 364.943 526.379 366.447C529.713 369.768 546.029 366.347 551.526 368.056C548.575 368.984 527.965 369.335 525.471 366.884C523.836 368.41 518.586 368.806 517.379 366.722L517.739 365.596L518.181 366.53C520.338 368.052 521.995 367.685 524.073 366.419C525.381 365.623 525.438 364.272 525.756 362.865Z" fill="#E5F4F4"/>
<path d="M526.761 358.128L529.236 360.475C530.526 361.474 531.538 362.26 532.918 363.138C530.526 363.132 529.236 363.014 526.922 363.726L525.756 362.866C526.052 361.229 526.296 359.728 526.761 358.128Z" fill="#EEF6EC"/>
<path d="M532.844 362.831C534.411 362.754 537.655 363.622 539.204 364.123C536.957 364.254 534.719 364.162 532.844 362.831Z" fill="#006862"/>
<path d="M424.374 331.083C427.306 331.974 428.154 332.1 431.225 332.074L431.66 333.279C435.181 339.331 438.414 336.183 441.969 340.024C443.555 339.447 445.524 339.824 447.245 340.006C447.613 338.347 447.781 337.754 448.411 336.166L449.191 333.746C452.098 334.613 453.691 334.286 456.699 333.797L457.198 334.844C462.849 339.153 468.05 338.539 472.426 341.812C475.16 341.349 487.955 343.443 489.365 345.922C488.84 347.023 488.131 347.353 487.003 347.754C476.885 351.352 420.391 349.763 411.245 344.831C410.57 344.468 410.529 344.358 410.33 343.637C411.928 341.003 419.833 341.637 421.16 340.257C421.831 337.85 422.356 336.126 423.238 333.785L424.374 331.083Z" fill="#E5F4F4"/>
<path d="M456.699 333.797L457.198 334.844C462.849 339.153 468.05 338.539 472.427 341.812C472.307 342.126 471.939 342.983 471.74 343.164C469.059 345.607 448.955 345.038 447.354 343.659C446.878 342.368 447.11 341.391 447.245 340.006C447.613 338.348 447.782 337.755 448.412 336.166L449.192 333.746C452.098 334.613 453.692 334.286 456.699 333.797Z" fill="#006862"/>
<path d="M456.7 333.797L457.198 334.844C454.018 337.995 452.44 338.086 448.412 336.166L449.192 333.746C452.098 334.613 453.692 334.286 456.7 333.797Z" fill="#F5CE8B"/>
<path d="M424.374 331.083C427.306 331.974 428.154 332.1 431.225 332.074L431.66 333.279C435.181 339.331 438.414 336.183 441.969 340.024C439.333 344.689 427.415 342.277 422.705 341.921C421.816 341.854 421.456 340.932 421.16 340.257C421.831 337.85 422.356 336.126 423.238 333.785L424.374 331.083Z" fill="#006862"/>
<path d="M424.375 331.083C427.307 331.974 428.155 332.1 431.226 332.074L431.661 333.279C428.447 335.292 426.688 336.333 423.238 333.785L424.375 331.083Z" fill="#F5CE8B"/>
<path d="M568.693 330.779C568.659 332.008 568.52 332.822 569.023 333.932C569.387 334.88 569.855 336.002 570.144 336.958C573.605 336.828 575.694 336.954 579.163 337.239L580.457 336.102C583.4 337.092 584.788 337.044 587.094 335.031C587.747 336.579 588.077 337.499 588.549 339.11C591.328 337.489 604.528 339.842 603.853 344.069C601.535 346.936 593.327 347.906 588.204 348.461C576.365 349.746 562.318 348.837 550.359 347.289C550.359 347.289 549.41 347.75 549.343 347.783C547.46 344.951 545.582 342.405 543.557 339.675C545.825 338.815 547.213 338.053 549.56 339.055C551.405 337.37 557.983 335.684 561.605 333.711L561.515 331.265C564.654 331.29 565.547 331.301 568.693 330.779Z" fill="#E5F4F4"/>
<path d="M568.693 330.779C568.659 332.008 568.521 332.822 569.023 333.932C569.387 334.88 569.856 336.002 570.144 336.958C570.227 338.231 570.456 339.052 569.762 340.06C567.186 341.577 555.351 341.168 551.927 340.595C550.993 340.439 550.221 339.712 549.561 339.055C551.406 337.37 557.983 335.684 561.606 333.711L561.516 331.265C564.654 331.29 565.547 331.301 568.693 330.779Z" fill="#004E49"/>
<path d="M568.693 330.779C568.659 332.008 568.521 332.822 569.023 333.932C565.937 335.46 564.636 335.427 561.606 333.711L561.516 331.265C564.654 331.29 565.547 331.301 568.693 330.779Z" fill="#F5CE8B"/>
<path d="M580.458 336.102C583.401 337.092 584.789 337.044 587.095 335.03C587.748 336.578 588.078 337.498 588.55 339.109C588.16 342.201 587.035 343.22 584.144 344.328C581.796 345.225 576.153 346.268 575.084 343.286C575.526 341.749 578.061 338.762 579.164 337.238L580.458 336.102Z" fill="#004E49"/>
<path d="M502.041 306.413C503.98 304.325 504.895 302.719 507.542 301.449C517.416 296.716 519.831 307.91 522.692 314.369C522.591 315.104 522.445 315.227 522.692 315.808C519.066 318.042 515.575 320.374 511.27 320.973C508.825 321.314 508.795 321.198 508.528 323.647C507.692 312.376 498.985 321.112 494.672 310.984C494.095 309.147 493.78 308.784 494.826 307.279C497.702 307.361 499.228 307.136 502.041 306.413Z" fill="#49CFA6"/>
<path d="M502.041 306.413C503.98 304.325 504.895 302.719 507.542 301.449C517.416 296.716 519.831 307.91 522.692 314.369C522.591 315.104 522.445 315.227 522.692 315.808C519.066 318.042 515.575 320.374 511.27 320.973C508.825 321.314 508.795 321.198 508.528 323.647C507.692 312.376 498.985 321.112 494.672 310.984C494.095 309.147 493.78 308.784 494.826 307.279C497.702 307.361 499.228 307.136 502.041 306.413Z" fill="white" fill-opacity="0.6"/>
<path d="M494.672 310.984C494.095 309.148 493.78 308.784 494.826 307.279C496.352 307.666 496.168 307.351 496.798 308.338C496.465 309.526 495.606 310.109 494.672 310.984Z" fill="#243C3A"/>
<path d="M510.772 303.731C511.645 305.658 509.362 315.476 508.874 317.949C507.787 316.219 509.988 305.858 510.772 303.731Z" fill="#006862"/>
<path d="M511.941 344.177L512.267 342.805C513.992 342.459 518.185 347.315 519.059 348.784C518.571 352.679 518.136 355.901 517.277 359.737C516.527 363.087 515.114 368.477 510.246 366.683C509.252 365.645 509.485 366.162 509.354 364.748C509.834 363.477 510.756 363.102 511.941 362.33C512.984 356.758 512.459 349.775 511.941 344.177Z" fill="#006862"/>
<path d="M375.591 325.082C379.041 330.178 381.013 329.92 386.211 332.378C388.228 336.547 387.685 337.301 387.962 341.632C388.288 346.73 384.141 358.925 389.882 361.118C388.851 358.481 391.097 351.308 392.244 348.641C392.432 352.753 391.716 358.443 396.084 360.149C398.207 359.827 404.271 360.393 404.766 362.926C399.917 369.5 321.179 371.647 313.375 365.414L313.297 364.694C316.053 360.581 335.793 360.856 337.569 359.11C336.82 357.428 335.753 355.38 336.331 353.568C338.355 352.678 341.349 356.292 343.13 357.174C344.075 357.642 345.117 358.029 346.107 358.351C349.298 337.834 364.354 338.075 375.591 325.082Z" fill="#DCB55B"/>
<path d="M337.569 359.11C342.899 364.33 362.346 367.215 368.835 364.227L369.307 363.523C368.591 361.521 367.752 361.677 368.058 360.38C369.134 359.832 369.178 359.781 370.352 359.815C372.185 361.437 369.775 364.868 375.183 364.533C376.577 364.447 376.9 364.111 377.747 363.258C377.875 361.324 377.061 361.024 375.613 360.039C377.912 359.874 380.841 359.941 383.005 359.384C383.62 361.488 383.919 363.356 386.016 364.449C388.044 365.504 390.066 364.275 390.955 362.378C392.391 363.101 394.221 363.346 395.646 362.498C396.403 361.327 396.193 361.793 396.084 360.149C398.207 359.827 404.271 360.393 404.766 362.926C399.917 369.5 321.179 371.647 313.375 365.414L313.297 364.694C316.053 360.581 335.793 360.856 337.569 359.11Z" fill="#E5F4F4"/>
<path d="M375.614 360.04C375.426 359.669 375.366 359.073 375.291 358.635C375.925 356.45 379.345 354.606 381.329 353.276L383.005 359.384C380.841 359.941 377.912 359.874 375.614 360.04Z" fill="#EEF6EC"/>
<path d="M379.892 348.36C380.354 348.482 380.511 348.634 380.942 348.888L380.924 349.598C379.821 350.62 379.015 351.059 377.755 351.825C377.406 351.757 377.545 351.76 377.219 351.339C377.759 350.012 378.786 349.326 379.892 348.36Z" fill="#D0AE5B"/>
<path d="M359.971 346.033C361.906 345.781 363.873 345.974 365.722 346.597L365.599 346.805C365.482 346.786 365.365 346.768 365.248 346.749C363.925 347.391 361.596 346.525 359.971 346.033Z" fill="#D0AE5B"/>
<path d="M393.741 300.685C396.16 302.082 396.096 306.449 397.3 309.127C398.068 310.833 398.432 311.414 399.482 313.016C397.705 315.352 394.888 318.286 393.527 320.471C390.97 324.57 391.228 331.77 384.246 327.841C382.918 327.096 381.662 326.541 380.245 325.579C379.255 324.629 378.167 323.434 377.207 322.424C377.53 319.123 377.601 316.295 377.631 312.98C377.657 310.21 376.888 304.261 380.076 303.225C382.626 303.701 384.006 306.14 385.581 308.219C386.792 307.893 388.686 307.582 389.961 307.339C391.093 305.026 392.113 302.677 393.741 300.685Z" fill="#DCB55B"/>
<path d="M380.777 307.776L381.741 308.053C383.282 309.485 383.691 311.391 384.201 313.36C382.735 312.414 381.419 309.374 380.777 307.776Z" fill="#D0AE5B"/>
<path d="M489.494 380.726C486.172 381.232 481.465 380.762 477.944 380.98C474.344 381.203 463.015 382.613 460.619 379.893L460.874 379.338C463.315 378.018 469.567 377.584 472.394 377.943C472.559 378.714 472.615 379.889 473.264 380.086C477.667 381.415 485.118 379.942 489.494 380.726Z" fill="#E5F4F4"/>
<path d="M490.874 378.012C492.91 378.16 495.355 378.163 497.009 379.364L497.268 380.143C495.877 381.908 491.782 381.771 490.105 380.743C490.529 379.966 490.687 378.898 490.874 378.012Z" fill="#E5F4F4"/>
<path d="M405.134 317.183C405.378 318.511 405.509 319.116 405.487 320.503C404.178 321.815 398.395 323.514 396.914 322.537C399.715 321.721 404.928 320.834 404.744 317.161L405.134 317.183Z" fill="#DCB55B"/>
<path d="M404.744 317.162C403.57 316.46 402.858 316.2 402.213 315.01L402.292 314.148C403.743 313.063 405.082 312.857 406.237 314.462C406.267 315.65 405.899 316.22 405.134 317.184L404.744 317.162Z" fill="#243C3A"/>
<path d="M552.152 170.165C554.484 166.189 556.539 163.433 561.125 162.249C568.55 160.33 576.913 164.76 578.402 172.516C578.747 174.315 577.745 177.559 577.58 179.444C577.757 181.033 578.015 184.188 578.589 185.398C582.729 194.15 592.633 192.589 587.45 205.044C586.453 207.439 595.389 212.148 584.424 217.835L583.982 218.542C584.657 222.813 585.459 227.077 586.108 231.334C583.614 237.291 579.193 240.525 577.359 244.195C577.723 245.756 577.873 246.155 577.367 247.723C575.942 247.961 575.465 247.947 574.014 247.898C570.26 251.662 571.299 253.979 569.33 257.418C567.347 255.262 566.192 253.873 564.624 251.37L565.678 250.407C564.257 249.831 557.338 250.05 555.103 249.777C552.643 249.476 551.244 249.222 548.732 248.663C548.154 245.461 549.819 236.517 550.397 232.893C550.565 227.061 550.697 224.427 549.725 218.597C548.957 216.903 548.657 215.206 548.252 213.394C548.694 211.911 549.898 209.423 550.7 207.849C552.163 204.989 552.504 199.276 555.673 198.016C556.442 197.711 556.862 197.487 557.537 197.08L557.739 196.956C557.402 195.553 556.94 194.225 556.49 192.857C553.64 191.374 551.799 186.688 551.132 183.633C550.914 182.643 553.712 179.512 553.07 176.862C552.29 176.182 550.303 176.294 549.032 176.209C545.758 175.51 544.247 173.971 545.788 170.684C547.948 170.227 549.935 170.033 552.152 170.165Z" fill="#004E49"/>
<path d="M557.739 196.956C558.624 197.477 558.591 197.447 559.614 197.62C559.221 199.161 558.876 199.414 559.341 200.74C560.544 201.336 561.726 201.188 563.106 201.188C560.094 206.208 561.452 207.054 563.541 211.976C564.474 211.504 565.611 210.971 566.481 210.435L565.344 206.712L570.718 201.762C570.767 203.189 570.238 204.922 570.339 206.03C570.744 210.452 571.187 219.361 575.574 221.385L575.694 220.905C579.231 220.234 580.712 219.789 583.982 218.542C584.657 222.813 585.459 227.077 586.108 231.334C583.614 237.292 579.193 240.526 577.359 244.195C577.723 245.756 577.873 246.155 577.367 247.724C575.942 247.961 575.466 247.948 574.014 247.898C570.261 251.662 571.299 253.979 569.331 257.418C567.347 255.262 566.192 253.873 564.624 251.37L565.678 250.407C564.257 249.831 557.338 250.05 555.103 249.777C552.643 249.476 551.244 249.222 548.732 248.663C548.154 245.461 549.819 236.517 550.397 232.893C550.566 227.061 550.697 224.427 549.726 218.597C548.957 216.903 548.657 215.207 548.252 213.394C548.694 211.911 549.898 209.423 550.701 207.849C552.163 204.989 552.504 199.276 555.673 198.016C556.442 197.711 556.862 197.488 557.537 197.08L557.739 196.956Z" fill="#44B4AD"/>
<path d="M583.982 218.542C584.657 222.813 585.46 227.077 586.109 231.334C583.615 237.292 579.194 240.526 577.36 244.195C577.724 245.756 577.874 246.155 577.367 247.724C575.942 247.961 575.466 247.948 574.015 247.898C570.261 251.662 571.3 253.98 569.331 257.418C567.347 255.262 566.192 253.873 564.625 251.37L565.679 250.407C568.551 248.002 572.676 239.662 574.266 236.115C572.575 230.932 573.539 227.657 575.324 222.86L575.575 221.385L575.695 220.905C579.231 220.234 580.712 219.789 583.982 218.542Z" fill="#F5CE8B"/>
<path d="M575.324 222.86C576.565 224.732 577.135 227.558 577.93 229.714C576.775 231.885 575.665 234.095 574.267 236.115C572.575 230.932 573.539 227.657 575.324 222.86Z" fill="white"/>
<path d="M574.014 247.897C575.045 246.405 575.915 245.295 577.359 244.194C577.722 245.756 577.872 246.155 577.366 247.723C575.941 247.961 575.465 247.947 574.014 247.897Z" fill="#44B4AD"/>
<path d="M552.152 170.165C554.484 166.189 556.539 163.433 561.125 162.249C568.55 160.33 576.913 164.76 578.402 172.516C578.747 174.315 577.745 177.559 577.58 179.444C575.109 178.058 565.633 175.192 562.52 175.301C561.245 175.345 559.13 175.824 557.84 176.138C556.187 176.269 555.099 176.158 553.453 176.031L549.032 176.209C545.758 175.51 544.247 173.971 545.788 170.684C547.948 170.227 549.935 170.033 552.152 170.165Z" fill="#006862"/>
<path d="M545.788 170.684C546.935 171.451 552.808 175.322 553.453 176.031L549.032 176.208C545.758 175.51 544.247 173.971 545.788 170.684Z" fill="#006862"/>
<path d="M575.672 198.651C577.903 199.284 579.077 199.543 580.217 201.789C582.56 206.411 583.108 212.767 584.424 217.836L583.982 218.542C580.712 219.789 579.23 220.234 575.694 220.905L575.574 221.385C571.187 219.361 570.744 210.452 570.339 206.03C570.238 204.923 570.767 203.189 570.718 201.763L570.857 201.599C571.389 201.412 573.969 199.452 575.672 198.651Z" fill="#006862"/>
<path d="M553.453 176.031C555.099 176.158 556.186 176.269 557.84 176.138C559.76 177.732 561.706 179.298 563.671 180.835C564.53 179.646 564.808 179.062 566.221 178.562C571.059 179.467 565.775 185.161 565.494 187.053C565.606 188.564 565.723 191.161 565.963 192.571C563.578 193.087 562.363 193.407 560.686 195.285L560.285 196.971L559.614 197.62C558.59 197.447 558.624 197.477 557.739 196.956C557.401 195.553 556.94 194.225 556.49 192.857C553.64 191.374 551.799 186.688 551.131 183.633C550.914 182.643 553.711 179.511 553.07 176.862C552.29 176.182 550.303 176.294 549.031 176.208L553.453 176.031Z" fill="#F5CE8B"/>
<path d="M558.973 191.747C561.388 191.778 563.84 188.707 565.494 187.054C565.606 188.564 565.723 191.161 565.963 192.571C563.578 193.087 562.363 193.408 560.687 195.285L560.285 196.971L559.614 197.62C558.59 197.447 558.624 197.477 557.739 196.956C557.402 195.553 556.94 194.225 556.49 192.857C557.03 192.533 558.335 192.02 558.973 191.747Z" fill="#DCB55B"/>
<path d="M558.973 191.747C560.6 193.193 560.236 194.833 560.285 196.971L559.614 197.62C558.59 197.447 558.624 197.477 557.739 196.956C557.402 195.553 556.94 194.225 556.49 192.857C557.03 192.533 558.335 192.019 558.973 191.747Z" fill="#004E49"/>
<path d="M560.286 196.972L560.687 195.285C562.363 193.408 563.578 193.087 565.963 192.571C566.687 196.435 566.601 198.741 563.106 201.188C561.726 201.189 560.544 201.337 559.34 200.74C558.875 199.415 559.221 199.162 559.614 197.62L560.286 196.972Z" fill="#F5CE8B"/>
<path d="M572.402 196.677C573.366 197.311 574.66 198.043 575.672 198.651C573.97 199.452 571.39 201.412 570.857 201.599C571.221 200.182 571.941 198.125 572.402 196.677Z" fill="#44B4AD"/>
<path d="M448.48 176.256C449.856 179.642 453.753 180.17 455.144 181.78C454.878 183.039 454.72 183.692 454.66 185L454.769 186.862L455.943 189.04C457.893 189.736 459.329 190.286 461.211 191.147C465.644 193.604 466.263 198.197 467.279 202.831C467.834 205.346 470.395 213.829 468.91 215.55C466.188 217.025 464.163 218.032 461.189 218.959C460.593 219.145 457.416 220.039 457.158 220.171C457.851 221.727 458.208 222.482 458.635 224.141C453.239 229.812 447.078 235.2 441.261 240.404C439.829 241.687 431.703 241.311 429.449 241.318C413.459 239.238 412.221 232.068 413.361 217.955C413.65 215.05 414.138 212.857 414.873 210.055C416.853 204.281 417.801 201.745 422.054 197.182C422.429 194.615 422.658 191.772 424.701 190.081C428.163 186.225 432.13 189.283 434.909 188.04C437.541 186.72 440.976 185.171 443.189 183.332C443.916 181.544 443.973 180.134 444.183 178.221L445.975 178.087C446.804 177.519 447.663 176.858 448.48 176.256Z" fill="#006862"/>
<path d="M461.211 191.146C465.643 193.604 466.262 198.197 467.278 202.831C467.833 205.346 470.395 213.829 468.91 215.55C466.187 217.024 464.162 218.032 461.188 218.959C460.592 219.144 457.416 220.039 457.157 220.171C455.417 222.424 450.523 228.345 447.707 228.345C446.466 226.686 443.057 205.456 441.475 200.934C448.667 194.957 451.877 192.619 461.211 191.146Z" fill="#89E6E0"/>
<path d="M451.742 204.696C452.612 205.38 454.705 216.141 456.392 219.755C452.68 219.06 451.866 207.937 451.742 204.696Z" fill="#44B4AD"/>
<path d="M448.479 176.256C449.856 179.642 453.752 180.17 455.143 181.78C454.877 183.039 454.719 183.692 454.659 185L454.768 186.862L455.942 189.04C449.293 189.014 444.324 190.594 439.112 194.967C438.471 191.221 437.608 190.689 434.908 188.04C437.541 186.72 440.976 185.171 443.188 183.332C443.916 181.544 443.972 180.134 444.182 178.221L445.974 178.087C446.803 177.519 447.662 176.858 448.479 176.256Z" fill="#89E6E0"/>
<path d="M448.479 176.256C449.855 179.642 453.751 180.17 455.143 181.78C454.876 183.039 454.719 183.692 454.659 185L454.768 186.862C451.689 184.727 446.87 183.647 443.188 183.332C443.915 181.544 443.971 180.134 444.181 178.221L445.974 178.087C446.803 177.519 447.661 176.858 448.479 176.256Z" fill="#F5CE8B"/>
<path d="M448.48 176.256C449.856 179.642 453.752 180.17 455.143 181.78C454.877 183.039 454.72 183.692 454.66 185C452.698 184.526 446.901 179.972 445.975 178.087C446.803 177.519 447.662 176.858 448.48 176.256Z" fill="#DCB55B"/>
<path d="M414.873 210.056C421.214 210.433 428.238 210.753 434.523 211.387C434.369 214.584 434.118 216.088 433.03 219.117C426.239 219.065 419.688 218.03 413.361 217.955C413.65 215.051 414.138 212.858 414.873 210.056Z" fill="#006862"/>
<path d="M434.909 188.04C437.609 190.689 438.471 191.22 439.112 194.967C438.044 196.151 437.294 197.391 435.61 197.032C434.185 194.772 436.041 191.463 433.214 190.491L432.415 190.923C431.897 190.692 429.527 190.222 428.92 190.366C428.129 190.571 426.809 190.962 426.047 191.066C426.94 188.958 431.136 189.623 432.745 190.13L433.165 189.617C431.147 187.695 427.064 189.361 424.701 190.081C428.162 186.225 432.13 189.283 434.909 188.04Z" fill="#006862"/>
<path d="M428.919 190.366C429.527 190.222 431.897 190.692 432.414 190.923C431.728 192.494 431.061 194.552 429.692 195.465C428.409 195.838 428.008 195.73 426.677 195.624L426.144 195.665L425.676 194.973C425.473 193.327 425.702 192.647 426.047 191.066C426.808 190.962 428.128 190.571 428.919 190.366Z" fill="#006862"/>
<path d="M428.919 190.366L429.737 190.65C429.741 192.196 427.836 194.621 426.677 195.625L426.144 195.666L425.676 194.974C425.473 193.327 425.702 192.648 426.047 191.067C426.808 190.963 428.128 190.572 428.919 190.366Z" fill="white"/>
<path d="M435.186 219.843L436.029 219.992C437.001 221.407 436.903 231.238 436.937 233.661C436.506 233.699 436.626 233.669 436.172 233.496C435.508 229.563 435.347 223.889 435.186 219.843Z" fill="#004E49"/>
<path d="M439.603 159.239C440.706 158.257 443.889 154.479 445.637 154.257C450.834 153.598 457.899 154.547 463.386 154C463.674 154.181 463.963 154.362 464.252 154.542C465.486 156.943 462.962 160.57 461.094 162.082C461.188 163.586 461.274 164.813 461.492 166.298C461.743 168.03 463.344 171.201 463.183 172.673C463.082 172.779 461.844 174.044 461.844 174.044C460.543 178.257 461.619 181.722 455.968 181.78C455.694 181.784 455.417 181.784 455.143 181.78C453.752 180.169 449.856 179.642 448.479 176.256C447.662 176.857 446.803 177.519 445.974 178.087L444.182 178.221C437.946 173.238 438.216 166.361 439.603 159.239Z" fill="#004E49"/>
<path d="M448.48 176.256C450.985 172.038 445.833 170.665 449.523 167.339C452.223 166.913 451.368 169.32 453.179 170.041C455.557 166.922 453.637 164.986 455.107 162.991C456.742 162.203 459.217 162.206 461.095 162.083C461.189 163.586 461.275 164.814 461.493 166.299C461.744 168.031 463.345 171.201 463.184 172.673C463.083 172.779 461.845 174.044 461.845 174.044C460.544 178.258 461.62 181.722 455.969 181.781C455.695 181.785 455.418 181.784 455.144 181.781C453.753 180.17 449.857 179.643 448.48 176.256Z" fill="#F5CE8B"/>
<path d="M481.809 218.925C483.387 214.909 484.764 212.911 487.314 209.506C487.168 211.276 487.021 213.907 486.661 215.573C488.54 214.783 491.63 213.156 493.52 213.277C495.654 214.552 494.983 217.233 493.7 218.78C491.615 221.302 486.976 223.447 484.231 225.171C479.596 228.085 470.799 236.312 465.384 236.365C461.915 233.372 460.31 228.381 458.634 224.14C458.206 222.482 457.85 221.726 457.156 220.171C457.415 220.038 460.591 219.144 461.188 218.959C464.161 218.032 466.186 217.024 468.909 215.549C469.381 218.315 469.828 221.188 470.383 223.93C473.45 222.593 479.169 220.382 481.809 218.925Z" fill="#F5CE8B"/>
<path d="M529.993 206.721C537.699 211.544 540.845 215.913 547.858 221.575C548.791 220.946 549.211 219.679 549.725 218.597C550.696 224.427 550.565 227.062 550.396 232.893C546.163 231.964 539.161 220.836 535.715 217.032L535.385 216.672C530.169 215.343 528.271 214.838 523.955 211.701C525.999 211.873 531.478 213.035 532.64 211.582C532.539 210.433 532.426 210.233 531.778 209.299L529.993 206.721Z" fill="#F5CE8B"/>
<path d="M315.213 268.218C317.708 270.179 319.267 270.927 322.022 272.37L329.49 272.309L330.484 273.923C329.878 276.393 329.541 277.264 328.512 279.596L328.177 281.079C326.2 282.127 324.91 283.043 322.683 283.198C319.321 284.898 318.368 285.497 317.897 289.283L317.612 290.657L317.689 291.648C318.358 301.231 312.041 319.022 322.954 323.505C320.747 325.02 320.467 324.94 317.724 325.305C314.474 324.097 315.646 324.901 313.355 322.061C311.194 322.572 308.731 322.806 307.39 324.304C304.029 330.257 297.131 327.237 295.245 320.05L294.102 321.544C290.14 321.959 279.752 322.388 276.964 323.155C279.348 324.483 279.855 324.594 281.485 326.677L281.034 327.918L279.071 328.535C273.131 327.397 272.142 325.654 271.897 319.908L270.805 322.142C265.401 323.079 263.207 321.887 258.223 323.792C259.564 325.729 259.528 325.64 260.134 327.913L259.31 328.953L257.622 328.845C252.965 325.046 253.47 323.349 252.806 317.168L258.669 310.805C257.153 300.231 256.211 300.825 260.288 290.984L259.778 290.404C256.95 293.422 255.748 297.374 250.648 296.697C246.374 296.13 244.067 294.04 241.596 290.702L241.839 289.671C252.524 288.351 244.419 280.054 256.478 278.911L257.118 279.156C264.809 277.24 294.573 278.31 302.206 281.334C308.921 271.653 300.577 273.1 315.213 268.218Z" fill="#5A716D"/>
<path d="M257.123 279.158C264.814 277.243 294.578 278.312 302.211 281.336C289.333 290.203 279.922 286.284 265.27 287.227C262.567 284.267 260.046 281.902 257.123 279.158Z" fill="#EEF6EC"/>
<path d="M276.967 323.155C279.365 319.094 280.632 317.096 282.186 312.696C286.365 313.049 290.013 312.118 293.39 313.623C295.34 316.315 294.797 316.354 295.248 320.051L294.105 321.545C290.143 321.96 279.754 322.389 276.967 323.155Z" fill="white"/>
<path d="M307.395 324.305C301.587 323.347 299.003 320.875 301.063 314.575C302.113 311.362 304.83 311.057 307.731 309.983L313.36 322.062C311.199 322.573 308.736 322.808 307.395 324.305Z" fill="white"/>
<path d="M258.223 323.794L259.459 321.263C265.188 317.77 266.002 315.009 271.298 312.158L272.432 312.583C273.235 315.421 272.564 317.012 271.896 319.911L270.804 322.144C265.4 323.081 263.206 321.889 258.223 323.794Z" fill="white"/>
<path d="M317.616 290.659C312.644 289.555 306.482 287.473 303.445 283.11C306.678 283.371 314.436 287.595 317.901 289.285L317.616 290.659Z" fill="white"/>
<path d="M322.954 323.506C325.617 323.878 325.25 323.403 326.855 324.911L326.475 326.324C313.678 336.221 243.956 341.774 237.854 328.048L238.731 326.59C242.229 324.575 247.935 324.291 252.309 323.237L252.807 317.169C253.471 323.35 252.965 325.048 257.623 328.847L259.311 328.954L260.135 327.914C259.528 325.641 259.564 325.73 258.224 323.793C263.207 321.888 265.402 323.08 270.805 322.143L271.898 319.91C272.143 325.655 273.132 327.398 279.071 328.536L281.034 327.919L281.486 326.678C279.855 324.595 279.349 324.484 276.965 323.156C279.753 322.389 290.141 321.96 294.103 321.545L295.246 320.051C297.132 327.238 304.03 330.259 307.391 324.305C308.732 322.808 311.195 322.573 313.356 322.062C315.647 324.903 314.474 324.098 317.724 325.306C320.467 324.941 320.748 325.021 322.954 323.506Z" fill="#E5F4F4"/>
</svg>
