<svg width="348" height="220" viewBox="0 0 348 220" fill="none" xmlns="http://www.w3.org/2000/svg">
<path d="M125.29 69.5664C126.023 70.8629 127.016 72.7176 127.933 73.8244C128.586 75.7366 128.689 82.2068 128.507 84.2468C128.545 86.3453 128.536 88.7205 128.644 90.7924C129.166 91.5765 128.942 93.9498 128.939 95.045C130.596 95.046 139.709 95.1394 140.754 94.8902L140.986 94.4873C140.163 89.838 139.318 85.3541 138.976 80.6414L138.701 79.2245C141.098 79.8485 144.374 79.4006 145.517 79.8901C146.104 80.5427 146.428 81.0487 147.247 81.3138C148.005 80.8615 148.549 79.4915 149.363 78.6314C150.763 83.8424 149.666 90.8354 151.984 95.2927C157.46 95.1916 162.143 94.926 167.572 95.97L167.806 96.0599C170.625 95.358 181.532 95.7499 184.33 96.8581C186.791 93.3103 183.733 93.8405 189.097 92.0511C190.011 92.77 190.582 93.0438 191.592 93.573L194.329 93.5507L194.693 94.1424C194.471 95.0475 194.348 95.3662 193.97 96.221L194.289 96.8523C196.464 97.31 201.653 97.4585 204.015 97.5678C205.805 96.8504 209.513 96.8378 209.438 96.8963C213.551 93.6615 215.678 90.1442 220.588 97.5949C224.544 98.2542 225.076 95.0939 228.097 100.509C232.367 101.228 249.522 103.975 248.092 108.521C245.992 115.213 218.937 118.921 213.624 119.836C220.662 122.715 223.08 124.812 214.066 128.108C200.591 133.036 185.978 134.807 171.801 136.537C136.329 140.387 100.097 141.354 64.6413 136.916C57.1717 135.769 49.3606 134.727 42.4866 131.411C40.6572 130.529 38.9873 128.937 39.9578 126.617C41.2045 123.638 48.3906 122.358 49.2135 120.169C43.5316 115.468 18.6554 116.081 18.0051 110.125C17.958 109.694 18.246 109.136 18.5091 108.813C20.6629 106.167 28.4795 103.857 31.837 103.477C33.2361 99.5337 35.2658 98.5334 39.2841 98.8478C40.3998 96.1562 41.5581 94.1786 44.3243 92.8338C46.2558 91.8997 48.483 91.786 50.4998 92.5189C53.04 93.4699 54.4394 95.3077 55.5342 97.6786C57.2757 97.9727 58.4318 98.2576 60.1414 98.7269C61.7634 98.2233 65.0994 98.1038 66.8999 97.9891C68.1581 97.8329 68.4363 98.0167 69.2756 97.3061C70.5536 97.8256 87.8288 95.8848 91.6103 96.3633C92.3843 92.1493 90.8223 82.349 91.8285 79.8074C92.7341 79.4886 92.9014 79.7344 93.9662 80.0352C95.4058 81.01 95.8901 81.9736 97.498 81.1648C99.3837 81.0961 101.009 80.8436 102.866 80.5804C102.411 85.5814 102.19 90.6023 101.597 95.5844C105.932 95.404 111.436 95.0881 115.708 95.2917C116.42 89.9894 116.108 84.4112 116.004 79.045C115.96 77.4956 116.065 76.8952 116.326 75.3506C120.984 75.0618 122.44 73.2173 125.29 69.5664Z" fill="white"/>
<path d="M125.291 69.5664C126.024 70.8629 127.017 72.7176 127.933 73.8244C128.587 75.7366 128.69 82.2068 128.508 84.2468C128.546 86.3453 128.537 88.7205 128.645 90.7924C128.616 93.0312 128.435 104.606 127.499 105.996C126.573 106.598 125.351 106.647 124.374 106.137C123.291 104.308 123.888 96.1654 123.428 93.5764C122.992 91.1204 122.286 89.0673 121.54 86.7057C121.315 90.2269 119.864 104.587 117.054 106.21L116.929 106.151C115.728 105.911 115.648 106.099 114.877 105.322C114.213 102.992 115.344 98.1043 115.709 95.2917C116.421 89.9894 116.108 84.4112 116.005 79.045C115.961 77.4956 116.066 76.8952 116.326 75.3506C120.985 75.0618 122.44 73.2173 125.291 69.5664Z" fill="#006862"/>
<path d="M125.292 69.5664C126.025 70.8629 127.018 72.7176 127.935 73.8244C128.588 75.7366 128.691 82.2068 128.509 84.2468C128.245 82.8865 128.24 80.2636 128.194 78.792C123.687 79.9719 120.488 79.6739 116.006 79.045C115.962 77.4956 116.067 76.8952 116.327 75.3506C120.986 75.0618 122.441 73.2173 125.292 69.5664Z" fill="#89E6E0"/>
<path d="M39.2831 98.8478C40.3988 96.1562 41.557 94.1791 44.3232 92.8338C46.2548 91.8997 48.482 91.786 50.4988 92.5194C53.0389 93.47 54.4384 95.3077 55.5332 97.6786C57.2747 97.9727 58.4308 98.2576 60.1404 98.7269C62.4687 100.874 63.4797 102.744 63.1392 106.016C62.8102 106.819 62.8387 106.783 62.2099 107.377C61.1219 107.615 53.0834 107.623 51.4934 107.569C45.8718 107.378 38.3383 107.953 32.9069 107.47C32.0186 106.86 32.248 106.859 31.9181 105.615L31.8359 103.477C33.235 99.5343 35.2647 98.5334 39.2831 98.8478Z" fill="#BAE6CC"/>
<path d="M91.6108 96.3628C92.3848 92.1488 90.8228 82.3485 91.8285 79.8069C92.7346 79.4876 92.9019 79.7339 93.9667 80.0348C95.4063 81.0095 95.8905 81.9732 97.4985 81.1643C99.3842 81.0951 101.009 80.8431 102.867 80.58C102.411 85.581 102.191 90.6018 101.597 95.5839C100.961 99.6566 100.41 103.862 99.4466 107.871C99.1104 109.272 98.1966 109.083 96.9064 109.247C96.6525 109.676 96.4478 110.076 96.1087 110.44C96.0096 110.898 95.8523 111.749 95.6966 112.147C94.5636 111.364 93.7548 111.015 92.4351 110.727L92.2586 110.064C91.2567 109.872 90.8687 109.775 89.9129 109.424C88.9787 107.52 90.8818 98.6388 91.6108 96.3628Z" fill="#006862"/>
<path d="M95.7718 99.1201L96.6982 99.882C96.5825 101.972 95.9125 107.949 96.9057 109.249C96.6517 109.677 96.4471 110.077 96.108 110.442C96.0088 110.9 95.8516 111.75 95.6958 112.149C94.5629 111.366 93.7541 111.017 92.4344 110.729L92.2578 110.065C93.3042 107.717 94.961 101.782 95.7718 99.1201Z" fill="white"/>
<path d="M97.3383 92.8613C97.1908 95.207 96.9775 97.5479 96.6974 99.882L95.7715 99.1201C96.2548 96.9684 96.6814 94.9719 97.3383 92.8613Z" fill="#EEF6EC"/>
<path d="M204.015 97.5686C205.806 96.8512 209.513 96.8386 209.439 96.8976C213.551 93.6623 215.678 90.1454 220.588 97.5961C224.544 98.255 225.077 95.0947 228.097 100.51L228.092 103.213L227.752 103.662C226.412 104.329 204.411 104.5 202.594 103.952C202.015 103.191 202.078 102.256 202 101.253C202.682 99.4857 202.845 99.0551 204.015 97.5686Z" fill="#89E6E0"/>
<path d="M145.519 79.8905C146.106 80.5426 146.43 81.0486 147.249 81.3137C148.007 80.8614 148.55 79.4915 149.364 78.6318C150.764 83.8428 149.668 90.8359 151.986 95.2927C152.654 97.0366 154.856 104.868 154.342 106.357C153.376 106.669 153.143 106.784 152.141 106.717C150.41 104.843 146.548 93.6861 145.474 90.714C145.212 89.7136 145.159 89.2937 144.505 88.4573C144.518 88.4742 143.745 84.2027 143.503 83.4519C141.98 82.4162 140.557 81.5745 138.978 80.6418L138.703 79.2249C141.1 79.8485 144.376 79.401 145.519 79.8905Z" fill="#006862"/>
<path d="M138.975 80.6416C140.555 81.5748 141.976 82.416 143.5 83.4522C143.741 84.2025 144.515 88.4745 144.502 88.4571C145.156 89.294 145.209 89.7139 145.47 90.7142C144.824 91.8782 145.063 92.0562 145.071 93.5853C145.43 96.6944 145.971 99.9215 146.213 103.044C146.344 104.732 146.246 105.884 144.47 106.265C142.641 105.515 141.777 96.7606 140.985 94.4875C140.162 89.8382 139.316 85.3543 138.975 80.6416Z" fill="#44B4AD"/>
<path d="M144.504 88.459C145.158 89.2954 145.211 89.7153 145.472 90.7157C144.825 91.8801 145.064 92.0581 145.073 93.5867C144.791 92.5476 144.61 89.664 144.504 88.459Z" fill="#DBEFE6"/>
<path d="M31.9215 105.615C32.2514 106.859 32.022 106.861 32.9103 107.471C38.3417 107.953 45.8753 107.378 51.4967 107.57C53.0868 107.624 61.1252 107.616 62.2132 107.378C62.8421 106.784 62.8135 106.819 63.1425 106.016C64.3146 106.107 65.8118 106.006 66.37 107.142C65.598 108.313 62.5237 109.037 61.2747 109.11C55.6255 109.436 31.4562 110.7 27.9531 107.848C27.946 106.174 30.7299 107.189 31.9215 105.615Z" fill="#FCFCFC"/>
<path d="M228.09 103.213C229.209 102.972 231.905 103.266 232.161 104.554C229.137 106.283 199.892 107.14 198.393 104.147L198.583 103.801C201.168 103.755 201.649 103.766 201.998 101.252C202.076 102.255 202.013 103.189 202.592 103.95C204.409 104.498 226.411 104.329 227.75 103.661L228.09 103.213Z" fill="#FCFCFC"/>
<path d="M133.19 109.008C134.341 108.954 135.887 109.043 136.168 110.349C134.029 112.37 112.201 111.997 109.559 109.777L109.605 109.316C110.837 108.495 111.807 108.602 113.235 108.698C114.622 109.803 119.524 110.153 120.894 108.798C121.444 109.223 122.988 109.255 123.63 109.061C124.767 110.939 128.588 109.984 130.579 109.968C131.681 109.959 132.428 109.825 133.19 109.008Z" fill="#FCFCFC"/>
<path d="M88.842 111.027C90.8123 110.351 90.4249 112.074 92.4353 110.729C93.755 111.017 94.5643 111.366 95.6972 112.149L96.0209 112.776C95.3015 113.259 95.2691 113.257 94.3911 113.354L94.4366 113.568C88.8053 113.622 87.6365 114.561 82.4023 112.569C84.6992 111.721 86.4702 111.418 88.842 111.027Z" fill="#FCFCFC"/>
<path d="M88.8438 111.027C90.8141 110.351 90.4266 112.074 92.4375 110.729C93.7567 111.017 94.566 111.366 95.699 112.149L96.0226 112.776C95.3033 113.259 95.2709 113.257 94.3933 113.354C91.352 113.021 89.669 114.449 88.8438 111.027Z" fill="#004E49"/>
<path d="M123.633 109.061C123.879 108.334 123.87 107.79 124.57 107.434C127.09 106.154 130.774 107.897 133.193 109.009C132.431 109.825 131.684 109.959 130.582 109.968C128.591 109.984 124.77 110.939 123.633 109.061Z" fill="#006862"/>
<path d="M116.929 106.152L117.053 106.211C118.599 107.896 118.917 107.694 120.894 108.799C119.524 110.152 114.622 109.803 113.234 108.698C114.823 104.9 114.66 107.758 116.929 106.152Z" fill="#006862"/>
<path d="M96.1075 110.442C99.8183 111.124 98.4087 109.316 103.517 111.283C102.177 113.008 100.01 112.442 97.833 112.486C96.9255 112.453 96.8099 112.401 96.0189 112.776L95.6953 112.149C95.8511 111.75 96.0083 110.899 96.1075 110.442Z" fill="#004E49"/>
<path d="M103.516 111.283C104.609 110.662 107.192 111.126 107.873 112.171C107.424 112.998 106.671 112.968 105.754 113.046C103.346 112.704 99.4444 112.991 97.832 112.486C100.009 112.442 102.176 113.008 103.516 111.283Z" fill="#FCFCFC"/>
<path d="M96.0238 112.775C96.8147 112.401 96.9304 112.453 97.8374 112.485C99.4497 112.991 103.351 112.704 105.759 113.046C101.512 113.678 98.7222 114.189 94.44 113.567L94.3945 113.354C95.2721 113.257 95.3049 113.258 96.0238 112.775Z" fill="#DBEFE6"/>
<path d="M191.836 97.5411C192.652 97.484 193.125 97.1487 193.849 96.7646C193.974 97.8545 194.211 98.7979 193.618 99.7184C193.302 99.7063 192.886 99.2482 192.57 98.986L192.484 98.6769C192.331 98.1487 192.253 97.8782 191.836 97.5411Z" fill="#89E6E0"/>
<path d="M64.9219 124.357C65.5019 119.588 68.4508 116.861 72.4771 114.246C73.4499 113.615 75.962 115.343 77.0916 115.895C77.2048 117.463 77.2062 118.444 77.1487 120.019C76.5919 120.957 76.6059 121.673 76.4429 122.752C76.6552 123.736 76.7854 124.467 77.1477 125.416C76.3011 125.807 75.8764 125.984 74.9316 125.655C73.7934 125.475 73.1824 125.479 72.3073 124.698L72.1631 124.466C71.8439 125.396 72.0809 125.157 71.3558 125.525C68.9975 125.447 67.7102 125.443 65.3766 124.972L64.9219 124.357Z" fill="#DCB55B"/>
<path d="M73.8527 123.302C74.5561 122.55 75.107 121.85 76.137 121.999L76.4403 122.751C76.6526 123.735 76.7823 124.466 77.1446 125.415C76.298 125.806 75.8733 125.983 74.9285 125.653C73.7903 125.474 73.1798 125.478 72.3047 124.697C72.8092 123.792 72.9026 123.718 73.8527 123.302Z" fill="#DBEFE6"/>
<path d="M72.3047 124.697C72.8092 123.793 72.9026 123.718 73.8527 123.303C74.5793 124.197 74.9165 124.473 74.9285 125.654C73.7903 125.475 73.1798 125.479 72.3047 124.697Z" fill="#D0AE5B"/>
<path d="M72.123 119.466L72.392 119.594C72.5245 120.756 72.9348 123.232 71.4235 123.432C71.7486 120.076 70.4551 120.844 70.6224 119.614L72.123 119.466Z" fill="#D0AE5B"/>
<path d="M77.0971 108.264C78.2924 107.201 78.8042 106.443 79.763 105.152C80.1321 106.609 80.4727 108.072 80.7862 109.541C80.1307 110.428 79.7388 110.985 78.9377 111.772C78.6209 113.455 78.7249 113.892 77.0473 114.443C74.525 113.933 72.7361 108.727 74.7088 107.029C75.9496 107.127 75.9182 107.398 77.0971 108.264Z" fill="#DCB55B"/>
<path d="M77.0977 108.264C78.293 107.201 78.8048 106.443 79.7641 105.152C80.1327 106.609 80.4737 108.072 80.7872 109.541C80.1313 110.428 79.7394 110.985 78.9383 111.772C78.4541 109.504 79.141 109.688 77.0977 108.264Z" fill="#D0AE5B"/>
<path d="M139.596 108.516C141.658 107.708 145.057 105.94 147.004 107.539C147.909 108.006 149.919 108.524 150.965 108.693C150.13 109.15 149.719 109.263 149.303 110.083L149.302 110.691C146.684 111.921 141.473 110.933 138.746 110.099L139.959 109.32L139.596 108.516Z" fill="#DBEFE6"/>
<path d="M139.594 108.516C141.656 107.708 145.055 105.94 147.002 107.539C146.842 108.363 146.954 108.781 146.33 109.174C145.152 109.918 141.212 109.562 139.957 109.32L139.594 108.516Z" fill="#006862"/>
<path d="M150.962 108.693C152.184 107.358 153.138 107.168 154.845 107.66C155.363 108.16 155.379 108.166 155.75 108.776L154.92 110.193C152.603 110.662 151.664 110.749 149.299 110.691L149.3 110.082C149.717 109.262 150.127 109.15 150.962 108.693Z" fill="#006862"/>
<path d="M79.7565 114.854C80.4812 119.378 78.4509 122.101 80.8885 124.574L79.132 124.987L77.1457 125.415C76.7834 124.466 76.6538 123.735 76.4414 122.752C76.6039 121.672 76.5904 120.956 77.1467 120.018C77.2381 121.23 77.2072 122.373 77.8196 123.407L78.1684 123.291C78.9216 121.412 79.5311 116.984 79.7565 114.854Z" fill="#D0AE5B"/>
<path d="M155.752 108.776C156.839 109.652 158.142 108.744 158.477 110.181C157.548 110.789 156.093 110.827 155.117 110.297L154.922 110.193L155.752 108.776Z" fill="#DBEFE6"/>
<path d="M138.744 110.099C137.845 110.106 137.739 110.07 136.924 109.687L136.993 109.333C137.886 108.56 138.281 108.76 139.594 108.516L139.957 109.32L138.744 110.099Z" fill="#FCFCFC"/>
<path d="M64.9197 124.357L65.3749 124.972C64.2894 125.28 62.5445 125.413 61.4745 124.999L61.4062 124.696C62.5126 124.163 63.6528 124.329 64.9197 124.357Z" fill="#FCFCFC"/>
<path d="M80.8854 124.574C82.1059 124.417 82.8746 124.234 84.0632 124.56C82.8673 125.334 80.5956 125.056 79.1289 124.987L80.8854 124.574Z" fill="#FCFCFC"/>
<path d="M50.2315 56.958C51.4496 51.6009 53.2651 47.6255 58.1771 44.5832C62.064 42.163 66.7588 41.4035 71.2103 42.474C75.6264 43.5029 79.4306 46.2903 81.7434 50.1913C83.2556 52.7668 84.2227 56.0277 84.2701 59.0197L84.3954 59.3637C86.3187 61.1177 87.4667 62.8055 87.5828 65.5295C87.6916 68.3246 86.6772 71.0467 84.7659 73.0881C82.2083 75.8034 79.3087 76.3742 75.7265 76.2354L74.8839 76.6156C72.5807 78.496 70.9882 78.4374 68.5487 79.8447C68.4079 79.9259 68.2744 80.6482 68.2473 80.9026C68.2323 81.0415 68.2197 81.1808 68.2086 81.3206C68.614 86.5378 68.7586 92.1996 69.2762 97.3061C68.4364 98.0167 68.1588 97.8329 66.9 97.9892C66.7641 92.4676 66.4371 86.8581 66.2789 81.3003C66.2141 80.8663 66.1062 79.5147 65.7995 79.2008C65.1165 78.5003 56.9072 80.6433 51.3238 76.1822C48.6206 74.0087 46.8973 70.8455 46.5366 67.3954C46.1314 63.3885 47.5181 60.4898 49.977 57.4809L50.2315 56.958Z" fill="#7AADAA"/>
<path d="M50.2305 56.958C51.4481 51.6009 53.2641 47.6255 58.1756 44.5832C62.063 42.163 66.7578 41.4035 71.2093 42.474C75.6249 43.5029 79.4296 46.2903 81.7424 50.1913C83.2546 52.7668 84.2217 56.0277 84.2686 59.0197C83.3959 57.8737 80.1412 57.1292 78.7219 57.1253C74.8916 57.1157 72.1801 58.3468 69.4847 60.9663C64.3937 53.5204 57.8708 52.1471 50.2305 56.958Z" fill="#7AADAA"/>
<path d="M49.977 57.4824C50.6185 67.4453 55.2751 75.7038 66.0927 76.7797C66.156 78.0065 66.3297 80.1418 66.2789 81.3018C66.2141 80.8674 66.1062 79.5158 65.7995 79.2018C65.1165 78.5018 56.9072 80.6444 51.3238 76.1837C48.6206 74.0102 46.8973 70.8465 46.5366 67.3964C46.1314 63.39 47.5181 60.4913 49.977 57.4824Z" fill="#DBEFE6"/>
<path d="M65.3062 73.0602C64.4761 72.2016 62.7699 70.9356 62.6035 70.0087C64.1428 68.84 64.1196 70.581 65.699 70.6381C65.9269 69.7968 66.1591 68.4893 66.727 67.916C67.5421 68.9498 67.4792 72.9306 67.5189 74.48C68.827 73.5222 70.9951 71.5306 72.5557 71.9887L72.7845 72.7245C72.4531 73.7394 72.5199 73.4414 71.4919 74.2212C72.7763 75.2801 73.4589 75.7397 74.8845 76.6153C72.5813 78.4956 70.9888 78.4366 68.5493 79.8443C68.408 79.9256 68.275 80.6473 68.2479 80.9018C68.2329 81.0411 68.2203 81.1804 68.2092 81.3198C68.6146 86.5375 68.7592 92.1993 69.2764 97.3053C68.4371 98.0159 68.1589 97.8321 66.9007 97.9888C66.7647 92.4673 66.4377 86.8577 66.2795 81.2999C66.3303 80.1399 66.1567 78.0046 66.0933 76.7778C65.9283 75.4301 65.6381 74.3712 65.3062 73.0602Z" fill="#D5F1E0"/>
<path d="M65.3062 73.0602C64.4761 72.2016 62.7699 70.9356 62.6035 70.0087C64.1428 68.84 64.1196 70.581 65.699 70.6381C65.9269 69.7968 66.1591 68.4893 66.727 67.916C67.5421 68.9498 67.4792 72.9306 67.5189 74.48C68.827 73.5222 70.9951 71.5306 72.5557 71.9887L72.7845 72.7245C72.4531 73.7394 72.5199 73.4414 71.4919 74.2212C72.7763 75.2801 73.4589 75.7397 74.8845 76.6153C72.5813 78.4956 70.9888 78.4366 68.5493 79.8443C68.408 79.9256 68.275 80.6473 68.2479 80.9018C68.2329 81.0411 68.2203 81.1804 68.2092 81.3198C68.6146 86.5375 68.7592 92.1993 69.2764 97.3053C68.4371 98.0159 68.1589 97.8321 66.9007 97.9888C66.7647 92.4673 66.4377 86.8577 66.2795 81.2999C66.3303 80.1399 66.1567 78.0046 66.0933 76.7778C65.9283 75.4301 65.6381 74.3712 65.3062 73.0602Z" fill="black" fill-opacity="0.3"/>
<path d="M67.9453 76.1567L71.4946 74.2227C72.7789 75.2821 73.462 75.7416 74.8871 76.6167C72.5845 78.4971 70.9915 78.4385 68.5519 79.8458C68.4112 79.927 68.2776 80.6493 68.2506 80.9037C68.236 81.0426 68.223 81.1819 68.2119 81.3217C68.0532 80.4664 67.9884 77.1938 67.9453 76.1567Z" fill="#DBEFE6"/>
<path d="M84.3954 59.3643C86.3188 61.1183 87.4667 62.8061 87.5828 65.5301C87.6916 68.3252 86.6772 71.0473 84.7654 73.0887C82.2083 75.804 79.3087 76.3748 75.7266 76.236C76.3569 75.4112 78.2464 73.5996 79.0615 72.6495C82.9572 68.109 83.6581 64.9641 84.3954 59.3643Z" fill="#D5F1E0"/>
<path d="M192.425 84.9732C186.271 83.5916 181.778 78.9108 183.484 72.3284C184.207 69.6025 185.985 67.2776 188.426 65.8665C196.739 61.1253 206.441 68.2567 204.157 77.7024C203.115 82.0107 198.273 84.7308 193.927 85.1318C193.935 86.7384 194.025 89.2635 193.893 90.7965C193.947 91.7669 193.899 92.7078 194.328 93.5505L191.591 93.5728L192.023 93.3662C192.865 92.1835 192.472 86.7901 192.425 84.9732Z" fill="#7AADAA"/>
<path d="M192.345 81.7224C191.435 80.9605 190.556 80.4269 190.223 79.3423L190.536 79.0859C191.679 79.3796 192.239 80.1279 193.101 80.9803C193.914 80.155 194.488 79.3452 195.571 79.158L195.855 79.4686C195.548 80.9561 194.786 81.4495 193.671 82.4644C193.635 85.1183 193.504 88.1983 193.893 90.798C193.947 91.7689 193.899 92.7093 194.328 93.5525L191.591 93.5747L192.022 93.3677C192.865 92.1849 192.471 86.7916 192.425 84.9746L192.345 81.7224Z" fill="#89E6E0"/>
<path d="M90.174 64.2042C89.7952 63.9304 89.4435 63.6213 89.1233 63.2808C86.5831 60.5548 89.297 59.122 89.9142 57.2402C91.528 52.32 94.1485 45.8411 100.062 51.6969C100.652 52.2808 100.374 53.9836 100.153 54.7876C100.712 57.1434 100.481 59.5893 97.7843 60.3328L97.7229 60.8059C100.196 62.292 100.958 64.9961 102.823 67.3385C100.556 73.3316 103.174 74.9527 102.865 80.5816C101.008 80.8448 99.3831 81.0968 97.497 81.166C95.889 81.9748 95.4048 81.0112 93.9651 80.0364C93.9192 79.1294 89.7522 74.1284 88.9728 73.1381C89.2065 71.6148 89.6728 69.7408 90.0105 68.2078C90.1024 67.0888 90.4396 65.9545 90.5489 64.6125L90.174 64.2042Z" fill="#FCFCFC"/>
<path d="M90.174 64.2042C89.7952 63.9304 89.4435 63.6213 89.1233 63.2808C86.5831 60.5548 89.297 59.122 89.9142 57.2402C91.528 52.32 94.1485 45.8411 100.062 51.6969C100.652 52.2808 100.374 53.9836 100.153 54.7876C100.712 57.1434 100.481 59.5893 97.7843 60.3328L97.7229 60.8059L97.7461 61.0246C97.9159 62.4647 98.493 63.0389 98.2773 64.4964C97.303 64.9952 96.3742 63.9648 95.5751 63.3272C93.1253 65.09 93.1921 62.5856 90.174 64.2042Z" fill="#004E49"/>
<path d="M100.154 54.7881C100.713 57.1439 100.482 59.5898 97.7852 60.3333L97.7233 60.8064L97.747 61.0251C97.9168 62.4652 98.4939 63.0394 98.2781 64.4969C97.3039 64.9957 96.3751 63.9653 95.5759 63.3277C96.1366 60.5665 94.6341 60.7193 95.9252 57.9228C95.648 57.1357 95.6349 57.0994 95.545 56.2727L95.9363 55.7875C97.629 55.444 98.3028 55.7469 99.8823 54.9308L100.154 54.7881Z" fill="#F5CE8B"/>
<path d="M90.0103 68.208C91.3126 68.5882 92.3754 68.8954 93.636 69.3956L93.4851 70.0351L92.3502 72.7311C93.4174 74.7043 97.1297 80.2099 97.4968 81.1657C95.8888 81.9751 95.4046 81.0109 93.965 80.0362C93.919 79.1296 89.752 74.1286 88.9727 73.1384C89.2063 71.6146 89.6726 69.741 90.0103 68.208Z" fill="#F5CE8B"/>
<path d="M93.6373 69.3958C94.3111 68.0461 94.5366 65.9636 95.2143 65.0439C95.5815 66.9794 94.7828 68.6571 93.4863 70.0348L93.6373 69.3958Z" fill="#006862"/>
<path d="M96.0137 69.3545C97.3522 69.4711 98.5906 69.5998 99.6911 70.3699C98.1015 70.6563 97.0866 70.6089 96.0137 69.3545Z" fill="#006862"/>
<path d="M137.371 53.145L137.705 53.131C141.233 52.9544 149.231 43.9983 148.83 57.9651C149.604 61.1549 153.586 60.2058 151.873 65.1251C152.028 66.7572 151.679 67.0378 151.531 68.447L152.75 72.332C152.173 73.417 149.543 77.8661 149.364 78.6328C148.55 79.4929 148.006 80.8624 147.247 81.3147C146.429 81.0496 146.105 80.5436 145.518 79.8915C144.375 79.402 141.099 79.8495 138.702 79.2259C138.668 78.0789 139.284 75.4662 139.319 73.8911C139.417 69.5049 138.613 68.0532 139.45 63.6206C140.441 62.6879 141.204 62.0455 141.96 60.9063C139.045 59.2146 139.566 58.2457 140.019 55.0989C139.025 55.1018 138.884 55.0805 137.94 54.7675C137.253 53.9688 137.445 54.3384 137.371 53.145Z" fill="#44B4AD"/>
<path d="M137.371 53.145L137.705 53.131C141.233 52.9544 149.231 43.9983 148.83 57.9651C149.604 61.1549 153.586 60.2058 151.873 65.1251C152.028 66.7572 151.679 67.0378 151.531 68.447C150.749 68.7392 148.871 69.2969 148.49 69.8005C147.262 68.9931 146.262 66.1376 145.667 64.7032L146.562 62.776C145.684 62.4915 145.575 62.5007 144.935 61.8786C144.165 62.8829 143.856 63.2355 142.947 64.1121L142.29 63.7831C141.835 62.5626 142.451 62.2274 142.392 60.6741L141.96 60.9063C139.045 59.2146 139.566 58.2457 140.019 55.0989C139.025 55.1018 138.884 55.0805 137.94 54.7675C137.253 53.9688 137.445 54.3384 137.371 53.145Z" fill="#004E49"/>
<path d="M137.371 53.145L137.705 53.131C141.233 52.9544 149.231 43.9983 148.83 57.9651C148.516 56.6846 148.642 56.3571 147.27 55.7089C145.64 54.9397 143.74 54.766 141.974 54.9625L140.247 54.9073L140.019 55.0989C139.025 55.1018 138.884 55.0805 137.94 54.7675C137.253 53.9688 137.445 54.3384 137.371 53.145Z" fill="#44B4AD"/>
<path d="M137.371 53.1436C139.016 53.3404 139.19 53.5842 140.247 54.9059L140.019 55.0974C139.025 55.1003 138.884 55.079 137.94 54.7661C137.253 53.9674 137.445 54.3374 137.371 53.1436Z" fill="#006862"/>
<path d="M140.246 54.9072L141.974 54.9624C143.336 56.1993 143.039 55.9773 144.928 55.822C144.947 58.665 143.809 58.8527 144.933 61.8786C144.165 62.8828 143.855 63.2355 142.946 64.112L142.29 63.7831C141.834 62.5626 142.45 62.2273 142.391 60.674L141.959 60.9062C139.044 59.2145 139.565 58.2456 140.018 55.0988L140.246 54.9072Z" fill="#F5CE8B"/>
<path d="M146.563 62.7752C147.61 62.1081 147.129 62.2575 148.39 62.2295C150.417 63.2144 150.574 65.6898 151.524 66.3264C151.605 65.9394 151.656 65.3927 151.874 65.1243C152.029 66.7559 151.68 67.0365 151.532 68.4462C150.75 68.7384 148.872 69.2961 148.491 69.7997C147.263 68.9923 146.263 66.1367 145.668 64.7024L146.563 62.7752Z" fill="#006862"/>
<path d="M148.489 69.8008C148.87 69.2972 150.749 68.7395 151.531 68.4473L152.75 72.3323C152.173 73.4173 149.542 77.8664 149.363 78.6331C148.549 79.4932 148.006 80.8627 147.247 81.315C146.428 81.0499 146.105 80.5439 145.518 79.8918C147.317 78.7748 147.747 77.4223 148.635 75.5294C147.769 72.9481 147.967 72.5054 148.489 69.8008Z" fill="#F5CE8B"/>
<path d="M144.937 61.8779C145.577 62.4995 145.687 62.4908 146.564 62.7753L145.669 64.7025C145.029 65.4809 144.962 65.6526 144.088 66.0861L143.556 65.6879C143.407 65.1728 143.346 64.9362 143.113 64.4495L142.949 64.1114C143.858 63.2349 144.168 62.8822 144.937 61.8779Z" fill="#006862"/>
<path d="M122.053 53.6484C122.635 54.6058 123.623 55.6313 123.721 56.6637L123.568 57.069L124.196 57.8721L125.907 58.6383C128.119 59.7006 128.849 64.6146 129.005 66.9138C127.659 67.4305 126.207 67.9036 125.058 68.7584L125.29 69.5672C122.439 73.2176 120.983 75.0621 116.325 75.3509C111.024 74.5924 110.559 72.9022 110.723 67.9186C110.807 66.9583 111.015 65.7335 111.155 64.7553C111.663 63.5856 112.183 62.4212 112.715 61.2622C113.676 59.1995 113.685 58.7738 115.671 58.0477L117.576 57.8948C118.195 57.5721 119.502 56.5679 120.13 56.1102L120.408 55.165C121.271 54.6604 121.391 54.4321 122.053 53.6484Z" fill="#006862"/>
<path d="M125.91 58.6387C128.122 59.7005 128.852 64.6144 129.008 66.9137C127.663 67.4303 126.21 67.9034 125.061 68.7582L124.925 68.7031L124.571 68.8211C123.743 70.0353 123.096 70.4228 121.917 71.2936C121.246 68.1086 120.602 65.0885 119.781 61.9306C121.336 60.6162 122.536 59.7136 124.499 59.0823C124.968 58.9289 125.438 58.7809 125.91 58.6387Z" fill="#89E6E0"/>
<path d="M124.57 68.8224C123.569 66.9866 123.201 65.8575 123.041 63.7812C123.552 64.1566 124.63 67.8056 124.924 68.7049L124.57 68.8224Z" fill="#44B4AD"/>
<path d="M122.056 53.6484C122.639 54.6058 123.626 55.6313 123.725 56.6637L123.572 57.069L124.2 57.8721C121.991 58.3732 120.922 58.6659 119.095 60.0175C118.726 59.3572 118.051 58.5193 117.58 57.8948C118.198 57.5721 119.505 56.5679 120.134 56.1102L120.411 55.165C121.274 54.6604 121.394 54.4321 122.056 53.6484Z" fill="#89E6E0"/>
<path d="M122.053 53.6484C122.636 54.6058 123.624 55.6313 123.722 56.6637L123.569 57.069C122.446 56.7009 121.275 56.4126 120.131 56.1102L120.408 55.165C121.271 54.6604 121.391 54.4321 122.053 53.6484Z" fill="#D0AE5B"/>
<path d="M111.156 64.7559C113.421 65.8661 116.176 64.4961 117.348 66.4504L117.33 67.6946C116.388 68.4836 112.335 67.8712 110.725 67.9191C110.807 66.9589 111.015 65.7345 111.156 64.7559Z" fill="#006862"/>
<path d="M115.674 58.0479L117.579 57.8945C118.051 58.5195 118.725 59.3574 119.095 60.0172C118.108 60.6355 115.3 60.7254 114.543 59.7284C115.053 59.1034 115.258 58.7454 115.674 58.0479Z" fill="#006862"/>
<path d="M120.409 55.166C113.149 47.2959 124.41 44.1945 126.849 47.545C126.695 48.6813 126.831 48.2474 126.043 49.2923C126.38 52.219 126.66 52.6118 125.849 55.5665L123.723 56.6642C123.624 55.6318 122.637 54.6063 122.054 53.6494C121.392 54.4331 121.272 54.6609 120.409 55.166Z" fill="#004E49"/>
<path d="M122.054 53.6486C121.679 52.6671 121.521 52.4093 121.5 51.3537L121.869 51.1148L123.367 51.4795C124.771 50.3054 122.547 49.9688 126.043 49.292C126.379 52.2187 126.66 52.6115 125.848 55.5662L123.723 56.6639C123.624 55.6315 122.637 54.606 122.054 53.6486Z" fill="#F5CE8B"/>
<path d="M129.004 66.9142L129.027 67.2383C129.098 68.1434 129.047 68.5139 129.614 69.2086C131.909 69.7194 132.431 65.9684 133.607 66.0908L134.076 66.9906C134.856 66.9785 135.267 66.6196 135.957 66.1972L136.502 66.3177C136.953 67.1628 136.91 66.8005 136.762 67.6809C135.553 69.2618 129.758 73.0757 127.931 73.8255C127.014 72.7187 126.021 70.8635 125.288 69.5675L125.057 68.7587C126.206 67.9039 127.658 67.4308 129.004 66.9142Z" fill="#F5CE8B"/>
<path d="M220.998 89.4775C221.809 91.5286 222.585 93.943 224.264 95.3909C224.477 97.3728 225.096 101.821 224.278 103.503C223.959 107.525 223.543 115.322 223.626 119.294C223.708 120.279 223.73 120.9 223.708 121.887C235.81 121.861 247.908 122.295 259.977 123.187C261.145 123.271 266.232 123.825 266.847 123.501L266.926 123.186C266.141 117.239 264.984 111.43 264.804 105.382C264.633 104.396 264.621 102.411 264.583 101.34C265.798 101.61 266.475 101.733 267.665 101.879C268.746 102.011 272.093 101.905 272.78 102.184L272.271 102.65C273.029 103.86 273.588 104.532 274.547 105.575C275.5 103.912 274.997 102.79 276.813 100.97C277.515 100.994 277.745 101 278.435 100.885C279.306 107.446 277.668 120.957 279.866 125.604C284.944 124.703 306.01 130.384 311.576 132.167C325.412 136.599 340.193 148.088 319.921 158.109C318.21 158.954 312.858 160.958 312.639 162.869C313.49 164.586 317.078 164.359 317.303 165.899C314.624 169.696 279.877 173.031 273.952 173.56C248.211 175.713 222.37 176.448 196.548 175.764C176.378 175.298 113.322 172.621 99.6592 158.094C97.9414 156.267 96.7436 154.005 96.8593 151.451C97.0155 148.001 98.9495 145.165 101.466 142.935C117.21 128.986 164.262 125.077 185.141 123.565C189.891 123.196 194.645 122.887 199.402 122.636C201.495 122.536 204.22 122.344 206.275 122.465C206.631 119.467 206.433 111.285 206.44 107.953C206.188 105.282 206.511 100.4 206.879 97.7869C207.969 97.7835 211.9 97.9654 212.594 97.3448C215.407 94.8273 218.387 92.2209 220.998 89.4775Z" fill="white"/>
<path d="M220.997 89.4775C221.808 91.5286 222.585 93.943 224.262 95.3909C224.477 97.3728 225.095 101.821 224.277 103.503C223.958 107.525 223.543 115.322 223.626 119.294C223.446 121.008 223.508 122.729 223.325 124.42C222.795 129.31 222.051 134.19 221.364 139.061C221.178 140.37 221.153 141.694 220.061 142.523C218.606 142.76 217.835 142.918 216.429 142.498L216.052 143.669C215.747 144.438 215.666 144.725 215.488 145.527C214.655 145.439 213.703 145.257 212.935 145.536C211.216 143.677 209.652 145.201 207.949 142.273L207.738 141.69C206.252 141.703 205.843 141.642 204.424 141.211C203.495 140.042 204.459 135.709 204.691 134.03L206.274 122.465C206.63 119.467 206.432 111.285 206.44 107.953C206.187 105.282 206.51 100.4 206.878 97.7869C207.969 97.7835 211.9 97.9654 212.593 97.3448C215.406 94.8273 218.387 92.2209 220.997 89.4775Z" fill="#006862"/>
<path d="M220.997 89.4775C221.808 91.5286 222.585 93.943 224.262 95.3909C224.476 97.3728 225.095 101.821 224.277 103.503C223.386 103.197 219.704 104.229 218.381 104.268C214.59 104.379 210.287 104.037 206.635 103.062C206.61 104.491 206.624 106.596 206.439 107.953C206.187 105.282 206.51 100.4 206.878 97.7869C207.968 97.7835 211.899 97.9654 212.593 97.3448C215.406 94.8273 218.387 92.2209 220.997 89.4775Z" fill="#89E6E0"/>
<path d="M207.74 141.688C208.003 141.584 208.271 141.477 208.5 141.304C210.055 140.126 213.219 123.707 213.657 120.732C213.725 121.567 213.58 121.651 214.071 122.135C214.526 122.267 215.345 122.178 215.782 122.051C216.756 126.126 215.566 132.95 215.749 137.292C215.824 139.044 215.118 141.209 216.431 142.497L216.054 143.668C215.749 144.436 215.667 144.723 215.49 145.526C214.657 145.438 213.705 145.255 212.937 145.534C211.217 143.676 209.654 145.199 207.951 142.271L207.74 141.688Z" fill="#EEF6EC"/>
<path d="M213.992 117.069L214.483 116.414C214.926 118.291 215.36 120.169 215.782 122.051C215.345 122.178 214.527 122.268 214.072 122.135C213.58 121.652 213.725 121.567 213.658 120.732C213.656 119.907 213.905 117.969 213.992 117.069Z" fill="white"/>
<path d="M213.988 117.069C214.01 116.497 214.067 116.192 214.172 115.628L214.313 115.676L214.48 116.415L213.988 117.069Z" fill="#EEF6EC"/>
<path d="M276.813 100.969C277.515 100.993 277.745 100.999 278.434 100.885C279.305 107.445 277.667 120.956 279.866 125.603C281.83 130.756 282.146 135.744 282.802 141.203C282.821 141.826 282.828 142.556 283.14 143.119C282.025 144.093 281.353 144.117 279.929 143.638L279.304 144.187C277.625 144.05 276.615 143.988 274.941 144.052C274.801 143.589 274.574 143.046 274.398 142.587C274.155 142.051 274.222 141.657 274.239 141.063C272.716 141.315 272.285 141.31 270.766 141.298C269.863 140.073 267.465 125.905 266.926 123.185C266.141 117.238 264.983 111.429 264.804 105.381C264.633 104.395 264.62 102.41 264.582 101.339C265.798 101.609 266.474 101.732 267.664 101.878C268.746 102.01 272.092 101.904 272.78 102.183L272.27 102.649C273.028 103.859 273.587 104.531 274.547 105.574C275.499 103.911 274.997 102.79 276.813 100.969Z" fill="#006862"/>
<path d="M264.805 105.382C264.825 105.123 264.903 103.927 264.97 103.766C265.4 104.979 267.996 106.999 269.11 107.774C269.581 109.668 273.373 126.964 273.688 127.402L273.866 128.759C274.017 132.749 274.238 137.088 274.24 141.064C272.718 141.316 272.286 141.31 270.768 141.299C269.864 140.074 267.466 125.906 266.927 123.186C266.142 117.239 264.985 111.43 264.805 105.382Z" fill="#44B4AD"/>
<path d="M273.863 128.759L274.371 128.574C275.082 130.561 278.58 140.713 279.416 141.916C279.574 142.432 279.811 143.129 279.928 143.639L279.302 144.189C277.624 144.051 276.613 143.99 274.939 144.053C274.799 143.59 274.572 143.048 274.396 142.589C274.154 142.052 274.221 141.658 274.237 141.064C274.235 137.088 274.014 132.75 273.863 128.759Z" fill="#EEF6EC"/>
<path d="M282.803 141.202C282.821 141.825 282.828 142.555 283.14 143.119C282.025 144.093 281.354 144.116 279.93 143.637C279.814 143.127 279.576 142.43 279.418 141.914C280.958 141.885 281.35 141.766 282.803 141.202Z" fill="#F5CE8B"/>
<path d="M274.548 105.574C274.684 105.842 274.651 105.698 274.574 106.021C273.372 106.011 271.223 103.786 271.845 102.71L272.271 102.648C273.029 103.859 273.588 104.531 274.548 105.574Z" fill="#44B4AD"/>
<path d="M273.688 127.402L273.885 127.383C274.096 127.83 274.237 128.1 274.373 128.574L273.865 128.759L273.688 127.402Z" fill="#DBEFE6"/>
<path d="M245.135 137.612C245.264 136.428 245.278 136.484 246.461 136.319C248.544 136.029 250.233 134.901 251.987 133.82C252.311 134.159 252.719 134.559 253.012 134.914C254.125 136.416 255.992 138.298 257.296 139.712C258.985 141.515 260.583 143.401 262.08 145.365C263.06 146.687 263.969 147.918 264.879 149.288C266.138 151.929 266.013 153.444 266.679 156.212C266.711 156.343 267.927 157.156 268.105 157.103C270.096 158.166 273.828 155.294 274.704 155.926C275.042 159.256 268.215 159.426 265.935 159.095C264.508 159.545 254.537 159.714 253.331 158.529C252.54 159.267 250 159.458 249.416 158.45L249.59 157.906C249.888 157.337 249.93 157.237 250.417 156.827C249.324 156.231 249.451 156.205 249.367 155.07C249.783 153.215 249.993 151.656 250.229 149.772C249.806 149.062 247.778 146.713 246.943 146.88L246.786 147.544C246.641 146.45 245.997 144.791 245.715 143.571C245.236 141.494 245.349 139.927 245.396 137.832L245.135 137.612Z" fill="#49CFA6"/>
<path d="M245.135 137.612C245.264 136.428 245.278 136.484 246.461 136.319C248.544 136.029 250.233 134.901 251.987 133.82C252.311 134.159 252.719 134.559 253.012 134.914C254.125 136.416 255.992 138.298 257.296 139.712C258.985 141.515 260.583 143.401 262.08 145.365C263.06 146.687 263.969 147.918 264.879 149.288C266.138 151.929 266.013 153.444 266.679 156.212C266.711 156.343 267.927 157.156 268.105 157.103C270.096 158.166 273.828 155.294 274.704 155.926C275.042 159.256 268.215 159.426 265.935 159.095C264.508 159.545 254.537 159.714 253.331 158.529C252.54 159.267 250 159.458 249.416 158.45L249.59 157.906C249.888 157.337 249.93 157.237 250.417 156.827C249.324 156.231 249.451 156.205 249.367 155.07C249.783 153.215 249.993 151.656 250.229 149.772C249.806 149.062 247.778 146.713 246.943 146.88L246.786 147.544C246.641 146.45 245.997 144.791 245.715 143.571C245.236 141.494 245.349 139.927 245.396 137.832L245.135 137.612Z" fill="white" fill-opacity="0.6"/>
<path d="M245.135 137.612C245.264 136.428 245.278 136.484 246.461 136.319C248.544 136.029 250.233 134.901 251.987 133.82C252.311 134.159 252.719 134.559 253.012 134.914C251.78 136.839 247.562 137.801 245.396 137.832L245.135 137.612Z" fill="#006862"/>
<path d="M253.953 154.293C254.336 152.173 253.998 149.591 254.875 147.896C255.001 148.613 254.691 149.976 254.535 150.738C255.963 149.513 257.567 149.077 259.457 149.31L259.569 149.476L259.616 149.34L259.787 149.5C259.038 149.727 258.414 149.694 257.633 149.705C253.753 152.094 256.344 153.898 255.15 155.428L253.953 154.293Z" fill="#006862"/>
<path d="M250.229 149.771C251.51 150.835 251.624 155.074 251.024 156.426C250.824 156.568 250.634 156.723 250.418 156.827C249.324 156.23 249.451 156.204 249.367 155.07C249.783 153.214 249.993 151.656 250.229 149.771Z" fill="white"/>
<path d="M253.468 156.585L254.033 157.001C253.708 157.768 253.654 157.59 253.77 158.318C255.383 159.924 263.275 158.269 265.935 159.096C264.507 159.545 254.537 159.715 253.331 158.529C252.54 159.267 250 159.459 249.416 158.451L249.59 157.906L249.804 158.358C250.847 159.094 251.649 158.917 252.654 158.304C253.287 157.919 253.315 157.266 253.468 156.585Z" fill="#FCFCFC"/>
<path d="M253.955 154.293L255.152 155.428C255.776 155.912 256.266 156.292 256.933 156.717C255.776 156.714 255.152 156.657 254.033 157.001L253.469 156.585C253.612 155.793 253.73 155.067 253.955 154.293Z" fill="#EEF6EC"/>
<path d="M256.898 156.568C257.656 156.531 259.226 156.95 259.975 157.193C258.888 157.256 257.805 157.212 256.898 156.568Z" fill="#006862"/>
<path d="M204.425 141.21C205.843 141.641 206.253 141.702 207.739 141.689L207.949 142.272C209.653 145.2 211.216 143.677 212.936 145.535C213.703 145.256 214.656 145.438 215.488 145.526C215.667 144.724 215.748 144.437 216.053 143.669L216.43 142.498C217.836 142.918 218.607 142.759 220.062 142.523L220.303 143.029C223.037 145.114 225.553 144.817 227.67 146.4C228.992 146.176 235.182 147.189 235.864 148.388C235.61 148.921 235.267 149.081 234.721 149.275C229.827 151.015 202.498 150.246 198.073 147.861C197.747 147.685 197.727 147.632 197.631 147.283C198.404 146.009 202.228 146.315 202.87 145.648C203.194 144.483 203.448 143.65 203.875 142.517L204.425 141.21Z" fill="#FCFCFC"/>
<path d="M220.063 142.523L220.305 143.029C223.038 145.114 225.554 144.817 227.672 146.4C227.614 146.552 227.436 146.966 227.339 147.054C226.042 148.236 216.317 147.961 215.543 147.293C215.312 146.669 215.425 146.196 215.49 145.526C215.668 144.724 215.75 144.437 216.054 143.669L216.432 142.498C217.837 142.917 218.609 142.759 220.063 142.523Z" fill="#006862"/>
<path d="M220.062 142.523L220.303 143.029C218.765 144.553 218.001 144.598 216.053 143.669L216.43 142.498C217.836 142.917 218.607 142.759 220.062 142.523Z" fill="#F5CE8B"/>
<path d="M204.426 141.21C205.844 141.641 206.254 141.702 207.74 141.689L207.95 142.272C209.654 145.2 211.218 143.677 212.937 145.535C211.662 147.792 205.897 146.625 203.618 146.453C203.188 146.42 203.014 145.974 202.871 145.648C203.196 144.483 203.45 143.65 203.876 142.517L204.426 141.21Z" fill="#006862"/>
<path d="M204.425 141.21C205.843 141.641 206.254 141.702 207.739 141.689L207.95 142.272C206.395 143.246 205.544 143.75 203.875 142.517L204.425 141.21Z" fill="#F5CE8B"/>
<path d="M274.24 141.062C274.223 141.657 274.156 142.051 274.399 142.588C274.575 143.046 274.802 143.589 274.942 144.052C276.616 143.989 277.626 144.05 279.304 144.188L279.93 143.638C281.354 144.116 282.026 144.093 283.141 143.119C283.457 143.868 283.617 144.313 283.845 145.093C285.189 144.308 291.575 145.447 291.248 147.492C290.127 148.878 286.156 149.348 283.678 149.616C277.951 150.238 271.156 149.798 265.371 149.049C265.371 149.049 264.911 149.272 264.879 149.288C263.968 147.918 263.06 146.687 262.08 145.366C263.177 144.95 263.849 144.581 264.984 145.066C265.877 144.251 269.059 143.435 270.811 142.481L270.767 141.298C272.286 141.31 272.718 141.315 274.24 141.062Z" fill="#FCFCFC"/>
<path d="M274.239 141.062C274.223 141.657 274.156 142.051 274.399 142.588C274.575 143.046 274.802 143.589 274.941 144.052C274.982 144.667 275.092 145.065 274.757 145.552C273.51 146.286 267.785 146.088 266.129 145.811C265.677 145.736 265.304 145.384 264.984 145.066C265.877 144.251 269.059 143.435 270.811 142.481L270.768 141.298C272.286 141.31 272.718 141.315 274.239 141.062Z" fill="#004E49"/>
<path d="M274.239 141.062C274.223 141.657 274.156 142.051 274.399 142.588C272.906 143.327 272.277 143.311 270.811 142.481L270.768 141.298C272.286 141.31 272.718 141.315 274.239 141.062Z" fill="#F5CE8B"/>
<path d="M279.93 143.638C281.353 144.117 282.025 144.093 283.14 143.119C283.456 143.868 283.616 144.313 283.844 145.092C283.656 146.588 283.111 147.081 281.713 147.617C280.577 148.051 277.847 148.556 277.33 147.113C277.544 146.369 278.77 144.924 279.304 144.187L279.93 143.638Z" fill="#004E49"/>
<path d="M241.996 129.276C242.934 128.265 243.377 127.489 244.658 126.874C249.434 124.585 250.602 130 251.986 133.124C251.938 133.48 251.867 133.539 251.986 133.82C250.232 134.901 248.544 136.029 246.461 136.319C245.278 136.484 245.264 136.428 245.135 137.612C244.73 132.16 240.518 136.386 238.432 131.487C238.153 130.598 238 130.423 238.506 129.694C239.897 129.734 240.636 129.625 241.996 129.276Z" fill="#49CFA6"/>
<path d="M241.996 129.276C242.934 128.265 243.377 127.489 244.658 126.874C249.434 124.585 250.602 130 251.986 133.124C251.938 133.48 251.867 133.539 251.986 133.82C250.232 134.901 248.544 136.029 246.461 136.319C245.278 136.484 245.264 136.428 245.135 137.612C244.73 132.16 240.518 136.386 238.432 131.487C238.153 130.598 238 130.423 238.506 129.694C239.897 129.734 240.636 129.625 241.996 129.276Z" fill="white" fill-opacity="0.6"/>
<path d="M238.432 131.487C238.153 130.598 238 130.422 238.506 129.694C239.244 129.882 239.155 129.729 239.46 130.207C239.299 130.781 238.884 131.063 238.432 131.487Z" fill="#243C3A"/>
<path d="M246.219 127.978C246.642 128.91 245.537 133.659 245.301 134.856C244.775 134.019 245.84 129.006 246.219 127.978Z" fill="#006862"/>
<path d="M246.787 147.543L246.944 146.88C247.779 146.712 249.807 149.061 250.23 149.772C249.994 151.656 249.783 153.215 249.368 155.07C249.005 156.691 248.322 159.298 245.967 158.431C245.486 157.928 245.599 158.179 245.535 157.495C245.767 156.88 246.213 156.698 246.787 156.325C247.291 153.629 247.037 150.251 246.787 147.543Z" fill="#006862"/>
<path d="M180.826 138.307C182.495 140.772 183.449 140.647 185.964 141.836C186.939 143.853 186.677 144.218 186.811 146.313C186.968 148.779 184.962 154.678 187.739 155.739C187.241 154.463 188.327 150.993 188.882 149.703C188.973 151.692 188.627 154.445 190.74 155.27C191.767 155.115 194.7 155.388 194.94 156.614C192.594 159.794 154.504 160.832 150.729 157.817L150.691 157.469C152.025 155.479 161.574 155.612 162.433 154.768C162.071 153.954 161.554 152.963 161.834 152.087C162.813 151.656 164.262 153.404 165.123 153.831C165.58 154.058 166.084 154.245 166.563 154.401C168.107 144.475 175.39 144.592 180.826 138.307Z" fill="#DCB55B"/>
<path d="M162.433 154.768C165.011 157.293 174.419 158.688 177.558 157.243L177.786 156.902C177.44 155.934 177.034 156.009 177.182 155.382C177.703 155.117 177.724 155.092 178.292 155.109C179.178 155.893 178.013 157.553 180.629 157.391C181.303 157.349 181.459 157.187 181.869 156.774C181.931 155.839 181.537 155.693 180.837 155.217C181.949 155.137 183.366 155.17 184.413 154.9C184.71 155.918 184.855 156.822 185.869 157.35C186.85 157.861 187.828 157.266 188.258 156.348C188.953 156.698 189.838 156.817 190.528 156.407C190.894 155.84 190.792 156.065 190.74 155.27C191.767 155.114 194.7 155.388 194.94 156.614C192.594 159.794 154.504 160.832 150.729 157.817L150.691 157.469C152.025 155.479 161.574 155.612 162.433 154.768Z" fill="#FCFCFC"/>
<path d="M180.838 155.217C180.747 155.038 180.718 154.75 180.682 154.538C180.988 153.481 182.643 152.589 183.603 151.945L184.413 154.9C183.366 155.17 181.95 155.137 180.838 155.217Z" fill="#EEF6EC"/>
<path d="M182.906 149.568C183.13 149.627 183.206 149.701 183.414 149.824L183.406 150.167C182.872 150.662 182.482 150.874 181.873 151.245C181.704 151.212 181.771 151.213 181.613 151.009C181.875 150.368 182.371 150.036 182.906 149.568Z" fill="#D0AE5B"/>
<path d="M173.27 148.441C174.206 148.319 175.157 148.412 176.052 148.713L175.992 148.814C175.935 148.805 175.879 148.796 175.822 148.787C175.182 149.098 174.056 148.679 173.27 148.441Z" fill="#D0AE5B"/>
<path d="M189.608 126.506C190.778 127.182 190.747 129.294 191.329 130.59C191.701 131.415 191.877 131.696 192.385 132.471C191.525 133.601 190.163 135.02 189.504 136.077C188.267 138.06 188.392 141.543 185.014 139.643C184.372 139.282 183.764 139.014 183.079 138.548C182.6 138.089 182.074 137.511 181.609 137.022C181.766 135.425 181.8 134.057 181.814 132.454C181.827 131.114 181.455 128.236 182.997 127.735C184.231 127.965 184.898 129.145 185.66 130.15C186.246 129.993 187.162 129.842 187.779 129.725C188.327 128.606 188.82 127.469 189.608 126.506Z" fill="#DCB55B"/>
<path d="M183.336 129.936L183.802 130.07C184.548 130.762 184.746 131.684 184.992 132.637C184.283 132.179 183.647 130.709 183.336 129.936Z" fill="#D0AE5B"/>
<path d="M235.925 165.225C234.318 165.47 232.041 165.242 230.338 165.348C228.597 165.456 223.116 166.138 221.957 164.822L222.08 164.554C223.261 163.915 226.286 163.705 227.653 163.879C227.733 164.252 227.76 164.82 228.074 164.915C230.204 165.558 233.808 164.846 235.925 165.225Z" fill="#FCFCFC"/>
<path d="M236.593 163.912C237.578 163.984 238.76 163.985 239.561 164.566L239.686 164.943C239.013 165.797 237.032 165.731 236.221 165.233C236.426 164.857 236.502 164.341 236.593 163.912Z" fill="#FCFCFC"/>
<path d="M195.117 134.485C195.235 135.128 195.298 135.42 195.288 136.091C194.655 136.726 191.857 137.548 191.141 137.075C192.496 136.68 195.017 136.251 194.928 134.475L195.117 134.485Z" fill="#DCB55B"/>
<path d="M194.929 134.476C194.362 134.136 194.017 134.01 193.705 133.435L193.743 133.018C194.445 132.493 195.093 132.393 195.652 133.17C195.666 133.744 195.488 134.02 195.118 134.486L194.929 134.476Z" fill="#243C3A"/>
<path d="M266.237 63.3655C267.365 61.4421 268.359 60.1089 270.578 59.5361C274.17 58.6078 278.215 60.7508 278.935 64.5028C279.102 65.373 278.618 66.9423 278.538 67.8542C278.623 68.6229 278.748 70.1491 279.026 70.7344C281.029 74.9682 285.82 74.2131 283.312 80.2382C282.83 81.3968 287.153 83.6747 281.849 86.4258L281.635 86.7678C281.961 88.8339 282.349 90.8966 282.663 92.956C281.457 95.8377 279.318 97.4021 278.431 99.1775C278.607 99.9326 278.68 100.126 278.435 100.884C277.745 100.999 277.515 100.993 276.813 100.969C274.997 102.79 275.499 103.91 274.547 105.574C273.588 104.531 273.029 103.859 272.27 102.648L272.78 102.183C272.093 101.904 268.746 102.01 267.665 101.878C266.475 101.732 265.798 101.609 264.583 101.339C264.303 99.7899 265.108 95.4632 265.388 93.7101C265.469 90.8889 265.533 89.6147 265.063 86.7944C264.691 85.975 264.546 85.154 264.35 84.2775C264.564 83.5601 265.147 82.3565 265.535 81.5951C266.242 80.2116 266.407 77.4479 267.94 76.8384C268.312 76.6908 268.515 76.5825 268.842 76.3856L268.94 76.3256C268.777 75.6469 268.553 75.0045 268.336 74.3427C266.957 73.6253 266.066 71.3585 265.744 69.8806C265.638 69.4017 266.992 67.8871 266.681 66.6051C266.304 66.2762 265.343 66.3304 264.728 66.2892C263.144 65.9511 262.413 65.2066 263.158 63.6165C264.203 63.3955 265.165 63.3016 266.237 63.3655Z" fill="#004E49"/>
<path d="M268.941 76.3262C269.369 76.5782 269.353 76.5637 269.848 76.6474C269.658 77.3928 269.491 77.5152 269.716 78.1567C270.298 78.445 270.87 78.3734 271.537 78.3734C270.08 80.8018 270.737 81.2111 271.748 83.5921C272.199 83.3638 272.749 83.1059 273.17 82.8466L272.62 81.0456L275.219 78.6511C275.243 79.3414 274.987 80.1797 275.036 80.7157C275.232 82.8549 275.446 87.1646 277.569 88.1437L277.627 87.9115C279.338 87.5869 280.054 87.3716 281.636 86.7684C281.962 88.8345 282.35 90.8972 282.664 92.9565C281.458 95.8387 279.319 97.4032 278.432 99.178C278.608 99.9332 278.681 100.126 278.436 100.885C277.747 101 277.516 100.994 276.814 100.969C274.998 102.79 275.501 103.911 274.549 105.575C273.589 104.532 273.03 103.86 272.272 102.649L272.781 102.183C272.094 101.904 268.747 102.01 267.666 101.878C266.476 101.733 265.799 101.61 264.584 101.339C264.304 99.7905 265.11 95.4638 265.389 93.7107C265.471 90.8895 265.534 89.6153 265.065 86.795C264.693 85.9755 264.547 85.1551 264.352 84.2781C264.565 83.5607 265.148 82.3571 265.536 81.5957C266.243 80.2121 266.408 77.4485 267.941 76.839C268.313 76.6914 268.517 76.5835 268.843 76.3862L268.941 76.3262Z" fill="#44B4AD"/>
<path d="M281.637 86.7676C281.964 88.8337 282.352 90.8964 282.666 92.9557C281.46 95.8379 279.321 97.4023 278.434 99.1772C278.61 99.9324 278.683 100.125 278.437 100.884C277.748 100.999 277.518 100.993 276.816 100.969C275 102.789 275.502 103.911 274.55 105.574C273.59 104.531 273.031 103.859 272.273 102.648L272.783 102.182C274.173 101.019 276.168 96.9844 276.937 95.2685C276.119 92.7612 276.586 91.177 277.449 88.8564L277.571 88.1429L277.629 87.9107C279.339 87.5861 280.056 87.3708 281.637 86.7676Z" fill="#F5CE8B"/>
<path d="M277.445 88.8564C278.045 89.762 278.321 91.1291 278.706 92.1721C278.147 93.2223 277.61 94.2914 276.934 95.2686C276.115 92.7613 276.582 91.177 277.445 88.8564Z" fill="white"/>
<path d="M276.812 100.969C277.311 100.247 277.732 99.7103 278.431 99.1777C278.606 99.9334 278.679 100.126 278.434 100.885C277.745 101 277.514 100.993 276.812 100.969Z" fill="#44B4AD"/>
<path d="M266.237 63.3655C267.365 61.4421 268.359 60.1089 270.578 59.5361C274.17 58.6078 278.215 60.7508 278.935 64.5028C279.102 65.373 278.618 66.9423 278.538 67.8542C277.342 67.1837 272.758 65.7973 271.253 65.85C270.636 65.8713 269.613 66.103 268.989 66.2549C268.189 66.3183 267.663 66.2646 266.866 66.2031L264.728 66.2892C263.144 65.9511 262.413 65.2066 263.158 63.6165C264.203 63.3955 265.165 63.3016 266.237 63.3655Z" fill="#006862"/>
<path d="M263.158 63.6172C263.713 63.9882 266.554 65.8608 266.866 66.2038L264.728 66.2894C263.144 65.9518 262.413 65.2073 263.158 63.6172Z" fill="#006862"/>
<path d="M277.615 77.1465C278.695 77.4527 279.263 77.578 279.814 78.6645C280.947 80.9004 281.213 83.9751 281.849 86.4272L281.635 86.7688C280.053 87.372 279.337 87.5873 277.626 87.9119L277.568 88.1441C275.446 87.1649 275.231 82.8552 275.036 80.7161C274.987 80.1806 275.243 79.3417 275.219 78.6519L275.286 78.5726C275.543 78.4821 276.792 77.534 277.615 77.1465Z" fill="#006862"/>
<path d="M266.866 66.2041C267.662 66.2655 268.188 66.3192 268.988 66.2559C269.917 67.027 270.858 67.7845 271.809 68.528C272.224 67.9529 272.359 67.6703 273.042 67.4285C275.383 67.8663 272.826 70.6207 272.691 71.536C272.745 72.2669 272.801 73.5232 272.917 74.2053C271.764 74.4549 271.176 74.6097 270.365 75.5182L270.171 76.3338L269.846 76.6478C269.351 76.5641 269.367 76.5786 268.939 76.3266C268.776 75.6479 268.553 75.0054 268.335 74.3437C266.956 73.6263 266.066 71.3594 265.742 69.8816C265.637 69.4027 266.991 67.8875 266.68 66.6061C266.303 66.2771 265.342 66.3313 264.727 66.2897L266.866 66.2041Z" fill="#F5CE8B"/>
<path d="M269.537 73.8064C270.705 73.8214 271.892 72.3358 272.692 71.5361C272.746 72.2666 272.802 73.5229 272.919 74.205C271.765 74.4546 271.177 74.6099 270.366 75.5179L270.172 76.3335L269.847 76.6474C269.352 76.5637 269.368 76.5783 268.94 76.3262C268.777 75.6475 268.554 75.0051 268.336 74.3433C268.597 74.1866 269.228 73.9384 269.537 73.8064Z" fill="#DCB55B"/>
<path d="M269.537 73.8066C270.324 74.5061 270.148 75.2995 270.172 76.3338L269.847 76.6477C269.352 76.564 269.368 76.5785 268.94 76.3265C268.777 75.6478 268.554 75.0054 268.336 74.3436C268.597 74.1869 269.228 73.9382 269.537 73.8066Z" fill="#004E49"/>
<path d="M270.171 76.3321L270.365 75.516C271.176 74.608 271.764 74.4527 272.917 74.2031C273.267 76.0723 273.226 77.1879 271.535 78.3716C270.868 78.3721 270.296 78.4437 269.713 78.1549C269.488 77.5139 269.656 77.3915 269.846 76.6456L270.171 76.3321Z" fill="#F5CE8B"/>
<path d="M276.033 76.1914C276.499 76.4981 277.125 76.8522 277.614 77.1463C276.791 77.5338 275.543 78.482 275.285 78.5724C275.461 77.8869 275.81 76.8919 276.033 76.1914Z" fill="#44B4AD"/>
<path d="M216.086 66.3125C216.752 67.9505 218.637 68.2059 219.31 68.9847C219.181 69.5938 219.105 69.9097 219.076 70.5424L219.129 71.4432L219.697 72.4968C220.64 72.8334 221.334 73.0995 222.245 73.516C224.389 74.7046 224.689 76.9265 225.18 79.1682C225.449 80.3848 226.688 84.4884 225.969 85.321C224.653 86.0345 223.673 86.5216 222.234 86.9701C221.946 87.0601 220.409 87.4925 220.284 87.5564C220.62 88.3091 220.792 88.6743 220.999 89.4769C218.388 92.2202 215.408 94.8267 212.594 97.3441C211.901 97.9648 207.97 97.7829 206.88 97.7862C199.145 96.78 198.546 93.3116 199.097 86.4844C199.237 85.0791 199.473 84.0182 199.829 82.6628C200.787 79.8696 201.245 78.6428 203.303 76.4355C203.484 75.1937 203.595 73.8184 204.583 73.0003C206.258 71.135 208.177 72.6143 209.521 72.013C210.795 71.3745 212.456 70.6251 213.527 69.7355C213.878 68.8706 213.906 68.1885 214.008 67.2631L214.875 67.1983C215.276 66.9235 215.691 66.6037 216.086 66.3125Z" fill="#006862"/>
<path d="M222.247 73.5146C224.39 74.7037 224.69 76.9256 225.181 79.1673C225.45 80.3839 226.689 84.4876 225.971 85.3201C224.654 86.0331 223.674 86.5208 222.235 86.9692C221.947 87.0587 220.411 87.4916 220.285 87.5555C219.444 88.6454 217.076 91.5097 215.714 91.5097C215.114 90.7071 213.465 80.4371 212.699 78.2496C216.178 75.3582 217.731 74.2272 222.247 73.5146Z" fill="#89E6E0"/>
<path d="M217.666 80.0703C218.087 80.4012 219.099 85.6068 219.915 87.3551C218.12 87.0189 217.726 81.6381 217.666 80.0703Z" fill="#44B4AD"/>
<path d="M216.086 66.3125C216.753 67.9505 218.637 68.2059 219.31 68.9847C219.181 69.5938 219.105 69.9097 219.076 70.5424L219.129 71.4432L219.697 72.4968C216.48 72.4842 214.076 73.2485 211.555 75.3639C211.245 73.5518 210.828 73.2945 209.521 72.013C210.795 71.3745 212.457 70.6251 213.527 69.7355C213.879 68.8706 213.906 68.1885 214.008 67.2631L214.875 67.1983C215.276 66.9235 215.691 66.6037 216.086 66.3125Z" fill="#89E6E0"/>
<path d="M216.083 66.3125C216.749 67.9505 218.633 68.2059 219.307 68.9847C219.178 69.5938 219.102 69.9097 219.073 70.5424L219.125 71.4432C217.636 70.4103 215.305 69.8879 213.523 69.7355C213.875 68.8706 213.902 68.1885 214.004 67.2631L214.871 67.1983C215.272 66.9235 215.687 66.6037 216.083 66.3125Z" fill="#F5CE8B"/>
<path d="M216.087 66.3125C216.752 67.9505 218.637 68.2059 219.31 68.9847C219.181 69.5938 219.105 69.9097 219.076 70.5424C218.127 70.3131 215.323 68.1101 214.875 67.1983C215.276 66.9235 215.691 66.6037 216.087 66.3125Z" fill="#DCB55B"/>
<path d="M199.827 82.6621C202.895 82.8445 206.292 82.9993 209.333 83.306C209.258 84.8525 209.137 85.5801 208.611 87.0454C205.325 87.0202 202.156 86.5195 199.096 86.4833C199.236 85.0784 199.472 84.0176 199.827 82.6621Z" fill="#006862"/>
<path d="M209.524 72.0137C210.83 73.2951 211.247 73.552 211.557 75.3646C211.041 75.9374 210.678 76.5372 209.863 76.3636C209.174 75.2703 210.072 73.6696 208.704 73.1993L208.318 73.4083C208.067 73.2966 206.921 73.0692 206.627 73.1389C206.244 73.238 205.606 73.4272 205.237 73.4775C205.669 72.4578 207.699 72.7795 208.477 73.0247L208.68 72.7766C207.704 71.8468 205.729 72.6527 204.586 73.001C206.26 71.1357 208.18 72.615 209.524 72.0137Z" fill="#006862"/>
<path d="M206.621 73.138C206.915 73.0684 208.062 73.2957 208.312 73.4075C207.98 74.1674 207.658 75.163 206.995 75.6047C206.375 75.7851 206.181 75.7328 205.537 75.6816L205.279 75.7014L205.053 75.3667C204.954 74.5704 205.065 74.2414 205.232 73.4766C205.6 73.4263 206.239 73.2372 206.621 73.138Z" fill="#006862"/>
<path d="M206.621 73.1387L207.017 73.2761C207.019 74.0239 206.097 75.197 205.537 75.6827L205.279 75.7025L205.053 75.3678C204.954 74.5711 205.065 74.2426 205.232 73.4778C205.6 73.4275 206.239 73.2383 206.621 73.1387Z" fill="white"/>
<path d="M209.654 87.3975L210.062 87.4695C210.532 88.154 210.485 92.9098 210.501 94.0819C210.293 94.1003 210.351 94.0858 210.131 94.0021C209.81 92.0995 209.732 89.3547 209.654 87.3975Z" fill="#004E49"/>
<path d="M211.791 58.0803C212.325 57.6052 213.864 55.7776 214.71 55.6702C217.224 55.3514 220.642 55.8105 223.296 55.5459C223.435 55.6335 223.575 55.721 223.715 55.8081C224.312 56.9696 223.091 58.7241 222.187 59.4556C222.233 60.1831 222.274 60.7767 222.38 61.4951C222.501 62.3329 223.276 63.8669 223.198 64.579C223.149 64.6302 222.55 65.2422 222.55 65.2422C221.921 67.2802 222.441 68.9564 219.708 68.9845C219.575 68.9864 219.441 68.9864 219.308 68.9845C218.636 68.2052 216.751 67.9502 216.085 66.3122C215.69 66.603 215.274 66.9232 214.873 67.198L214.006 67.2628C210.989 64.8523 211.12 61.5255 211.791 58.0803Z" fill="#004E49"/>
<path d="M216.086 66.3132C217.298 64.2728 214.806 63.6086 216.591 61.9996C217.897 61.7935 217.483 62.9579 218.359 63.3067C219.51 61.7979 218.581 60.8614 219.292 59.8963C220.083 59.5151 221.28 59.5165 222.189 59.457C222.234 60.1841 222.276 60.7782 222.381 61.4965C222.502 62.3344 223.277 63.8679 223.199 64.5799C223.15 64.6312 222.551 65.2432 222.551 65.2432C221.922 67.2817 222.442 68.9574 219.709 68.9859C219.576 68.9879 219.442 68.9874 219.31 68.9859C218.637 68.2066 216.752 67.9517 216.086 66.3132Z" fill="#F5CE8B"/>
<path d="M232.209 86.9539C232.972 85.0112 233.639 84.0446 234.872 82.3975C234.802 83.2537 234.73 84.5264 234.556 85.3324C235.465 84.9502 236.96 84.1631 237.874 84.2217C238.907 84.8385 238.582 86.1354 237.961 86.8838C236.953 88.1038 234.709 89.1414 233.381 89.9754C231.139 91.3851 226.883 95.3649 224.263 95.3905C222.585 93.9426 221.809 91.5282 220.998 89.4767C220.791 88.6746 220.619 88.3089 220.283 87.5567C220.408 87.4923 221.945 87.0598 222.234 86.9704C223.672 86.5219 224.651 86.0343 225.969 85.3208C226.197 86.6588 226.413 88.0486 226.682 89.3751C228.165 88.7283 230.932 87.6587 232.209 86.9539Z" fill="#F5CE8B"/>
<path d="M255.519 81.0498C259.246 83.3829 260.768 85.4964 264.161 88.2354C264.612 87.9312 264.815 87.3182 265.064 86.7948C265.534 89.6151 265.47 90.8898 265.388 93.7105C263.341 93.2611 259.954 87.8779 258.287 86.0378L258.127 85.8636C255.604 85.2207 254.686 84.9764 252.598 83.4589C253.586 83.5421 256.237 84.1042 256.799 83.4013C256.75 82.8455 256.696 82.7487 256.382 82.2969L255.519 81.0498Z" fill="#F5CE8B"/>
<path d="M151.62 110.799C152.827 111.747 153.581 112.109 154.914 112.807L158.527 112.778L159.007 113.559C158.714 114.753 158.551 115.175 158.053 116.303L157.891 117.02C156.935 117.527 156.311 117.97 155.234 118.045C153.607 118.868 153.146 119.158 152.918 120.989L152.781 121.654L152.818 122.133C153.141 126.769 150.086 135.375 155.365 137.544C154.297 138.277 154.162 138.238 152.835 138.415C151.263 137.83 151.83 138.219 150.721 136.845C149.676 137.093 148.484 137.206 147.836 137.93C146.21 140.81 142.873 139.349 141.961 135.873L141.408 136.595C139.491 136.796 134.466 137.004 133.117 137.375C134.27 138.017 134.516 138.071 135.304 139.078L135.086 139.679L134.136 139.977C131.263 139.427 130.784 138.583 130.666 135.804L130.138 136.885C127.523 137.338 126.462 136.761 124.051 137.683C124.7 138.62 124.682 138.577 124.976 139.676L124.577 140.179L123.76 140.127C121.508 138.289 121.752 137.468 121.431 134.478L124.267 131.4C123.534 126.285 123.078 126.572 125.05 121.812L124.803 121.531C123.435 122.991 122.854 124.903 120.387 124.576C118.319 124.301 117.203 123.29 116.008 121.675L116.125 121.177C121.294 120.538 117.373 116.525 123.207 115.972L123.517 116.09C127.237 115.163 141.635 115.681 145.328 117.144C148.576 112.461 144.54 113.16 151.62 110.799Z" fill="#5A716D"/>
<path d="M123.518 116.091C127.238 115.164 141.636 115.682 145.329 117.144C139.099 121.434 134.547 119.538 127.459 119.994C126.151 118.562 124.932 117.418 123.518 116.091Z" fill="#EEF6EC"/>
<path d="M133.115 137.374C134.275 135.409 134.888 134.443 135.64 132.314C137.662 132.485 139.426 132.035 141.06 132.763C142.003 134.065 141.74 134.084 141.959 135.872L141.406 136.595C139.489 136.796 134.463 137.003 133.115 137.374Z" fill="white"/>
<path d="M147.836 137.93C145.027 137.467 143.777 136.271 144.773 133.223C145.281 131.669 146.595 131.522 147.999 131.002L150.722 136.845C149.676 137.092 148.485 137.206 147.836 137.93Z" fill="white"/>
<path d="M124.049 137.684L124.647 136.459C127.418 134.769 127.812 133.434 130.374 132.055L130.922 132.26C131.311 133.633 130.986 134.403 130.663 135.805L130.135 136.885C127.521 137.339 126.459 136.762 124.049 137.684Z" fill="white"/>
<path d="M152.781 121.656C150.376 121.122 147.395 120.115 145.926 118.004C147.49 118.13 151.243 120.174 152.919 120.991L152.781 121.656Z" fill="white"/>
<path d="M155.362 137.544C156.651 137.724 156.473 137.494 157.25 138.224L157.066 138.907C150.875 143.695 117.147 146.381 114.195 139.741L114.62 139.036C116.312 138.061 119.072 137.924 121.188 137.414L121.429 134.479C121.75 137.469 121.505 138.29 123.759 140.128L124.575 140.18L124.974 139.676C124.68 138.577 124.698 138.62 124.049 137.683C126.46 136.761 127.522 137.338 130.135 136.885L130.664 135.804C130.783 138.584 131.261 139.427 134.134 139.977L135.084 139.679L135.302 139.078C134.513 138.071 134.269 138.017 133.115 137.375C134.464 137.004 139.489 136.796 141.406 136.595L141.959 135.873C142.871 139.349 146.208 140.811 147.834 137.931C148.483 137.206 149.674 137.093 150.719 136.846C151.828 138.22 151.26 137.83 152.832 138.415C154.159 138.238 154.295 138.277 155.362 137.544Z" fill="#FCFCFC"/>
</svg>
