<svg width="348" height="219" viewBox="0 0 348 219" fill="none" xmlns="http://www.w3.org/2000/svg">
<path d="M238.982 90.3027C239.043 90.6414 239.013 91.1524 239.044 91.3142C240.604 99.22 240.507 107.345 241.055 115.414C242.809 115.458 247.343 115.748 248.978 116.281C250.147 112.836 253.085 112.094 255.986 114.071C256.788 112.119 257.73 110.64 259.773 109.779C261.464 109.071 263.367 109.062 265.064 109.757C267.308 110.694 268.54 112.546 269.052 114.854C270.229 114.153 271.185 113.696 272.563 114.073C274.96 114.728 275.417 116.605 275.664 118.696C276.251 119.109 278.159 119.008 278.743 119.802C278.406 120.262 277.374 120.428 276.828 120.513C276.303 120.595 275.777 120.665 275.251 120.722L275.224 121.175C275.987 121.745 277.303 121.993 278.211 122.308C280.901 123.24 286.437 125.227 286.936 128.408C287.071 129.274 286.852 129.99 286.319 130.672C282.014 136.193 258.919 137.104 258.156 140.089C258.867 141.903 266.55 143.202 268.754 143.899C274.132 145.6 279.414 147.02 284.185 150.178C293.903 156.612 284.217 162.784 277.419 165.168C260.756 171.011 242.61 173.164 225.076 174.632C208.674 175.927 192.224 176.506 175.77 176.364C151.115 176.341 126.112 175.168 101.753 171.236C93.0909 169.737 83.5478 167.771 75.5069 164.323C71.3606 162.544 64.8895 158.784 67.2243 153.746C69.2517 149.371 77.7869 146.783 81.9854 145.436C83.7618 144.866 89.3793 143.653 89.9447 142.402C89.7047 141.86 89.2889 141.696 88.7529 141.495C82.5635 139.166 63.2763 138.592 60.2673 132.348C59.9002 131.586 59.9348 130.784 60.2278 130.008C61.4046 126.89 64.8066 125.943 67.2274 124.141C68.5209 123.094 69.5328 123.041 71.1259 122.829C71.0303 118.729 72.9124 116.817 76.9842 118.282C77.7614 108.764 87.7344 107.093 92.2457 114.426C92.7527 113.748 93.2857 113.171 94.0134 112.725C95.2783 111.955 96.7991 111.723 98.236 112.082C100.098 112.539 101.076 113.623 102.034 115.171C104.548 114.744 110.942 113.627 113.285 113.637L116.584 113.029C132.881 111.134 149.279 110.249 165.685 110.379C167.151 110.393 173.267 110.418 174.461 110.722C176.113 110.185 178.493 110.474 180.264 110.239C181.645 110.055 183.082 109.984 184.005 111.171C187.33 111.108 192.124 111.458 195.525 111.649L213.166 112.693C215.855 112.872 220.127 113.298 222.724 113.28C222.841 112.473 222.764 112.216 222.813 111.521C222.78 109.287 222.348 105.913 222.173 103.562C221.876 99.5529 221.8 95.9303 221.76 91.9199C222.312 91.6949 226.076 92.4796 227.207 92.5617C229.938 92.7603 232.069 91.6081 234.51 91.3019C233.694 91.7441 232.958 92.1971 232.171 92.6821L232.148 92.6963C233.388 93.7376 235.353 94.7982 236.862 95.3307C237.296 92.7968 237.334 92.3195 238.982 90.3027Z" fill="white"/>
<path d="M76.9838 118.282C77.761 108.764 87.734 107.093 92.2449 114.425C92.7519 113.748 93.2848 113.17 94.0125 112.724C95.2779 111.954 96.7982 111.723 98.2352 112.082C100.098 112.538 101.075 113.622 102.033 115.171C102.443 116.374 102.556 116.883 102.703 118.147C106.337 116.771 108.009 119.097 107.82 122.493C108.903 122.62 110.701 122.71 111.51 123.377L111.578 123.69C111.17 124.267 110.014 124.391 109.358 124.505C103.94 125.453 71.4448 127.162 67.6187 124.468C67.4788 124.369 67.352 124.257 67.2266 124.141C68.5201 123.094 69.532 123.041 71.1251 122.828C71.0294 118.729 72.9116 116.817 76.9838 118.282Z" fill="#BAE6CC"/>
<path d="M255.99 114.07C256.791 112.118 257.734 110.639 259.777 109.778C261.468 109.069 263.371 109.061 265.068 109.755C267.312 110.692 268.544 112.545 269.055 114.853C270.233 114.152 271.188 113.694 272.567 114.071C274.964 114.727 275.421 116.604 275.668 118.694C276.255 119.108 278.163 119.006 278.747 119.801C278.41 120.26 277.378 120.427 276.832 120.512C276.307 120.593 275.781 120.663 275.255 120.721C273.929 120.636 271.754 120.82 270.498 120.821C267.154 120.824 246.379 121.133 244.965 119.265C245.537 118.467 247.745 118.203 248.759 118.004C248.796 117.394 248.884 116.879 248.982 116.279C250.151 112.835 253.089 112.093 255.99 114.07Z" fill="#BAE6CC"/>
<path d="M182.771 151.171C182.401 151.835 182.315 152.064 182.554 152.747C183.703 153.801 185.059 153.648 186.297 152.841C187.241 152.226 187.304 151.417 187.51 150.392L187.646 150.83C188.72 151.303 196.686 150.786 198.647 151.075C198.4 151.612 198.265 151.812 198.324 152.405C198.976 153.959 201.233 153.408 202.451 152.933C203.308 152.599 203.655 151.918 204.131 151.181C205.617 151.586 208.47 151.334 210.034 151.628C210.029 152.265 209.977 152.39 210.328 152.876C211.648 153.802 213.631 153.253 214.546 151.972C215.74 152.056 219.072 152.288 219.877 153.019L219.867 153.293C216.39 155.404 164.377 155.685 162.834 153.092C163.895 151.768 172.852 151.524 174.94 151.463C174.865 151.855 174.869 152.014 174.864 152.416C175.525 153.755 177.282 153.436 178.443 153.026C179.568 152.627 179.784 152.02 180.244 151.019C181.04 151.257 181.933 151.113 182.771 151.171Z" fill="black" fill-opacity="0.09"/>
<path d="M174.004 124.902C175.907 124.98 183.472 122.396 184.494 120.882C186.452 126.719 196.933 127.435 202.103 127.634C206.118 127.788 208.281 129.936 212.127 130.429C215.415 130.85 218.487 129.978 220.586 127.325C220.981 126.839 221.471 126.091 222.096 126.359C222.494 127.251 222.25 128.241 221.925 129.115C219.975 134.351 215.607 134.547 210.802 133.761C211.033 135.111 211.12 137.788 210.529 138.992C210.327 142.349 211.689 141.995 213.687 143.641C214.136 146.138 214.753 149.469 214.547 151.971C213.633 153.252 211.649 153.802 210.33 152.875C209.978 152.389 210.031 152.265 210.036 151.626C208.472 151.333 205.62 151.585 204.133 151.18C203.657 151.916 203.31 152.598 202.453 152.932C201.234 153.408 198.977 153.958 198.326 152.405C198.267 151.811 198.402 151.611 198.648 151.074C196.688 150.785 188.722 151.302 187.648 150.829L187.511 150.391C187.306 151.415 187.243 152.225 186.299 152.84C185.06 153.647 183.705 153.8 182.555 152.746C182.317 152.063 182.402 151.834 182.772 151.169C181.935 151.112 181.042 151.255 180.246 151.018C179.785 152.019 179.57 152.626 178.445 153.024C177.284 153.435 175.527 153.754 174.866 152.415C174.871 152.013 174.867 151.854 174.941 151.462C175.622 150.639 175.901 150.62 176.908 150.448C177.71 147.005 177.873 141.136 176.895 137.731C176.282 135.753 175.402 133.857 174.915 131.839C174.366 129.568 174.218 127.221 174.004 124.902Z" fill="#E6DCCD"/>
<path d="M205.775 144.407C205.503 142.503 209.166 138.894 210.53 138.992C210.328 142.349 211.689 141.995 213.688 143.64C214.137 146.138 214.754 149.469 214.548 151.971C213.633 153.251 211.65 153.801 210.331 152.875C209.979 152.389 210.031 152.264 210.036 151.626C208.472 151.333 205.62 151.584 204.133 151.179C204.815 149.826 205.756 148.471 206.498 146.999C206.256 146.085 205.934 145.394 205.775 144.407Z" fill="#E6DCCD"/>
<path d="M205.775 144.407C205.503 142.503 209.166 138.894 210.53 138.992C210.328 142.349 211.689 141.995 213.688 143.64C214.137 146.138 214.754 149.469 214.548 151.971C213.633 153.251 211.65 153.801 210.331 152.875C209.979 152.389 210.031 152.264 210.036 151.626C208.472 151.333 205.62 151.584 204.133 151.179C204.815 149.826 205.756 148.471 206.498 146.999C206.256 146.085 205.934 145.394 205.775 144.407Z" fill="black" fill-opacity="0.06"/>
<path d="M205.775 144.407C206.988 144.977 209.508 146.09 210.518 146.829C211.1 148.123 211.278 148.976 211.525 150.375C210.817 150.824 210.551 150.957 210.036 151.626C208.472 151.332 205.62 151.584 204.133 151.179C204.815 149.826 205.756 148.471 206.498 146.999C206.256 146.085 205.934 145.394 205.775 144.407Z" fill="#F2F9F9"/>
<path d="M183.315 140.535L183.539 140.651C184.682 141.085 187.885 141.299 188.185 141.758C188.042 144.465 187.929 147.746 187.51 150.392C187.304 151.417 187.242 152.226 186.297 152.841C185.058 153.647 183.703 153.801 182.553 152.747C182.315 152.064 182.401 151.835 182.771 151.17C181.934 151.113 181.04 151.256 180.244 151.019C181.406 148.08 182.281 144.721 183.055 141.637L183.264 141.541C183.248 141.281 183.295 140.815 183.315 140.535Z" fill="#E6DCCD"/>
<path d="M183.315 140.535L183.539 140.651C184.682 141.085 187.885 141.299 188.185 141.758C188.042 144.465 187.929 147.746 187.51 150.392C187.304 151.417 187.242 152.226 186.297 152.841C185.058 153.647 183.703 153.801 182.553 152.747C182.315 152.064 182.401 151.835 182.771 151.17C181.934 151.113 181.04 151.256 180.244 151.019C181.406 148.08 182.281 144.721 183.055 141.637L183.264 141.541C183.248 141.281 183.295 140.815 183.315 140.535Z" fill="black" fill-opacity="0.06"/>
<path d="M183.318 140.532C183.564 139.785 183.782 138.914 184.274 138.316L184.125 138.602L184.226 138.741C184.031 139.356 183.832 140.083 183.542 140.648L183.318 140.532Z" fill="#006862"/>
<path d="M174.461 110.721C176.113 110.184 178.493 110.473 180.264 110.238C181.644 110.054 183.082 109.983 184.005 111.17C184.377 113.259 184.539 115.313 184.809 117.409C185.127 119.041 185.378 119.448 184.493 120.881C183.47 122.396 175.905 124.98 174.002 124.901L173.696 122.991C172.652 121.394 170.374 121.294 168.41 119.322L168.062 118.784C167.235 117.312 167 116.771 166.818 115.103C168.148 114.783 168.678 114.37 168.997 113.039C170.257 113.014 171.346 113.16 172.797 113.102C173.384 112.174 173.757 111.577 174.461 110.721Z" fill="#E6DCCD"/>
<path d="M178.704 116.081L178.984 116.397C178.351 120.413 178.982 123.55 183.065 119.569C183.764 118.888 184.012 117.444 184.81 117.409C185.127 119.041 185.379 119.447 184.494 120.881C183.471 122.395 175.907 124.979 174.003 124.901L173.697 122.991C173.954 122.58 175.114 122.8 175.666 122.768C176.925 122.696 177.89 122.503 179.089 122.18C178.782 121.73 178.471 121.282 178.157 120.836C178.201 119.14 178.395 117.738 178.704 116.081Z" fill="#E6DCCD"/>
<path d="M178.704 116.081L178.984 116.397C178.351 120.413 178.982 123.55 183.065 119.569C183.764 118.888 184.012 117.444 184.81 117.409C185.127 119.041 185.379 119.447 184.494 120.881C183.471 122.395 175.907 124.979 174.003 124.901L173.697 122.991C173.954 122.58 175.114 122.8 175.666 122.768C176.925 122.696 177.89 122.503 179.089 122.18C178.782 121.73 178.471 121.282 178.157 120.836C178.201 119.14 178.395 117.738 178.704 116.081Z" fill="#A8A8A8"/>
<path d="M168.064 118.786C168.934 118.495 171.072 119.42 172.105 119.566L172.129 119.743C170.862 119.906 169.405 119.264 168.412 119.323L168.064 118.786Z" fill="#006862"/>
<path d="M178.705 116.082C178.779 115.188 179.029 112.77 179.248 111.929C179.36 113.76 179.249 114.62 178.984 116.399L178.705 116.082Z" fill="#006862"/>
<path d="M166.82 115.104C166.74 114.184 166.555 113.74 167.221 113.061C167.848 112.82 168.322 112.952 168.999 113.04C168.679 114.37 168.149 114.784 166.82 115.104Z" fill="#2A4649"/>
<path d="M188.186 141.757C188.526 141.512 197.183 140.84 198.189 140.871C199.201 144.334 200.561 144.506 202.096 147.292C201.627 148.751 201.473 150.295 199.755 150.567C199.476 150.611 198.882 150.898 198.647 151.074C196.686 150.785 188.72 151.302 187.646 150.829L187.51 150.391C187.929 147.745 188.043 144.464 188.186 141.757Z" fill="#F2F9F9"/>
<path d="M180.244 151.017C181.406 148.078 182.281 144.72 183.055 141.636L183.264 141.54C183.942 144.854 184.455 147.043 184.314 150.453L182.771 151.169C181.934 151.111 181.04 151.255 180.244 151.017Z" fill="#F2F9F9"/>
<path d="M226.114 166.337C226.52 164.871 228.003 157.285 229.602 157.699C230.628 158.621 232.003 164.682 232.487 166.473C232.842 166.649 233.313 166.862 233.645 167.06C234.71 167.013 235.097 167.278 236.04 167.795C235.068 168.239 234.39 168.499 233.333 168.716C232.575 168.52 231.046 168.535 230.15 168.476C229.798 168.432 228.883 168.466 228.481 168.473C227.445 168.544 226.605 168.419 225.641 168.795C224.682 168.721 223.226 168.637 222.703 167.716C222.858 166.925 224.152 166.913 224.824 166.992L226.114 166.337Z" fill="#E7B368"/>
<path d="M225.641 168.795C224.682 168.721 223.226 168.637 222.703 167.716C222.858 166.925 224.152 166.913 224.824 166.991C224.96 168.859 227.032 168.256 228.481 168.473C227.445 168.544 226.605 168.419 225.641 168.795Z" fill="#E7B368"/>
<path d="M225.641 168.795C224.682 168.721 223.226 168.637 222.703 167.716C222.858 166.925 224.152 166.913 224.824 166.991C224.96 168.859 227.032 168.256 228.481 168.473C227.445 168.544 226.605 168.419 225.641 168.795Z" fill="white" fill-opacity="0.76"/>
<path d="M233.645 167.059C234.71 167.012 235.097 167.277 236.04 167.794C235.068 168.238 234.39 168.498 233.333 168.715C232.575 168.519 231.046 168.535 230.15 168.475C231.658 168.222 233.233 168.826 233.645 167.059Z" fill="#E7B368"/>
<path d="M233.645 167.059C234.71 167.012 235.097 167.277 236.04 167.794C235.068 168.238 234.39 168.498 233.333 168.715C232.575 168.519 231.046 168.535 230.15 168.475C231.658 168.222 233.233 168.826 233.645 167.059Z" fill="white" fill-opacity="0.76"/>
<path d="M228.479 168.472C228.881 168.465 229.796 168.432 230.149 168.475C231.044 168.535 232.573 168.519 233.331 168.715C231.161 168.976 227.789 169.317 225.639 168.795C226.603 168.418 227.444 168.543 228.479 168.472Z" fill="#E7B368"/>
<path d="M228.479 168.472C228.881 168.465 229.796 168.432 230.149 168.475C231.044 168.535 232.573 168.519 233.331 168.715C231.161 168.976 227.789 169.317 225.639 168.795C226.603 168.418 227.444 168.543 228.479 168.472Z" fill="white" fill-opacity="0.92"/>
<path d="M238.014 159.765C238.339 158.592 239.525 152.524 240.804 152.855C241.625 153.593 242.725 158.441 243.112 159.874C243.397 160.015 243.773 160.186 244.039 160.344C244.89 160.306 245.201 160.518 245.954 160.932C245.177 161.287 244.635 161.495 243.789 161.668C243.183 161.511 241.96 161.524 241.243 161.476C240.961 161.442 240.229 161.468 239.907 161.474C239.079 161.531 238.406 161.431 237.635 161.732C236.868 161.673 235.703 161.605 235.285 160.869C235.409 160.236 236.444 160.226 236.982 160.289L238.014 159.765Z" fill="#E7B368"/>
<path d="M237.635 161.733C236.868 161.674 235.703 161.606 235.285 160.87C235.409 160.236 236.444 160.227 236.982 160.29C237.09 161.784 238.748 161.302 239.907 161.475C239.079 161.532 238.406 161.432 237.635 161.733Z" fill="#E7B368"/>
<path d="M237.635 161.733C236.868 161.674 235.703 161.606 235.285 160.87C235.409 160.236 236.444 160.227 236.982 160.29C237.09 161.784 238.748 161.302 239.907 161.475C239.079 161.532 238.406 161.432 237.635 161.733Z" fill="white" fill-opacity="0.76"/>
<path d="M244.04 160.346C244.892 160.309 245.202 160.52 245.956 160.934C245.178 161.289 244.636 161.497 243.79 161.671C243.184 161.514 241.961 161.526 241.244 161.479C242.45 161.277 243.71 161.76 244.04 160.346Z" fill="#E7B368"/>
<path d="M244.04 160.346C244.892 160.309 245.202 160.52 245.956 160.934C245.178 161.289 244.636 161.497 243.79 161.671C243.184 161.514 241.961 161.526 241.244 161.479C242.45 161.277 243.71 161.76 244.04 160.346Z" fill="white" fill-opacity="0.76"/>
<path d="M239.907 161.475C240.229 161.469 240.96 161.443 241.243 161.478C241.959 161.525 243.183 161.512 243.789 161.669C242.052 161.878 239.355 162.151 237.635 161.733C238.406 161.432 239.079 161.532 239.907 161.475Z" fill="#E7B368"/>
<path d="M239.907 161.475C240.229 161.469 240.96 161.443 241.243 161.478C241.959 161.525 243.183 161.512 243.789 161.669C242.052 161.878 239.355 162.151 237.635 161.733C238.406 161.432 239.079 161.532 239.907 161.475Z" fill="white" fill-opacity="0.92"/>
<path d="M222.328 47.3707C223.019 45.5934 224.22 43.1606 226.136 42.5767C232.702 40.5761 237.203 43.9123 236.655 50.5481C236.923 51.1543 237.639 52.4307 237.717 52.9575C238.897 60.7843 243.391 55.1177 243.214 64.3249C245.54 68.0444 246.006 68.9383 242.376 71.9486L241.887 72.4307C242.606 74.9598 244.126 79.2298 243.713 81.7769C243.242 84.6793 240.13 87.8036 238.982 90.3029C237.334 92.3192 237.296 92.7965 236.862 95.3308C235.354 94.7979 233.388 93.7378 232.148 92.6965C232.944 92.2061 233.686 91.7482 234.51 91.3021C232.069 91.6082 229.939 92.7601 227.207 92.5618C226.077 92.4798 222.312 91.6946 221.761 91.9201C221.119 89.4717 223.167 84.4907 223.144 80.8812C223.16 80.1285 223.159 79.4044 223.129 78.6609C223.041 76.3774 221.873 74.5111 220.905 72.5259C220.905 72.5259 220.504 72.3543 220.465 72.3377C219.162 71.4442 221.947 66.0728 222.175 64.6385C220.644 61.5028 223.626 60.6378 223.295 57.2113C221.989 54.7633 222.838 53.0364 222.519 51.2231L222.484 50.9468L222.361 50.0722C222.583 49.6608 222.667 48.9818 222.758 48.5015C221.958 47.9795 221.212 48.3379 220.305 47.5277C221.155 47.3918 221.466 47.3637 222.328 47.3707Z" fill="#B1F3F0"/>
<path d="M222.328 47.3707C223.019 45.5934 224.219 43.1606 226.136 42.5767C232.702 40.5761 237.202 43.9123 236.654 50.5481C236.923 51.1543 237.638 52.4307 237.717 52.9575C238.896 60.7843 243.39 55.1177 243.214 64.3249C245.54 68.0444 246.005 68.9383 242.375 71.9486C240.781 67.2584 241.079 63.4713 235.477 62.4432C234.253 64.2696 234.472 65.1271 233.786 67.0698C233.35 68.3023 231.965 68.3278 230.858 67.7755C230.113 66.7619 231.052 66.4206 231.061 65.4162C231.062 65.3355 230.522 63.9516 230.424 63.5823C230.774 62.4708 230.957 62.1769 231.565 61.1655C231.177 60.2996 231.077 59.9571 230.845 59.0302C229.897 58.982 228.828 60.3917 227.438 60.6417L227.254 59.3605C224.626 59.632 224.962 58.8543 223.377 57.2902L223.295 57.2113C221.989 54.7633 222.838 53.0364 222.519 51.2231L222.484 50.9468L222.361 50.0722C222.583 49.6608 222.667 48.9818 222.757 48.5015C221.958 47.9795 221.211 48.3379 220.305 47.5277C221.155 47.3918 221.466 47.3637 222.328 47.3707Z" fill="#0A1111"/>
<path d="M222.328 47.3707C223.019 45.5934 224.219 43.1606 226.136 42.5767C232.702 40.5761 237.202 43.9123 236.654 50.5481C235.268 49.8485 232.699 49.8252 231.046 49.3248C230.667 49.3831 229.537 49.5265 229.258 49.666C228.302 49.7858 227.782 49.7967 226.813 49.7897C225.595 49.5625 224.213 48.8256 222.757 48.5015C221.958 47.9795 221.211 48.3379 220.305 47.5277C221.155 47.3918 221.466 47.3637 222.328 47.3707Z" fill="#680006"/>
<path d="M222.328 47.3707C223.019 45.5934 224.219 43.1606 226.136 42.5767C232.702 40.5761 237.202 43.9123 236.654 50.5481C235.268 49.8485 232.699 49.8252 231.046 49.3248C230.667 49.3831 229.537 49.5265 229.258 49.666C228.302 49.7858 227.782 49.7967 226.813 49.7897C225.595 49.5625 224.213 48.8256 222.757 48.5015C221.958 47.9795 221.211 48.3379 220.305 47.5277C221.155 47.3918 221.466 47.3637 222.328 47.3707Z" fill="#606060" fill-opacity="0.6"/>
<path d="M220.305 47.5273C223.935 47.7282 227.677 47.0286 231.046 49.3244C230.667 49.3827 229.537 49.5262 229.258 49.6656C228.302 49.7854 227.782 49.7964 226.813 49.7893C225.594 49.5621 224.213 48.8252 222.757 48.5011C221.958 47.9791 221.211 48.3375 220.305 47.5273Z" fill="#680006"/>
<path d="M220.305 47.5273C223.935 47.7282 227.677 47.0286 231.046 49.3244C230.667 49.3827 229.537 49.5262 229.258 49.6656C228.302 49.7854 227.782 49.7964 226.813 49.7893C225.594 49.5621 224.213 48.8252 222.757 48.5011C221.958 47.9791 221.211 48.3375 220.305 47.5273Z" fill="#494949" fill-opacity="0.4"/>
<path d="M222.76 48.501C224.215 48.8256 225.597 49.562 226.816 49.7892C227.785 49.7962 228.304 49.7853 229.26 49.6655C230.03 50.7932 230.512 51.5271 231.525 52.4846C232.007 52.067 232.306 51.7122 232.92 51.6073C233.755 51.8126 234.203 52.5236 234.158 53.3544C233.643 54.3443 232.836 54.6531 232.018 55.2347C231.805 55.3878 231.324 56.9923 231.148 57.3638L230.847 59.0297C229.9 58.9815 228.831 60.3912 227.441 60.6412L227.257 59.36C224.628 59.6315 224.964 58.8538 223.38 57.2897L223.298 57.2108C221.991 54.7628 222.84 53.0364 222.521 51.2226L222.487 50.9463L222.363 50.0717C222.585 49.6603 222.669 48.9813 222.76 48.501Z" fill="#E7B368"/>
<path d="M222.76 48.501C224.215 48.8256 225.597 49.562 226.816 49.7892C225.799 50.5129 224.655 49.7879 224.256 50.4647L224.306 50.6537C223.475 50.6599 223.278 50.7292 222.487 50.9463L222.363 50.0717C222.585 49.6603 222.669 48.9813 222.76 48.501Z" fill="#E1A26A"/>
<path d="M227.258 59.3595C228.855 59.0599 229.808 58.255 231.15 57.3633L230.848 59.0292C229.901 58.9809 228.832 60.3907 227.442 60.6407L227.258 59.3595Z" fill="#E1A26A"/>
<path d="M222.484 50.9474C223.276 50.7303 223.473 50.661 224.304 50.6553L224.309 50.9649C223.884 51.0531 222.881 51.3176 222.519 51.2242L222.484 50.9474Z" fill="#42403E"/>
<path d="M224.66 56.2994C225.343 56.2648 226.331 56.1639 226.966 56.3459L226.999 56.6841C225.941 57.1973 225.412 57.2486 224.66 56.2994Z" fill="#EA7D60"/>
<path d="M225.184 52.0938C225.85 52.9385 224.651 54.0956 225.087 55.4896C224.113 54.6786 224.96 53.3079 225.184 52.0938Z" fill="#E1A26A"/>
<path d="M226.809 50.7033C227.657 50.5713 228.482 50.7998 228.964 51.5459C228.174 51.302 227.728 51.1845 226.917 51.0358L226.809 50.7033Z" fill="#42403E"/>
<path d="M241.888 72.4307C242.607 74.9598 244.126 79.2302 243.714 81.7773C243.243 84.6797 240.131 87.8036 238.983 90.3029C237.335 92.3197 237.297 92.7969 236.863 95.3308C235.354 94.7983 233.389 93.7378 232.148 92.6965C232.945 92.2061 233.686 91.7486 234.51 91.3021C235.639 90.7959 236.935 87.4549 237.197 86.2539C235.26 82.4436 235.876 80.6294 236.706 76.5393L237.172 74.8313L237.055 74.1874C237.715 73.8847 237.98 74.0246 238.674 73.8356C239.876 73.5075 240.807 73.0162 241.888 72.4307Z" fill="#E7B368"/>
<path d="M237.172 74.8301C237.87 75.849 239.038 79.6422 239.477 80.9932C238.842 82.6227 238.043 84.7141 237.197 86.2527C235.261 82.442 235.876 80.6283 236.707 76.5381L237.172 74.8301Z" fill="#FCFCFC"/>
<path d="M223.296 57.2109L223.379 57.2899C224.963 58.854 224.627 59.6317 227.256 59.3602L227.44 60.6414C227.404 61.5424 227.529 61.8415 226.733 62.3766C223.665 62.856 223.012 64.4947 222.177 64.6382C220.645 61.5024 223.627 60.6375 223.296 57.2109Z" fill="#162323"/>
<path d="M227.44 60.641C228.83 60.391 229.898 58.9813 230.846 59.0295C231.078 59.9563 231.178 60.2989 231.567 61.1648C230.958 62.1762 230.775 62.4701 230.425 63.5816C230.404 64.0904 230.488 63.8741 230.2 64.2641C228.602 65.1014 226.413 64.6536 226.733 62.3758C227.529 61.8411 227.404 61.542 227.44 60.641Z" fill="#E7B368"/>
<path d="M236.71 76.5377C235.452 75.9092 234.903 71.7159 234.686 70.2851L234.843 70.2246C235.603 70.9856 235.623 73.5656 237.059 74.1858L237.176 74.8302L236.71 76.5377Z" fill="#559A85"/>
<path d="M224.715 75.2479C227.719 75.2062 229.408 76.7454 231.931 75.5484C232.245 75.3992 232.207 75.3492 232.581 75.3576C231.395 77.1708 226.355 75.9151 224.715 75.2479Z" fill="#559A85"/>
<path d="M207.264 71.8413C206.56 71.0009 205.42 69.6951 205.287 68.6125L205.511 68.4248C206.133 68.5055 206.439 68.7889 206.866 69.2345C208.193 70.6162 209.658 71.9101 210.93 73.3352C211.138 73.5659 211.559 74.8511 211.674 75.1915C213.439 76.1538 217.087 77.6758 219.076 78.6C219.576 76.9499 220.074 74.341 220.485 72.5716L220.464 72.3369C220.503 72.3536 220.905 72.5246 220.905 72.5246C221.872 74.5099 223.04 76.3762 223.129 78.6597C223.158 79.4032 223.16 80.1278 223.144 80.8804C222.793 81.4471 222.451 82.0187 222.065 82.5608C221.949 82.7582 221.818 82.945 221.67 83.1187C219.594 85.5772 212.606 78.8606 210.533 77.7412C209.391 77.1249 207.565 76.9876 206.692 76.0586C205.248 74.5256 205.952 73.0729 207.264 71.8413Z" fill="#E7B368"/>
<path d="M220.467 72.3369C220.506 72.3536 220.908 72.5251 220.908 72.5251C221.875 74.5099 223.042 76.3767 223.131 78.6601C223.161 79.4032 223.163 80.1278 223.146 80.8805C222.796 81.4472 222.454 82.0187 222.067 82.5608C221.505 81.9314 221.598 80.7006 221.779 79.8892C222.31 77.5 220.529 74.5401 220.488 72.572L220.467 72.3369Z" fill="#E1A26A"/>
<path d="M207.436 73.2744C207.763 73.3582 208.47 73.3244 208.697 73.5933C209.202 74.1894 209.633 74.7894 209.632 75.5763L209.429 75.6259L208.895 75.0364C208.391 75.4991 208.143 75.7724 207.51 76.0658L207.464 76.0321C207.876 74.7149 208.599 74.0596 207.436 73.2744Z" fill="#E1A26A"/>
<path d="M222.36 50.0718C221.046 50.0108 217.919 50.0736 217.447 48.4936C217.965 47.7743 219.442 47.5905 220.304 47.5273C221.211 48.3375 221.957 47.9791 222.757 48.5011C222.666 48.9814 222.582 49.6604 222.36 50.0718Z" fill="#532F31"/>
<path d="M245.099 140.907C244.98 141.633 245.118 143.004 245.436 143.674L245.597 143.776C246.377 144.99 246.397 146.235 246.743 147.586C247.916 147.386 249.665 147.858 250.607 148.57C251.566 150.382 246 151.074 244.822 151.236C235.773 152.481 226.194 151.427 217.319 149.428C216.781 149.307 216.238 148.858 216.02 148.362C216.27 146.64 220.176 146.273 221.525 146.459C221.584 146.705 221.66 146.883 221.747 147.118C223.735 148.66 228.91 146.866 231.241 146.793C231.997 146.769 232.843 146.581 233.524 146.236C235.075 146.029 237.69 145.937 239.161 146.434L239.319 146.442L239.778 145.862L240.296 145.495L240.687 145.071C240.86 144.457 240.929 144.268 241.212 143.698C241.329 142.985 241.228 142.274 240.952 141.612C242.658 141.543 243.503 141.349 245.099 140.907Z" fill="black" fill-opacity="0.06"/>
<path d="M245.099 140.907C244.981 141.633 245.119 143.004 245.436 143.674L245.597 143.776C246.377 144.99 246.397 146.235 246.744 147.586L246.57 147.884C245.571 148.59 235.105 151.767 235.326 149.059C236.133 147.908 237.36 147.54 238.647 146.965C238.813 146.896 238.952 146.718 239.09 146.578L239.161 146.434L239.319 146.442L239.778 145.862L240.296 145.495L240.688 145.071C240.86 144.457 240.93 144.268 241.212 143.698C241.329 142.985 241.229 142.274 240.952 141.612C242.658 141.543 243.504 141.349 245.099 140.907Z" fill="#2A4649"/>
<path d="M245.096 140.907C244.977 141.633 245.115 143.004 245.433 143.674L245.594 143.776C245.332 144.021 245.207 144.389 244.967 144.572C243.387 145.771 243.43 143.784 241.415 143.705L241.209 143.698C241.326 142.985 241.226 142.274 240.949 141.612C242.655 141.543 243.5 141.349 245.096 140.907Z" fill="#E7B368"/>
<path d="M240.686 145.069C241.305 145.362 241.607 145.35 242.265 145.368L242.333 145.59C241.537 146.154 241.153 145.836 240.295 145.493L240.686 145.069Z" fill="#A7C2B9"/>
<path d="M239.318 146.442C240.207 146.605 240.322 146.642 241.093 147.108L240.424 147.704C240.116 147.178 239.67 147.153 239.09 146.579L239.16 146.435L239.318 146.442Z" fill="#2A4649"/>
<path d="M239.318 146.443L239.777 145.863C240.35 146.139 241.021 146.343 241.217 146.859L241.093 147.109C240.322 146.642 240.207 146.606 239.318 146.443Z" fill="#A7C2B9"/>
<path d="M238.643 146.965C238.809 146.897 238.948 146.719 239.086 146.579C239.667 147.153 240.113 147.178 240.421 147.705C239.817 147.752 239.197 147.284 238.643 146.965Z" fill="#A7C2B9"/>
<path d="M228.177 139.512C229.97 139.578 230.799 139.546 232.547 139.164C232.302 139.756 232.184 141.442 232.618 141.932C233.306 143.238 233.391 144.777 233.524 146.236C232.843 146.581 231.998 146.77 231.241 146.794C228.911 146.867 223.736 148.661 221.747 147.119C221.66 146.883 221.585 146.705 221.525 146.46C222.591 145.372 223.95 145.08 225.404 144.58L225.993 144.982L226.119 144.81L226.191 144.879L225.998 144.964C226.173 145.03 226.44 145.175 226.57 145.125C226.221 144.723 226.126 144.653 225.93 144.172L226.02 143.959C226.473 143.915 226.989 144.214 227.427 144.409C227.356 144.119 227.029 143.821 226.81 143.545L227.09 143.26C227.434 143.02 227.294 143.177 227.453 142.719C227.761 142.107 227.805 142.035 228.361 141.639L228.511 141.392C228.489 140.548 228.41 140.327 228.177 139.512Z" fill="#2A4649"/>
<path d="M228.176 139.512C229.968 139.578 230.797 139.546 232.546 139.164C232.301 139.756 232.183 141.442 232.617 141.932C230.301 144.763 230.551 142.221 228.36 141.639L228.51 141.392C228.488 140.548 228.409 140.327 228.176 139.512Z" fill="#E7B368"/>
<path d="M227.088 143.26C227.432 143.02 227.292 143.177 227.452 142.719C228.127 143.2 228.795 143.693 229.456 144.196C228.726 143.95 227.581 143.405 227.088 143.26Z" fill="#A7C2B9"/>
<path d="M238.981 90.3027C239.042 90.6414 239.012 91.1524 239.044 91.3142C240.603 99.22 240.506 107.345 241.054 115.414C241.241 119.184 242.569 122.043 243.282 125.53C243.644 127.303 245.723 140.127 245.095 140.908C243.499 141.35 242.654 141.544 240.948 141.612C241.225 142.275 241.325 142.986 241.208 143.699C240.925 144.269 240.856 144.458 240.683 145.072L240.292 145.496L239.774 145.863L239.315 146.443L239.157 146.435C237.687 145.938 235.071 146.03 233.52 146.237C233.387 144.777 233.301 143.238 232.614 141.932C232.18 141.442 232.298 139.756 232.543 139.164C230.795 139.546 229.966 139.578 228.173 139.512C226.789 138.362 223.457 115.329 222.812 111.521C222.78 109.287 222.347 105.913 222.173 103.562C221.875 99.5529 221.799 95.9303 221.76 91.9199C222.311 91.6949 226.076 92.4796 227.206 92.5617C229.938 92.7603 232.068 91.6081 234.509 91.3019C233.685 91.7484 232.943 92.2059 232.147 92.6963C233.387 93.7376 235.353 94.7982 236.861 95.3307C237.295 92.7968 237.333 92.3195 238.981 90.3027Z" fill="#003D3A"/>
<path d="M232.544 139.162C232.985 138.217 232.511 126.119 232.179 124.352C231.207 119.194 230.857 117.16 231.271 111.727C232.138 115.17 239.423 140.632 240.8 141.516C240.828 141.534 240.857 141.548 240.885 141.565C240.907 141.579 240.928 141.596 240.949 141.611C241.226 142.273 241.326 142.984 241.209 143.697C240.926 144.267 240.857 144.456 240.685 145.07L240.293 145.494L239.775 145.861L239.316 146.441L239.158 146.433C237.688 145.936 235.073 146.028 233.521 146.235C233.388 144.776 233.303 143.237 232.615 141.93C232.181 141.44 232.299 139.754 232.544 139.162Z" fill="#F2F9F9"/>
<path d="M135.951 130.852C137.46 131.816 138.627 132.536 140.343 133.11C140.982 133.554 142.596 133.996 143.428 134.305C144.473 134.542 146.842 135.163 147.786 134.697C147.451 138.217 149.344 139.628 146.794 143.504C146.731 145.597 146.812 147.79 146.739 149.774C146.736 151.189 146.965 152.005 147.494 153.321C148.626 153.846 149.365 154.055 150.005 155.136C150.83 155.119 153.53 155.361 153.996 156.029C151.897 158.419 99.2603 158.781 95.8945 156.137L95.9116 155.815C97.6511 154.466 106.25 154.608 108.943 154.246L109.156 154.216C110.622 154.945 111.988 155.487 113.676 155.375C115.054 155.246 115.795 155.335 117.149 155.473C116.654 154.44 116.127 152.995 115.127 152.5C116.186 141.288 124.438 140.068 132.192 134.168C133.483 133.186 134.764 131.964 135.951 130.852Z" fill="#E7B368"/>
<path d="M133.178 153.579C133.536 153.743 134.141 153.991 134.435 154.221C134.521 154.936 134.68 155.211 134.414 155.778C134.278 155.835 133.118 156.267 133.147 156.25C133.007 155.507 132.727 155.009 132.406 154.328L133.178 153.579Z" fill="#F3E7C7"/>
<path d="M143.427 134.307C144.472 134.543 146.841 135.165 147.785 134.698C147.45 138.218 149.344 139.63 146.794 143.505C145.21 145.455 143.76 146.802 141.64 148.186C141.559 145.16 142.452 142.92 142.311 140.031C142.184 137.436 142.371 136.653 143.427 134.307Z" fill="#F3E7C7"/>
<path d="M133.087 149.21L133.626 149.856L135.649 149.691C135.711 150.172 135.775 150.821 135.875 151.281C135.388 151.381 134.273 151.583 133.855 151.727C133.485 152.254 132.779 152.976 132.741 153.426L133.176 153.58L132.404 154.329C131.639 153.894 130.63 153.821 129.744 153.695L130.575 152.677C131.383 151.767 131.624 150.688 131.331 149.523C131.727 149.397 132.639 149.28 133.087 149.21Z" fill="#F3E7C7"/>
<path d="M131.333 149.523L131.052 149.586C130.899 149.093 130.735 148.603 130.558 148.117C128.777 143.318 126.4 145.41 124.775 144.66L124.78 144.499C127.409 144.146 128.92 144.438 130.925 146.332C131.471 146.847 132.934 148.538 133.088 149.21C132.641 149.28 131.728 149.397 131.333 149.523Z" fill="#CE9B4B"/>
<path d="M141.657 148.576C143.372 149.673 143.113 152.523 144.749 154.163L144.758 154.315C144.07 154.419 143.89 154.415 143.194 154.367C141.585 153.381 141.649 150.275 141.657 148.576Z" fill="#70A49D"/>
<path d="M136.008 149.666C135.621 149.409 135.572 149.476 135.498 148.934C135.349 147.834 134.939 144.5 135.236 143.594C135.568 144.097 137.299 149.081 136.976 149.457L136.008 149.666Z" fill="#CE9B4B"/>
<path d="M144.755 154.314C145.074 154.781 145.375 155.227 145.716 155.68L144.438 156.173C144.126 155.604 143.582 154.905 143.191 154.366C143.888 154.414 144.067 154.418 144.755 154.314Z" fill="#70A49D"/>
<path d="M129.746 153.695C129.171 153.832 129.052 153.85 128.463 153.842L128.455 153.634C129.048 153.122 129.449 152.926 130.13 152.546L130.577 152.676L129.746 153.695Z" fill="#CE9B4B"/>
<path d="M137.013 116.095C137.223 115.441 137.364 114.919 137.979 114.606C138.701 114.943 138.852 115.436 139.405 116.142C139.797 115.539 140.015 115.061 140.641 114.737C141.673 114.913 141.88 117.305 142.1 118.32C143.085 119.07 145.176 118.5 146.161 117.797C147.004 118.555 147.861 120.075 148.904 121.134C150.157 121.253 152.631 121.022 153.203 121.116C153.899 120.976 154.483 120.772 155.135 120.985C155.609 121.638 155.456 122.007 155.321 122.889C155.151 123.629 154.687 125.204 153.911 125.461L153.664 125.669C151.69 129.477 147.613 127.454 147.808 133.235L147.783 134.698C146.839 135.165 144.471 134.543 143.426 134.307C142.594 133.998 140.98 133.556 140.341 133.111L140.578 132.982C141.412 133.265 142.724 133.796 143.571 133.664L144.194 133.161L144.498 132.936C142.922 132.784 138.986 131.623 138.179 130.184C138.029 130.036 136.968 129.357 136.725 129.196C138.143 123.278 135.093 122.597 137.013 116.095Z" fill="#E7B368"/>
<path d="M153.203 121.116C153.899 120.975 154.483 120.771 155.134 120.984C155.609 121.637 155.456 122.006 155.32 122.888C155.151 123.629 154.687 125.203 153.91 125.46L153.664 125.668C151.689 129.476 147.613 127.453 147.807 133.234L147.783 134.697C146.839 135.164 144.47 134.543 143.425 134.306C140.904 133.966 136.064 131.062 136.064 131.062L137.032 129.126C137.032 129.126 141.905 131.928 144.415 132.681C144.8 131.122 145.402 130.132 145.788 128.722C146.033 127.824 145.727 126.589 146.303 125.495C147.267 123.662 148.233 123.129 148.904 121.134C150.157 121.252 152.63 121.021 153.203 121.116Z" fill="#F3E7C7"/>
<path d="M153.203 121.116C153.899 120.975 154.483 120.771 155.135 120.984C155.609 121.637 155.456 122.006 155.321 122.888C154.127 122.682 153.407 122.379 153.203 121.116Z" fill="#42403E"/>
<path d="M149.939 126.629C150.836 126.415 153.405 125.479 153.912 125.46L153.666 125.668C152.362 126.536 151.437 126.719 149.939 126.629Z" fill="#C29368"/>
<path d="M137.016 116.095C137.225 115.441 137.366 114.919 137.981 114.606C138.703 114.943 138.854 115.436 139.407 116.142C139.799 115.539 140.017 115.061 140.643 114.737C141.675 114.913 141.882 117.305 142.102 118.32C141.983 118.609 141.799 119.097 141.667 119.359C140.378 121.033 139.365 123.109 138.191 124.49C137.692 121.982 137.061 119.335 137.545 116.809L137.016 116.095Z" fill="#C29368"/>
<path d="M139.406 116.141C139.798 115.538 140.016 115.06 140.642 114.736C141.674 114.912 141.881 117.304 142.101 118.319C141.982 118.608 141.798 119.096 141.666 119.358C141.102 119.006 139.8 117.329 139.297 116.713L139.406 116.141Z" fill="#CE9B4B"/>
<path d="M137.016 116.095C137.225 115.441 137.366 114.919 137.981 114.606C138.703 114.943 138.854 115.436 139.407 116.142L139.298 116.714C138.725 116.218 138.672 115.994 138.03 115.924C137.681 116.321 137.699 116.3 137.545 116.809L137.016 116.095Z" fill="#E1A26A"/>
<path d="M109.155 154.217C108.347 153.409 107.828 152.727 107.647 151.555C107.512 150.619 107.764 149.669 108.346 148.925C108.887 148.227 109.685 147.775 110.561 147.669C111.804 148.65 108.625 151.793 115.127 152.5C116.127 152.995 116.654 154.44 117.148 155.473C115.795 155.335 115.053 155.246 113.675 155.376C111.988 155.487 110.621 154.946 109.155 154.217Z" fill="#CE9B4B"/>
<path d="M133.178 153.579C133.536 153.743 134.141 153.991 134.434 154.221C135.396 154.267 138.303 154.477 139.053 154.278C140.274 156.538 141.981 156.933 144.44 156.173L145.719 155.679C146.912 156.239 149.253 156.486 150.005 155.137C150.83 155.12 153.53 155.362 153.996 156.03C151.897 158.42 99.2603 158.782 95.8945 156.138L95.9116 155.816C97.6511 154.466 106.25 154.608 108.943 154.247L109.156 154.217C110.622 154.946 111.988 155.487 113.676 155.376C118.039 155.738 121.986 156.778 126.425 156.449C128.401 156.303 131.249 156.673 133.147 156.25C133.006 155.507 132.726 155.009 132.406 154.328L133.178 153.579Z" fill="#EEF7EC"/>
<path d="M133.178 153.579C133.536 153.743 134.141 153.991 134.434 154.221C135.396 154.267 138.303 154.477 139.053 154.278C140.274 156.538 141.981 156.933 144.44 156.173L145.719 155.679C146.912 156.239 149.253 156.486 150.005 155.137C150.83 155.12 153.53 155.362 153.996 156.03C151.897 158.42 99.2603 158.782 95.8945 156.138L95.9116 155.816C97.6511 154.466 106.25 154.608 108.943 154.247L109.156 154.217C110.622 154.946 111.988 155.487 113.676 155.376C118.039 155.738 121.986 156.778 126.425 156.449C128.401 156.303 131.249 156.673 133.147 156.25C133.006 155.507 132.726 155.009 132.406 154.328L133.178 153.579Z" fill="#DCE3E3"/>
<path d="M144.748 154.161C146.617 153.276 145.72 149.864 146.48 148.931L146.738 149.773C146.735 151.189 146.964 152.005 147.493 153.321C148.625 153.846 149.364 154.055 150.004 155.136C149.252 156.485 146.911 156.239 145.718 155.679C145.377 155.226 145.075 154.78 144.757 154.313L144.748 154.161Z" fill="#CE9B4B"/>
<path d="M136.976 149.457C137.396 149.845 137.42 150.077 137.617 150.638C136.935 150.947 136.621 151.102 135.875 151.281C135.775 150.821 135.711 150.172 135.648 149.69L136.008 149.666L136.976 149.457Z" fill="#70A49D"/>
<path d="M104.812 61.1218C106.634 54.4217 110.098 49.3198 116.238 45.8203C121.87 42.68 128.511 41.879 134.729 43.59C140.784 45.2795 145.921 49.3041 149.011 54.7797C150.893 58.1435 152.147 62.5957 151.89 66.475C151.368 66.2588 150.378 65.3743 149.812 65.0193C143.012 60.7594 136.088 61.9719 130.372 67.0191C125.742 59.7159 117.362 56.6923 109.128 59.296C107.636 59.7674 106.397 60.5336 104.969 61.0649L104.812 61.1218Z" fill="#7AADAA"/>
<path d="M104.812 61.1218C106.634 54.4217 110.098 49.3198 116.238 45.8203C121.87 42.68 128.511 41.879 134.729 43.59C140.784 45.2795 145.921 49.3041 149.011 54.7797C150.893 58.1435 152.147 62.5957 151.89 66.475C151.368 66.2588 150.378 65.3743 149.812 65.0193C143.012 60.7594 136.088 61.9719 130.372 67.0191C125.742 59.7159 117.362 56.6923 109.128 59.296C107.636 59.7674 106.397 60.5336 104.969 61.0649L104.812 61.1218Z" fill="black" fill-opacity="0.2"/>
<path d="M104.812 61.1208C106.634 54.4207 110.097 49.3188 116.237 45.8193C121.87 42.679 128.51 41.878 134.728 43.5891C140.783 45.2785 145.92 49.3032 149.01 54.7787C150.892 58.1426 152.146 62.5948 151.889 66.474C155.218 70.495 157.166 73.4702 156.615 79.1627C156.206 83.3304 154.14 87.159 150.883 89.7888C145.97 93.7394 138.288 94.3011 132.953 90.8752C132.069 91.2739 131.134 91.7217 130.22 92.0251L130.057 92.0732C130.055 98.1765 129.976 104.496 130.087 110.582C130.011 112.007 130.364 113.78 129.603 114.693C128.461 115.424 127.053 114.849 126.607 113.523L126.638 111.484C126.75 105.003 126.64 98.286 126.614 91.7931C126.078 91.7108 125.362 91.5209 124.818 91.3951L124.506 91.4632C120.976 93.6958 116.784 94.6404 112.638 94.1372C107.953 93.5943 103.671 91.2225 100.725 87.5379C97.6907 83.7316 96.3295 78.8573 96.9527 74.0293C97.6526 68.4214 100.307 64.8366 104.582 61.4824L104.812 61.1208Z" fill="#7AADAA"/>
<path d="M151.889 66.4736C155.217 70.4947 157.165 73.4698 156.615 79.1623C156.206 83.33 154.14 87.1586 150.882 89.7885C145.97 93.7391 138.287 94.3008 132.953 90.8748C132.069 91.2735 131.133 91.7214 130.219 92.0247L130.056 92.0728C130.032 91.036 130.043 90.3758 130.127 89.3442C130.88 89.5626 132.229 90.9434 132.746 90.7681C134.022 90.454 135.56 88.5235 136.693 88.1103C143.318 85.6939 148.152 80.7002 150.561 74.0894C151.17 72.4158 152.211 68.3152 151.889 66.4736Z" fill="#7AADAA"/>
<path d="M151.889 66.4736C155.217 70.4947 157.165 73.4698 156.615 79.1623C156.206 83.33 154.14 87.1586 150.882 89.7885C145.97 93.7391 138.287 94.3008 132.953 90.8748C132.069 91.2735 131.133 91.7214 130.219 92.0247L130.056 92.0728C130.032 91.036 130.043 90.3758 130.127 89.3442C130.88 89.5626 132.229 90.9434 132.746 90.7681C134.022 90.454 135.56 88.5235 136.693 88.1103C143.318 85.6939 148.152 80.7002 150.561 74.0894C151.17 72.4158 152.211 68.3152 151.889 66.4736Z" fill="black" fill-opacity="0.03"/>
<path d="M130.17 87.1162L130.38 86.9891C131.646 86.2084 133.77 83.9638 134.632 83.8585C134.171 85.5111 133.837 85.0184 133.491 87.3304C132.518 88.3741 131.712 89.5432 130.129 89.345C130.045 90.3765 130.034 91.0368 130.059 92.0736C130.057 98.1769 129.978 104.496 130.089 110.582C130.013 112.007 130.366 113.781 129.605 114.694C128.463 115.424 127.054 114.849 126.609 113.524L126.64 111.485C126.752 105.003 126.642 98.2864 126.616 91.7935C126.637 90.9812 126.617 90.7899 126.487 90.0013L126.07 89.8818C124.132 89.0915 123.278 88.5498 121.804 87.1138C123.64 87.6354 124.881 88.2003 126.449 89.2869C126.498 89.0251 126.627 88.7493 126.437 88.5818C124.529 86.8996 123.016 85.9376 121.654 83.667C123.79 84.7238 124.693 86.1091 126.648 86.96C128.452 86.3112 128.15 85.2537 130.17 87.1162Z" fill="#D2C8B9"/>
<path d="M130.089 110.582C130.234 111.631 130.244 112.405 130.264 113.468C132.009 113.528 134.435 113.407 135.81 114.422L135.854 114.76C134.378 116.103 123.122 115.948 121.099 115.027L120.836 114.713C121.447 113.394 125.292 113.494 126.609 113.524C127.054 114.849 128.463 115.424 129.605 114.694C130.365 113.781 130.013 112.007 130.089 110.582Z" fill="#A0AAA0"/>
<path d="M104.582 61.4824C104.472 63.1526 104.261 65.1264 104.299 66.7601C104.436 72.2099 106.485 77.4376 110.086 81.5293C113.419 85.3172 116.28 86.7824 120.758 88.8275C121.993 89.3916 122.27 90.7421 124.506 91.4632C120.976 93.6958 116.784 94.6404 112.638 94.1372C107.953 93.5943 103.671 91.2225 100.725 87.5379C97.6907 83.7316 96.3295 78.8573 96.9527 74.0293C97.6526 68.4214 100.307 64.8366 104.582 61.4824Z" fill="#7AADAA"/>
<path d="M104.582 61.4824C104.472 63.1526 104.261 65.1264 104.299 66.7601C104.436 72.2099 106.485 77.4376 110.086 81.5293C113.419 85.3172 116.28 86.7824 120.758 88.8275C121.993 89.3916 122.27 90.7421 124.506 91.4632C120.976 93.6958 116.784 94.6404 112.638 94.1372C107.953 93.5943 103.671 91.2225 100.725 87.5379C97.6907 83.7316 96.3295 78.8573 96.9527 74.0293C97.6526 68.4214 100.307 64.8366 104.582 61.4824Z" fill="black" fill-opacity="0.03"/>
</svg>
