<svg width="348" height="219" viewBox="0 0 348 219" fill="none" xmlns="http://www.w3.org/2000/svg">
<rect width="348" height="219" fill="#E5F4F4"/>
<path d="M239.675 85.0176C239.736 85.3562 239.707 85.8672 239.738 86.029C241.297 93.9348 241.2 102.06 241.748 110.129C243.503 110.173 248.036 110.463 249.671 110.996C250.841 107.551 253.778 106.809 256.68 108.786C257.481 106.834 258.423 105.355 260.466 104.494C262.157 103.785 264.06 103.777 265.758 104.471C268.001 105.408 269.233 107.261 269.745 109.569C270.923 108.868 271.878 108.411 273.257 108.788C275.653 109.443 276.11 111.32 276.357 113.411C276.944 113.824 278.852 113.723 279.436 114.517C279.099 114.977 278.068 115.143 277.522 115.228C276.997 115.309 276.47 115.38 275.944 115.437L275.918 115.89C276.681 116.46 277.997 116.708 278.905 117.023C281.594 117.954 287.131 119.942 287.629 123.123C287.764 123.989 287.545 124.704 287.012 125.386C282.708 130.908 259.613 131.819 258.849 134.804C259.56 136.617 267.243 137.917 269.447 138.614C274.825 140.315 280.107 141.734 284.879 144.893C294.596 151.327 284.91 157.499 278.112 159.883C261.45 165.725 243.304 167.879 225.77 169.347C209.367 170.642 192.917 171.221 176.464 171.079C151.809 171.056 126.806 169.883 102.447 165.951C93.7843 164.452 84.2411 162.486 76.2002 159.038C72.0539 157.259 65.5829 153.499 67.9177 148.461C69.945 144.086 78.4802 141.498 82.6787 140.151C84.4552 139.581 90.0726 138.368 90.638 137.117C90.3981 136.575 89.9823 136.411 89.4463 136.21C83.2568 133.881 63.9696 133.307 60.9606 127.062C60.5935 126.301 60.6282 125.499 60.9212 124.723C62.098 121.605 65.5 120.658 67.9208 118.856C69.2143 117.809 70.2262 117.756 71.8193 117.543C71.7236 113.444 73.6058 111.532 77.6775 112.997C78.4548 103.479 88.4278 101.808 92.9391 109.141C93.4461 108.463 93.979 107.886 94.7067 107.44C95.9717 106.67 97.4924 106.438 98.9294 106.797C100.792 107.254 101.769 108.338 102.727 109.886C105.241 109.459 111.635 108.341 113.979 108.352L117.277 107.744C133.574 105.849 149.972 104.964 166.378 105.094C167.845 105.107 173.961 105.132 175.155 105.437C176.806 104.9 179.186 105.189 180.958 104.954C182.338 104.77 183.775 104.699 184.698 105.886C188.024 105.823 192.817 106.173 196.219 106.364L213.86 107.408C216.549 107.587 220.821 108.013 223.418 107.995C223.534 107.188 223.457 106.931 223.506 106.236C223.473 104.002 223.041 100.628 222.867 98.2768C222.569 94.2677 222.493 90.6451 222.454 86.6348C223.005 86.4098 226.77 87.1945 227.9 87.2765C230.632 87.4752 232.762 86.3229 235.203 86.0168C234.387 86.459 233.652 86.9119 232.864 87.3969L232.841 87.4112C234.081 88.4525 236.047 89.513 237.555 90.0455C237.989 87.5116 238.027 87.0344 239.675 85.0176Z" fill="white" fill-opacity="0.5"/>
<path d="M77.6771 112.996C78.4544 103.479 88.4274 101.808 92.9382 109.14C93.4453 108.462 93.9782 107.885 94.7059 107.439C95.9713 106.669 97.4916 106.438 98.9285 106.797C100.791 107.253 101.769 108.337 102.726 109.886C103.137 111.088 103.249 111.598 103.396 112.861C107.031 111.486 108.702 113.812 108.514 117.208C109.596 117.335 111.395 117.424 112.203 118.092L112.271 118.405C111.864 118.982 110.707 119.106 110.052 119.22C104.633 120.168 72.1382 121.877 68.3121 119.182C68.1721 119.084 68.0454 118.972 67.9199 118.856C69.2134 117.809 70.2253 117.756 71.8184 117.543C71.7228 113.443 73.6049 111.531 77.6771 112.996Z" fill="#BAE6CC"/>
<path d="M256.683 108.784C257.485 106.833 258.427 105.354 260.47 104.493C262.161 103.784 264.064 103.776 265.762 104.47C268.005 105.407 269.237 107.26 269.749 109.568C270.927 108.866 271.882 108.409 273.26 108.786C275.657 109.442 276.114 111.318 276.361 113.409C276.948 113.823 278.856 113.721 279.44 114.516C279.103 114.975 278.072 115.141 277.526 115.227C277.001 115.308 276.474 115.378 275.948 115.436C274.622 115.351 272.448 115.535 271.191 115.536C267.847 115.539 247.073 115.848 245.658 113.98C246.231 113.182 248.438 112.918 249.453 112.719C249.489 112.109 249.578 111.593 249.675 110.994C250.844 107.55 253.782 106.808 256.683 108.784Z" fill="#BAE6CC"/>
<path d="M183.464 145.885C183.094 146.55 183.008 146.778 183.247 147.461C184.397 148.516 185.752 148.362 186.991 147.556C187.935 146.941 187.997 146.132 188.203 145.106L188.339 145.545C189.414 146.017 197.38 145.501 199.34 145.789C199.093 146.327 198.959 146.527 199.018 147.12C199.669 148.673 201.926 148.123 203.145 147.648C204.001 147.314 204.349 146.632 204.824 145.896C206.311 146.3 209.163 146.049 210.727 146.342C210.723 146.98 210.67 147.105 211.022 147.591C212.341 148.517 214.325 147.968 215.239 146.687C216.433 146.771 219.766 147.003 220.57 147.733L220.56 148.008C217.083 150.119 165.07 150.4 163.527 147.807C164.589 146.483 173.546 146.239 175.633 146.178C175.559 146.57 175.562 146.728 175.558 147.131C176.219 148.47 177.975 148.151 179.137 147.74C180.262 147.342 180.477 146.735 180.938 145.734C181.734 145.971 182.627 145.828 183.464 145.885Z" fill="black" fill-opacity="0.09"/>
<path d="M174.697 119.617C176.6 119.695 184.165 117.111 185.188 115.597C187.145 121.434 197.626 122.15 202.796 122.348C206.811 122.502 208.974 124.65 212.82 125.143C216.108 125.565 219.18 124.693 221.279 122.04C221.674 121.554 222.164 120.805 222.789 121.073C223.187 121.966 222.944 122.955 222.618 123.83C220.669 129.066 216.3 129.262 211.496 128.476C211.726 129.826 211.813 132.503 211.222 133.707C211.02 137.064 212.382 136.709 214.381 138.356C214.83 140.853 215.446 144.184 215.241 146.686C214.326 147.967 212.343 148.516 211.023 147.59C210.672 147.104 210.724 146.979 210.729 146.341C209.165 146.048 206.313 146.3 204.826 145.895C204.351 146.631 204.003 147.313 203.146 147.647C201.928 148.122 199.671 148.673 199.019 147.119C198.96 146.526 199.095 146.326 199.342 145.789C197.381 145.5 189.415 146.017 188.341 145.543L188.205 145.106C187.999 146.13 187.936 146.94 186.992 147.554C185.754 148.362 184.398 148.515 183.249 147.461C183.01 146.778 183.096 146.549 183.466 145.884C182.628 145.827 181.735 145.97 180.939 145.733C180.479 146.734 180.263 147.341 179.138 147.739C177.977 148.15 176.22 148.469 175.559 147.13C175.564 146.728 175.56 146.569 175.635 146.177C176.316 145.354 176.594 145.335 177.602 145.163C178.403 141.72 178.566 135.851 177.589 132.446C176.975 130.467 176.095 128.572 175.608 126.554C175.059 124.283 174.911 121.936 174.697 119.617Z" fill="#E6DCCD"/>
<path d="M206.468 139.122C206.196 137.218 209.859 133.609 211.223 133.707C211.021 137.064 212.383 136.709 214.381 138.355C214.83 140.853 215.447 144.184 215.241 146.686C214.327 147.966 212.343 148.516 211.024 147.59C210.672 147.104 210.725 146.979 210.73 146.341C209.165 146.048 206.313 146.299 204.826 145.894C205.509 144.541 206.45 143.186 207.192 141.714C206.95 140.8 206.627 140.109 206.468 139.122Z" fill="#E6DCCD"/>
<path d="M206.468 139.122C206.196 137.218 209.859 133.609 211.223 133.707C211.021 137.064 212.383 136.709 214.381 138.355C214.83 140.853 215.447 144.184 215.241 146.686C214.327 147.966 212.343 148.516 211.024 147.59C210.672 147.104 210.725 146.979 210.73 146.341C209.165 146.048 206.313 146.299 204.826 145.894C205.509 144.541 206.45 143.186 207.192 141.714C206.95 140.8 206.627 140.109 206.468 139.122Z" fill="black" fill-opacity="0.06"/>
<path d="M206.468 139.122C207.682 139.692 210.202 140.805 211.212 141.544C211.794 142.838 211.971 143.691 212.218 145.09C211.511 145.539 211.245 145.672 210.73 146.341C209.165 146.047 206.313 146.299 204.826 145.894C205.509 144.54 206.45 143.185 207.192 141.713C206.95 140.799 206.627 140.109 206.468 139.122Z" fill="#F2F9F9"/>
<path d="M184.008 135.25L184.232 135.365C185.376 135.8 188.578 136.014 188.879 136.472C188.736 139.18 188.622 142.461 188.203 145.107C187.997 146.131 187.935 146.941 186.991 147.556C185.752 148.362 184.396 148.516 183.247 147.462C183.008 146.778 183.094 146.55 183.464 145.885C182.627 145.828 181.734 145.971 180.938 145.734C182.099 142.794 182.974 139.436 183.749 136.352L183.957 136.256C183.941 135.996 183.989 135.529 184.008 135.25Z" fill="#E6DCCD"/>
<path d="M184.008 135.25L184.232 135.365C185.376 135.8 188.578 136.014 188.879 136.472C188.736 139.18 188.622 142.461 188.203 145.107C187.997 146.131 187.935 146.941 186.991 147.556C185.752 148.362 184.396 148.516 183.247 147.462C183.008 146.778 183.094 146.55 183.464 145.885C182.627 145.828 181.734 145.971 180.938 145.734C182.099 142.794 182.974 139.436 183.749 136.352L183.957 136.256C183.941 135.996 183.989 135.529 184.008 135.25Z" fill="black" fill-opacity="0.06"/>
<path d="M184.012 135.247C184.257 134.5 184.476 133.629 184.967 133.031L184.818 133.316L184.92 133.456C184.724 134.071 184.525 134.798 184.235 135.363L184.012 135.247Z" fill="#006862"/>
<path d="M175.155 105.436C176.806 104.899 179.186 105.188 180.958 104.953C182.338 104.769 183.775 104.698 184.698 105.885C185.07 107.973 185.233 110.028 185.502 112.124C185.82 113.756 186.071 114.162 185.187 115.596C184.163 117.11 176.599 119.694 174.696 119.616L174.39 117.706C173.345 116.109 171.067 116.009 169.103 114.037L168.756 113.499C167.928 112.026 167.693 111.486 167.512 109.818C168.841 109.498 169.371 109.085 169.691 107.754C170.951 107.729 172.039 107.875 173.49 107.817C174.077 106.889 174.451 106.292 175.155 105.436Z" fill="#E6DCCD"/>
<path d="M179.398 110.796L179.677 111.112C179.044 115.128 179.676 118.264 183.758 114.283C184.457 113.603 184.706 112.159 185.503 112.124C185.821 113.756 186.073 114.162 185.187 115.596C184.165 117.11 176.6 119.694 174.697 119.616L174.391 117.706C174.647 117.295 175.807 117.515 176.36 117.483C177.618 117.411 178.583 117.218 179.783 116.895C179.475 116.445 179.164 115.997 178.85 115.551C178.894 113.854 179.088 112.453 179.398 110.796Z" fill="#E6DCCD"/>
<path d="M179.398 110.796L179.677 111.112C179.044 115.128 179.676 118.264 183.758 114.283C184.457 113.603 184.706 112.159 185.503 112.124C185.821 113.756 186.073 114.162 185.187 115.596C184.165 117.11 176.6 119.694 174.697 119.616L174.391 117.706C174.647 117.295 175.807 117.515 176.36 117.483C177.618 117.411 178.583 117.218 179.783 116.895C179.475 116.445 179.164 115.997 178.85 115.551C178.894 113.854 179.088 112.453 179.398 110.796Z" fill="#A8A8A8"/>
<path d="M168.758 113.501C169.627 113.21 171.765 114.135 172.798 114.28L172.823 114.458C171.556 114.62 170.098 113.979 169.105 114.038L168.758 113.501Z" fill="#006862"/>
<path d="M179.398 110.797C179.472 109.903 179.722 107.484 179.941 106.644C180.053 108.474 179.943 109.335 179.678 111.114L179.398 110.797Z" fill="#006862"/>
<path d="M167.513 109.818C167.433 108.899 167.248 108.455 167.915 107.776C168.542 107.535 169.015 107.667 169.693 107.755C169.373 109.085 168.843 109.499 167.513 109.818Z" fill="#2A4649"/>
<path d="M188.879 136.472C189.219 136.227 197.876 135.554 198.883 135.586C199.895 139.049 201.255 139.221 202.79 142.007C202.321 143.465 202.166 145.01 200.449 145.282C200.169 145.326 199.575 145.613 199.34 145.789C197.38 145.5 189.414 146.017 188.34 145.544L188.203 145.106C188.622 142.46 188.736 139.179 188.879 136.472Z" fill="#F2F9F9"/>
<path d="M180.938 145.732C182.099 142.793 182.974 139.434 183.749 136.351L183.957 136.255C184.635 139.569 185.148 141.758 185.007 145.168L183.464 145.884C182.627 145.826 181.734 145.97 180.938 145.732Z" fill="#F2F9F9"/>
<path d="M226.807 161.051C227.214 159.585 228.696 152 230.295 152.414C231.322 153.336 232.697 159.397 233.18 161.188C233.536 161.364 234.006 161.577 234.339 161.775C235.403 161.728 235.791 161.993 236.733 162.51C235.762 162.954 235.084 163.214 234.027 163.43C233.269 163.234 231.74 163.25 230.844 163.191C230.491 163.147 229.576 163.181 229.174 163.188C228.139 163.259 227.298 163.134 226.334 163.51C225.376 163.436 223.919 163.352 223.396 162.431C223.552 161.64 224.846 161.628 225.518 161.706L226.807 161.051Z" fill="#E7B368"/>
<path d="M226.334 163.51C225.376 163.436 223.919 163.352 223.396 162.431C223.552 161.639 224.846 161.628 225.518 161.706C225.653 163.574 227.725 162.971 229.174 163.188C228.139 163.259 227.298 163.134 226.334 163.51Z" fill="#E7B368"/>
<path d="M226.334 163.51C225.376 163.436 223.919 163.352 223.396 162.431C223.552 161.639 224.846 161.628 225.518 161.706C225.653 163.574 227.725 162.971 229.174 163.188C228.139 163.259 227.298 163.134 226.334 163.51Z" fill="white" fill-opacity="0.76"/>
<path d="M234.339 161.774C235.403 161.727 235.791 161.992 236.733 162.509C235.762 162.953 235.084 163.213 234.027 163.429C233.269 163.233 231.74 163.249 230.844 163.19C232.351 162.937 233.926 163.541 234.339 161.774Z" fill="#E7B368"/>
<path d="M234.339 161.774C235.403 161.727 235.791 161.992 236.733 162.509C235.762 162.953 235.084 163.213 234.027 163.429C233.269 163.233 231.74 163.249 230.844 163.19C232.351 162.937 233.926 163.541 234.339 161.774Z" fill="white" fill-opacity="0.76"/>
<path d="M229.172 163.187C229.574 163.18 230.489 163.146 230.842 163.19C231.738 163.249 233.267 163.234 234.025 163.43C231.854 163.691 228.482 164.032 226.332 163.509C227.296 163.133 228.137 163.258 229.172 163.187Z" fill="#E7B368"/>
<path d="M229.172 163.187C229.574 163.18 230.489 163.146 230.842 163.19C231.738 163.249 233.267 163.234 234.025 163.43C231.854 163.691 228.482 164.032 226.332 163.509C227.296 163.133 228.137 163.258 229.172 163.187Z" fill="white" fill-opacity="0.92"/>
<path d="M238.707 154.48C239.032 153.307 240.218 147.239 241.497 147.57C242.319 148.307 243.419 153.156 243.805 154.589C244.09 154.73 244.466 154.9 244.732 155.058C245.584 155.021 245.894 155.233 246.648 155.646C245.871 156.002 245.328 156.21 244.483 156.383C243.876 156.226 242.653 156.239 241.936 156.191C241.654 156.156 240.922 156.183 240.601 156.189C239.772 156.246 239.1 156.146 238.328 156.447C237.562 156.388 236.397 156.32 235.979 155.584C236.103 154.95 237.138 154.941 237.676 155.004L238.707 154.48Z" fill="#E7B368"/>
<path d="M238.328 156.448C237.562 156.388 236.397 156.321 235.979 155.584C236.103 154.951 237.138 154.942 237.676 155.005C237.784 156.499 239.441 156.017 240.601 156.19C239.772 156.247 239.1 156.147 238.328 156.448Z" fill="#E7B368"/>
<path d="M238.328 156.448C237.562 156.388 236.397 156.321 235.979 155.584C236.103 154.951 237.138 154.942 237.676 155.005C237.784 156.499 239.441 156.017 240.601 156.19C239.772 156.247 239.1 156.147 238.328 156.448Z" fill="white" fill-opacity="0.76"/>
<path d="M244.733 155.061C245.585 155.024 245.895 155.235 246.649 155.649C245.872 156.004 245.329 156.212 244.484 156.385C243.877 156.229 242.654 156.241 241.938 156.194C243.143 155.991 244.404 156.475 244.733 155.061Z" fill="#E7B368"/>
<path d="M244.733 155.061C245.585 155.024 245.895 155.235 246.649 155.649C245.872 156.004 245.329 156.212 244.484 156.385C243.877 156.229 242.654 156.241 241.938 156.194C243.143 155.991 244.404 156.475 244.733 155.061Z" fill="white" fill-opacity="0.76"/>
<path d="M240.6 156.19C240.922 156.184 241.654 156.158 241.936 156.192C242.653 156.24 243.876 156.227 244.482 156.384C242.746 156.593 240.048 156.866 238.328 156.448C239.099 156.147 239.772 156.247 240.6 156.19Z" fill="#E7B368"/>
<path d="M240.6 156.19C240.922 156.184 241.654 156.158 241.936 156.192C242.653 156.24 243.876 156.227 244.482 156.384C242.746 156.593 240.048 156.866 238.328 156.448C239.099 156.147 239.772 156.247 240.6 156.19Z" fill="white" fill-opacity="0.92"/>
<path d="M223.022 42.0855C223.713 40.3082 224.913 37.8754 226.829 37.2915C233.396 35.2909 237.896 38.6271 237.348 45.2629C237.617 45.8691 238.332 47.1455 238.411 47.6723C239.59 55.4991 244.084 49.8325 243.908 59.0397C246.234 62.7593 246.699 63.6532 243.069 66.6635L242.58 67.1455C243.299 69.6746 244.819 73.9446 244.406 76.4917C243.936 79.3941 240.824 82.5184 239.676 85.0177C238.027 87.0341 237.99 87.5113 237.556 90.0457C236.047 89.5128 234.082 88.4526 232.841 87.4113C233.637 86.9209 234.379 86.463 235.203 86.0169C232.762 86.3231 230.632 87.4749 227.9 87.2766C226.77 87.1946 223.005 86.4095 222.454 86.6349C221.813 84.1865 223.86 79.2055 223.838 75.5961C223.854 74.8434 223.852 74.1192 223.823 73.3757C223.734 71.0923 222.566 69.2259 221.599 67.2407C221.599 67.2407 221.197 67.0692 221.158 67.0525C219.855 66.159 222.64 60.7876 222.869 59.3533C221.337 56.2176 224.32 55.3526 223.989 51.9261C222.683 49.4781 223.531 47.7513 223.212 45.938L223.178 45.6617L223.055 44.787C223.277 44.3756 223.36 43.6966 223.451 43.2163C222.651 42.6944 221.905 43.0527 220.998 42.2426C221.849 42.1066 222.16 42.0785 223.022 42.0855Z" fill="#B1F3F0"/>
<path d="M223.021 42.0855C223.712 40.3082 224.913 37.8754 226.829 37.2915C233.395 35.2909 237.896 38.6271 237.348 45.2629C237.616 45.8691 238.332 47.1455 238.411 47.6723C239.59 55.4991 244.084 49.8325 243.907 59.0397C246.233 62.7593 246.699 63.6532 243.069 66.6635C241.475 61.9732 241.773 58.1862 236.17 57.158C234.946 58.9845 235.165 59.842 234.479 61.7846C234.043 63.0172 232.658 63.0426 231.551 62.4904C230.807 61.4767 231.746 61.1355 231.754 60.131C231.755 60.0503 231.216 58.6664 231.117 58.2971C231.468 57.1857 231.65 56.8918 232.259 55.8803C231.871 55.0145 231.77 54.6719 231.538 53.7451C230.591 53.6968 229.522 55.1066 228.132 55.3566L227.948 54.0754C225.319 54.3469 225.655 53.5692 224.071 52.0051L223.989 51.9261C222.682 49.4781 223.531 47.7513 223.212 45.938L223.178 45.6617L223.054 44.787C223.276 44.3756 223.36 43.6966 223.451 43.2163C222.651 42.6944 221.905 43.0527 220.998 42.2426C221.849 42.1066 222.16 42.0785 223.021 42.0855Z" fill="#0A1111"/>
<path d="M223.021 42.0855C223.712 40.3082 224.913 37.8754 226.829 37.2915C233.395 35.2909 237.896 38.6271 237.348 45.2629C235.961 44.5633 233.392 44.5401 231.739 44.0396C231.361 44.098 230.231 44.2414 229.951 44.3809C228.995 44.5006 228.476 44.5116 227.507 44.5046C226.288 44.2774 224.906 43.5405 223.451 43.2163C222.651 42.6944 221.905 43.0527 220.998 42.2426C221.849 42.1066 222.16 42.0785 223.021 42.0855Z" fill="#680006"/>
<path d="M223.021 42.0855C223.712 40.3082 224.913 37.8754 226.829 37.2915C233.395 35.2909 237.896 38.6271 237.348 45.2629C235.961 44.5633 233.392 44.5401 231.739 44.0396C231.361 44.098 230.231 44.2414 229.951 44.3809C228.995 44.5006 228.476 44.5116 227.507 44.5046C226.288 44.2774 224.906 43.5405 223.451 43.2163C222.651 42.6944 221.905 43.0527 220.998 42.2426C221.849 42.1066 222.16 42.0785 223.021 42.0855Z" fill="#606060" fill-opacity="0.6"/>
<path d="M220.998 42.2422C224.628 42.4431 228.37 41.7435 231.739 44.0392C231.361 44.0976 230.231 44.241 229.951 44.3805C228.995 44.5002 228.476 44.5112 227.507 44.5042C226.288 44.277 224.906 43.5401 223.451 43.2159C222.651 42.694 221.905 43.0523 220.998 42.2422Z" fill="#680006"/>
<path d="M220.998 42.2422C224.628 42.4431 228.37 41.7435 231.739 44.0392C231.361 44.0976 230.231 44.241 229.951 44.3805C228.995 44.5002 228.476 44.5112 227.507 44.5042C226.288 44.277 224.906 43.5401 223.451 43.2159C222.651 42.694 221.905 43.0523 220.998 42.2422Z" fill="#494949" fill-opacity="0.4"/>
<path d="M223.453 43.2158C224.909 43.5404 226.29 44.2769 227.509 44.5041C228.478 44.5111 228.998 44.5001 229.954 44.3804C230.723 45.5081 231.205 46.2419 232.218 47.1994C232.7 46.7818 233 46.427 233.613 46.3222C234.449 46.5274 234.896 47.2385 234.852 48.0692C234.337 49.0592 233.529 49.368 232.712 49.9496C232.498 50.1027 232.018 51.7072 231.842 52.0787L231.541 53.7446C230.593 53.6963 229.524 55.1061 228.134 55.3561L227.95 54.0749C225.322 54.3464 225.657 53.5687 224.073 52.0046L223.991 51.9256C222.685 49.4776 223.533 47.7512 223.215 45.9375L223.18 45.6612L223.057 44.7865C223.279 44.3751 223.362 43.6961 223.453 43.2158Z" fill="#E7B368"/>
<path d="M223.453 43.2158C224.909 43.5404 226.29 44.2769 227.509 44.5041C226.492 45.2278 225.348 44.5027 224.95 45.1795L224.999 45.3686C224.169 45.3747 223.971 45.444 223.18 45.6612L223.057 44.7865C223.279 44.3751 223.362 43.6961 223.453 43.2158Z" fill="#E1A26A"/>
<path d="M227.951 54.0743C229.548 53.7747 230.501 52.9698 231.843 52.0781L231.542 53.744C230.594 53.6958 229.525 55.1055 228.135 55.3555L227.951 54.0743Z" fill="#E1A26A"/>
<path d="M223.178 45.6622C223.969 45.4451 224.166 45.3758 224.997 45.3701L225.002 45.6798C224.577 45.768 223.574 46.0324 223.212 45.939L223.178 45.6622Z" fill="#42403E"/>
<path d="M225.354 51.0143C226.036 50.9796 227.025 50.8788 227.659 51.0608L227.692 51.399C226.635 51.9122 226.105 51.9635 225.354 51.0143Z" fill="#EA7D60"/>
<path d="M225.877 46.8086C226.544 47.6534 225.344 48.8105 225.78 50.2044C224.807 49.3934 225.654 48.0227 225.877 46.8086Z" fill="#E1A26A"/>
<path d="M227.502 45.4182C228.351 45.2861 229.175 45.5147 229.657 46.2608C228.867 46.0169 228.422 45.8993 227.611 45.7506L227.502 45.4182Z" fill="#42403E"/>
<path d="M242.581 67.1455C243.3 69.6746 244.82 73.9451 244.407 76.4922C243.936 79.3946 240.824 82.5184 239.676 85.0177C238.028 87.0345 237.99 87.5117 237.556 90.0457C236.048 89.5132 234.082 88.4526 232.842 87.4113C233.638 86.9209 234.38 86.4634 235.204 86.0169C236.332 85.5107 237.628 82.1697 237.89 80.9688C235.954 77.1584 236.569 75.3443 237.4 71.2541L237.865 69.5461L237.748 68.9022C238.408 68.5996 238.673 68.7395 239.367 68.5504C240.569 68.2223 241.5 67.7311 242.581 67.1455Z" fill="#E7B368"/>
<path d="M237.866 69.5449C238.563 70.5638 239.731 74.3571 240.17 75.708C239.536 77.3375 238.736 79.4289 237.89 80.9676C235.955 77.1568 236.57 75.3431 237.4 71.2529L237.866 69.5449Z" fill="#E5F4F4"/>
<path d="M223.99 51.9258L224.072 52.0047C225.656 53.5689 225.321 54.3466 227.949 54.075L228.134 55.3563C228.097 56.2572 228.222 56.5563 227.426 57.0915C224.358 57.5709 223.706 59.2096 222.87 59.353C221.338 56.2173 224.321 55.3523 223.99 51.9258Z" fill="#162323"/>
<path d="M228.133 55.3559C229.523 55.1059 230.592 53.6961 231.539 53.7444C231.771 54.6712 231.872 55.0138 232.26 55.8796C231.651 56.8911 231.469 57.1849 231.118 58.2964C231.097 58.8052 231.181 58.589 230.893 58.9789C229.296 59.8163 227.107 59.3684 227.426 57.0906C228.222 56.556 228.097 56.2568 228.133 55.3559Z" fill="#E7B368"/>
<path d="M237.404 71.2526C236.145 70.624 235.596 66.4308 235.379 65L235.537 64.9395C236.297 65.7005 236.316 68.2805 237.752 68.9007L237.869 69.545L237.404 71.2526Z" fill="#559A85"/>
<path d="M225.408 69.9627C228.412 69.9211 230.101 71.4602 232.624 70.2632C232.939 70.1141 232.9 70.0641 233.274 70.0724C232.088 71.8857 227.048 70.6299 225.408 69.9627Z" fill="#559A85"/>
<path d="M207.957 66.5561C207.253 65.7157 206.114 64.4099 205.98 63.3274L206.204 63.1396C206.826 63.2204 207.132 63.5037 207.56 63.9494C208.887 65.331 210.351 66.625 211.624 68.0501C211.831 68.2808 212.252 69.5659 212.367 69.9063C214.132 70.8687 217.78 72.3907 219.769 73.3149C220.269 71.6648 220.767 69.0558 221.179 67.2864L221.157 67.0517C221.197 67.0684 221.598 67.2395 221.598 67.2395C222.565 69.2247 223.733 71.091 223.822 73.3745C223.852 74.118 223.853 74.8426 223.837 75.5953C223.486 76.162 223.144 76.7335 222.758 77.2757C222.643 77.473 222.511 77.6599 222.363 77.8336C220.288 80.2921 213.3 73.5754 211.226 72.456C210.084 71.8398 208.259 71.7025 207.385 70.7735C205.941 69.2405 206.645 67.7878 207.957 66.5561Z" fill="#E7B368"/>
<path d="M221.16 67.0518C221.2 67.0684 221.601 67.2399 221.601 67.2399C222.568 69.2247 223.736 71.0915 223.825 73.375C223.854 74.118 223.856 74.8426 223.839 75.5953C223.489 76.162 223.147 76.7335 222.76 77.2757C222.198 76.6462 222.292 75.4155 222.473 74.604C223.004 72.2148 221.222 69.255 221.181 67.2869L221.16 67.0518Z" fill="#E1A26A"/>
<path d="M208.129 67.9893C208.457 68.073 209.164 68.0393 209.391 68.3081C209.896 68.9042 210.326 69.5043 210.325 70.2912L210.122 70.3407L209.588 69.7512C209.085 70.214 208.836 70.4872 208.203 70.7807L208.157 70.7469C208.57 69.4297 209.292 68.7744 208.129 67.9893Z" fill="#E1A26A"/>
<path d="M223.054 44.7867C221.74 44.7257 218.613 44.7884 218.141 43.2085C218.659 42.4891 220.135 42.3053 220.997 42.2422C221.904 43.0523 222.651 42.694 223.45 43.2159C223.359 43.6962 223.276 44.3752 223.054 44.7867Z" fill="#532F31"/>
<path d="M245.792 135.622C245.674 136.348 245.812 137.719 246.129 138.389L246.29 138.491C247.07 139.705 247.09 140.95 247.437 142.301C248.61 142.101 250.358 142.573 251.301 143.285C252.26 145.097 246.693 145.789 245.516 145.95C236.466 147.196 226.888 146.142 218.012 144.143C217.474 144.022 216.932 143.573 216.713 143.077C216.963 141.355 220.869 140.988 222.218 141.174C222.277 141.42 222.353 141.598 222.44 141.833C224.429 143.375 229.604 141.581 231.934 141.508C232.691 141.484 233.536 141.296 234.217 140.95C235.769 140.743 238.384 140.652 239.854 141.149L240.012 141.157L240.471 140.577L240.989 140.21L241.381 139.786C241.553 139.172 241.622 138.983 241.905 138.413C242.022 137.7 241.922 136.989 241.645 136.327C243.351 136.258 244.197 136.064 245.792 135.622Z" fill="black" fill-opacity="0.06"/>
<path d="M245.792 135.622C245.674 136.348 245.812 137.719 246.13 138.389L246.291 138.491C247.071 139.705 247.09 140.95 247.437 142.301L247.263 142.599C246.264 143.305 235.798 146.482 236.019 143.773C236.827 142.623 238.053 142.255 239.34 141.679C239.506 141.611 239.646 141.433 239.784 141.293L239.855 141.149L240.013 141.157L240.472 140.577L240.99 140.21L241.381 139.786C241.554 139.172 241.623 138.983 241.906 138.413C242.023 137.7 241.922 136.989 241.646 136.327C243.352 136.258 244.197 136.064 245.792 135.622Z" fill="#2A4649"/>
<path d="M245.789 135.622C245.67 136.348 245.809 137.719 246.126 138.389L246.288 138.491C246.026 138.736 245.901 139.104 245.661 139.286C244.08 140.486 244.123 138.499 242.108 138.42L241.902 138.413C242.019 137.7 241.919 136.989 241.643 136.327C243.348 136.258 244.194 136.064 245.789 135.622Z" fill="#E7B368"/>
<path d="M241.38 139.784C241.998 140.077 242.301 140.064 242.959 140.082L243.026 140.304C242.23 140.869 241.847 140.551 240.988 140.208L241.38 139.784Z" fill="#A7C2B9"/>
<path d="M240.012 141.157C240.9 141.32 241.015 141.356 241.786 141.823L241.117 142.419C240.81 141.893 240.364 141.868 239.783 141.294L239.854 141.149L240.012 141.157Z" fill="#2A4649"/>
<path d="M240.012 141.158L240.471 140.578C241.043 140.854 241.714 141.058 241.91 141.574L241.786 141.823C241.015 141.357 240.9 141.321 240.012 141.158Z" fill="#A7C2B9"/>
<path d="M239.336 141.68C239.502 141.612 239.642 141.433 239.78 141.294C240.361 141.868 240.806 141.893 241.114 142.419C240.51 142.467 239.89 141.999 239.336 141.68Z" fill="#A7C2B9"/>
<path d="M228.87 134.227C230.663 134.293 231.492 134.261 233.241 133.879C232.996 134.471 232.877 136.157 233.312 136.647C233.999 137.953 234.084 139.492 234.218 140.951C233.537 141.296 232.691 141.485 231.935 141.508C229.604 141.582 224.429 143.376 222.441 141.834C222.353 141.598 222.278 141.42 222.219 141.175C223.285 140.087 224.643 139.795 226.097 139.295L226.686 139.696L226.812 139.525L226.885 139.594L226.691 139.678C226.867 139.745 227.134 139.89 227.263 139.84C226.915 139.438 226.819 139.368 226.623 138.887L226.714 138.674C227.166 138.63 227.683 138.928 228.12 139.124C228.049 138.834 227.722 138.536 227.503 138.259L227.783 137.974C228.127 137.734 227.987 137.892 228.147 137.434C228.454 136.822 228.499 136.75 229.055 136.354L229.204 136.107C229.183 135.263 229.104 135.042 228.87 134.227Z" fill="#2A4649"/>
<path d="M228.869 134.227C230.662 134.293 231.491 134.261 233.239 133.879C232.994 134.471 232.876 136.157 233.31 136.647C230.994 139.478 231.244 136.936 229.053 136.354L229.203 136.107C229.181 135.263 229.102 135.042 228.869 134.227Z" fill="#E7B368"/>
<path d="M227.781 137.974C228.125 137.734 227.985 137.892 228.145 137.434C228.821 137.915 229.489 138.408 230.15 138.911C229.42 138.665 228.275 138.12 227.781 137.974Z" fill="#A7C2B9"/>
<path d="M239.674 85.0176C239.735 85.3562 239.706 85.8672 239.737 86.029C241.296 93.9348 241.199 102.06 241.747 110.129C241.935 113.899 243.262 116.758 243.976 120.245C244.337 122.018 246.417 134.841 245.788 135.623C244.193 136.065 243.347 136.259 241.642 136.327C241.918 136.99 242.018 137.701 241.902 138.414C241.619 138.984 241.55 139.173 241.377 139.786L240.985 140.211L240.467 140.578L240.008 141.158L239.85 141.15C238.38 140.653 235.765 140.744 234.214 140.951C234.08 139.492 233.995 137.953 233.307 136.647C232.873 136.157 232.992 134.471 233.237 133.879C231.488 134.261 230.659 134.293 228.866 134.227C227.483 133.077 224.151 110.044 223.506 106.236C223.473 104.002 223.04 100.628 222.866 98.2768C222.568 94.2677 222.493 90.6451 222.453 86.6348C223.004 86.4098 226.769 87.1945 227.899 87.2765C230.631 87.4752 232.761 86.3229 235.202 86.0168C234.378 86.4633 233.636 86.9208 232.84 87.4112C234.08 88.4525 236.046 89.513 237.554 90.0455C237.988 87.5116 238.027 87.0344 239.674 85.0176Z" fill="#003D3A"/>
<path d="M233.238 133.877C233.679 132.932 233.205 120.834 232.872 119.066C231.9 113.909 231.55 111.875 231.964 106.441C232.832 109.885 240.116 135.347 241.493 136.231C241.521 136.249 241.551 136.263 241.579 136.28C241.6 136.294 241.622 136.31 241.643 136.325C241.919 136.988 242.019 137.699 241.903 138.411C241.62 138.982 241.551 139.171 241.378 139.785L240.986 140.209L240.468 140.576L240.01 141.156L239.852 141.148C238.381 140.651 235.766 140.743 234.215 140.949C234.082 139.49 233.996 137.951 233.308 136.645C232.874 136.155 232.993 134.469 233.238 133.877Z" fill="#F2F9F9"/>
<path d="M136.644 125.566C138.153 126.531 139.321 127.251 141.036 127.824C141.675 128.269 143.289 128.711 144.121 129.02C145.166 129.257 147.535 129.878 148.479 129.412C148.144 132.932 150.038 134.343 147.488 138.219C147.424 140.312 147.505 142.505 147.432 144.488C147.429 145.904 147.659 146.72 148.187 148.036C149.319 148.561 150.059 148.77 150.698 149.851C151.524 149.834 154.223 150.076 154.689 150.744C152.59 153.134 99.9536 153.496 96.5879 150.852L96.605 150.53C98.3444 149.18 106.944 149.323 109.637 148.961L109.849 148.931C111.315 149.66 112.682 150.202 114.369 150.09C115.747 149.961 116.489 150.05 117.842 150.188C117.348 149.155 116.821 147.71 115.821 147.215C116.879 136.003 125.131 134.783 132.886 128.883C134.176 127.901 135.457 126.679 136.644 125.566Z" fill="#E7B368"/>
<path d="M133.872 148.294C134.23 148.458 134.834 148.706 135.128 148.936C135.214 149.651 135.373 149.925 135.107 150.493C134.972 150.55 133.811 150.982 133.84 150.965C133.7 150.222 133.42 149.724 133.1 149.043L133.872 148.294Z" fill="#F3E7C7"/>
<path d="M144.12 129.021C145.165 129.258 147.534 129.879 148.478 129.413C148.143 132.933 150.037 134.345 147.487 138.22C145.903 140.17 144.453 141.516 142.333 142.901C142.252 139.875 143.146 137.635 143.004 134.746C142.877 132.151 143.065 131.368 144.12 129.021Z" fill="#F3E7C7"/>
<path d="M133.78 143.925L134.32 144.571L136.342 144.406C136.404 144.887 136.468 145.536 136.569 145.996C136.082 146.096 134.966 146.298 134.548 146.442C134.178 146.968 133.473 147.691 133.434 148.14L133.869 148.295L133.097 149.044C132.333 148.609 131.324 148.536 130.438 148.41L131.269 147.391C132.077 146.482 132.317 145.403 132.025 144.238C132.42 144.111 133.333 143.995 133.78 143.925Z" fill="#F3E7C7"/>
<path d="M132.026 144.238L131.746 144.301C131.593 143.808 131.428 143.318 131.252 142.832C129.47 138.033 127.093 140.125 125.469 139.374L125.473 139.214C128.103 138.86 129.614 139.153 131.618 141.046C132.164 141.562 133.628 143.253 133.782 143.925C133.334 143.995 132.422 144.112 132.026 144.238Z" fill="#CE9B4B"/>
<path d="M142.35 143.291C144.065 144.387 143.806 147.238 145.442 148.878L145.451 149.03C144.763 149.134 144.584 149.13 143.887 149.082C142.278 148.096 142.342 144.99 142.35 143.291Z" fill="#70A49D"/>
<path d="M136.701 144.38C136.315 144.124 136.265 144.191 136.192 143.649C136.043 142.549 135.633 139.215 135.93 138.309C136.261 138.812 137.992 143.796 137.67 144.172L136.701 144.38Z" fill="#CE9B4B"/>
<path d="M145.449 149.029C145.767 149.496 146.069 149.942 146.409 150.395L145.131 150.888C144.82 150.319 144.275 149.62 143.885 149.081C144.581 149.129 144.761 149.133 145.449 149.029Z" fill="#70A49D"/>
<path d="M130.439 148.409C129.865 148.547 129.746 148.565 129.156 148.557L129.148 148.349C129.742 147.837 130.143 147.641 130.824 147.261L131.27 147.391L130.439 148.409Z" fill="#CE9B4B"/>
<path d="M137.707 110.81C137.916 110.155 138.057 109.634 138.672 109.321C139.394 109.658 139.545 110.151 140.099 110.857C140.491 110.254 140.708 109.776 141.334 109.452C142.366 109.628 142.573 112.02 142.793 113.035C143.778 113.785 145.87 113.215 146.854 112.512C147.697 113.27 148.554 114.79 149.598 115.849C150.85 115.968 153.324 115.737 153.897 115.831C154.593 115.69 155.177 115.486 155.828 115.7C156.302 116.353 156.149 116.722 156.014 117.604C155.845 118.344 155.381 119.919 154.604 120.176L154.358 120.384C152.383 124.192 148.307 122.169 148.501 127.95L148.477 129.413C147.533 129.88 145.164 129.258 144.119 129.022C143.287 128.712 141.673 128.27 141.034 127.826L141.271 127.697C142.106 127.98 143.418 128.511 144.264 128.379L144.887 127.876L145.191 127.651C143.616 127.499 139.679 126.338 138.872 124.899C138.723 124.751 137.662 124.071 137.419 123.91C138.836 117.993 135.787 117.312 137.707 110.81Z" fill="#E7B368"/>
<path d="M153.896 115.83C154.592 115.69 155.176 115.486 155.828 115.699C156.302 116.352 156.149 116.721 156.013 117.603C155.844 118.343 155.38 119.918 154.604 120.175L154.357 120.383C152.382 124.191 148.306 122.168 148.5 127.949L148.476 129.412C147.532 129.879 145.164 129.257 144.119 129.021C141.598 128.681 136.758 125.777 136.758 125.777L137.726 123.841C137.726 123.841 142.598 126.643 145.108 127.395C145.493 125.837 146.095 124.847 146.481 123.436C146.727 122.539 146.42 121.304 146.996 120.209C147.96 118.377 148.926 117.844 149.597 115.848C150.85 115.967 153.323 115.736 153.896 115.83Z" fill="#F3E7C7"/>
<path d="M153.896 115.83C154.593 115.69 155.176 115.486 155.828 115.699C156.302 116.352 156.149 116.721 156.014 117.603C154.821 117.397 154.101 117.094 153.896 115.83Z" fill="#42403E"/>
<path d="M150.633 121.343C151.529 121.13 154.098 120.194 154.606 120.175L154.36 120.383C153.055 121.251 152.13 121.434 150.633 121.343Z" fill="#C29368"/>
<path d="M137.709 110.81C137.918 110.155 138.059 109.634 138.674 109.321C139.396 109.658 139.548 110.151 140.101 110.857C140.493 110.254 140.711 109.776 141.336 109.452C142.368 109.628 142.575 112.02 142.795 113.035C142.677 113.324 142.492 113.812 142.361 114.074C141.071 115.748 140.059 117.824 138.884 119.205C138.386 116.697 137.754 114.05 138.239 111.524L137.709 110.81Z" fill="#C29368"/>
<path d="M140.099 110.856C140.492 110.253 140.709 109.775 141.335 109.451C142.367 109.627 142.574 112.019 142.794 113.034C142.675 113.323 142.491 113.811 142.359 114.073C141.796 113.721 140.494 112.044 139.99 111.428L140.099 110.856Z" fill="#CE9B4B"/>
<path d="M137.709 110.81C137.918 110.155 138.059 109.634 138.674 109.321C139.396 109.658 139.548 110.151 140.101 110.857L139.992 111.429C139.419 110.932 139.366 110.709 138.723 110.639C138.374 111.036 138.393 111.015 138.239 111.524L137.709 110.81Z" fill="#E1A26A"/>
<path d="M109.849 148.932C109.041 148.123 108.521 147.442 108.34 146.27C108.205 145.334 108.458 144.384 109.039 143.639C109.58 142.942 110.378 142.49 111.254 142.384C112.497 143.365 109.318 146.507 115.82 147.215C116.82 147.71 117.347 149.155 117.842 150.188C116.489 150.05 115.747 149.961 114.369 150.091C112.681 150.202 111.315 149.66 109.849 148.932Z" fill="#CE9B4B"/>
<path d="M133.871 148.294C134.229 148.458 134.834 148.706 135.128 148.936C136.089 148.982 138.996 149.192 139.747 148.993C140.967 151.253 142.674 151.648 145.134 150.887L146.412 150.394C147.606 150.954 149.946 151.201 150.698 149.851C151.524 149.835 154.223 150.077 154.689 150.745C152.59 153.135 99.9536 153.496 96.5879 150.853L96.605 150.531C98.3444 149.181 106.944 149.323 109.637 148.961L109.849 148.932C111.315 149.661 112.682 150.202 114.369 150.091C118.732 150.453 122.68 151.493 127.118 151.164C129.094 151.017 131.943 151.388 133.84 150.965C133.7 150.222 133.42 149.724 133.099 149.043L133.871 148.294Z" fill="#EEF7EC"/>
<path d="M133.871 148.294C134.229 148.458 134.834 148.706 135.128 148.936C136.089 148.982 138.996 149.192 139.747 148.993C140.967 151.253 142.674 151.648 145.134 150.887L146.412 150.394C147.606 150.954 149.946 151.201 150.698 149.851C151.524 149.835 154.223 150.077 154.689 150.745C152.59 153.135 99.9536 153.496 96.5879 150.853L96.605 150.531C98.3444 149.181 106.944 149.323 109.637 148.961L109.849 148.932C111.315 149.661 112.682 150.202 114.369 150.091C118.732 150.453 122.68 151.493 127.118 151.164C129.094 151.017 131.943 151.388 133.84 150.965C133.7 150.222 133.42 149.724 133.099 149.043L133.871 148.294Z" fill="#DCE3E3"/>
<path d="M145.441 148.876C147.31 147.99 146.414 144.579 147.173 143.646L147.431 144.488C147.428 145.903 147.658 146.72 148.186 148.036C149.318 148.561 150.058 148.77 150.697 149.851C149.945 151.2 147.605 150.954 146.411 150.394C146.07 149.941 145.769 149.495 145.45 149.028L145.441 148.876Z" fill="#CE9B4B"/>
<path d="M137.669 144.172C138.09 144.56 138.113 144.791 138.31 145.353C137.628 145.662 137.315 145.817 136.568 145.996C136.468 145.535 136.404 144.887 136.342 144.405L136.701 144.381L137.669 144.172Z" fill="#70A49D"/>
<path d="M105.506 55.8366C107.328 49.1365 110.791 44.0346 116.931 40.5352C122.564 37.3948 129.205 36.5938 135.422 38.3049C141.477 39.9943 146.614 44.019 149.704 49.4945C151.586 52.8584 152.84 57.3106 152.583 61.1898C152.062 60.9736 151.072 60.0891 150.505 59.7342C143.706 55.4743 136.781 56.6868 131.066 61.7339C126.435 54.4307 118.056 51.4071 109.821 54.0108C108.33 54.4823 107.09 55.2484 105.662 55.7798L105.506 55.8366Z" fill="#7AADAA"/>
<path d="M105.506 55.8366C107.328 49.1365 110.791 44.0346 116.931 40.5352C122.564 37.3948 129.205 36.5938 135.422 38.3049C141.477 39.9943 146.614 44.019 149.704 49.4945C151.586 52.8584 152.84 57.3106 152.583 61.1898C152.062 60.9736 151.072 60.0891 150.505 59.7342C143.706 55.4743 136.781 56.6868 131.066 61.7339C126.435 54.4307 118.056 51.4071 109.821 54.0108C108.33 54.4823 107.09 55.2484 105.662 55.7798L105.506 55.8366Z" fill="black" fill-opacity="0.2"/>
<path d="M105.505 55.8356C107.327 49.1356 110.79 44.0336 116.93 40.5342C122.563 37.3938 129.204 36.5928 135.421 38.3039C141.477 39.9934 146.613 44.018 149.703 49.4936C151.586 52.8574 152.839 57.3096 152.582 61.1888C155.911 65.2099 157.859 68.185 157.309 73.8775C156.899 78.0452 154.834 81.8738 151.576 84.5037C146.663 88.4543 138.981 89.016 133.646 85.59C132.763 85.9887 131.827 86.4366 130.913 86.7399L130.75 86.788C130.749 92.8914 130.669 99.2109 130.781 105.296C130.705 106.722 131.057 108.495 130.296 109.408C129.155 110.138 127.746 109.564 127.3 108.238L127.331 106.199C127.443 99.7176 127.334 93.0008 127.307 86.5079C126.771 86.4257 126.056 86.2358 125.512 86.11L125.199 86.178C121.67 88.4107 117.477 89.3553 113.332 88.852C108.646 88.3092 104.364 85.9373 101.418 82.2527C98.3841 78.4464 97.0228 73.5722 97.6461 68.7442C98.346 63.1363 101 59.5515 105.275 56.1973L105.505 55.8356Z" fill="#7AADAA"/>
<path d="M152.582 61.1885C155.911 65.2095 157.859 68.1847 157.308 73.8772C156.899 78.0449 154.833 81.8735 151.576 84.5033C146.663 88.4539 138.981 89.0156 133.646 85.5897C132.762 85.9883 131.827 86.4362 130.913 86.7396L130.75 86.7877C130.725 85.7509 130.736 85.0906 130.82 84.0591C131.573 84.2775 132.922 85.6583 133.439 85.4829C134.716 85.1688 136.253 83.2383 137.386 82.8251C144.011 80.4088 148.845 75.415 151.254 68.8043C151.864 67.1306 152.904 63.0301 152.582 61.1885Z" fill="#7AADAA"/>
<path d="M152.582 61.1885C155.911 65.2095 157.859 68.1847 157.308 73.8772C156.899 78.0449 154.833 81.8735 151.576 84.5033C146.663 88.4539 138.981 89.0156 133.646 85.5897C132.762 85.9883 131.827 86.4362 130.913 86.7396L130.75 86.7877C130.725 85.7509 130.736 85.0906 130.82 84.0591C131.573 84.2775 132.922 85.6583 133.439 85.4829C134.716 85.1688 136.253 83.2383 137.386 82.8251C144.011 80.4088 148.845 75.415 151.254 68.8043C151.864 67.1306 152.904 63.0301 152.582 61.1885Z" fill="black" fill-opacity="0.03"/>
<path d="M130.864 81.831L131.073 81.7039C132.339 80.9233 134.464 78.6787 135.325 78.5734C134.864 80.226 134.531 79.7333 134.184 82.0452C133.212 83.0889 132.405 84.2581 130.822 84.0598C130.739 85.0914 130.728 85.7516 130.752 86.7884C130.751 92.8918 130.671 99.2113 130.782 105.297C130.707 106.722 131.059 108.496 130.298 109.408C129.157 110.139 127.748 109.564 127.302 108.239L127.333 106.2C127.445 99.718 127.336 93.0012 127.309 86.5083C127.331 85.6961 127.31 85.5047 127.181 84.7161L126.764 84.5966C124.825 83.8064 123.971 83.2647 122.497 81.8286C124.334 82.3502 125.575 82.9152 127.143 84.0017C127.191 83.7399 127.32 83.4642 127.13 83.2966C125.222 81.6144 123.71 80.6524 122.348 78.3818C124.483 79.4386 125.386 80.824 127.341 81.6749C129.145 81.026 128.843 79.9685 130.864 81.831Z" fill="#D2C8B9"/>
<path d="M130.782 105.297C130.927 106.345 130.937 107.12 130.957 108.183C132.703 108.243 135.128 108.121 136.503 109.137L136.547 109.475C135.071 110.818 123.816 110.663 121.792 109.742L121.529 109.427C122.14 108.109 125.986 108.209 127.302 108.239C127.748 109.564 129.157 110.139 130.298 109.408C131.059 108.496 130.707 106.722 130.782 105.297Z" fill="#A0AAA0"/>
<path d="M105.275 56.1973C105.166 57.8675 104.954 59.8412 104.992 61.4749C105.13 66.9247 107.178 72.1525 110.779 76.2441C114.112 80.032 116.973 81.4973 121.451 83.5424C122.687 84.1064 122.964 85.4569 125.199 86.178C121.67 88.4107 117.477 89.3552 113.332 88.852C108.646 88.3092 104.364 85.9373 101.418 82.2527C98.3841 78.4464 97.0228 73.5721 97.6461 68.7442C98.346 63.1363 101 59.5515 105.275 56.1973Z" fill="#7AADAA"/>
<path d="M105.275 56.1973C105.166 57.8675 104.954 59.8412 104.992 61.4749C105.13 66.9247 107.178 72.1525 110.779 76.2441C114.112 80.032 116.973 81.4973 121.451 83.5424C122.687 84.1064 122.964 85.4569 125.199 86.178C121.67 88.4107 117.477 89.3552 113.332 88.852C108.646 88.3092 104.364 85.9373 101.418 82.2527C98.3841 78.4464 97.0228 73.5721 97.6461 68.7442C98.346 63.1363 101 59.5515 105.275 56.1973Z" fill="black" fill-opacity="0.03"/>
</svg>
