<svg width="293" height="109" viewBox="0 0 293 109" fill="none" xmlns="http://www.w3.org/2000/svg">
<path d="M193.965 30.2448C196.29 30.0522 200.781 30.1782 203.253 30.1782L220.69 30.2086C220.63 32.5468 221.135 38.4373 220.253 40.2066C219.34 42.037 217.784 44.2839 216.874 46.802C214.461 53.3112 214.574 60.9495 216.73 67.513C217.279 70.0072 220.742 74.3257 220.66 76.5515C220.461 82.0042 221.111 88.9237 220.544 94.2294C220.446 95.1971 220.204 96.1446 219.825 97.0404C218.643 99.8837 216.08 102.712 213.207 103.897C209.944 105.243 206.186 104.97 202.708 104.963L192.635 104.951L180.207 104.96C178.656 104.961 170.796 105.449 170.397 103.81C169.762 101.199 171.064 97.2466 172.221 94.8125C174.759 90.1721 180.672 89.4383 185.382 90.2635C189.986 91.0786 193.618 93.7931 198.457 93.578C204.733 93.2989 205.248 87.013 204.902 82.022C202.55 83.4089 197.876 84.2153 195.065 84.3545C165.407 85.8222 155.073 46.7324 181.321 33.0089C185.366 30.8945 189.394 30.4492 193.965 30.2448Z" fill="#252626"/>
<path d="M191.339 41.512C195.828 41.4328 199.529 45.0118 199.601 49.5009C199.672 53.9901 196.088 57.6854 191.598 57.7496C187.119 57.8138 183.435 54.239 183.363 49.7603C183.292 45.2817 186.861 41.591 191.339 41.512Z" fill="white"/>
<path d="M141.967 30.2451C145.236 30.1075 148.892 30.1778 152.194 30.1803L168.651 30.2055C168.619 31.7905 168.867 39.2193 168.29 40.0963C161.961 49.6929 161.09 61.7067 166.698 71.8547C167.403 73.1312 168.522 74.6789 168.576 76.1567C168.739 80.5446 168.619 84.9589 168.646 89.352C168.658 91.2102 168.629 93.1007 168.445 94.9499C167.987 98.5033 164.58 102.358 161.429 103.782C160.179 104.34 158.847 104.693 157.484 104.826C155.323 105.023 152.791 104.961 150.584 104.959L140.539 104.959L128.14 104.96C125.858 104.959 120.804 105.195 118.83 104.443C117.09 102.829 119.36 96.6944 120.208 94.8695C123.015 89.5399 130.417 89.1861 135.536 90.7936C140.065 92.2158 146.942 95.9178 150.941 91.5837C153.057 89.291 153.158 85.0548 152.961 82.0912C150.481 83.3805 145.897 84.1817 143.044 84.3618C118.376 85.9151 104.852 56.6888 121.593 38.7135C127.376 32.5041 133.716 30.6169 141.967 30.2451Z" fill="#252626"/>
<path d="M137.913 41.674C142.309 40.8275 146.56 43.7067 147.404 48.1042C148.249 52.5015 145.369 56.7511 140.972 57.5946C136.576 58.4377 132.33 55.5588 131.485 51.1635C130.64 46.7681 133.518 42.5201 137.913 41.674Z" fill="white"/>
<path d="M58.3367 7.45594C58.554 7.43972 58.7717 7.42782 58.9895 7.42019C62.2251 7.31674 63.6396 10.8417 63.9739 13.5445C64.854 20.6911 64.4086 28.0087 64.5423 35.2034C64.4466 37.1513 64.9109 39.4569 63.7327 41.1532C58.0399 49.3498 57.6909 61.1786 61.7002 70.1482C62.2388 71.5245 64.1578 73.7027 64.3631 75.1159C64.6972 77.4169 64.5547 80.5712 64.5992 82.9526C59.2525 83.1043 53.8436 83.0099 48.4974 83.0267C37.6221 83.0609 29.3323 83.4404 18.8306 79.9712C16.4302 79.1791 12.7169 77.0171 10.9064 75.2542C3.19346 68.1207 4.42594 58.8852 4.05117 49.4394C3.76148 42.1377 12.246 42.6791 17.4785 42.5874C22.927 32.9529 31.1035 31.0593 41.2934 30.1843C42.5359 27.3054 43.934 24.4961 45.4812 21.769C47.7736 17.7288 51.3879 12.114 55.0047 9.04511C55.9717 8.22453 57.1267 7.78978 58.3367 7.45594Z" fill="#252626"/>
<path d="M35.2106 41.542C37.2754 41.5456 38.8506 41.9791 40.491 43.3175C42.1623 44.6907 43.2264 46.6663 43.4531 48.8175C43.8726 53.0053 40.9203 57.2358 36.5353 57.5836C33.2975 57.8404 32.1813 57.4938 29.7377 55.4677C28.6645 54.4332 28.1421 53.7973 27.4092 52.5048C28.068 52.8139 28.7795 53.129 29.4873 53.3056C31.5925 53.8304 33.7447 52.4491 34.1756 50.3312C34.3649 49.3801 34.1682 48.3928 33.6288 47.5871C33.101 46.783 32.2754 46.2216 31.3338 46.026C29.8311 45.7116 28.7561 46.2629 27.5595 47.0502C29.176 43.546 31.3402 41.8265 35.2106 41.542Z" fill="white"/>
<path d="M285.571 23.9215C289.067 23.7032 286.295 28.3813 285.462 29.7464C281.884 35.6176 274.413 40.0775 267.83 41.6321C269.823 45.2124 271.116 47.4128 271.954 51.4879C273.5 58.7425 272.084 66.314 268.023 72.5209C260.011 84.6768 243.324 87.9572 231.109 80.4388C230.638 80.1492 230.176 79.8523 229.716 79.5472C224.561 75.8392 220.814 70.4944 219.087 64.3838C217.34 58.0628 218.287 49.9946 221.624 44.2873C233.422 24.11 251.972 32.3574 270.933 29.5207C274.241 29.0256 277.431 28.1676 280.382 26.5937C282.271 25.5859 283.487 24.4996 285.571 23.9215Z" fill="#252626"/>
<path d="M243.301 41.5123C247.774 41.4257 251.476 44.9751 251.576 49.449C251.676 53.9227 248.137 57.6344 243.665 57.7483C239.172 57.8627 235.442 54.3061 235.34 49.8129C235.24 45.3197 238.807 41.5993 243.301 41.5123Z" fill="white"/>
<path d="M87.4882 30.3852C90.6391 29.9289 96.3287 30.907 99.3052 32.0386C105.022 34.212 110.993 39.3907 113.517 45.0036C110.308 53.9831 109.916 60.658 113.596 69.6212C112.953 71.0678 111.425 73.4217 110.363 74.6237C104.779 80.9449 99.2912 83.6546 91.0647 84.3905C85.3585 84.4433 80.961 83.8964 75.9043 80.9423C53.01 67.5678 60.1844 32.5643 87.4882 30.3852Z" fill="#252626"/>
<path d="M87.4233 41.5264C91.8534 41.5399 95.452 45.108 95.5035 49.538C95.5551 53.9683 92.0406 57.6191 87.6119 57.7358C84.6887 57.8127 81.9506 56.3091 80.4468 53.8011C78.9431 51.2929 78.9068 48.1693 80.3517 45.6269C81.7967 43.0844 84.499 41.5175 87.4233 41.5264Z" fill="white"/>
</svg>
